<?xml version="1.0" encoding="UTF-8"?>
<svg width="24px" height="24px" viewBox="0 0 24 24" version="1.1" xmlns="http://www.w3.org/2000/svg" xmlns:xlink="http://www.w3.org/1999/xlink">
    <!-- Generator: Sketch 52.4 (67378) - http://www.bohemiancoding.com/sketch -->
    <title>c3p-arrow-down-circle</title>
    <desc>Created with Sketch.</desc>
    <g id="Page-1" stroke="none" stroke-width="1" fill="none" fill-rule="evenodd">
        <g id="C3p-icon-pack" transform="translate(-1677.000000, -248.000000)" fill="#000000">
            <g id="Group" transform="translate(63.000000, 86.000000)">
                <g id="c3p-arrow-down-circle" transform="translate(1614.000000, 162.000000)">
                    <path d="M11.1712423,15.3622423 L11.1712423,6.76775769 C11.1712423,6.37075769 11.4982423,6.04675769 11.8992423,6.04675769 C12.2962423,6.04675769 12.6192423,6.37075769 12.6202423,6.76775769 L12.6202423,15.3632423 L15.6042423,12.3792423 C15.7392423,12.2442423 15.9202423,12.1692423 16.1132423,12.1692423 C16.3082423,12.1692423 16.4882423,12.2442423 16.6242423,12.3792423 C16.7622423,12.5172423 16.8382423,12.7012423 16.8382423,12.8942423 C16.8382423,13.0902423 16.7612423,13.2732423 16.6242423,13.4052423 L12.4082423,17.6212423 C12.2732423,17.7612423 12.0912423,17.8382423 11.8962423,17.8382423 C11.7002423,17.8382423 11.5182423,17.7612423 11.3852423,17.6232423 L7.17024231,13.4092423 C7.03024231,13.2732423 6.95324231,13.0902423 6.95324231,12.8952423 C6.95324231,12.7012423 7.02924231,12.5172423 7.16724231,12.3792423 C7.44424231,12.1012423 7.90424231,12.0992423 8.19324231,12.3792423 L11.1712423,15.3622423 Z M11.85312,22.1784738 C17.5536738,22.1784738 22.1915815,17.5176738 22.1915815,11.81712 C22.1915815,6.11619692 17.5536738,1.47828923 11.85312,1.47828923 C6.15256615,1.47828923 1.51465846,6.11619692 1.51465846,11.81712 C1.51465846,17.5176738 6.15256615,22.1784738 11.85312,22.1784738 Z M23.6685046,11.81712 C23.6685046,18.3425354 18.3785354,23.6325046 11.85312,23.6325046 C5.32733538,23.6325046 0.0377353846,18.3425354 0.0377353846,11.81712 C0.0377353846,5.29170462 5.32733538,0.00136615385 11.85312,0.00136615385 C18.3785354,0.00136615385 23.6685046,5.29170462 23.6685046,11.81712 Z" id="Shape"></path>
                </g>
            </g>
        </g>
    </g>
</svg>