<?xml version="1.0" encoding="UTF-8"?>
<svg width="24px" height="24px" viewBox="0 0 24 24" version="1.1" xmlns="http://www.w3.org/2000/svg" xmlns:xlink="http://www.w3.org/1999/xlink">
    <!-- Generator: Sketch 52.4 (67378) - http://www.bohemiancoding.com/sketch -->
    <title>c3p-pin</title>
    <desc>Created with Sketch.</desc>
    <defs>
        <path d="M16.5280985,7.43527385 C15.1080369,6.01521231 14.5608369,4.43232 14.8506831,2.52265846 L21.4717292,9.17841231 C19.5642831,9.45164308 17.9732677,8.88044308 16.5280985,7.43527385 Z M13.8880985,13.1601969 C13.4996677,12.5668431 13.0462523,12.0026585 12.5256369,11.4816738 C12.0072369,10.9632738 11.4408369,10.5065354 10.8423138,10.1125662 L14.1679754,6.78727385 C14.5072985,7.37730462 14.9452062,7.94112 15.4839138,8.47945846 C16.0344369,9.02961231 16.6167138,9.47490462 17.22816,9.81976615 L13.8880985,13.1601969 Z M13.9556677,19.3355815 L4.66065231,9.98038154 C7.04625231,9.70198154 9.61868308,10.6630892 11.4814523,12.5258585 C13.3349908,14.3793969 14.2392369,16.9407508 13.9556677,19.3355815 Z M14.9603446,0.53952 C14.7772062,0.355643077 14.5132062,0.280689231 14.2606523,0.343458462 C14.0092062,0.404750769 13.8087138,0.593796923 13.7315446,0.841181538 C13.2205292,2.48684308 13.1610831,3.97595077 13.5517292,5.33398154 C13.5159138,5.35872 13.4812062,5.38567385 13.4494523,5.41742769 L9.50089846,9.36561231 C8.22705231,8.77484308 6.85757538,8.45508923 5.49216,8.45508923 C4.62483692,8.45508923 3.77376,8.58321231 2.96403692,8.83502769 C2.71739077,8.91219692 2.52834462,9.11195077 2.46631385,9.36228923 C2.40428308,9.61299692 2.47702154,9.87773538 2.65942154,10.0608738 L7.71271385,15.1470277 L0.647483077,22.3248738 L0.0330830769,23.9432123 L1.51886769,23.3690585 L8.75025231,16.1908431 L13.8692677,21.3434585 C14.0092062,21.4848738 14.1986215,21.5613046 14.3928369,21.5613046 C14.4511754,21.5613046 14.5102523,21.55392 14.5685908,21.5402585 C14.8204062,21.4782277 15.0208985,21.2891815 15.0980677,21.0421662 C15.7663754,18.8906585 15.5706831,16.5803815 14.6284062,14.5082585 L18.6600369,10.4758892 C18.6740677,10.4618585 18.6847754,10.4452431 18.6976985,10.4301046 C19.3061908,10.6043815 19.9368369,10.6970585 20.5911138,10.6970585 C21.4037908,10.6970585 22.2655754,10.5803815 23.1517292,10.3045662 C23.3983754,10.2281354 23.5874215,10.0276431 23.6494523,9.77767385 C23.7114831,9.52659692 23.6387446,9.26185846 23.4563446,9.07872 L14.9603446,0.53952 Z" id="path-1"></path>
    </defs>
    <g id="Page-1" stroke="none" stroke-width="1" fill="none" fill-rule="evenodd">
        <g id="C3p-icon-pack" transform="translate(-1005.000000, -201.000000)">
            <g id="Group" transform="translate(63.000000, 86.000000)">
                <g id="c3p-pin" transform="translate(942.000000, 115.000000)">
                    <mask id="mask-2" fill="white">
                        <use xlink:href="#path-1"></use>
                    </mask>
                    <use id="Mask" fill="#000000" xlink:href="#path-1"></use>
                </g>
            </g>
        </g>
    </g>
</svg>