<?xml version="1.0" encoding="UTF-8"?>
<svg width="24px" height="24px" viewBox="0 0 24 24" version="1.1" xmlns="http://www.w3.org/2000/svg" xmlns:xlink="http://www.w3.org/1999/xlink">
    <!-- Generator: Sketch 52.4 (67378) - http://www.bohemiancoding.com/sketch -->
    <title>c3p-arrows-right</title>
    <desc>Created with Sketch.</desc>
    <defs>
        <path d="M12.8066731,7.55127771 C12.6357057,7.38031032 12.5426793,7.15402994 12.5426793,6.91014997 C12.5426793,6.66627001 12.6357057,6.43873251 12.8066731,6.26776512 C12.9801547,6.0955406 13.2102064,6 13.4540864,6 C13.7004806,6 13.9305323,6.09679772 14.0964713,6.26776512 L19.3952035,11.5677545 C19.5711993,11.7387219 19.6679971,11.9675165 19.6679971,12.2126535 C19.6692542,12.4577906 19.5711993,12.6878423 19.3989748,12.8537813 L14.1002426,18.1537706 C13.9305323,18.3297665 13.7004806,18.4265642 13.4540864,18.4265642 C13.2102064,18.4265642 12.9801547,18.3310236 12.8066731,18.157542 C12.4559385,17.8080645 12.4546814,17.2310495 12.8066731,16.8664867 L17.4781058,12.206368 L12.8066731,7.55127771 Z M5.26399378,7.55127771 C5.09302638,7.38031032 5,7.15402994 5,6.91014997 C5,6.66627001 5.09302638,6.43873251 5.26399378,6.26776512 C5.4374754,6.0955406 5.66752712,6 5.91140708,6 C6.15780128,6 6.387853,6.09679772 6.55379194,6.26776512 L11.8525242,11.5677545 C12.02852,11.7387219 12.1253177,11.9675165 12.1253177,12.2126535 C12.1265748,12.4577906 12.02852,12.6878423 11.8562955,12.8537813 L6.55756328,18.1537706 C6.387853,18.3297665 6.15780128,18.4265642 5.91140708,18.4265642 C5.66752712,18.4265642 5.4374754,18.3310236 5.26399378,18.157542 C4.91325919,17.8080645 4.91200207,17.2310495 5.26399378,16.8664867 L9.9354265,12.206368 L5.26399378,7.55127771 Z" id="path-1"></path>
    </defs>
    <g id="Page-1" stroke="none" stroke-width="1" fill="none" fill-rule="evenodd">
        <g id="C3p-icon-pack" transform="translate(-1677.000000, -356.000000)">
            <g id="Group" transform="translate(63.000000, 86.000000)">
                <g id="c3p-arrows-right" transform="translate(1614.000000, 270.000000)">
                    <mask id="mask-2" fill="white">
                        <use xlink:href="#path-1"></use>
                    </mask>
                    <use id="Shape" fill="#000000" xlink:href="#path-1"></use>
                </g>
            </g>
        </g>
    </g>
</svg>