<?xml version="1.0" encoding="UTF-8"?>
<svg width="24px" height="24px" viewBox="0 0 24 24" version="1.1" xmlns="http://www.w3.org/2000/svg" xmlns:xlink="http://www.w3.org/1999/xlink">
    <!-- Generator: Sketch 52.4 (67378) - http://www.bohemiancoding.com/sketch -->
    <title>c3p-magnet</title>
    <desc>Created with Sketch.</desc>
    <defs>
        <path d="M2.82505455,6.18858182 L6.46905455,6.18858182 L6.46905455,13.0973091 C6.46905455,16.0929455 8.76105455,18.5213091 11.7566909,18.5213091 C14.7526909,18.5213091 16.6356,16.0929455 16.6356,13.0973091 L16.6356,6.18858182 L20.2868727,6.18858182 L20.2868727,13.4311273 C20.2868727,18.2762182 16.3905091,22.2187636 11.5446909,22.2187636 C6.69850909,22.2187636 2.82505455,18.2762182 2.82505455,13.4311273 L2.82505455,6.18858182 Z M2.82505455,4.73403636 L6.46723636,4.73403636 L6.46723636,1.81730909 L2.82505455,1.81730909 L2.82505455,4.73403636 Z M16.6432364,4.73403636 L20.2854182,4.73403636 L20.2854182,1.81730909 L16.6432364,1.81730909 L16.6432364,4.73403636 Z M11.5446909,23.6733091 C17.2006909,23.6733091 21.7414182,19.0882182 21.7414182,13.4311273 L21.7414182,1.74930909 L21.7399636,1.74930909 L21.7399636,1.09003636 C21.7399636,0.688218182 21.4145091,0.362763636 21.0126909,0.362763636 L15.9076,0.362763636 C15.5054182,0.362763636 15.1803273,0.688218182 15.1803273,1.09003636 L15.1803273,4.05985455 C15.1803273,4.06058182 15.1810545,4.06167273 15.1810545,4.06276364 L15.1810545,13.0973091 C15.1810545,15.2864 13.9457818,17.0667636 11.7566909,17.0667636 C9.56796364,17.0667636 7.9236,15.2864 7.9236,13.0973091 L7.9236,1.74930909 L7.92178182,1.74930909 L7.92178182,1.09003636 C7.92178182,0.688218182 7.59632727,0.362763636 7.19450909,0.362763636 L2.08941818,0.362763636 C1.68723636,0.362763636 1.36214545,0.688218182 1.36214545,1.09003636 L1.36214545,4.05985455 C1.36214545,4.07476364 1.36941818,4.08712727 1.37050909,4.10167273 L1.37050909,13.4311273 C1.37050909,19.0882182 5.88832727,23.6733091 11.5446909,23.6733091 Z" id="path-1"></path>
    </defs>
    <g id="Page-1" stroke="none" stroke-width="1" fill="none" fill-rule="evenodd">
        <g id="C3p-icon-pack" transform="translate(-1395.000000, -302.000000)">
            <g id="Group" transform="translate(63.000000, 86.000000)">
                <g id="c3p-magnet" transform="translate(1332.000000, 216.000000)">
                    <mask id="mask-2" fill="white">
                        <use xlink:href="#path-1"></use>
                    </mask>
                    <use id="Mask" fill="#000000" xlink:href="#path-1"></use>
                </g>
            </g>
        </g>
    </g>
</svg>