<?xml version="1.0" encoding="UTF-8"?>
<svg width="24px" height="24px" viewBox="0 0 24 24" version="1.1" xmlns="http://www.w3.org/2000/svg" xmlns:xlink="http://www.w3.org/1999/xlink">
    <!-- Generator: Sketch 52.4 (67378) - http://www.bohemiancoding.com/sketch -->
    <title>c3p-social-media-dropbox</title>
    <desc>Created with Sketch.</desc>
    <defs>
        <path d="M18.3679015,7.79316923 L13.1215015,4.37852308 L16.4076554,1.72043077 L21.6802708,5.01101538 L18.3679015,7.79316923 Z M21.1319631,11.7867692 L16.1004554,15.1408615 L13.1599015,12.8808 L18.3752862,9.61273846 L21.1319631,11.7867692 Z M18.4723938,17.5604308 L12.5591631,20.9226462 L12.5591631,14.2812923 L15.6204554,16.6344 C15.7522708,16.7363077 15.9117785,16.7872615 16.0701785,16.7872615 C16.2130708,16.7872615 16.3559631,16.7462769 16.4800246,16.6632 L18.4723938,15.3350769 L18.4723938,17.5604308 Z M11.8675938,11.9477538 L6.68248615,8.69889231 L11.8675938,5.32449231 L17.0523323,8.69889231 L11.8675938,11.9477538 Z M11.08224,20.8757538 L5.17565538,17.5596923 L5.17565538,15.2889231 L7.23744,16.6632 C7.49922462,16.8378462 7.84482462,16.8264 8.09590154,16.6351385 L11.08224,14.3496 L11.08224,20.8757538 Z M2.58697846,11.7882462 L5.35842462,9.612 L10.5730708,12.8793231 L7.61774769,15.1416 L2.58697846,11.7882462 Z M2.05528615,5.01101538 L7.32790154,1.72043077 L10.6133169,4.37852308 L5.36691692,7.79316923 L2.05528615,5.01101538 Z M23.3244554,4.29544615 L16.7432862,0.188492308 C16.4755938,0.0219692308 16.1329477,0.0430153846 15.8877785,0.241292308 L11.8675938,3.49347692 L7.84777846,0.241292308 C7.60334769,0.0437538462 7.25848615,0.0212307692 6.99227077,0.188492308 L0.411101538,4.29544615 C0.210609231,4.42098462 0.0824861538,4.6344 0.0658707692,4.87033846 C0.0485169231,5.10627692 0.145624615,5.33556923 0.326916923,5.48769231 L4.13959385,8.69113846 L0.873378462,11.2569231 C0.686547692,11.4024 0.582055385,11.6298462 0.591286154,11.8661538 C0.600886154,12.1028308 0.722732308,12.3206769 0.919532308,12.4517538 L3.94205538,14.4666462 C3.79362462,14.6014154 3.69873231,14.7945231 3.69873231,15.0112615 L3.69873231,17.9728615 C3.69873231,18.2298462 3.83239385,18.4676308 4.05097846,18.6024 L11.4810092,22.8127385 C11.5991631,22.8854769 11.7331938,22.9216615 11.8675938,22.9216615 C12.0016246,22.9216615 12.1356554,22.8847385 12.2545477,22.812 L19.5981785,18.6016615 C19.8167631,18.4668923 19.9493169,18.2291077 19.9493169,17.9728615 L19.9493169,14.4991385 C19.9493169,14.4515077 19.9441477,14.4049846 19.9352862,14.3599385 L22.7979323,12.4517538 C22.9947323,12.3206769 23.1165785,12.1035692 23.1261785,11.8668923 C23.1354092,11.6305846 23.0316554,11.4038769 22.8455631,11.2576615 L19.5937477,8.69261538 L23.40864,5.48769231 C23.5899323,5.33556923 23.68704,5.10627692 23.6696862,4.87033846 C23.6530708,4.6344 23.5249477,4.42098462 23.3244554,4.29544615 Z" id="path-1"></path>
    </defs>
    <g id="Page-1" stroke="none" stroke-width="1" fill="none" fill-rule="evenodd">
        <g id="C3p-icon-pack" transform="translate(-1233.000000, -140.000000)">
            <g id="Group" transform="translate(63.000000, 86.000000)">
                <g id="c3p-social-media-dropbox" transform="translate(1170.000000, 54.000000)">
                    <mask id="mask-2" fill="white">
                        <use xlink:href="#path-1"></use>
                    </mask>
                    <use id="Mask" fill="#000000" xlink:href="#path-1"></use>
                </g>
            </g>
        </g>
    </g>
</svg>