<?xml version="1.0" encoding="UTF-8"?>
<svg width="24px" height="24px" viewBox="0 0 24 24" version="1.1" xmlns="http://www.w3.org/2000/svg" xmlns:xlink="http://www.w3.org/1999/xlink">
    <!-- Generator: Sketch 52.4 (67378) - http://www.bohemiancoding.com/sketch -->
    <title>c3p-notebook</title>
    <desc>Created with Sketch.</desc>
    <defs>
        <path d="M5.32067692,19.1772923 L6.09015385,19.1772923 C6.48966154,19.1772923 6.81347692,18.8534769 6.81347692,18.4539692 C6.81347692,18.0544615 6.48966154,17.7306462 6.09015385,17.7306462 L5.32067692,17.7306462 L5.32067692,14.7660923 L6.09015385,14.7660923 C6.48966154,14.7660923 6.81347692,14.4422769 6.81347692,14.0427692 C6.81347692,13.6432615 6.48966154,13.3194462 6.09015385,13.3194462 L5.32067692,13.3194462 L5.32067692,10.3323692 L6.10603077,10.3323692 C6.50553846,10.3323692 6.82935385,10.0085538 6.82935385,9.60904615 C6.82935385,9.20953846 6.50553846,8.88535385 6.10603077,8.88535385 L5.32067692,8.88535385 L5.32067692,5.91452308 L6.03661538,5.91452308 C6.43612308,5.91452308 6.75993846,5.59070769 6.75993846,5.1912 C6.75993846,4.79169231 6.43612308,4.46787692 6.03661538,4.46787692 L5.32067692,4.46787692 L5.32067692,1.52990769 C5.32067692,1.51255385 5.32215385,1.49815385 5.32436923,1.48523077 C5.33581538,1.48449231 5.35021538,1.48375385 5.36756923,1.48375385 L17.1368,1.48375385 L17.1368,22.1606769 L5.32067692,22.1606769 L5.32067692,19.1772923 Z M18.6137231,1.48375385 L20.0906462,1.48375385 C20.4979077,1.48375385 20.8291077,1.81495385 20.8291077,2.22221538 L20.8291077,21.4222154 C20.8291077,21.8298462 20.4979077,22.1606769 20.0906462,22.1606769 L18.6137231,22.1606769 L18.6137231,1.48375385 Z M3.09089231,17.7306462 C2.69138462,17.7306462 2.36756923,18.0544615 2.36756923,18.4539692 C2.36756923,18.8534769 2.69138462,19.1772923 3.09089231,19.1772923 L3.84375385,19.1772923 L3.84375385,22.1606769 C3.84375385,23.3846769 4.80227692,23.6376 5.33286154,23.6376 L20.0906462,23.6376 C21.3142769,23.6376 22.3060308,22.6462154 22.3060308,21.4222154 L22.3060308,2.22221538 C22.3060308,0.998584615 21.3142769,0.00683076923 20.0906462,0.00683076923 L5.36756923,0.00683076923 C4.30603077,0.00683076923 3.84375385,0.791446154 3.84375385,1.52990769 L3.84375385,4.46787692 L3.03735385,4.46787692 C2.63784615,4.46787692 2.31403077,4.79169231 2.31403077,5.1912 C2.31403077,5.59070769 2.63784615,5.91452308 3.03735385,5.91452308 L3.84375385,5.91452308 L3.84375385,8.88535385 L3.10676923,8.88535385 C2.70726154,8.88535385 2.38344615,9.20953846 2.38344615,9.60904615 C2.38344615,10.0085538 2.70726154,10.3323692 3.10676923,10.3323692 L3.84375385,10.3323692 L3.84375385,13.3194462 L3.09089231,13.3194462 C2.69138462,13.3194462 2.36756923,13.6432615 2.36756923,14.0427692 C2.36756923,14.4422769 2.69138462,14.7660923 3.09089231,14.7660923 L3.84375385,14.7660923 L3.84375385,17.7306462 L3.09089231,17.7306462 Z" id="path-1"></path>
    </defs>
    <g id="Page-1" stroke="none" stroke-width="1" fill="none" fill-rule="evenodd">
        <g id="C3p-icon-pack" transform="translate(-1449.000000, -140.000000)">
            <g id="Group" transform="translate(63.000000, 86.000000)">
                <g id="c3p-notebook" transform="translate(1386.000000, 54.000000)">
                    <mask id="mask-2" fill="white">
                        <use xlink:href="#path-1"></use>
                    </mask>
                    <use id="Mask" fill="#000000" xlink:href="#path-1"></use>
                </g>
            </g>
        </g>
    </g>
</svg>