<?xml version="1.0" encoding="UTF-8"?>
<svg width="24px" height="24px" viewBox="0 0 24 24" version="1.1" xmlns="http://www.w3.org/2000/svg" xmlns:xlink="http://www.w3.org/1999/xlink">
    <!-- Generator: Sketch 52.4 (67378) - http://www.bohemiancoding.com/sketch -->
    <title>c3p-social-media-twitter</title>
    <desc>Created with Sketch.</desc>
    <defs>
        <path d="M2.48876035,17.9902769 C4.47706804,17.9902769 6.30808343,17.3326769 7.7610065,16.2272 C5.90266804,16.1954462 4.33417573,15.0039385 3.7962065,13.3689846 C4.05503727,13.4173538 4.32125266,13.4435692 4.59522189,13.4435692 C4.98106804,13.4435692 5.35694496,13.3937231 5.71214496,13.2992 C3.77109881,12.9218462 2.30783727,11.2584615 2.30783727,9.26276923 L2.30783727,9.21033846 C2.8805142,9.51901538 3.53442189,9.704 4.23116035,9.72578462 C3.0917142,8.98658462 2.34254496,7.72824615 2.34254496,6.29969231 C2.34254496,5.54461538 2.55226804,4.83716923 2.91706804,4.23126154 C5.00986804,6.71950769 8.13762189,8.35852308 11.6656219,8.53169231 C11.5925142,8.23076923 11.5552219,7.9136 11.5552219,7.59421538 C11.5552219,5.31975385 13.4552834,3.47692308 15.8006373,3.47692308 C17.0205757,3.47692308 18.1227296,3.97612308 18.8984834,4.77809231 C19.8643911,4.59126154 20.7741757,4.25083077 21.5920219,3.77932308 C21.2755911,4.73969231 20.6028527,5.54609231 19.7274065,6.056 C20.5840219,5.95483077 21.4040834,5.73513846 22.1646988,5.40615385 C21.5942373,6.23101538 20.8760834,6.95729231 20.0467911,7.53772308 C20.054545,7.71384615 20.0589757,7.89181538 20.0589757,8.06941538 C20.0589757,13.5096615 15.7895603,19.7828923 7.98254496,19.7828923 C5.58623727,19.7828923 3.35423727,19.0994462 1.47706804,17.9315692 C1.80863727,17.9714462 2.1461142,17.9902769 2.48876035,17.9902769 M0.696514195,19.1858462 C2.87829881,20.5431385 5.39792958,21.2598154 7.98254496,21.2598154 C16.3832834,21.2598154 21.4362065,14.6838154 21.5344219,8.25956923 C22.2222988,7.69058462 22.8296834,7.03224615 23.3451296,6.29452308 C23.5326988,6.04787692 23.6438373,5.73993846 23.6438373,5.40615385 C23.6438373,4.90363077 23.3927603,4.45944615 23.009868,4.19249231 C23.1756527,3.62424615 22.9862373,3.00910769 22.5246988,2.63323077 C22.2547911,2.41390769 21.9246988,2.3024 21.5920219,2.3024 C21.3383603,2.3024 21.0835911,2.36701538 20.8542988,2.49993846 C20.3661757,2.78129231 19.8440834,3.00393846 19.294668,3.16418462 C18.2999603,2.41686154 17.0667296,2 15.8006373,2 C12.9006988,2 10.497745,4.11901538 10.1277757,6.85649231 C7.75546804,6.37981538 5.59768343,5.12332308 4.04728343,3.28086154 C3.76592958,2.9456 3.35128343,2.75433846 2.91706804,2.75433846 C2.87903727,2.75433846 2.83989881,2.75581538 2.80112958,2.75876923 C2.32592958,2.79643077 1.89799112,3.0608 1.65208343,3.46916923 C1.13737573,4.32356923 0.865621888,5.3024 0.865621888,6.29969231 C0.865621888,6.96504615 0.985252657,7.61341538 1.21159112,8.22006154 C0.970114195,8.48849231 0.830914195,8.83963077 0.830914195,9.21033846 L0.830914195,9.26276923 C0.830914195,10.7094154 1.40285266,12.0515692 2.3525142,13.0584615 C2.29749881,13.3106462 2.31005266,13.5768615 2.39349881,13.8305231 C2.7210065,14.8274462 3.3173142,15.6862769 4.09048343,16.3401846 C3.57134496,16.4550154 3.03522189,16.5133538 2.48876035,16.5133538 C2.19965266,16.5133538 1.91829881,16.4974769 1.65208343,16.4649846 C1.5930065,16.4587077 1.53466804,16.4550154 1.47632958,16.4550154 C0.856021888,16.4550154 0.292944964,16.8456615 0.0835911183,17.4423385 C-0.145701189,18.0955077 0.109068041,18.8203077 0.696514195,19.1858462" id="path-1"></path>
    </defs>
    <g id="Page-1" stroke="none" stroke-width="1" fill="none" fill-rule="evenodd">
        <g id="C3p-icon-pack" transform="translate(-1287.000000, -86.000000)">
            <g id="Group" transform="translate(63.000000, 86.000000)">
                <g id="c3p-social-media-twitter" transform="translate(1224.000000, 0.000000)">
                    <mask id="mask-2" fill="white">
                        <use xlink:href="#path-1"></use>
                    </mask>
                    <use id="Mask" fill="#000000" xlink:href="#path-1"></use>
                </g>
            </g>
        </g>
    </g>
</svg>