<?xml version="1.0" encoding="UTF-8"?>
<svg width="24px" height="24px" viewBox="0 0 24 24" version="1.1" xmlns="http://www.w3.org/2000/svg" xmlns:xlink="http://www.w3.org/1999/xlink">
    <!-- Generator: Sketch 52.4 (67378) - http://www.bohemiancoding.com/sketch -->
    <title>c3p-reload</title>
    <desc>Created with Sketch.</desc>
    <defs>
        <path d="M10.7787446,21.3698215 L8.65936,22.4446523 C8.39757538,22.5879138 8.24176,22.9109908 8.39683692,23.1664985 L8.47179077,23.3603446 C8.62760615,23.6158523 8.96508308,23.7059446 9.22612923,23.5630523 L12.7640985,21.7516062 C12.7685292,21.7486523 12.7733292,21.7493908 12.77776,21.7464369 L13.0151754,21.6164677 C13.1462523,21.5444677 13.2326523,21.4270523 13.26736,21.2956062 C13.3035446,21.1645292 13.2869292,21.0186831 13.2090215,20.8920369 L13.0683446,20.6612677 C13.0661292,20.6568369 13.0620677,20.6538831 13.0591138,20.6494523 L10.8740062,17.2348062 C10.7189292,16.9796677 10.3821908,16.8895754 10.1196677,17.0320985 L9.94797538,17.1520985 C9.68619077,17.2946215 9.66883692,17.6638523 9.82391385,17.9182523 L11.1128985,19.9187446 C11.1066215,19.9180062 11.0999754,19.9157908 11.0933292,19.9154215 C6.26379077,19.5982523 2.48102154,15.5522215 2.48102154,10.7064369 C2.48102154,5.61696 6.62120615,1.47714462 11.7099446,1.47714462 C16.7997908,1.47714462 20.9628677,5.61696 20.9628677,10.7064369 C20.9628677,13.6362831 19.6170215,16.3276062 17.27056,18.0903138 C16.9445292,18.3354831 16.8788062,18.7984985 17.1236062,19.12416 C17.3687754,19.4509292 17.8317908,19.5159138 18.1574523,19.2714831 C20.8790523,17.2270523 22.4397908,14.1052062 22.4397908,10.7064369 C22.4397908,4.80280615 17.6139446,0.000221538462 11.7099446,0.000221538462 C5.80668308,0.000221538462 1.00409846,4.80280615 1.00409846,10.7064369 C1.00409846,16.2548677 5.28016,20.89536 10.7787446,21.3698215" id="path-1"></path>
    </defs>
    <g id="Page-1" stroke="none" stroke-width="1" fill="none" fill-rule="evenodd">
        <g id="C3p-icon-pack" transform="translate(-225.000000, -147.000000)">
            <g id="Group" transform="translate(63.000000, 86.000000)">
                <g id="c3p-reload" transform="translate(162.000000, 61.000000)">
                    <mask id="mask-2" fill="white">
                        <use xlink:href="#path-1"></use>
                    </mask>
                    <use id="Mask" fill="#000000" xlink:href="#path-1"></use>
                </g>
            </g>
        </g>
    </g>
</svg>