<?xml version="1.0" encoding="UTF-8"?>
<svg width="24px" height="24px" viewBox="0 0 24 24" version="1.1" xmlns="http://www.w3.org/2000/svg" xmlns:xlink="http://www.w3.org/1999/xlink">
    <!-- Generator: Sketch 52.4 (67378) - http://www.bohemiancoding.com/sketch -->
    <title>c3p-shopping-cart</title>
    <desc>Created with Sketch.</desc>
    <g id="Page-1" stroke="none" stroke-width="1" fill="none" fill-rule="evenodd">
        <g id="C3p-icon-pack" transform="translate(-1005.000000, -363.000000)" fill="#000000">
            <g id="Group" transform="translate(63.000000, 86.000000)">
                <g id="c3p-shopping-cart" transform="translate(942.000000, 277.000000)">
                    <path d="M9.0102375,21.7054875 C9.0102375,20.6697375 9.8494875,19.8304875 10.8852375,19.8304875 C11.9209875,19.8304875 12.7602375,20.6697375 12.7602375,21.7054875 C12.7602375,22.7412375 11.9209875,23.5804875 10.8852375,23.5804875 C9.8494875,23.5804875 9.0102375,22.7412375 9.0102375,21.7054875 Z M22.146225,7.78215 L7.706475,7.78215 L10.077225,16.832025 L19.112475,16.832025 L22.146225,7.78215 Z M0.07035,1.06965 C0.07035,0.6579 0.403725,0.324525 0.8151,0.324525 L4.027725,0.324525 C4.488225,0.324525 5.610975,0.50115 6.083475,2.137275 L7.28835,6.292275 L23.205225,6.292275 C23.44785,6.292275 23.674725,6.4104 23.8146,6.608775 C23.953725,6.8064 23.988225,7.06065 23.9061,7.2894 L20.337975,17.828775 C20.23185,18.12465 19.950975,18.321525 19.6371,18.321525 L9.51285,18.321525 C9.178725,18.321525 8.88585,18.0999 8.795475,17.77815 L4.650975,2.545275 C4.4391,1.8144 4.12935,1.8144 4.027725,1.8144 L0.8151,1.8144 C0.403725,1.8144 0.07035,1.481025 0.07035,1.06965 Z M15.7602375,21.7054875 C15.7602375,20.6697375 16.5994875,19.8304875 17.6352375,19.8304875 C18.6709875,19.8304875 19.5102375,20.6697375 19.5102375,21.7054875 C19.5102375,22.7412375 18.6709875,23.5804875 17.6352375,23.5804875 C16.5994875,23.5804875 15.7602375,22.7412375 15.7602375,21.7054875 Z" id="Shape"></path>
                </g>
            </g>
        </g>
    </g>
</svg>