<?xml version="1.0" encoding="UTF-8"?>
<svg width="24px" height="24px" viewBox="0 0 24 24" version="1.1" xmlns="http://www.w3.org/2000/svg" xmlns:xlink="http://www.w3.org/1999/xlink">
    <!-- Generator: Sketch 52.4 (67378) - http://www.bohemiancoding.com/sketch -->
    <title>c3p-flag</title>
    <desc>Created with Sketch.</desc>
    <defs>
        <path d="M20.2190154,12.1396062 C19.3845538,12.6838523 17.6163077,13.63056 15.4190154,13.63056 C13.9672,13.63056 12.9765538,13.23216 11.7215385,12.7274215 C10.1925538,12.1126523 8.45827692,11.4151754 5.69643077,11.4151754 C4.4344,11.4151754 3.364,11.7327138 2.49593846,12.1573292 L2.49593846,3.21566769 C3.052,2.70982154 4.26418462,1.81517538 5.88104615,1.81517538 C8.05286154,1.81517538 9.27538462,2.34243692 10.5699077,2.90034462 C11.8592615,3.45566769 13.1929231,4.03056 15.2344,4.03056 C17.2016615,4.03056 18.9296615,3.48668308 20.2190154,2.90182154 L20.2190154,12.1396062 Z M5.88104615,0.338252308 C2.86516923,0.338252308 1.01901538,2.61566769 1.01901538,2.61566769 L1.01901538,23.2615754 C1.01901538,23.6695754 1.34984615,24.0000369 1.75747692,24.0000369 C2.16510769,24.0000369 2.49593846,23.6695754 2.49593846,23.2615754 L2.49593846,13.8491446 C3.27501538,13.3466215 4.34984615,12.8920985 5.69643077,12.8920985 C10.3731077,12.8920985 11.7267077,15.1074831 15.4190154,15.1074831 C19.1113231,15.1074831 21.6959385,12.8920985 21.6959385,12.8920985 L21.6959385,0.338252308 C21.6959385,0.338252308 18.9267077,2.55363692 15.2344,2.55363692 C11.5420923,2.55363692 10.5577231,0.338252308 5.88104615,0.338252308 Z" id="path-1"></path>
    </defs>
    <g id="Page-1" stroke="none" stroke-width="1" fill="none" fill-rule="evenodd">
        <g id="C3p-icon-pack" transform="translate(-279.000000, -309.000000)">
            <g id="Group" transform="translate(63.000000, 86.000000)">
                <g id="c3p-flag" transform="translate(216.000000, 223.000000)">
                    <mask id="mask-2" fill="white">
                        <use xlink:href="#path-1"></use>
                    </mask>
                    <use id="Mask" fill="#000000" xlink:href="#path-1"></use>
                </g>
            </g>
        </g>
    </g>
</svg>