<?xml version="1.0" encoding="UTF-8"?>
<svg width="24px" height="24px" viewBox="0 0 24 24" version="1.1" xmlns="http://www.w3.org/2000/svg" xmlns:xlink="http://www.w3.org/1999/xlink">
    <!-- Generator: Sketch 52.4 (67378) - http://www.bohemiancoding.com/sketch -->
    <title>c3p-arrow-sw-tail</title>
    <desc>Created with Sketch.</desc>
    <defs>
        <path d="M7.52757494,14.8714626 L16.6971359,5.70190163 C17.1207,5.27833746 17.7911691,5.25744738 18.1894584,5.65573663 C18.5837746,6.05005292 18.5589116,6.71654902 18.1363407,7.14110642 L8.96571282,16.3117343 L15.1132072,16.0918964 C15.3913278,16.0819506 15.6511226,16.1817086 15.842818,16.373404 C16.0364998,16.5670858 16.1352646,16.8258874 16.1263121,17.1050012 C16.1161453,17.3893022 15.9953197,17.6611003 15.7894056,17.8670144 C15.5802908,18.0761292 15.3085664,18.1948946 15.0316601,18.1996532 L6.34605807,18.5102553 C6.06260295,18.5255356 5.79968102,18.4269181 5.60599922,18.2332363 C5.41132417,18.0385613 5.31270673,17.7756394 5.3278397,17.4963045 L5.63730122,8.8138296 C5.64334769,8.52967593 5.76211315,8.2579515 5.97016104,8.04990361 C6.17714201,7.84292264 6.44894011,7.72209702 6.73324113,7.71193026 C7.30497022,7.69045614 7.76399446,8.14521272 7.75230539,8.73099452 L7.52757494,14.8714626 Z" id="path-1"></path>
    </defs>
    <g id="Page-1" stroke="none" stroke-width="1" fill="none" fill-rule="evenodd">
        <g id="C3p-icon-pack" transform="translate(-1785.000000, -194.000000)">
            <g id="Group" transform="translate(63.000000, 86.000000)">
                <g id="c3p-arrow-sw-tail" transform="translate(1722.000000, 108.000000)">
                    <mask id="mask-2" fill="white">
                        <use xlink:href="#path-1"></use>
                    </mask>
                    <use id="Mask" fill="#000000" xlink:href="#path-1"></use>
                </g>
            </g>
        </g>
    </g>
</svg>