<?xml version="1.0" encoding="UTF-8"?>
<svg width="24px" height="24px" viewBox="0 0 24 24" version="1.1" xmlns="http://www.w3.org/2000/svg" xmlns:xlink="http://www.w3.org/1999/xlink">
    <!-- Generator: Sketch 52.4 (67378) - http://www.bohemiancoding.com/sketch -->
    <title>c3p-arrows-left</title>
    <desc>Created with Sketch.</desc>
    <g id="Page-1" stroke="none" stroke-width="1" fill="none" fill-rule="evenodd">
        <g id="C3p-icon-pack" transform="translate(-1623.000000, -356.000000)" fill="#000000">
            <g id="Group" transform="translate(63.000000, 86.000000)">
                <g id="c3p-arrows-left" transform="translate(1560.000000, 270.000000)">
                    <path d="M11.3613359,16.8752865 C11.5323033,17.0462539 11.6253297,17.2725342 11.6253297,17.5164142 C11.6253297,17.7602942 11.5323033,17.9878317 11.3613359,18.1587991 C11.1878543,18.3310236 10.9578026,18.4265642 10.7139226,18.4265642 C10.4675284,18.4265642 10.2374767,18.3297665 10.0715377,18.1587991 L4.77280551,12.8588097 C4.59680966,12.6878423 4.50001194,12.4590477 4.50001194,12.2139106 C4.49875483,11.9687736 4.59680966,11.7387219 4.76903417,11.5727829 L10.0677664,6.27279357 C10.2374767,6.09679772 10.4675284,6 10.7139226,6 C10.9578026,6 11.1878543,6.0955406 11.3613359,6.26902223 C11.7120705,6.6184997 11.7133276,7.19551467 11.3613359,7.56007751 L6.68990317,12.2201962 L11.3613359,16.8752865 Z M18.9040152,16.8752865 C19.0749826,17.0462539 19.168009,17.2725342 19.168009,17.5164142 C19.168009,17.7602942 19.0749826,17.9878317 18.9040152,18.1587991 C18.7305336,18.3310236 18.5004819,18.4265642 18.2566019,18.4265642 C18.0102077,18.4265642 17.780156,18.3297665 17.6142171,18.1587991 L12.3154848,12.8588097 C12.139489,12.6878423 12.0426913,12.4590477 12.0426913,12.2139106 C12.0414342,11.9687736 12.139489,11.7387219 12.3117135,11.5727829 L17.6104457,6.27279357 C17.780156,6.09679772 18.0102077,6 18.2566019,6 C18.5004819,6 18.7305336,6.0955406 18.9040152,6.26902223 C19.2547498,6.6184997 19.2560069,7.19551467 18.9040152,7.56007751 L14.2325825,12.2201962 L18.9040152,16.8752865 Z" id="Shape"></path>
                </g>
            </g>
        </g>
    </g>
</svg>