<?xml version="1.0" encoding="UTF-8"?>
<svg width="24px" height="24px" viewBox="0 0 24 24" version="1.1" xmlns="http://www.w3.org/2000/svg" xmlns:xlink="http://www.w3.org/1999/xlink">
    <!-- Generator: Sketch 52.4 (67378) - http://www.bohemiancoding.com/sketch -->
    <title>c3p-check-circle</title>
    <desc>Created with Sketch.</desc>
    <g id="Page-1" stroke="none" stroke-width="1" fill="none" fill-rule="evenodd">
        <g id="C3p-icon-pack" transform="translate(-63.000000, -93.000000)" fill="#000000">
            <g id="Group" transform="translate(63.000000, 86.000000)">
                <g id="c3p-check-circle" transform="translate(0.000000, 7.000000)">
                    <path d="M11.8344,1.47696 C6.13384615,1.47696 1.49593846,6.11486769 1.49593846,11.8154215 C1.49593846,17.5159754 6.13384615,22.1771446 11.8344,22.1771446 C17.5349538,22.1771446 22.1728615,17.5159754 22.1728615,11.8154215 C22.1728615,6.11486769 17.5349538,1.47696 11.8344,1.47696 Z M11.8344,23.6308062 C5.30898462,23.6308062 0.0190153846,18.3412062 0.0190153846,11.8154215 C0.0190153846,5.29000615 5.30898462,3.69230769e-05 11.8344,3.69230769e-05 C18.3601846,3.69230769e-05 23.6497846,5.29000615 23.6497846,11.8154215 C23.6497846,18.3412062 18.3601846,23.6308062 11.8344,23.6308062 Z M9.10626462,16.0455508 L5.45124923,12.3905354 C5.16288,12.1017969 5.16288,11.6343508 5.45124923,11.3459815 C5.73961846,11.0576123 6.20706462,11.0576123 6.49543385,11.3459815 L9.61728,14.4678277 L16.5503262,7.49195077 C16.8383262,7.20358154 17.3061415,7.20358154 17.5945108,7.49195077 C17.88288,7.78068923 17.88288,8.24813538 17.5945108,8.53650462 L10.2375877,15.9388431 C10.21248,15.9761354 10.18368,16.01232 10.1508185,16.0455508 C9.86208,16.33392 9.39463385,16.33392 9.10626462,16.0455508 Z" id="Shape"></path>
                </g>
            </g>
        </g>
    </g>
</svg>