<?xml version="1.0" encoding="UTF-8"?>
<svg width="24px" height="24px" viewBox="0 0 24 24" version="1.1" xmlns="http://www.w3.org/2000/svg" xmlns:xlink="http://www.w3.org/1999/xlink">
    <!-- Generator: Sketch 52.4 (67378) - http://www.bohemiancoding.com/sketch -->
    <title>c3p-smile</title>
    <desc>Created with Sketch.</desc>
    <g id="Page-1" stroke="none" stroke-width="1" fill="none" fill-rule="evenodd">
        <g id="C3p-icon-pack" transform="translate(-1449.000000, -464.000000)" fill="#000000">
            <g id="Group" transform="translate(63.000000, 86.000000)">
                <g id="c3p-smile" transform="translate(1386.000000, 378.000000)">
                    <path d="M8.12931692,11.07984 C7.31516308,11.07984 6.65608615,10.4200246 6.65608615,9.60697846 C6.65608615,8.79393231 7.31516308,8.13374769 8.12931692,8.13374769 C8.94310154,8.13374769 9.60254769,8.79393231 9.60254769,9.60697846 C9.60254769,10.4200246 8.94310154,11.07984 8.12931692,11.07984 Z M11.8331815,22.1607138 C17.5337354,22.1607138 22.1716431,17.5228062 22.1716431,11.8222523 C22.1716431,6.12169846 17.5337354,1.48379077 11.8331815,1.48379077 C6.13262769,1.48379077 1.49472,6.12169846 1.49472,11.8222523 C1.49472,17.5228062 6.13262769,22.1607138 11.8331815,22.1607138 Z M11.8331815,0.00686769231 C18.3589662,0.00686769231 23.6485662,5.29646769 23.6485662,11.8222523 C23.6485662,18.3480369 18.3589662,23.6376369 11.8331815,23.6376369 C5.30739692,23.6376369 0.0177969231,18.3480369 0.0177969231,11.8222523 C0.0177969231,5.29646769 5.30739692,0.00686769231 11.8331815,0.00686769231 Z M18.0470031,14.0181785 C18.4191877,14.1839631 18.5871877,14.6203938 18.4206646,14.9933169 C18.3449723,15.1642708 16.4995569,19.1851938 11.7944492,19.2409477 C11.7649108,19.2409477 11.7346338,19.2413169 11.7050954,19.2413169 C7.19420308,19.2413169 5.30263385,15.1712862 5.22398769,14.99664 C5.05598769,14.6244554 5.22140308,14.1876554 5.59284923,14.0196554 C5.96466462,13.8523938 6.40035692,14.0167015 6.56909538,14.3859323 C6.63260308,14.5251323 8.16232615,17.7643938 11.7080492,17.7643938 C11.7313108,17.7643938 11.7542031,17.7640246 11.7774646,17.7640246 C15.5462031,17.7197169 17.0567262,14.4247015 17.0718646,14.39184 C17.23728,14.0196554 17.6718646,13.8501785 18.0470031,14.0181785 Z M15.5139323,11.07984 C14.6997785,11.07984 14.0407015,10.4200246 14.0407015,9.60697846 C14.0407015,8.79393231 14.6997785,8.13374769 15.5139323,8.13374769 C16.3277169,8.13374769 16.9871631,8.79393231 16.9871631,9.60697846 C16.9871631,10.4200246 16.3277169,11.07984 15.5139323,11.07984 Z" id="Shape"></path>
                </g>
            </g>
        </g>
    </g>
</svg>