<?xml version="1.0" encoding="UTF-8"?>
<svg width="24px" height="24px" viewBox="0 0 24 24" version="1.1" xmlns="http://www.w3.org/2000/svg" xmlns:xlink="http://www.w3.org/1999/xlink">
    <!-- Generator: Sketch 52.4 (67378) - http://www.bohemiancoding.com/sketch -->
    <title>c3p-smartphone</title>
    <desc>Created with Sketch.</desc>
    <g id="Page-1" stroke="none" stroke-width="1" fill="none" fill-rule="evenodd">
        <g id="C3p-icon-pack" transform="translate(-1341.000000, -248.000000)" fill="#000000">
            <g id="Group" transform="translate(63.000000, 86.000000)">
                <g id="c3p-smartphone" transform="translate(1278.000000, 162.000000)">
                    <path d="M13.1293169,2.22225231 C13.5369477,2.22225231 13.8677785,2.55308308 13.8677785,2.96071385 C13.8677785,3.36834462 13.5369477,3.69917538 13.1293169,3.69917538 L10.1754708,3.69917538 C9.76784,3.69917538 9.43700923,3.36834462 9.43700923,2.96071385 C9.43700923,2.55308308 9.76784,2.22225231 10.1754708,2.22225231 L13.1293169,2.22225231 Z M11.6523938,18.4723569 C12.4665477,18.4723569 13.1256246,19.1321723 13.1256246,19.9452185 C13.1256246,20.7582646 12.4665477,21.4184492 11.6523938,21.4184492 C10.83824,21.4184492 10.1791631,20.7582646 10.1791631,19.9452185 C10.1791631,19.1321723 10.83824,18.4723569 11.6523938,18.4723569 Z M16.8238031,21.4222523 L16.8238031,2.22225231 C16.8238031,1.81462154 16.4929723,1.48379077 16.0853415,1.48379077 L7.21715692,1.48379077 C6.80989538,1.48379077 6.47869538,1.81462154 6.47869538,2.22225231 L6.47869538,21.4222523 C6.47869538,21.8298831 6.80989538,22.1607138 7.21715692,22.1607138 L16.0853415,22.1607138 C16.4929723,22.1607138 16.8238031,21.8298831 16.8238031,21.4222523 Z M16.0853415,0.00686769231 C17.3089723,0.00686769231 18.3007262,0.998621538 18.3007262,2.22225231 L18.3007262,21.4222523 C18.3007262,22.6458831 17.3089723,23.6376369 16.0853415,23.6376369 L7.21715692,23.6376369 C5.99352615,23.6376369 5.00177231,22.6458831 5.00177231,21.4222523 L5.00177231,2.22225231 C5.00177231,0.998621538 5.99352615,0.00686769231 7.21715692,0.00686769231 L16.0853415,0.00686769231 Z" id="Shape"></path>
                </g>
            </g>
        </g>
    </g>
</svg>