<?xml version="1.0" encoding="UTF-8"?>
<svg width="24px" height="24px" viewBox="0 0 24 24" version="1.1" xmlns="http://www.w3.org/2000/svg" xmlns:xlink="http://www.w3.org/1999/xlink">
    <!-- Generator: Sketch 52.4 (67378) - http://www.bohemiancoding.com/sketch -->
    <title>c3p-user-follow-following</title>
    <desc>Created with Sketch.</desc>
    <g id="Page-1" stroke="none" stroke-width="1" fill="none" fill-rule="evenodd">
        <g id="C3p-icon-pack" transform="translate(-1287.000000, -194.000000)" fill="#000000">
            <g id="Group" transform="translate(63.000000, 86.000000)">
                <g id="c3p-user-follow-following" transform="translate(1224.000000, 108.000000)">
                    <path d="M0.00893538462,19.9392 C0.00893538462,19.1206154 1.48475077,18.4630154 1.48475077,18.4630154 L7.97028923,15.4024615 C5.90518154,13.7446154 5.16930462,10.4820923 5.16930462,8.86966154 L5.16930462,5.17883077 C5.16930462,2.73452308 8.55699692,0.0129230769 11.8180431,0.0129230769 C15.07872,0.0129230769 18.46272,2.73452308 18.46272,5.17883077 L18.46272,8.86966154 C18.46272,10.6419692 17.7704123,13.8051692 15.7245046,15.4153846 L19.7321354,17.2925538 L18.8518892,18.5401846 L15.1078892,16.7575385 C14.6404431,16.5426462 14.3181046,16.1006769 14.2575508,15.5892923 C14.1969969,15.0786462 14.40672,14.5731692 14.8106585,14.2548923 C16.3950277,13.0076308 16.9857969,10.2897231 16.9857969,8.86966154 L16.9857969,5.17883077 C16.9857969,3.60184615 14.3258585,1.48984615 11.8180431,1.48984615 C9.33238154,1.48984615 6.64622769,3.63618462 6.64622769,5.17883077 L6.64622769,8.86966154 C6.64622769,10.3115077 7.36068923,13.0190769 8.89484308,14.2508308 C9.29398154,14.5709538 9.49890462,15.0749538 9.43613538,15.5826462 C9.37373538,16.0903385 9.05287385,16.5304615 8.58801231,16.7438769 L2.10247385,19.8044308 C1.92672,19.8852923 1.48585846,20.0699077 1.48585846,20.6566154 L1.48585846,22.1553231 L15.0473354,22.1545846 L16.2473354,23.6315077 L1.48475077,23.6315077 C0.669858462,23.6315077 0.00893538462,22.9709538 0.00893538462,22.1553231 L0.00893538462,19.9392 Z M19.8321969,23.3372677 C19.5438277,23.6256369 19.0763815,23.6256369 18.7880123,23.3372677 L16.1771815,20.7264369 C15.8884431,20.4380677 15.8884431,19.9706215 16.1771815,19.6822523 C16.4655508,19.3938831 16.9329969,19.3938831 17.2213662,19.6822523 L19.1849354,21.6454523 L22.3422277,16.8292062 C22.5936738,16.5079754 23.0577969,16.4514831 23.3790277,16.7029292 C23.7002585,16.9540062 23.7567508,17.4184985 23.5053046,17.73936 L19.9902277,23.1013292 C19.9540431,23.1869908 19.9019815,23.2674831 19.8321969,23.3372677 Z" id="Shape"></path>
                </g>
            </g>
        </g>
    </g>
</svg>