<?xml version="1.0" encoding="UTF-8"?>
<svg width="24px" height="24px" viewBox="0 0 24 24" version="1.1" xmlns="http://www.w3.org/2000/svg" xmlns:xlink="http://www.w3.org/1999/xlink">
    <!-- Generator: Sketch 52.4 (67378) - http://www.bohemiancoding.com/sketch -->
    <title>c3p-alert</title>
    <desc>Created with Sketch.</desc>
    <defs>
        <path d="M12.1450841,16.0242572 C11.8176869,16.0242572 11.4999628,16.1554641 11.2670643,16.3863783 C11.0363981,16.6170445 10.9049432,16.9370008 10.9049432,17.264398 C10.9049432,17.5893149 11.0363981,17.9092713 11.2670643,18.1396895 C11.4999628,18.3706037 11.8199191,18.5045389 12.1450841,18.5045389 C12.470001,18.5045389 12.7899573,18.3706037 13.0206235,18.1396895 C13.253522,17.9092713 13.385225,17.5893149 13.385225,17.264398 C13.385225,16.9370008 13.25377,16.6170445 13.0206235,16.3863783 C12.7899573,16.155216 12.470001,16.0242572 12.1450841,16.0242572 M12.1450841,15.4550325 C12.6808249,15.4550325 13.1153703,15.0207352 13.1153703,14.4844982 L13.1153703,9.44183739 C13.1153703,8.90609653 12.6808249,8.4717992 12.1450841,8.4717992 C11.6093432,8.4717992 11.1747979,8.90609653 11.1747979,9.44183739 L11.1747979,14.4844982 C11.1747979,15.0207352 11.6093432,15.4550325 12.1450841,15.4550325 M20.6869264,20.2635547 L3.60324173,20.2635547 C3.29419862,20.2635547 3.00598988,20.0971278 2.85146833,19.8295054 C2.69694677,19.561635 2.69694677,19.2290292 2.85146833,18.9614068 L11.3910784,4.17049457 C11.5456,3.90237611 11.8338087,3.73644526 12.1428518,3.73644526 C12.4518949,3.73644526 12.7401037,3.90262414 12.8946252,4.17049457 L21.3732204,18.8557468 C21.3836376,18.8736048 21.3947988,18.8917109 21.4067042,18.9090729 C21.5041793,19.0524332 21.5555211,19.2208443 21.5555211,19.3957042 C21.5550251,19.8739025 21.1656208,20.2635547 20.6869264,20.2635547 M22.8623816,17.9628454 L14.398172,3.30214792 C13.9343593,2.49903269 13.0702292,2 12.1426038,2 C11.2149784,2 10.3508483,2.49903269 9.88703557,3.30214792 L1.3476735,18.0935562 C0.884108835,18.8966715 0.884108835,19.8944888 1.3476735,20.6978521 C1.81148618,21.5009673 2.67561635,22 3.60324173,22 L20.6871745,22 C22.1232576,22 23.2914703,20.8317873 23.2914703,19.3957042 C23.2912223,18.8830299 23.1431495,18.3884617 22.8623816,17.9628454" id="path-1"></path>
    </defs>
    <g id="Page-1" stroke="none" stroke-width="1" fill="none" fill-rule="evenodd">
        <g id="C3p-icon-pack" transform="translate(-1785.000000, -410.000000)">
            <g id="Group" transform="translate(63.000000, 86.000000)">
                <g id="c3p-alert" transform="translate(1722.000000, 324.000000)">
                    <mask id="mask-2" fill="white">
                        <use xlink:href="#path-1"></use>
                    </mask>
                    <use id="Mask" fill="#000000" xlink:href="#path-1"></use>
                </g>
            </g>
        </g>
    </g>
</svg>