<?xml version="1.0" encoding="UTF-8"?>
<svg width="24px" height="24px" viewBox="0 0 24 24" version="1.1" xmlns="http://www.w3.org/2000/svg" xmlns:xlink="http://www.w3.org/1999/xlink">
    <!-- Generator: Sketch 52.4 (67378) - http://www.bohemiancoding.com/sketch -->
    <title>c3p-magnifier</title>
    <desc>Created with Sketch.</desc>
    <defs>
        <path d="M9.24978462,16.9969108 C4.9608,16.9969108 1.48375385,13.5198646 1.48375385,9.23088 C1.48375385,4.94189538 4.9608,1.46484923 9.24978462,1.46484923 C13.5387692,1.46484923 17.0158154,4.94189538 17.0158154,9.23088 C17.0158154,13.5198646 13.5387692,16.9969108 9.24978462,16.9969108 Z M16.3371692,15.1430031 C17.6745231,13.5416492 18.4805538,11.4806031 18.4805538,9.23088 C18.4805538,4.13291077 14.3477538,0.000110769231 9.24978462,0.000110769231 C4.15181538,0.000110769231 0.0190153846,4.13291077 0.0190153846,9.23088 C0.0190153846,14.3288492 4.15181538,18.4616492 9.24978462,18.4616492 C11.5659692,18.4616492 13.6816615,17.6061415 15.3025846,16.1967877 L22.4678769,23.4071262 C22.7562462,23.6954954 23.2240615,23.6954954 23.5124308,23.4071262 C23.8004308,23.1187569 23.8004308,22.6509415 23.5124308,22.3625723 L16.3371692,15.1430031 Z" id="path-1"></path>
    </defs>
    <g id="Page-1" stroke="none" stroke-width="1" fill="none" fill-rule="evenodd">
        <g id="C3p-icon-pack" transform="translate(-171.000000, -201.000000)">
            <g id="Group" transform="translate(63.000000, 86.000000)">
                <g id="c3p-magnifier" transform="translate(108.000000, 115.000000)">
                    <mask id="mask-2" fill="white">
                        <use xlink:href="#path-1"></use>
                    </mask>
                    <use id="Mask" fill="#000000" xlink:href="#path-1"></use>
                </g>
            </g>
        </g>
    </g>
</svg>