<?xml version="1.0" encoding="UTF-8"?>
<svg width="24px" height="24px" viewBox="0 0 24 24" version="1.1" xmlns="http://www.w3.org/2000/svg" xmlns:xlink="http://www.w3.org/1999/xlink">
    <!-- Generator: Sketch 52.4 (67378) - http://www.bohemiancoding.com/sketch -->
    <title>c3p-mouse</title>
    <desc>Created with Sketch.</desc>
    <g id="Page-1" stroke="none" stroke-width="1" fill="none" fill-rule="evenodd">
        <g id="C3p-icon-pack" transform="translate(-1233.000000, -248.000000)" fill="#000000">
            <g id="Group" transform="translate(63.000000, 86.000000)">
                <g id="c3p-mouse" transform="translate(1170.000000, 162.000000)">
                    <path d="M16.8120615,17.0296985 L16.8120615,6.61480615 C16.8120615,3.78576 14.5102769,1.48360615 11.6812308,1.48360615 C8.85181538,1.48360615 6.47729231,3.78576 6.47729231,6.61480615 L6.47729231,17.0296985 C6.47729231,19.8587446 8.85181538,22.1605292 11.6812308,22.1605292 C14.5102769,22.1605292 16.8120615,19.8587446 16.8120615,17.0296985 Z M11.6812308,0.00668307692 C15.3299692,0.00668307692 18.2889846,2.96569846 18.2889846,6.61480615 L18.2889846,17.0296985 C18.2889846,20.6788062 15.3299692,23.6374523 11.6812308,23.6374523 C8.03212308,23.6374523 5.00036923,20.6788062 5.00036923,17.0296985 L5.00036923,6.61480615 C5.00036923,2.96569846 8.03212308,0.00668307692 11.6812308,0.00668307692 Z M11.6523938,4.43763692 C12.0600246,4.43763692 12.3908554,4.76846769 12.3908554,5.17609846 L12.3908554,8.86840615 C12.3908554,9.27603692 12.0600246,9.60686769 11.6523938,9.60686769 C11.2447631,9.60686769 10.9139323,9.27603692 10.9139323,8.86840615 L10.9139323,5.17609846 C10.9139323,4.76846769 11.2447631,4.43763692 11.6523938,4.43763692 Z" id="Shape"></path>
                </g>
            </g>
        </g>
    </g>
</svg>