<?xml version="1.0" encoding="UTF-8"?>
<svg width="24px" height="24px" viewBox="0 0 24 24" version="1.1" xmlns="http://www.w3.org/2000/svg" xmlns:xlink="http://www.w3.org/1999/xlink">
    <!-- Generator: Sketch 52.4 (67378) - http://www.bohemiancoding.com/sketch -->
    <title>c3p-map</title>
    <desc>Created with Sketch.</desc>
    <defs>
        <path d="M1.48700308,2.32589538 L7.39469538,4.50841846 L7.39469538,22.0874954 L1.48700308,19.6812185 L1.48700308,2.32589538 Z M8.87161846,4.50546462 L14.7793108,2.19112615 L14.7793108,19.7639262 L8.87161846,22.0993108 L8.87161846,4.50546462 Z M16.2562338,2.21291077 L22.1639262,4.76060308 L22.1639262,21.9715569 L16.2562338,19.7473108 L16.2562338,2.21291077 Z M0.01008,20.0648492 C0.01008,20.4702646 0.330203077,20.8926646 0.721218462,21.0008492 L8.15974154,23.9358646 L15.5214646,20.94768 L22.9297108,23.8579569 C22.9932185,23.8753108 23.0552492,23.8841723 23.1135877,23.8841723 C23.4167262,23.8841723 23.6408492,23.6589415 23.6408492,23.3185108 L23.6408492,4.37844923 C23.6408492,3.97303385 23.3207262,3.55026462 22.9297108,3.44097231 L15.5229415,0.37008 L8.15124923,3.28774154 L0.721218462,0.371556923 C0.657710769,0.352726154 0.59568,0.345710769 0.537341538,0.345710769 C0.234203077,0.344233846 0.01008,0.570572308 0.01008,0.911003077 L0.01008,20.0648492 Z" id="path-1"></path>
    </defs>
    <g id="Page-1" stroke="none" stroke-width="1" fill="none" fill-rule="evenodd">
        <g id="C3p-icon-pack" transform="translate(-951.000000, -255.000000)">
            <g id="Group" transform="translate(63.000000, 86.000000)">
                <g id="c3p-map" transform="translate(888.000000, 169.000000)">
                    <mask id="mask-2" fill="white">
                        <use xlink:href="#path-1"></use>
                    </mask>
                    <use id="Mask" fill="#000000" xlink:href="#path-1"></use>
                </g>
            </g>
        </g>
    </g>
</svg>