<?xml version="1.0" encoding="UTF-8"?>
<svg width="24px" height="24px" viewBox="0 0 24 24" version="1.1" xmlns="http://www.w3.org/2000/svg" xmlns:xlink="http://www.w3.org/1999/xlink">
    <!-- Generator: Sketch 52.4 (67378) - http://www.bohemiancoding.com/sketch -->
    <title>c3p-arrows-sort</title>
    <desc>Created with Sketch.</desc>
    <g id="Page-1" stroke="none" stroke-width="1" fill="none" fill-rule="evenodd">
        <g id="C3p-icon-pack" transform="translate(-1839.000000, -356.000000)" fill="#000000">
            <g id="Group" transform="translate(63.000000, 86.000000)">
                <g id="c3p-arrows-sort" transform="translate(1776.000000, 270.000000)">
                    <path d="M8.349,14.0419905 L12.052,17.7579905 L15.759,14.0419905 C16.049,13.7619905 16.508,13.7629905 16.786,14.0419905 C16.924,14.1799905 17,14.3629905 17,14.5569905 C17,14.7529905 16.923,14.9359905 16.783,15.0709905 L12.567,19.2859905 C12.435,19.4229905 12.252,19.5009905 12.057,19.4999905 C11.862,19.4999905 11.68,19.4229905 11.544,19.2829905 L7.328,15.0679905 C7.192,14.9359905 7.115,14.7529905 7.115,14.5569905 C7.115,14.3629905 7.191,14.1799905 7.328,14.0419905 C7.464,13.9059905 7.645,13.8319905 7.839,13.8319905 C8.033,13.8319905 8.213,13.9059905 8.349,14.0419905 Z M15.766,9.29 L12.063,5.574 L8.356,9.29 C8.066,9.57 7.607,9.569 7.329,9.29 C7.191,9.152 7.115,8.969 7.115,8.775 C7.115,8.579 7.192,8.396 7.332,8.261 L11.548,4.046 C11.68,3.909 11.863,3.831 12.058,3.832 C12.253,3.832 12.435,3.909 12.571,4.049 L16.787,8.264 C16.923,8.396 17,8.579 17,8.775 C17,8.969 16.924,9.152 16.787,9.29 C16.651,9.426 16.47,9.5 16.276,9.5 C16.082,9.5 15.902,9.426 15.766,9.29 Z" id="Shape"></path>
                </g>
            </g>
        </g>
    </g>
</svg>