<?xml version="1.0" encoding="UTF-8"?>
<svg width="24px" height="24px" viewBox="0 0 24 24" version="1.1" xmlns="http://www.w3.org/2000/svg" xmlns:xlink="http://www.w3.org/1999/xlink">
    <!-- Generator: Sketch 52.4 (67378) - http://www.bohemiancoding.com/sketch -->
    <title>c3p-bubbles</title>
    <desc>Created with Sketch.</desc>
    <g id="Page-1" stroke="none" stroke-width="1" fill="none" fill-rule="evenodd">
        <g id="C3p-icon-pack" transform="translate(-1005.000000, -147.000000)" fill="#000000">
            <g id="Group" transform="translate(63.000000, 86.000000)">
                <g id="c3p-bubbles" transform="translate(942.000000, 61.000000)">
                    <path d="M23.6635569,14.4763692 C23.6635569,16.6275077 22.6422646,18.2716923 20.4386954,19.3989538 C20.4386954,19.4118769 20.4427569,19.4222154 20.4427569,19.4366154 C20.4427569,20.3711385 20.9238646,21.9145231 21.2303262,22.4421538 L21.2288492,22.4421538 C21.2528492,22.4993846 21.2679877,22.5617846 21.2679877,22.6282462 C21.2679877,22.8900308 21.0564185,23.1004923 20.7946338,23.1004923 C20.7566031,23.1004923 20.6930954,23.0927385 20.6713108,23.0927385 C20.6642954,23.0927385 20.66208,23.0927385 20.6628185,23.0942154 C19.0337723,22.8287385 17.0321723,20.9198154 16.6747569,20.4863385 C16.3092185,20.5398769 16.0618338,20.5483692 15.7553723,20.5483692 C15.6254031,20.5483692 15.4869415,20.5468923 15.3233723,20.5468923 C12.31488,20.5468923 9.91709538,19.4170462 8.45014154,17.6255385 C8.50331077,17.5786462 10.9058954,17.5779077 10.5617723,17.5989538 C11.83008,18.5918154 13.3173415,19.0699692 15.3233723,19.0699692 C15.3233723,19.0699692 16.1541415,19.0696 16.4613415,19.0245538 L17.2382031,18.9049231 C17.2382031,18.9049231 17.7329723,19.7870154 19.1744492,20.8433846 C19.0610954,20.3644923 18.9846646,18.4721846 18.9846646,18.4721846 L19.7194338,18.1073846 C21.44448,17.2245538 22.1866338,16.0692308 22.1866338,14.4763692 C22.1866338,13.1755692 21.8266338,12.2801846 20.5653415,11.4084308 C20.7307569,10.9066462 20.8825108,10.3354462 20.9301415,9.80301538 C22.8815262,10.9483692 23.6635569,12.4744 23.6635569,14.4763692 Z M1.49383385,8.51152 C1.49383385,10.4189662 2.41358769,12.5974277 4.45986462,13.6438277 L5.26478769,14.0551508 L5.19537231,14.9586585 C5.19537231,14.9586585 5.21715692,15.4094892 4.71758769,16.8332431 C5.53838769,16.3166892 6.49137231,15.5209969 6.71069538,15.2680738 L7.65592615,14.48272 L8.48041846,14.54032 C9.18638769,14.6448123 9.87426462,14.6182277 9.87426462,14.6182277 C14.3807262,14.6182277 17.7329723,12.0332431 17.7473723,8.51152 C17.7473723,5.33465846 14.1732185,2.79693538 9.66675692,2.79693538 C5.15992615,2.79693538 1.49383385,5.33465846 1.49383385,8.51152 Z M3.03131077,18.9400738 C2.72854154,18.9400738 2.48448,18.6967508 2.48448,18.3943508 C2.48448,18.3171815 2.50146462,18.2448123 2.52952615,18.17872 L2.52804923,18.17872 C2.88288,17.5669046 3.78343385,16.0837046 3.78343385,15.0018585 C3.78343385,14.9852431 3.78786462,14.9734277 3.78786462,14.9586585 C1.23795692,13.6549046 0.0169107692,11.0008738 0.0169107692,8.51152 C0.0169107692,4.51496615 4.33654154,1.32001231 9.66675692,1.32001231 C14.9958646,1.32001231 19.2242954,4.51496615 19.2242954,8.51152 C19.2874338,13.0279508 15.1575877,16.0722585 9.82811077,16.0722585 C9.63832615,16.0722585 9.47771077,16.0741046 9.32743385,16.0741046 C8.97297231,16.0741046 8.68718769,16.0641354 8.26404923,16.0013662 C7.85161846,16.5038892 5.06909538,18.62512 3.18417231,18.9330585 C3.18491077,18.9308431 3.18195692,18.9308431 3.17494154,18.9308431 C3.14872615,18.9308431 3.07598769,18.9400738 3.03131077,18.9400738 Z" id="Shape"></path>
                </g>
            </g>
        </g>
    </g>
</svg>