<?xml version="1.0" encoding="UTF-8"?>
<svg width="24px" height="24px" viewBox="0 0 24 24" version="1.1" xmlns="http://www.w3.org/2000/svg" xmlns:xlink="http://www.w3.org/1999/xlink">
    <!-- Generator: Sketch 52.4 (67378) - http://www.bohemiancoding.com/sketch -->
    <title>c3p-cross</title>
    <desc>Created with Sketch.</desc>
    <defs>
        <path d="M6.29534544,17.7046453 C6.68913936,18.0984516 7.32747881,18.0984516 7.72177695,17.7046453 L12.000063,13.4262243 L16.2783491,17.7046453 C16.6726472,18.0984516 17.3104825,18.0984516 17.7042764,17.7046453 C18.0985745,17.3108389 18.0985745,16.6724794 17.7042764,16.278673 L13.4259903,12.0002521 L17.7042764,7.72132697 C18.0985745,7.32752064 18.0985745,6.68916108 17.7042764,6.29535475 C17.3104825,5.90154842 16.6726472,5.90154842 16.2783491,6.29535475 L12.000063,10.5737757 L7.72177695,6.29535475 C7.32747881,5.90154842 6.68913936,5.90154842 6.29534544,6.29535475 C5.90155152,6.68916108 5.90155152,7.32752064 6.29534544,7.72132697 L10.5736315,12.0002521 L6.29534544,16.278673 C5.90155152,16.6724794 5.90155152,17.3108389 6.29534544,17.7046453" id="path-1"></path>
    </defs>
    <g id="Page-1" stroke="none" stroke-width="1" fill="none" fill-rule="evenodd">
        <g id="C3p-icon-pack" transform="translate(-1677.000000, -140.000000)">
            <g id="Group" transform="translate(63.000000, 86.000000)">
                <g id="c3p-cross" transform="translate(1614.000000, 54.000000)">
                    <mask id="mask-2" fill="white">
                        <use xlink:href="#path-1"></use>
                    </mask>
                    <use id="Mask" fill="#000000" xlink:href="#path-1"></use>
                </g>
            </g>
        </g>
    </g>
</svg>