<?xml version="1.0" encoding="UTF-8"?>
<svg width="24px" height="24px" viewBox="0 0 24 24" version="1.1" xmlns="http://www.w3.org/2000/svg" xmlns:xlink="http://www.w3.org/1999/xlink">
    <!-- Generator: Sketch 52.4 (67378) - http://www.bohemiancoding.com/sketch -->
    <title>c3p-note</title>
    <desc>Created with Sketch.</desc>
    <g id="Page-1" stroke="none" stroke-width="1" fill="none" fill-rule="evenodd">
        <g id="C3p-icon-pack" transform="translate(-561.000000, -255.000000)" fill="#000000">
            <g id="Group" transform="translate(63.000000, 86.000000)">
                <g id="c3p-note" transform="translate(498.000000, 169.000000)">
                    <path d="M1.49170909,23.6378909 C0.688436364,23.6378909 0.0371636364,22.9866182 0.0371636364,22.1833455 L0.0371636364,4.00152727 C0.0371636364,3.19825455 0.688436364,2.54698182 1.49170909,2.54698182 L13.1426182,2.54698182 L13.1808,2.5848 L11.7098909,4.00152727 L1.49170909,4.00152727 L1.49170909,22.1833455 L18.2189818,22.1833455 L18.2189818,12.9204364 L19.6735273,11.5320727 L19.6735273,22.1833455 C19.6735273,22.9866182 19.0222545,23.6378909 18.2189818,23.6378909 L1.49170909,23.6378909 Z M21.1983636,4.92963636 C21.6605455,4.45218182 21.8914545,4.00527273 21.8845455,3.60127273 C21.878,3.20854545 21.6430909,2.78781818 21.1870909,2.35036364 C20.8056364,1.98454545 20.43,1.80672727 20.0398182,1.80672727 C19.3532727,1.80672727 18.7958182,2.34236364 18.7347273,2.40345455 C18.4205455,2.71290909 10.1609091,10.9601818 8.91181818,12.2078182 C8.70309091,12.9445455 8.23436364,14.5027273 7.84345455,15.7925455 C9.05654545,15.4012727 10.6612727,14.8856364 11.3314545,14.6783636 L11.7790909,14.2372727 C17.6245455,8.47872727 20.7936364,5.34709091 21.1983636,4.92963636 Z M20.0398182,0.352181818 C20.8125455,0.352181818 21.5372727,0.671090909 22.1932727,1.30054545 C22.9383636,2.01436364 23.3256364,2.78054545 23.3390909,3.57545455 C23.3532727,4.38090909 22.9845455,5.17654545 22.2430909,5.94127273 C21.5256364,6.682 12.6641818,15.4063636 12.2052727,15.8594545 C12.1332727,15.9296364 12.046,15.9816364 11.95,16.01 C11.2223636,16.2270909 6.80090909,17.6569091 6.75654545,17.6718182 C6.69472727,17.6910909 6.63181818,17.7001818 6.56963636,17.7001818 C6.41072727,17.7001818 6.25581818,17.6383636 6.13981818,17.522 C5.97836364,17.362 5.918,17.1227273 5.98527273,16.9034545 C5.998,16.8609091 7.30709091,12.5761818 7.56818182,11.6110909 C7.59618182,11.5063636 7.65145455,11.4121818 7.72709091,11.3350909 C7.72709091,11.3350909 17.3681818,1.70854545 17.7081818,1.37254545 C17.9481818,1.13363636 18.8303636,0.352181818 20.0398182,0.352181818 Z" id="Shape"></path>
                </g>
            </g>
        </g>
    </g>
</svg>