<?xml version="1.0" encoding="UTF-8"?>
<svg width="24px" height="24px" viewBox="0 0 24 24" version="1.1" xmlns="http://www.w3.org/2000/svg" xmlns:xlink="http://www.w3.org/1999/xlink">
    <!-- Generator: Sketch 52.4 (67378) - http://www.bohemiancoding.com/sketch -->
    <title>c3p-pause</title>
    <desc>Created with Sketch.</desc>
    <g id="Page-1" stroke="none" stroke-width="1" fill="none" fill-rule="evenodd">
        <g id="C3p-icon-pack" transform="translate(-507.000000, -309.000000)" fill="#000000">
            <g id="Group" transform="translate(63.000000, 86.000000)">
                <g id="c3p-pause" transform="translate(444.000000, 223.000000)">
                    <path d="M5.50683077,22.1553231 L9.20393846,22.1553231 L9.20393846,1.4784 L5.50683077,1.4784 L5.50683077,22.1553231 Z M4.76836923,0.00147692308 L9.9424,0.00147692308 C10.3504,0.00147692308 10.6808615,0.331938462 10.6808615,0.739938462 L10.6808615,22.8937846 C10.6808615,23.3014154 10.3504,23.6322462 9.9424,23.6322462 L4.76836923,23.6322462 C4.36036923,23.6322462 4.02990769,23.3014154 4.02990769,22.8937846 L4.02990769,0.739938462 C4.02990769,0.331938462 4.36036923,0.00147692308 4.76836923,0.00147692308 Z M15.1256615,22.1553231 L18.7961846,22.1553231 L18.7961846,1.4784 L15.1256615,1.4784 L15.1256615,22.1553231 Z M19.5346462,23.6322462 L14.3868308,23.6322462 C13.9788308,23.6322462 13.6483692,23.3014154 13.6483692,22.8937846 L13.6483692,0.739938462 C13.6483692,0.331938462 13.9788308,0.00147692308 14.3868308,0.00147692308 L19.5346462,0.00147692308 C19.9426462,0.00147692308 20.2731077,0.331938462 20.2731077,0.739938462 L20.2731077,22.8937846 C20.2731077,23.3014154 19.9426462,23.6322462 19.5346462,23.6322462 Z" id="Shape"></path>
                </g>
            </g>
        </g>
    </g>
</svg>