<?xml version="1.0" encoding="UTF-8"?>
<svg width="24px" height="24px" viewBox="0 0 24 24" version="1.1" xmlns="http://www.w3.org/2000/svg" xmlns:xlink="http://www.w3.org/1999/xlink">
    <!-- Generator: Sketch 52.4 (67378) - http://www.bohemiancoding.com/sketch -->
    <title>c3p-chart-lines</title>
    <desc>Created with Sketch.</desc>
    <defs>
        <path d="M1.87650462,14.6098585 C0.857058462,14.6098585 0.0303507692,15.4365662 0.0303507692,16.4560123 C0.0303507692,17.4754585 0.857058462,18.3021662 1.87650462,18.3021662 C2.89595077,18.3021662 3.72265846,17.4754585 3.72265846,16.4560123 C3.72265846,16.2104738 3.67244308,15.97712 3.58530462,15.7625969 L7.23773538,11.5644431 C7.41164308,11.6183508 7.59256615,11.6560123 7.78419692,11.6560123 C8.32142769,11.6560123 8.80068923,11.4226585 9.13816615,11.0560123 L12.5864123,12.78512 C12.5982277,13.7945969 13.4182892,14.6098585 14.4303508,14.6098585 C15.4497969,14.6098585 16.2765046,13.7831508 16.2765046,12.7637046 C16.2765046,12.7308431 16.2687508,12.7001969 16.2669046,12.6680738 L21.06912,8.54228923 C21.2976738,8.64345846 21.54912,8.70216615 21.8149662,8.70216615 C22.8344123,8.70216615 23.66112,7.87545846 23.66112,6.85601231 C23.66112,5.83656615 22.8344123,5.00985846 21.8149662,5.00985846 C20.79552,5.00985846 19.9688123,5.83656615 19.9688123,6.85601231 C19.9688123,7.06536615 20.0112738,7.26290462 20.07552,7.45047385 L15.5749662,11.3255508 C15.2596431,11.0741046 14.8649354,10.9175508 14.4303508,10.9175508 C13.9285662,10.9175508 13.4751508,11.1191508 13.1421046,11.4440738 L9.61705846,9.67915077 C9.54875077,8.72173538 8.75896615,7.96370462 7.78419692,7.96370462 C6.76475077,7.96370462 5.93804308,8.79041231 5.93804308,9.80985846 C5.93804308,10.0889969 6.00450462,10.3507815 6.11527385,10.5878277 L2.52118154,14.7320738 C2.31995077,14.6563815 2.10432,14.6098585 1.87650462,14.6098585" id="path-1"></path>
    </defs>
    <g id="Page-1" stroke="none" stroke-width="1" fill="none" fill-rule="evenodd">
        <g id="C3p-icon-pack" transform="translate(-453.000000, -147.000000)">
            <g id="Group" transform="translate(63.000000, 86.000000)">
                <g id="c3p-chart-lines" transform="translate(390.000000, 61.000000)">
                    <mask id="mask-2" fill="white">
                        <use xlink:href="#path-1"></use>
                    </mask>
                    <use id="Mask" fill="#000000" xlink:href="#path-1"></use>
                </g>
            </g>
        </g>
    </g>
</svg>