<?xml version="1.0" encoding="UTF-8"?>
<svg width="24px" height="24px" viewBox="0 0 24 24" version="1.1" xmlns="http://www.w3.org/2000/svg" xmlns:xlink="http://www.w3.org/1999/xlink">
    <!-- Generator: Sketch 52.4 (67378) - http://www.bohemiancoding.com/sketch -->
    <title>c3p-star</title>
    <desc>Created with Sketch.</desc>
    <defs>
        <path d="M7.58244923,8.52768 L8.66171077,8.36669538 L9.13580308,7.38454154 L11.83488,1.78774154 L14.5335877,7.38454154 L15.00768,8.36669538 L16.0869415,8.52768 L22.2213415,9.43894154 L17.7477415,13.9014646 L16.9963569,14.6510031 L17.1713723,15.6970338 L18.2166646,21.9314954 L12.8103877,19.0238031 L11.8337723,18.4980185 L10.8567877,19.0238031 L5.45088,21.9326031 L6.49580308,15.6970338 L6.67081846,14.6510031 L5.91943385,13.9014646 L1.44804923,9.43894154 L7.58244923,8.52768 Z M5.00484923,15.0937108 L3.95881846,21.3396185 C3.85321846,21.9691569 4.12571077,22.6001723 4.65961846,22.9682954 C4.95315692,23.1698954 5.29801846,23.2725415 5.64324923,23.2725415 C5.92755692,23.2725415 6.21186462,23.2031262 6.46921846,23.0654031 L11.8345108,20.1761723 L17.2005415,23.0654031 C17.4586338,23.2031262 17.7429415,23.2725415 18.0261415,23.2725415 C18.3713723,23.2725415 18.7162338,23.1698954 19.01088,22.9682954 C19.5440492,22.6001723 19.8161723,21.9691569 19.7098338,21.3396185 L18.6638031,15.0937108 L23.1750646,10.5890954 C23.6218338,10.1449108 23.7746954,9.49284923 23.5712492,8.90097231 C23.3670646,8.30983385 22.8423877,7.87820308 22.2102646,7.78368 L16.0566646,6.86835692 L13.3808492,1.31512615 C13.1002338,0.731741538 12.49728,0.358449231 11.8345108,0.358449231 C11.1735877,0.358449231 10.5702646,0.731741538 10.2889108,1.31512615 L7.61383385,6.86835692 L1.45949538,7.78368 C0.827372308,7.87820308 0.302326154,8.30983385 0.0981415385,8.90097231 C-0.104935385,9.49284923 0.0486646154,10.1449108 0.495433846,10.5890954 L5.00484923,15.0937108 Z" id="path-1"></path>
    </defs>
    <g id="Page-1" stroke="none" stroke-width="1" fill="none" fill-rule="evenodd">
        <g id="C3p-icon-pack" transform="translate(-63.000000, -309.000000)">
            <g id="Group" transform="translate(63.000000, 86.000000)">
                <g id="c3p-star" transform="translate(0.000000, 223.000000)">
                    <mask id="mask-2" fill="white">
                        <use xlink:href="#path-1"></use>
                    </mask>
                    <use id="Mask" fill="#000000" xlink:href="#path-1"></use>
                </g>
            </g>
        </g>
    </g>
</svg>