<?xml version="1.0" encoding="UTF-8"?>
<svg width="24px" height="24px" viewBox="0 0 24 24" version="1.1" xmlns="http://www.w3.org/2000/svg" xmlns:xlink="http://www.w3.org/1999/xlink">
    <!-- Generator: Sketch 52.4 (67378) - http://www.bohemiancoding.com/sketch -->
    <title>c3p-settings</title>
    <desc>Created with Sketch.</desc>
    <defs>
        <path d="M11.8342154,8.86157538 C10.2055385,8.86157538 8.88036923,10.1863754 8.88036923,11.8154215 C8.88036923,13.4440985 10.2055385,14.7692677 11.8342154,14.7692677 C13.4632615,14.7692677 14.7880615,13.4440985 14.7880615,11.8154215 C14.7880615,10.1863754 13.4632615,8.86157538 11.8342154,8.86157538 Z M11.8441846,16.2532062 C9.39212308,16.2532062 7.39643077,14.2619446 7.39643077,11.8154215 C7.39643077,9.36852923 9.39212308,7.37726769 11.8441846,7.37726769 C14.2966154,7.37726769 16.2923077,9.36852923 16.2923077,11.8154215 C16.2923077,14.2619446 14.2966154,16.2532062 11.8441846,16.2532062 Z M1.49593846,11.1361108 L1.49593846,12.50928 C1.56018462,12.5546954 1.68350769,12.6182031 1.85409231,12.6569723 L4.56535385,13.33488 L4.81901538,14.1117415 C4.9224,14.4289108 5.05532308,14.7490338 5.22406154,15.0894646 L5.58295385,15.8127877 L4.0728,18.3294646 C3.99193846,18.4586954 3.95169231,18.5849723 3.93876923,18.6614031 L4.90726154,19.6040492 C5.004,19.6040492 5.11033846,19.5656492 5.20966154,19.4984492 L7.64104615,17.9487877 L8.40018462,18.3497723 C8.79378462,18.5576492 9.19809231,18.7278646 9.60350769,18.8552492 L10.3903385,19.1048492 L11.0700923,21.8234954 C11.1040615,21.9730338 11.1657231,22.0911877 11.2111385,22.1539569 L12.54,22.1539569 C12.5939077,22.1114954 12.6725538,21.9929723 12.7006154,21.8460185 L13.3091077,19.0970954 L14.1140308,18.8364185 C14.4862154,18.7160492 14.8595077,18.5594954 15.2239385,18.3708185 L15.9797538,17.9798031 L18.4107692,19.5302031 C18.4617231,19.5656492 18.5684308,19.6040492 18.6622154,19.6335877 L19.6336615,18.6636185 C19.6207385,18.5857108 19.5775385,18.4535262 19.4852308,18.3058338 L18.0385846,15.8936492 L18.4092923,15.1651569 C18.5872615,14.8147569 18.7356923,14.4599262 18.8505231,14.1102646 L19.1041846,13.3341415 L21.8424,12.6506954 C21.9926769,12.6159877 22.1108308,12.5539569 22.1736,12.5089108 L22.1850462,11.1981415 C22.1577231,11.14608 22.0292308,11.0511877 21.8641846,11.0205415 L19.1344615,10.4146338 L18.8793231,9.59900308 C18.7652308,9.23309538 18.6116308,8.86386462 18.4107692,8.46989538 L18.0378462,7.74066462 L19.4996308,5.30632615 C19.5804923,5.17672615 19.6207385,5.05044923 19.6336615,4.97364923 L18.6644308,4.03174154 C18.5684308,4.03174154 18.4617231,4.06940308 18.3624,4.13734154 L15.9816,5.65377231 L15.2261538,5.26128 C14.8576615,5.06964923 14.4788308,4.91124923 14.1018462,4.78940308 L13.2976615,4.52909538 L12.6773538,1.72774154 C12.6577846,1.62066462 12.5628923,1.49217231 12.5728615,1.47703385 L11.1996923,1.47703385 C11.1539077,1.54128 11.0911385,1.66460308 11.052,1.83518769 L10.3785231,4.52946462 L9.59353846,4.77943385 C9.18775385,4.90866462 8.78492308,5.07814154 8.39575385,5.28306462 L7.63698462,5.68331077 L5.16055385,4.10484923 C5.1096,4.06940308 5.00363077,4.03174154 4.90947692,4.00146462 L3.9384,4.97217231 C3.95132308,5.04971077 3.99452308,5.18152615 4.0872,5.32995692 L5.58147692,7.82078769 L5.22258462,8.54411077 C5.03464615,8.92368 4.89249231,9.26891077 4.78836923,9.60084923 L4.53249231,10.4150031 L1.74664615,11.0319877 C1.64510769,11.0504492 1.524,11.1368492 1.49926154,11.1368492 C1.49778462,11.1368492 1.49667692,11.13648 1.49593846,11.1361108 Z M1.49593846,14.0899569 C0.792184615,13.9282338 0.0190153846,13.4286646 0.0190153846,12.6130338 L0.0190153846,11.1361108 C0.0190153846,10.32048 0.780738462,9.70534154 1.48449231,9.57832615 L3.37938462,9.15814154 C3.51784615,8.71728 3.69729231,8.29598769 3.89963077,7.88798769 L2.82073846,6.08983385 C2.43747692,5.47801846 2.244,4.57783385 2.82073846,4.00109538 L3.86529231,2.95691077 C4.44203077,2.38017231 5.41532308,2.48355692 6.00276923,2.89155692 L7.70676923,3.97672615 C8.16461538,3.73561846 8.64461538,3.53143385 9.14529231,3.37229538 L9.61901538,1.47703385 C9.78036923,0.77328 10.2803077,0.000110769231 11.0959385,0.000110769231 L12.5728615,0.000110769231 C13.3884923,0.000110769231 14.0036308,0.761464615 14.1306462,1.46558769 L14.556,3.38374154 C15.0249231,3.53512615 15.4753846,3.72675692 15.9066462,3.95051077 L17.5689231,2.89155692 C18.1567385,2.48355692 19.1304,2.38017231 19.7064,2.95691077 L20.7513231,4.00109538 C21.3276923,4.57783385 21.1345846,5.47801846 20.7513231,6.08983385 L19.7259692,7.79826462 C19.9482462,8.23321846 20.1413538,8.68515692 20.2890462,9.15814154 L22.1843077,9.57832615 C22.8884308,9.70534154 23.6497846,10.32048 23.6497846,11.1361108 L23.6497846,12.6130338 C23.6497846,13.4286646 22.8766154,13.9282338 22.1728615,14.0899569 L20.2539692,14.5695877 C20.1103385,15.0078646 19.9316308,15.4298954 19.7252308,15.8353108 L20.7513231,17.5455877 C21.1345846,18.1574031 21.3276923,19.0572185 20.7513231,19.6343262 L19.7064,20.6785108 C19.1304,21.2552492 18.1567385,21.1514954 17.5689231,20.7438646 L15.9033231,19.6823262 C15.4768615,19.9031262 15.0319385,20.0921723 14.5681846,20.24208 L14.1420923,22.1654031 C14.0150769,22.8691569 13.3999385,23.63088 12.5843077,23.63088 L11.1073846,23.63088 C10.2917538,23.63088 9.79218462,22.8577108 9.63046154,22.1539569 L9.15784615,20.2638646 C8.65421538,20.1043569 8.17126154,19.8986954 7.71083077,19.6557415 L6.00313846,20.7438646 C5.41532308,21.1514954 4.44203077,21.2552492 3.86566154,20.6785108 L2.82073846,19.6343262 C2.24436923,19.0572185 2.43784615,18.1574031 2.82073846,17.5455877 L3.90110769,15.7455877 C3.71316923,15.3671262 3.54775385,14.9761108 3.41483077,14.5695877 L1.49593846,14.0899569 Z" id="path-1"></path>
    </defs>
    <g id="Page-1" stroke="none" stroke-width="1" fill="none" fill-rule="evenodd">
        <g id="C3p-icon-pack" transform="translate(-171.000000, -363.000000)">
            <g id="Group" transform="translate(63.000000, 86.000000)">
                <g id="c3p-settings" transform="translate(108.000000, 277.000000)">
                    <mask id="mask-2" fill="white">
                        <use xlink:href="#path-1"></use>
                    </mask>
                    <use id="Mask" fill="#000000" xlink:href="#path-1"></use>
                </g>
            </g>
        </g>
    </g>
</svg>