<?xml version="1.0" encoding="UTF-8"?>
<svg width="24px" height="24px" viewBox="0 0 24 24" version="1.1" xmlns="http://www.w3.org/2000/svg" xmlns:xlink="http://www.w3.org/1999/xlink">
    <!-- Generator: Sketch 52.4 (67378) - http://www.bohemiancoding.com/sketch -->
    <title>c3p-volume-2</title>
    <desc>Created with Sketch.</desc>
    <defs>
        <path d="M18.9216375,5.2595625 C21.7671375,6.3215625 23.6796375,9.0868125 23.6796375,12.1408125 C23.6796375,15.1948125 21.7686375,17.9634375 18.9246375,19.0299375 C18.8380125,19.0621875 18.7495125,19.0775625 18.6617625,19.0775625 C18.3576375,19.0775625 18.0718875,18.8923125 17.9593875,18.5904375 C17.8142625,18.2030625 18.0103875,17.7706875 18.3985125,17.6251875 C20.6597625,16.7776875 22.1796375,14.5730625 22.1796375,12.1408125 C22.1796375,9.7096875 20.6597625,7.5091875 18.3973875,6.6650625 C18.0088875,6.5199375 17.8120125,6.0883125 17.9571375,5.7001875 C18.1011375,5.3120625 18.5342625,5.1151875 18.9216375,5.2595625 Z M19.917,12.1406625 C19.917,14.0685375 18.556875,15.7391625 16.682625,16.1119125 C16.6335,16.1220375 16.583625,16.1265375 16.53525,16.1265375 C16.184625,16.1265375 15.871875,15.8797875 15.800625,15.5231625 C15.719625,15.1166625 15.98325,14.7217875 16.38975,14.6411625 C17.564625,14.4067875 18.417,13.3556625 18.417,12.1406625 C18.417,10.8645375 17.593125,9.8359125 16.41375,9.6386625 C16.00575,9.5704125 15.72975,9.1837875 15.798,8.7754125 C15.865875,8.3670375 16.246125,8.0906625 16.66125,8.1592875 C18.5475,8.4742875 19.917,10.1486625 19.917,12.1406625 Z M12.3935625,20.3935875 L12.3935625,3.6273375 L5.8471875,8.8773375 C5.7234375,8.9605875 5.5775625,9.0052125 5.4286875,9.0052125 L2.7001875,9.0070875 C2.2183125,9.0070875 1.8826875,9.2804625 1.8826875,9.5264625 L1.9228125,14.4749625 C1.9228125,14.7269625 2.2588125,15.0014625 2.7403125,15.0014625 L5.4680625,15.0029625 C5.6176875,15.0029625 5.7635625,15.0475875 5.8873125,15.1312125 L12.3935625,20.3935875 Z M13.4956875,1.5565875 C13.7405625,1.6867125 13.8935625,1.9413375 13.8935625,2.2184625 L13.8935625,21.8050875 C13.8935625,22.0825875 13.7405625,22.3375875 13.4953125,22.4669625 C13.3854375,22.5258375 13.2643125,22.5550875 13.1435625,22.5550875 C12.9961875,22.5550875 12.8499375,22.5115875 12.7239375,22.4268375 L5.2381875,16.5029625 L2.7399375,16.5014625 C1.4626875,16.5014625 0.4228125,15.5947125 0.4228125,14.4805875 L0.3826875,9.5320875 C0.3826875,8.4130875 1.4221875,7.5070875 2.6998125,7.5070875 L5.1988125,7.5052125 L12.7246875,1.5963375 C12.9545625,1.4410875 13.2511875,1.4264625 13.4956875,1.5565875 Z" id="path-1"></path>
    </defs>
    <g id="Page-1" stroke="none" stroke-width="1" fill="none" fill-rule="evenodd">
        <g id="C3p-icon-pack" transform="translate(-171.000000, -471.000000)">
            <g id="Group" transform="translate(63.000000, 86.000000)">
                <g id="c3p-volume-2" transform="translate(108.000000, 385.000000)">
                    <mask id="mask-2" fill="white">
                        <use xlink:href="#path-1"></use>
                    </mask>
                    <use id="Mask" fill="#000000" xlink:href="#path-1"></use>
                </g>
            </g>
        </g>
    </g>
</svg>