<?xml version="1.0" encoding="UTF-8"?>
<svg width="24px" height="24px" viewBox="0 0 24 24" version="1.1" xmlns="http://www.w3.org/2000/svg" xmlns:xlink="http://www.w3.org/1999/xlink">
    <!-- Generator: Sketch 52.4 (67378) - http://www.bohemiancoding.com/sketch -->
    <title>c3p-bulb</title>
    <desc>Created with Sketch.</desc>
    <defs>
        <path d="M12.1604431,1.47847385 C15.9162585,1.47847385 18.8331815,4.53385846 18.8331815,8.28930462 C18.8331815,10.8513969 17.7147815,11.9487508 16.4996431,13.0102892 C15.4964431,13.8864738 14.3665969,14.7925662 14.3665969,16.3776738 L14.3665969,17.31072 C14.0158277,17.5064123 13.3696738,17.7390277 12.1482585,17.7390277 C10.86592,17.7390277 10.2577969,17.5115815 9.95502769,17.3358277 L9.95502769,16.3776738 C9.95502769,15.11712 8.96992,14.3169969 8.02395077,13.4696123 C6.77041231,12.3464123 5.48844308,11.0729354 5.48844308,8.28930462 C5.48844308,4.53385846 8.40536615,1.47847385 12.1604431,1.47847385 Z M14.3780431,19.8621046 C14.3780431,21.3194585 13.5646277,22.1553969 12.1323815,22.1553969 C10.7499815,22.1553969 9.94727385,21.2980431 9.94727385,19.8621046 L9.93656615,18.8773662 C10.4678892,19.0590277 11.1912123,19.2015508 12.1608123,19.2015508 C13.1167508,19.2015508 13.84192,19.0486892 14.3780431,18.8607508 L14.3780431,19.8621046 Z M7.03884308,14.5691815 C7.89915077,15.3405046 8.47810462,15.8049969 8.47810462,16.3776738 L8.47810462,17.6293662 C8.47810462,17.6614892 8.48290462,17.6932431 8.48696615,17.7246277 L8.47035077,17.7246277 L8.47035077,19.8621046 C8.47035077,22.1169969 9.92844308,23.63232 12.1870277,23.63232 C14.3673354,23.63232 15.8549662,22.1169969 15.8549662,19.8621046 L15.8549662,17.7246277 L15.8331815,17.7246277 C15.8376123,17.6928738 15.84352,17.6614892 15.84352,17.6293662 L15.84352,16.3776738 C15.84352,15.50592 16.4904123,14.9790277 17.4710892,14.1227815 C18.7981046,12.9641354 20.3101046,11.5222892 20.3101046,8.28930462 C20.3101046,3.71933538 16.7304123,0.00155076923 12.1604431,0.00155076923 C7.59047385,0.00155076923 4.01152,3.71933538 4.01152,8.28930462 C4.01152,11.7323815 5.70259692,13.3721354 7.03884308,14.5691815 Z" id="path-1"></path>
    </defs>
    <g id="Page-1" stroke="none" stroke-width="1" fill="none" fill-rule="evenodd">
        <g id="C3p-icon-pack" transform="translate(-561.000000, -93.000000)">
            <g id="Group" transform="translate(63.000000, 86.000000)">
                <g id="c3p-bulb" transform="translate(498.000000, 7.000000)">
                    <mask id="mask-2" fill="white">
                        <use xlink:href="#path-1"></use>
                    </mask>
                    <use id="Mask" fill="#000000" xlink:href="#path-1"></use>
                </g>
            </g>
        </g>
    </g>
</svg>