<?xml version="1.0" encoding="UTF-8"?>
<svg width="24px" height="24px" viewBox="0 0 24 24" version="1.1" xmlns="http://www.w3.org/2000/svg" xmlns:xlink="http://www.w3.org/1999/xlink">
    <!-- Generator: Sketch 52.4 (67378) - http://www.bohemiancoding.com/sketch -->
    <title>c3p-arrow-se-circle</title>
    <desc>Created with Sketch.</desc>
    <g id="Page-1" stroke="none" stroke-width="1" fill="none" fill-rule="evenodd">
        <g id="C3p-icon-pack" transform="translate(-1623.000000, -302.000000)" fill="#000000">
            <g id="Group" transform="translate(63.000000, 86.000000)">
                <g id="c3p-arrow-se-circle" transform="translate(1560.000000, 216.000000)">
                    <path d="M11.85312,22.1784738 C17.5536738,22.1784738 22.1915815,17.5176738 22.1915815,11.81712 C22.1915815,6.11619692 17.5536738,1.47828923 11.85312,1.47828923 C6.15256615,1.47828923 1.51465846,6.11619692 1.51465846,11.81712 C1.51465846,17.5176738 6.15256615,22.1784738 11.85312,22.1784738 Z M23.6685046,11.81712 C23.6685046,18.3425354 18.3785354,23.6325046 11.85312,23.6325046 C5.32733538,23.6325046 0.0377353846,18.3425354 0.0377353846,11.81712 C0.0377353846,5.29170462 5.32733538,0.00136615385 11.85312,0.00136615385 C18.3785354,0.00136615385 23.6685046,5.29170462 23.6685046,11.81712 Z M13.8015664,14.8729218 L7.72434807,8.79570349 C7.44362668,8.51498209 7.445748,8.05465558 7.72929782,7.77110576 C8.01001921,7.49038437 8.4675173,7.49109148 8.74894579,7.77110576 L14.8268713,13.8490312 L14.8268713,9.62901795 C14.8268713,9.43809912 14.9018246,9.25707978 15.0382962,9.12060817 C15.176182,8.98272235 15.3564942,8.90847614 15.5481202,8.90776903 C15.7432816,8.90776903 15.9271294,8.98413656 16.063601,9.12060817 C16.2021939,9.2592011 16.2771473,9.44304887 16.2736117,9.63326059 L16.2736117,15.595585 C16.2771473,15.7900393 16.202901,15.97318 16.0650152,16.1110658 C15.9264223,16.2496587 15.7432816,16.323905 15.5516557,16.3203694 L9.59145265,16.3210765 C9.39629117,16.323905 9.21244341,16.2489516 9.07455759,16.1110658 C8.93737887,15.9738871 8.86101134,15.7900393 8.86101134,15.5948779 C8.86030423,15.2024336 9.18415914,14.8757503 9.5865029,14.8693863 L13.8015664,14.8729218 Z" id="Shape"></path>
                </g>
            </g>
        </g>
    </g>
</svg>