<?xml version="1.0" encoding="UTF-8"?>
<svg width="24px" height="24px" viewBox="0 0 24 24" version="1.1" xmlns="http://www.w3.org/2000/svg" xmlns:xlink="http://www.w3.org/1999/xlink">
    <!-- Generator: Sketch 52.4 (67378) - http://www.bohemiancoding.com/sketch -->
    <title>c3p-film</title>
    <desc>Created with Sketch.</desc>
    <g id="Page-1" stroke="none" stroke-width="1" fill="none" fill-rule="evenodd">
        <g id="C3p-icon-pack" transform="translate(-1059.000000, -255.000000)" fill="#000000">
            <g id="Group" transform="translate(63.000000, 86.000000)">
                <g id="c3p-film" transform="translate(996.000000, 169.000000)">
                    <path d="M19.9485415,17.3100185 C20.3561723,17.3100185 20.6870031,17.6408492 20.6870031,18.04848 L20.6870031,18.7869415 C20.6870031,19.1945723 20.3561723,19.5254031 19.9485415,19.5254031 L18.4716185,19.5254031 C18.0639877,19.5254031 17.7331569,19.1945723 17.7331569,18.7869415 L17.7331569,18.04848 C17.7331569,17.6408492 18.0639877,17.3100185 18.4716185,17.3100185 L19.9485415,17.3100185 Z M5.17931077,12.8792492 C5.58694154,12.8792492 5.91777231,13.21008 5.91777231,13.6177108 L5.91777231,14.3561723 C5.91777231,14.7638031 5.58694154,15.0946338 5.17931077,15.0946338 L3.70238769,15.0946338 C3.29475692,15.0946338 2.96392615,14.7638031 2.96392615,14.3561723 L2.96392615,13.6177108 C2.96392615,13.21008 3.29475692,12.8792492 3.70238769,12.8792492 L5.17931077,12.8792492 Z M5.17931077,17.3100185 C5.58694154,17.3100185 5.91777231,17.6408492 5.91777231,18.04848 L5.91777231,18.7869415 C5.91777231,19.1945723 5.58694154,19.5254031 5.17931077,19.5254031 L3.70238769,19.5254031 C3.29475692,19.5254031 2.96392615,19.1945723 2.96392615,18.7869415 L2.96392615,18.04848 C2.96392615,17.6408492 3.29475692,17.3100185 3.70238769,17.3100185 L5.17931077,17.3100185 Z M5.17931077,8.44848 C5.58694154,8.44848 5.91777231,8.77931077 5.91777231,9.18694154 L5.91777231,9.92540308 C5.91777231,10.3330338 5.58694154,10.6638646 5.17931077,10.6638646 L3.70238769,10.6638646 C3.29475692,10.6638646 2.96392615,10.3330338 2.96392615,9.92540308 L2.96392615,9.18694154 C2.96392615,8.77931077 3.29475692,8.44848 3.70238769,8.44848 L5.17931077,8.44848 Z M1.48689231,21.7362462 L22.1638154,21.7362462 L22.1638154,1.79335385 L1.48689231,1.79335385 L1.48689231,21.7362462 Z M1.48689231,23.2131692 C0.674953846,23.2131692 0.00996923077,22.5481846 0.00996923077,21.7362462 L0.00996923077,1.79335385 C0.00996923077,0.981415385 0.674953846,0.316430769 1.48689231,0.316430769 L22.1638154,0.316430769 C22.9761231,0.316430769 23.6407385,0.981415385 23.6407385,1.79335385 L23.6407385,21.7362462 C23.6407385,22.5481846 22.9761231,23.2131692 22.1638154,23.2131692 L1.48689231,23.2131692 Z M19.9485415,4.01771077 C20.3561723,4.01771077 20.6870031,4.34854154 20.6870031,4.75617231 L20.6870031,5.49463385 C20.6870031,5.90226462 20.3561723,6.23309538 19.9485415,6.23309538 L18.4716185,6.23309538 C18.0639877,6.23309538 17.7331569,5.90226462 17.7331569,5.49463385 L17.7331569,4.75617231 C17.7331569,4.34854154 18.0639877,4.01771077 18.4716185,4.01771077 L19.9485415,4.01771077 Z M19.9485415,12.8792492 C20.3561723,12.8792492 20.6870031,13.21008 20.6870031,13.6177108 L20.6870031,14.3561723 C20.6870031,14.7638031 20.3561723,15.0946338 19.9485415,15.0946338 L18.4716185,15.0946338 C18.0639877,15.0946338 17.7331569,14.7638031 17.7331569,14.3561723 L17.7331569,13.6177108 C17.7331569,13.21008 18.0639877,12.8792492 18.4716185,12.8792492 L19.9485415,12.8792492 Z M5.17931077,4.01771077 C5.58694154,4.01771077 5.91777231,4.34854154 5.91777231,4.75617231 L5.91777231,5.49463385 C5.91777231,5.90226462 5.58694154,6.23309538 5.17931077,6.23309538 L3.70238769,6.23309538 C3.29475692,6.23309538 2.96392615,5.90226462 2.96392615,5.49463385 L2.96392615,4.75617231 C2.96392615,4.34854154 3.29475692,4.01771077 3.70238769,4.01771077 L5.17931077,4.01771077 Z M19.9485415,8.44848 C20.3561723,8.44848 20.6870031,8.77931077 20.6870031,9.18694154 L20.6870031,9.92540308 C20.6870031,10.3330338 20.3561723,10.6638646 19.9485415,10.6638646 L18.4716185,10.6638646 C18.0639877,10.6638646 17.7331569,10.3330338 17.7331569,9.92540308 L17.7331569,9.18694154 C17.7331569,8.77931077 18.0639877,8.44848 18.4716185,8.44848 L19.9485415,8.44848 Z" id="Shape"></path>
                </g>
            </g>
        </g>
    </g>
</svg>