<?xml version="1.0" encoding="UTF-8"?>
<svg width="24px" height="24px" viewBox="0 0 24 24" version="1.1" xmlns="http://www.w3.org/2000/svg" xmlns:xlink="http://www.w3.org/1999/xlink">
    <!-- Generator: Sketch 52.4 (67378) - http://www.bohemiancoding.com/sketch -->
    <title>c3p-shuffle</title>
    <desc>Created with Sketch.</desc>
    <g id="Page-1" stroke="none" stroke-width="1" fill="none" fill-rule="evenodd">
        <g id="C3p-icon-pack" transform="translate(-561.000000, -417.000000)" fill="#000000">
            <g id="Group" transform="translate(63.000000, 86.000000)">
                <g id="c3p-shuffle" transform="translate(498.000000, 331.000000)">
                    <path d="M19.6284,22.3812125 C19.4094,22.1715875 19.480275,21.8318375 19.699275,21.6225875 L21.5094,19.9992125 L16.0029,19.9928375 L13.175025,15.6390875 L14.09565,14.3438375 L16.77765,18.4928375 L21.442275,18.4988375 L19.6524,16.8762125 C19.4334,16.6669625 19.36215,16.3275875 19.581525,16.1183375 L19.709775,15.9293375 C19.929525,15.7197125 20.283525,15.7197125 20.5029,15.9293375 L23.5434,18.7050875 C23.548275,18.7088375 23.552775,18.7103375 23.556525,18.7140875 L23.7549,18.9038375 C23.8644,19.0077125 23.918775,19.1460875 23.918025,19.2837125 C23.918775,19.4220875 23.8644,19.5600875 23.7549,19.6654625 L23.556525,19.8552125 C23.552775,19.8585875 23.547525,19.8593375 23.5434,19.8630875 L20.5494,22.5702125 C20.330775,22.7794625 19.9764,22.7794625 19.75665,22.5702125 L19.6284,22.3812125 Z M0.0469125,6.4928 L0.0469125,4.9928 L7.1839125,4.9928 L10.3316625,9.288425 L9.4117875,10.5833 L6.4099125,6.4928 L0.0469125,6.4928 Z M23.7548625,5.4036875 C23.8643625,5.5075625 23.9187375,5.6459375 23.9183625,5.7839375 C23.9187375,5.9223125 23.8643625,6.0599375 23.7548625,6.1653125 L23.5564875,6.3550625 C23.5527375,6.3588125 23.5474875,6.3595625 23.5437375,6.3633125 L20.5493625,9.0700625 C20.3307375,9.2796875 19.9763625,9.2796875 19.7566125,9.0700625 L19.6283625,8.8810625 C19.4093625,8.6718125 19.4806125,8.3320625 19.6996125,8.1224375 L21.5164875,6.4926875 L16.7779875,6.4926875 L7.1839875,19.9926875 L0.0469875,19.9926875 L0.0469875,18.4926875 L6.4099875,18.4926875 L16.0028625,4.9926875 L21.4351125,4.9926875 L19.6527375,3.3764375 C19.4337375,3.1668125 19.3621125,2.8278125 19.5814875,2.6181875 L19.7097375,2.4291875 C19.9294875,2.2199375 20.2834875,2.2199375 20.5028625,2.4291875 L23.5437375,5.2053125 C23.5482375,5.2086875 23.5527375,5.2101875 23.5564875,5.2139375 L23.7548625,5.4036875 Z" id="Shape"></path>
                </g>
            </g>
        </g>
    </g>
</svg>