<?xml version="1.0" encoding="UTF-8"?>
<svg width="24px" height="24px" viewBox="0 0 24 24" version="1.1" xmlns="http://www.w3.org/2000/svg" xmlns:xlink="http://www.w3.org/1999/xlink">
    <!-- Generator: Sketch 52.4 (67378) - http://www.bohemiancoding.com/sketch -->
    <title>c3p-open-envelope</title>
    <desc>Created with Sketch.</desc>
    <defs>
        <path d="M1.45927273,12.7453818 L6.13781818,16.8733818 L1.45927273,21.1810182 L1.45927273,12.7453818 Z M2.33127273,10.4297455 L2.36472727,10.4297455 L11.1716364,2.00865455 C11.3094545,1.8712 11.492,1.7952 11.6858182,1.7952 C11.8803636,1.7952 12.0629091,1.8712 12.2007273,2.00865455 L20.4138182,9.83483636 L20.3916364,9.83483636 L21.6392727,11.1024727 L16.1323636,15.9897455 L13.0585455,13.2250182 C12.2021818,12.5541091 10.9727273,12.5250182 10.0658182,13.2562909 L7.21345455,15.8828364 L1.71781818,11.0341091 L2.33127273,10.4297455 Z M21.8229091,21.1086545 L17.2207273,16.9690182 L21.8229091,12.8850182 L21.8229091,21.1086545 Z M2.51345455,22.1868364 L7.63345455,17.4719273 C7.68545455,17.4377455 7.73454545,17.3984727 7.77745455,17.3497455 C7.78545455,17.3402909 7.79090909,17.3297455 7.79854545,17.3202909 L11.0076364,14.3650182 C11.1723636,14.2322909 11.3676364,14.1624727 11.5727273,14.1624727 C11.7818182,14.1624727 11.9905455,14.2359273 12.1305455,14.3442909 L20.8487273,22.1868364 L2.51345455,22.1868364 Z M1.45927273,23.6413818 L21.8229091,23.6413818 C22.6225455,23.6413818 23.2774545,22.9868364 23.2774545,22.1868364 L23.2774545,11.3181091 C23.2821818,11.2526545 23.2763636,11.1872 23.2632727,11.1224727 C23.2323636,10.8653818 23.1356364,10.6286545 22.9883636,10.4297455 L22.992,10.4297455 L22.972,10.4101091 C22.8974545,10.3119273 22.8101818,10.2253818 22.7127273,10.1486545 L13.2290909,0.980290909 C12.4061818,0.156654545 10.9676364,0.155563636 10.1432727,0.980290909 L0.661090909,10.0770182 C0.455636364,10.2679273 0.00472727273,10.7835636 0.00472727273,11.2893818 L0.00472727273,22.1868364 C0.00472727273,22.9868364 0.659636364,23.6413818 1.45927273,23.6413818 Z" id="path-1"></path>
    </defs>
    <g id="Page-1" stroke="none" stroke-width="1" fill="none" fill-rule="evenodd">
        <g id="C3p-icon-pack" transform="translate(-1287.000000, -140.000000)">
            <g id="Group" transform="translate(63.000000, 86.000000)">
                <g id="c3p-open-envelope" transform="translate(1224.000000, 54.000000)">
                    <mask id="mask-2" fill="white">
                        <use xlink:href="#path-1"></use>
                    </mask>
                    <use id="Mask" fill="#000000" xlink:href="#path-1"></use>
                </g>
            </g>
        </g>
    </g>
</svg>