<?xml version="1.0" encoding="UTF-8"?>
<svg width="24px" height="24px" viewBox="0 0 24 24" version="1.1" xmlns="http://www.w3.org/2000/svg" xmlns:xlink="http://www.w3.org/1999/xlink">
    <!-- Generator: Sketch 52.4 (67378) - http://www.bohemiancoding.com/sketch -->
    <title>c3p-ellipsis</title>
    <desc>Created with Sketch.</desc>
    <g id="Page-1" stroke="none" stroke-width="1" fill="none" fill-rule="evenodd">
        <g id="C3p-icon-pack" transform="translate(-1623.000000, -410.000000)" fill="#000000">
            <g id="Group" transform="translate(63.000000, 86.000000)">
                <g id="c3p-ellipsis" transform="translate(1560.000000, 324.000000)">
                    <path d="M13.2498,11.5135087 C13.2498,12.3406775 12.578429,13.0125 11.7498,13.0125 C10.921171,13.0125 10.2498,12.3406775 10.2498,11.5135087 C10.2498,10.6843225 10.921171,10.0125 11.7498,10.0125 C12.578429,10.0125 13.2498,10.6843225 13.2498,11.5135087 Z M13.2498,6.51350874 C13.2498,7.34067754 12.578429,8.0125 11.7498,8.0125 C10.921171,8.0125 10.2498,7.34067754 10.2498,6.51350874 C10.2498,5.68432246 10.921171,5.0125 11.7498,5.0125 C12.578429,5.0125 13.2498,5.68432246 13.2498,6.51350874 Z M13.2498,16.5135087 C13.2498,17.3406775 12.578429,18.0125 11.7498,18.0125 C10.921171,18.0125 10.2498,17.3406775 10.2498,16.5135087 C10.2498,15.6843225 10.921171,15.0125 11.7498,15.0125 C12.578429,15.0125 13.2498,15.6843225 13.2498,16.5135087 Z" id="Shape"></path>
                </g>
            </g>
        </g>
    </g>
</svg>