<?xml version="1.0" encoding="UTF-8"?>
<svg width="24px" height="24px" viewBox="0 0 24 24" version="1.1" xmlns="http://www.w3.org/2000/svg" xmlns:xlink="http://www.w3.org/1999/xlink">
    <!-- Generator: Sketch 52.4 (67378) - http://www.bohemiancoding.com/sketch -->
    <title>c3p-actual-size</title>
    <desc>Created with Sketch.</desc>
    <g id="Page-1" stroke="none" stroke-width="1" fill="none" fill-rule="evenodd">
        <g id="C3p-icon-pack" transform="translate(-669.000000, -255.000000)" fill="#000000">
            <g id="Group" transform="translate(63.000000, 86.000000)">
                <g id="c3p-actual-size" transform="translate(606.000000, 169.000000)">
                    <path d="M0.260566154,0.607310769 C0.548935385,0.318941538 1.01638154,0.318941538 1.30475077,0.607310769 L7.44948923,6.69334154 L7.42881231,3.11069538 C7.42216615,2.81272615 7.65884308,2.55278769 7.95755077,2.55943385 L8.33638154,2.56017231 C8.63508923,2.56718769 8.88210462,2.74478769 8.88838154,3.04312615 L8.90388923,8.37408 C8.90388923,8.37888 8.88358154,8.38294154 8.88358154,8.38811077 L8.91312,8.65838769 C8.91607385,8.80829538 8.88136615,8.94195692 8.78425846,9.03795692 C8.68862769,9.13432615 8.55459692,9.19266462 8.40579692,9.18860308 L8.13552,9.18269538 C8.13035077,9.18269538 8.12665846,9.18048 8.12075077,9.18011077 L2.82450462,9.20300308 C2.52653538,9.19635692 2.27988923,8.94971077 2.27250462,8.65100308 L2.27176615,8.27180308 C2.31718154,7.92029538 2.59373538,7.71463385 2.89207385,7.72091077 L6.37872,7.71168 L0.260566154,1.65149538 C-0.0278030769,1.36312615 -0.0278030769,0.89568 0.260566154,0.607310769 Z M23.4918277,0.607310769 C23.7801969,0.89568 23.7801969,1.36312615 23.4918277,1.65149538 L17.3736738,7.71168 L20.86032,7.72091077 C21.1586585,7.71463385 21.4352123,7.92029538 21.4806277,8.27180308 L21.4798892,8.65100308 C21.4725046,8.94971077 21.2258585,9.19635692 20.9278892,9.20300308 L15.6316431,9.18011077 C15.6257354,9.18048 15.6220431,9.18269538 15.6168738,9.18269538 L15.3465969,9.18860308 C15.1977969,9.19266462 15.0637662,9.13432615 14.9681354,9.03795692 C14.8710277,8.94195692 14.83632,8.80829538 14.8392738,8.65838769 L14.8688123,8.38811077 C14.8688123,8.38294154 14.8485046,8.37888 14.8485046,8.37408 L14.8640123,3.04312615 C14.8702892,2.74478769 15.1169354,2.56718769 15.4160123,2.56017231 L15.7948431,2.55943385 C16.0935508,2.55278769 16.3302277,2.81272615 16.3232123,3.11069538 L16.3029046,6.69334154 L22.4476431,0.607310769 C22.7360123,0.318941538 23.2034585,0.318941538 23.4918277,0.607310769 Z M0.260566154,23.7650215 C-0.0278030769,23.4766523 -0.0278030769,23.0092062 0.260566154,22.7204677 L6.38241231,16.6373908 L2.89207385,16.62816 C2.59373538,16.6348062 2.31718154,16.4287754 2.27176615,16.0772677 L2.27250462,15.6984369 C2.27988923,15.39936 2.52653538,15.1527138 2.82450462,15.1460677 L8.12075077,15.1693292 C8.12665846,15.1685908 8.13035077,15.1667446 8.13552,15.1667446 L8.40579692,15.1604677 C8.55459692,15.1564062 8.68862769,15.2151138 8.78425846,15.3111138 C8.88136615,15.4071138 8.91607385,15.5407754 8.91312,15.6906831 L8.88358154,15.9842215 C8.88358154,15.9893908 8.90388923,15.9934523 8.90388923,15.9982523 L8.88838154,21.3292062 C8.88210462,21.6275446 8.63508923,21.8051446 8.33638154,21.81216 L7.95755077,21.8125292 C7.65884308,21.8191754 7.42216615,21.5596062 7.42881231,21.2612677 L7.44948923,17.6594215 L1.30475077,23.7650215 C1.01638154,24.0533908 0.548935385,24.0533908 0.260566154,23.7650215 Z M17.3699446,16.6375015 L23.4917908,22.7205785 C23.78016,23.0089477 23.78016,23.4763938 23.4917908,23.7651323 C23.2034215,24.0531323 22.7359754,24.0531323 22.4476062,23.7651323 L16.2803446,17.6949785 L16.3002831,21.2613785 C16.3069292,21.5597169 16.0702523,21.8192862 15.7719138,21.81264 L15.3698215,21.8122708 C15.0707446,21.8052554 14.8240985,21.6276554 14.8178215,21.3293169 L14.8023138,15.9983631 C14.8023138,15.9931938 14.8226215,15.9895015 14.8226215,15.9839631 L14.7930831,15.7140554 C14.7901292,15.5637785 14.8248369,15.4301169 14.9219446,15.3344862 C15.0175754,15.2381169 15.1516062,15.1332554 15.3007754,15.1373169 L15.6168369,15.1435938 C15.6220062,15.1435938 15.6256985,15.14544 15.6316062,15.1461785 L20.9278523,15.1461785 C21.2258215,15.1528246 21.4724677,15.3994708 21.4798523,15.6985477 L21.4805908,16.0773785 C21.4351754,16.4288862 21.1586215,16.6349169 20.8602831,16.6282708 L17.3699446,16.6375015 Z" id="Shape"></path>
                </g>
            </g>
        </g>
    </g>
</svg>