<?xml version="1.0" encoding="UTF-8"?>
<svg width="24px" height="24px" viewBox="0 0 24 24" version="1.1" xmlns="http://www.w3.org/2000/svg" xmlns:xlink="http://www.w3.org/1999/xlink">
    <!-- Generator: Sketch 52.4 (67378) - http://www.bohemiancoding.com/sketch -->
    <title>c3p-equalizer</title>
    <desc>Created with Sketch.</desc>
    <g id="Page-1" stroke="none" stroke-width="1" fill="none" fill-rule="evenodd">
        <g id="C3p-icon-pack" transform="translate(-669.000000, -363.000000)" fill="#000000">
            <g id="Group" transform="translate(63.000000, 86.000000)">
                <g id="c3p-equalizer" transform="translate(606.000000, 277.000000)">
                    <path d="M11.8621292,17.7253662 C12.6725908,17.7198277 13.3309292,17.0592738 13.3309292,16.2477046 C13.3309292,15.4357662 12.6714831,14.7748431 11.8606523,14.7700431 C11.8580677,14.7700431 11.8554831,14.7707815 11.8532677,14.7707815 C11.8503138,14.7707815 11.84736,14.7700431 11.8444062,14.7700431 C11.0328369,14.7741046 10.3733908,15.4353969 10.3733908,16.2477046 C10.3733908,17.0596431 11.0320985,17.7205662 11.8429292,17.7257354 C11.8462523,17.7257354 11.8495754,17.7246277 11.8532677,17.7246277 C11.8562215,17.7246277 11.8588062,17.7253662 11.8621292,17.7253662 Z M12.5917292,13.3832123 C13.8674215,13.7129354 14.81376,14.8704738 14.81376,16.2477046 C14.81376,17.6253046 13.8674215,18.7824738 12.5917292,19.1125662 L12.5917292,22.8938585 C12.5917292,23.3018585 12.2608985,23.63232 11.8532677,23.63232 C11.4452677,23.63232 11.1148062,23.3018585 11.1148062,22.8938585 L11.1148062,19.1133046 C9.83800615,18.7839508 8.88982154,17.6260431 8.88982154,16.2477046 C8.88982154,14.8697354 9.83800615,13.7118277 11.1148062,13.3824738 L11.1148062,0.740012308 C11.1148062,0.332381538 11.4452677,0.00155076923 11.8532677,0.00155076923 C12.2608985,0.00155076923 12.5917292,0.332381538 12.5917292,0.740012308 L12.5917292,13.3832123 Z M4.46920615,11.8169354 C4.46920615,11.0049969 3.81012923,10.3440738 2.99929846,10.3392738 C2.99671385,10.3392738 2.99412923,10.3400123 2.99154462,10.3400123 C2.98859077,10.3400123 2.98563692,10.3392738 2.98305231,10.3389046 C2.17111385,10.3433354 1.51166769,11.0046277 1.51166769,11.8169354 C1.51166769,12.6292431 2.17074462,13.2901662 2.98194462,13.2949662 C2.98489846,13.2949662 2.98822154,13.2938585 2.99154462,13.2938585 C2.99449846,13.2938585 2.99745231,13.2945969 3.00003692,13.2945969 C3.81086769,13.2890585 4.46920615,12.6288738 4.46920615,11.8169354 Z M2.99154462,0.00155076923 C3.39954462,0.00155076923 3.73000615,0.332381538 3.73000615,0.740012308 L3.73000615,8.95244308 C5.00569846,9.28216615 5.95240615,10.4397046 5.95240615,11.8169354 C5.95240615,13.1941662 5.00569846,14.3517046 3.73000615,14.6817969 L3.73000615,22.8938585 C3.73000615,23.3014892 3.39954462,23.63232 2.99154462,23.63232 C2.58391385,23.63232 2.25308308,23.3014892 2.25308308,22.8938585 L2.25308308,14.6821662 C0.976283077,14.3531815 0.0284676923,13.1952738 0.0284676923,11.8169354 C0.0284676923,10.4389662 0.976283077,9.28105846 2.25308308,8.95170462 L2.25308308,0.740012308 C2.25308308,0.332381538 2.58391385,0.00155076923 2.99154462,0.00155076923 Z M20.7236677,8.86382769 C21.53376,8.85828923 22.1924677,8.19773538 22.1924677,7.38616615 C22.1924677,6.57422769 21.5330215,5.91330462 20.7221908,5.90850462 C20.7196062,5.90850462 20.7170215,5.90924308 20.7148062,5.90924308 C20.7118523,5.90924308 20.7088985,5.90850462 20.7055754,5.90850462 C19.8943754,5.91256615 19.2349292,6.57385846 19.2349292,7.38616615 C19.2349292,8.19810462 19.8936369,8.85902769 20.7044677,8.86419692 C20.7077908,8.86419692 20.7111138,8.86308923 20.7148062,8.86308923 C20.7173908,8.86308923 20.7203446,8.86382769 20.7236677,8.86382769 Z M21.4532677,4.52167385 C22.72896,4.85139692 23.6752985,6.00893538 23.6752985,7.38616615 C23.6752985,8.76376615 22.72896,9.92093538 21.4532677,10.2510277 L21.4532677,22.8938585 C21.4532677,23.3018585 21.1224369,23.63232 20.7148062,23.63232 C20.3068062,23.63232 19.9763446,23.3018585 19.9763446,22.8938585 L19.9763446,10.2517662 C18.6995446,9.92241231 17.75136,8.76450462 17.75136,7.38616615 C17.75136,6.00819692 18.6995446,4.85028923 19.9763446,4.52093538 L19.9763446,0.740012308 C19.9763446,0.332381538 20.3068062,0.00155076923 20.7148062,0.00155076923 C21.1224369,0.00155076923 21.4532677,0.332381538 21.4532677,0.740012308 L21.4532677,4.52167385 Z" id="Shape"></path>
                </g>
            </g>
        </g>
    </g>
</svg>