<?xml version="1.0" encoding="UTF-8"?>
<svg width="24px" height="24px" viewBox="0 0 24 24" version="1.1" xmlns="http://www.w3.org/2000/svg" xmlns:xlink="http://www.w3.org/1999/xlink">
    <!-- Generator: Sketch 52.4 (67378) - http://www.bohemiancoding.com/sketch -->
    <title>c3p-crop</title>
    <desc>Created with Sketch.</desc>
    <defs>
        <path d="M5.17547077,5.17609846 L17.4409477,5.17609846 L5.17547077,17.42496 L5.17547077,5.17609846 Z M18.4677785,18.4684062 L6.22076308,18.4684062 L18.4677785,6.23763692 L18.4677785,18.4684062 Z M0.744701538,5.17609846 L3.69854769,5.17609846 L3.69854769,19.2068677 C3.69854769,19.2748062 3.72033231,19.3360985 3.73731692,19.3981292 C3.74470154,19.4261908 3.74322462,19.4549908 3.75393231,19.4815754 C3.82851692,19.6676677 3.97547077,19.8146215 4.16156308,19.8899446 C4.19331692,19.9028677 4.22802462,19.9013908 4.26014769,19.9091446 C4.31885538,19.9242831 4.37424,19.9453292 4.43700923,19.9453292 L18.4677785,19.9453292 L18.4677785,22.8991754 C18.4677785,23.3071754 18.79824,23.6376369 19.20624,23.6376369 C19.61424,23.6376369 19.9447015,23.3071754 19.9447015,22.8991754 L19.9447015,19.9453292 L22.8985477,19.9453292 C23.3065477,19.9453292 23.6370092,19.6148677 23.6370092,19.2068677 C23.6370092,18.7988677 23.3065477,18.4684062 22.8985477,18.4684062 L19.9447015,18.4684062 L19.9447015,4.76292923 L22.7013785,2.01031385 C22.9897477,1.72194462 22.9897477,1.25412923 22.7013785,0.96576 C22.4130092,0.677021538 21.9451938,0.677021538 21.6568246,0.96576 L18.9197169,3.69917538 L5.17547077,3.69917538 L5.17547077,0.745329231 C5.17547077,0.337329231 4.84500923,0.00686769231 4.43700923,0.00686769231 C4.02900923,0.00686769231 3.69854769,0.337329231 3.69854769,0.745329231 L3.69854769,3.69917538 L0.744701538,3.69917538 C0.336701538,3.69917538 0.00624,4.02963692 0.00624,4.43763692 C0.00624,4.84526769 0.336701538,5.17609846 0.744701538,5.17609846 Z" id="path-1"></path>
    </defs>
    <g id="Page-1" stroke="none" stroke-width="1" fill="none" fill-rule="evenodd">
        <g id="C3p-icon-pack" transform="translate(-1233.000000, -302.000000)">
            <g id="Group" transform="translate(63.000000, 86.000000)">
                <g id="c3p-crop" transform="translate(1170.000000, 216.000000)">
                    <mask id="mask-2" fill="white">
                        <use xlink:href="#path-1"></use>
                    </mask>
                    <use id="Mask" fill="#000000" xlink:href="#path-1"></use>
                </g>
            </g>
        </g>
    </g>
</svg>