<?xml version="1.0" encoding="UTF-8"?>
<svg width="24px" height="24px" viewBox="0 0 24 24" version="1.1" xmlns="http://www.w3.org/2000/svg" xmlns:xlink="http://www.w3.org/1999/xlink">
    <!-- Generator: Sketch 52.4 (67378) - http://www.bohemiancoding.com/sketch -->
    <title>c3p-puzzle</title>
    <desc>Created with Sketch.</desc>
    <defs>
        <path d="M1.53265455,11.7998909 L3.98501818,9.34825455 C4.45301818,11.2395273 6.16465455,12.6729818 8.19956364,12.6729818 C10.5944727,12.6729818 12.4104727,10.6998909 12.4104727,8.30643636 C12.4104727,6.2708 11.1355636,4.55843636 9.24283636,4.08970909 L11.4501091,1.88243636 C11.5922909,1.74170909 11.7017455,1.74316364 11.8410182,1.88098182 L15.4075636,5.44970909 C15.6257455,5.66716364 15.9588364,5.72389091 16.2352,5.59189091 C16.5133818,5.45916364 16.6773818,5.16498182 16.6450182,4.85807273 L16.6293818,4.72825455 C16.6213818,4.67116364 16.6122909,4.61443636 16.6122909,4.55625455 C16.6122909,3.15225455 17.7533818,2.01007273 19.1562909,2.01007273 C20.5595636,2.01007273 21.7010182,3.15225455 21.7010182,4.55625455 C21.7010182,5.95916364 20.5595636,7.09952727 19.1562909,7.09952727 C19.0922909,7.09952727 19.0312,7.08970909 18.9701091,7.08098182 L18.8592,7.0668 C18.5482909,7.02934545 18.2548364,7.19407273 18.1199273,7.47261818 C17.9850182,7.7508 18.0417455,8.08461818 18.2606545,8.30352727 L21.7584727,11.7991636 C21.8657455,11.9071636 21.8657455,12.0817091 21.7592,12.1889818 L11.8424727,22.1068 C11.7002909,22.2471636 11.5908364,22.2460727 11.4515636,22.1082545 L1.53410909,12.1904364 C1.42683636,12.0824364 1.42683636,11.9064364 1.53265455,11.7998909 Z M10.4246545,23.1380727 C10.7515636,23.4631636 11.1853818,23.6420727 11.6461091,23.6420727 C12.1072,23.6420727 12.5410182,23.4631636 12.8693818,23.1366182 L22.7882909,13.2166182 C23.4602909,12.5428 23.4602909,11.4460727 22.7875636,10.7715273 L20.3777455,8.36316364 C21.9879273,7.84607273 23.1555636,6.3348 23.1555636,4.55625455 C23.1555636,2.35043636 21.3613818,0.555527273 19.1562909,0.555527273 C17.3777455,0.555527273 15.8664727,1.72389091 15.3486545,3.33334545 L12.8679273,0.851163636 C12.2144727,0.200618182 11.0795636,0.199163636 10.4232,0.852618182 L7.03483636,4.24170909 C6.81047273,4.46607273 6.75701818,4.81043636 6.90392727,5.09261818 C7.0512,5.37370909 7.36065455,5.53007273 7.67629091,5.47189091 C7.88429091,5.4348 8.05047273,5.41770909 8.19956364,5.41770909 C9.79265455,5.41770909 10.9559273,6.71334545 10.9559273,8.30643636 C10.9559273,9.89734545 9.79265455,11.2184364 8.19956364,11.2184364 C6.60792727,11.2184364 5.31301818,9.89734545 5.31301818,8.30643636 C5.31301818,8.15589091 5.33010909,7.98898182 5.3672,7.78061818 C5.42247273,7.46825455 5.26901818,7.15589091 4.98792727,7.00861818 C4.70610909,6.86170909 4.36138182,6.9148 4.13701818,7.13952727 L0.502836364,10.7729818 C-0.166981818,11.4460727 -0.166981818,12.5428 0.504290909,13.2173455 L10.4246545,23.1380727 Z" id="path-1"></path>
    </defs>
    <g id="Page-1" stroke="none" stroke-width="1" fill="none" fill-rule="evenodd">
        <g id="C3p-icon-pack" transform="translate(-897.000000, -93.000000)">
            <g id="Group" transform="translate(63.000000, 86.000000)">
                <g id="c3p-puzzle" transform="translate(834.000000, 7.000000)">
                    <mask id="mask-2" fill="white">
                        <use xlink:href="#path-1"></use>
                    </mask>
                    <use id="Mask" fill="#000000" xlink:href="#path-1"></use>
                </g>
            </g>
        </g>
    </g>
</svg>