<?xml version="1.0" encoding="UTF-8"?>
<svg width="24px" height="24px" viewBox="0 0 24 24" version="1.1" xmlns="http://www.w3.org/2000/svg" xmlns:xlink="http://www.w3.org/1999/xlink">
    <!-- Generator: Sketch 52.4 (67378) - http://www.bohemiancoding.com/sketch -->
    <title>c3p-arrow-right</title>
    <desc>Created with Sketch.</desc>
    <defs>
        <path d="M7.78094389,22.4360074 C7.54016269,22.7271602 7.15219252,22.858693 6.78009357,22.775324 C6.40799461,22.691955 6.11626833,22.4081357 6.02752451,22.0431526 C5.93878069,21.6781696 6.06840262,21.2952907 6.36191144,21.0554365 L15.5831153,11.9880438 L6.36191144,2.91572045 C6.08812587,2.67090117 5.97370285,2.29771563 6.06424217,1.94488558 C6.1547815,1.59205553 6.43556714,1.31692906 6.79470053,1.22914945 C7.15383392,1.14136985 7.53294243,1.25520458 7.78094389,1.52528829 L17.7041426,11.2829665 C17.89494,11.4694596 18.0015372,11.7235126 17.9999832,11.9880438 C18.000195,12.2508673 17.8937009,12.5028999 17.7041426,12.6881905 L7.78094389,22.4360074 Z" id="path-1"></path>
    </defs>
    <g id="Page-1" stroke="none" stroke-width="1" fill="none" fill-rule="evenodd">
        <g id="C3p-icon-pack" transform="translate(-1731.000000, -302.000000)">
            <g id="Group" transform="translate(63.000000, 86.000000)">
                <g id="c3p-arrow-right" transform="translate(1668.000000, 216.000000)">
                    <mask id="mask-2" fill="white">
                        <use xlink:href="#path-1"></use>
                    </mask>
                    <use id="Mask" fill="#000000" xlink:href="#path-1"></use>
                </g>
            </g>
        </g>
    </g>
</svg>