<?xml version="1.0" encoding="UTF-8"?>
<svg width="24px" height="24px" viewBox="0 0 24 24" version="1.1" xmlns="http://www.w3.org/2000/svg" xmlns:xlink="http://www.w3.org/1999/xlink">
    <!-- Generator: Sketch 52.4 (67378) - http://www.bohemiancoding.com/sketch -->
    <title>c3p-arrow-left-jump</title>
    <desc>Created with Sketch.</desc>
    <defs>
        <path d="M10.3434831,13.0287754 L10.3420062,13.0287754 C10.1466831,13.0287754 9.95911385,13.1066831 9.82065231,13.2444062 C9.68145231,13.3828677 9.60354462,13.5711754 9.60354462,13.7672369 L9.60354462,17.1918523 L1.93203692,10.8248369 L9.60354462,4.51689846 L9.60354462,7.83517538 C9.60354462,8.24317538 9.93400615,8.57363692 10.3420062,8.57363692 C14.5442215,8.57363692 17.7539446,9.79062154 19.7466831,12.1005292 C21.2450215,13.8384985 21.9340062,15.9667446 22.1695754,17.7320369 C20.5571446,15.5284677 17.7332677,13.0332062 10.3434831,13.0287754 M20.8732062,11.1456985 C18.7187446,8.62459077 15.3720369,7.24440615 11.0804677,7.10816 L11.0804677,2.96280615 C11.0804677,2.67812923 10.91616,2.41856 10.6588062,2.29597538 C10.4010831,2.17523692 10.0960985,2.20994462 9.87529846,2.39049846 L0.299298462,10.2495754 C0.127606154,10.3895138 0.0282830769,10.5992369 0.0275446154,10.8207754 C0.0268061538,11.0419446 0.125390769,11.2520369 0.297083077,11.3923446 L9.87345231,19.3260062 C10.0931446,19.5084062 10.4010831,19.5456985 10.6573292,19.4231138 C10.91616,19.3012677 11.0804677,19.04096 11.0804677,18.7555446 L11.0804677,14.5171446 C21.4255754,14.5101292 22.1839754,21.1381908 22.2094523,21.41216 C22.2412062,21.7843446 22.4767754,22.0741908 22.8504369,22.0863754 C22.8589292,22.0871138 22.8677908,22.0871138 22.8755446,22.0871138 C23.2399754,22.0871138 23.5050831,21.8208985 23.5600985,21.4590523 C23.5970215,21.2109292 24.3794215,15.2485908 20.8732062,11.1456985" id="path-1"></path>
    </defs>
    <g id="Page-1" stroke="none" stroke-width="1" fill="none" fill-rule="evenodd">
        <g id="C3p-icon-pack" transform="translate(-897.000000, -147.000000)">
            <g id="Group" transform="translate(63.000000, 86.000000)">
                <g id="c3p-arrow-left-jump" transform="translate(834.000000, 61.000000)">
                    <mask id="mask-2" fill="white">
                        <use xlink:href="#path-1"></use>
                    </mask>
                    <use id="Mask" fill="#000000" xlink:href="#path-1"></use>
                </g>
            </g>
        </g>
    </g>
</svg>