<?xml version="1.0" encoding="UTF-8"?>
<svg width="24px" height="24px" viewBox="0 0 24 24" version="1.1" xmlns="http://www.w3.org/2000/svg" xmlns:xlink="http://www.w3.org/1999/xlink">
    <!-- Generator: Sketch 52.4 (67378) - http://www.bohemiancoding.com/sketch -->
    <title>c3p-loop</title>
    <desc>Created with Sketch.</desc>
    <defs>
        <path d="M1.51447385,19.2473354 L5.20678154,19.2473354 C5.67976615,19.2473354 5.94524308,18.6399508 5.94524308,18.5092431 L5.94524308,18.5088738 C5.94524308,18.3744738 5.69416615,17.7608123 5.20678154,17.7608123 L2.41539692,17.7608123 C1.92210462,17.7608123 1.52185846,17.3605662 1.52185846,16.8672738 L1.52185846,5.40487385 C1.52185846,4.91121231 1.92210462,4.51133538 2.41539692,4.51133538 L21.2989662,4.48807385 C21.7918892,4.48807385 22.1921354,4.88795077 22.1921354,5.38161231 L22.1921354,16.8672738 C22.1921354,17.3605662 21.7918892,17.7608123 21.2989662,17.7608123 L11.99472,17.7608123 L13.7481969,16.1705354 C13.9638277,15.9641354 14.0339815,15.6303508 13.8183508,15.42432 L13.6920738,15.2382277 C13.4760738,15.0318277 13.1267815,15.0318277 12.9111508,15.2382277 L9.91705846,17.9712738 C9.91262769,17.9749662 9.90819692,17.9764431 9.90487385,17.9797662 L9.70918154,18.1665969 C9.60099692,18.2692431 9.54745846,18.4054892 9.54819692,18.5409969 C9.54745846,18.6772431 9.60099692,18.8127508 9.70918154,18.9165046 L9.90487385,19.1033354 C9.90819692,19.1070277 9.91336615,19.1077662 9.91705846,19.1114585 L12.8649969,21.7769354 C13.0806277,21.9829662 13.4295508,21.9829662 13.64592,21.7769354 L13.7721969,21.5908431 C13.9878277,21.3844431 13.9176738,21.04992 13.7024123,20.84352 L11.9223508,19.2473354 L22.1913969,19.2473354 C23.0070277,19.2473354 23.66832,18.5864123 23.66832,17.7704123 L23.66832,4.47810462 C23.66832,3.66247385 23.0070277,3.00118154 22.1913969,3.00118154 L1.51447385,3.00118154 C0.698843077,3.00118154 0.0375507692,3.66247385 0.0375507692,4.47810462 L0.0375507692,17.7704123 C0.0375507692,18.5864123 0.698843077,19.2473354 1.51447385,19.2473354" id="path-1"></path>
    </defs>
    <g id="Page-1" stroke="none" stroke-width="1" fill="none" fill-rule="evenodd">
        <g id="C3p-icon-pack" transform="translate(-507.000000, -417.000000)">
            <g id="Group" transform="translate(63.000000, 86.000000)">
                <g id="c3p-loop" transform="translate(444.000000, 331.000000)">
                    <mask id="mask-2" fill="white">
                        <use xlink:href="#path-1"></use>
                    </mask>
                    <use id="Mask" fill="#000000" xlink:href="#path-1"></use>
                </g>
            </g>
        </g>
    </g>
</svg>