<?xml version="1.0" encoding="UTF-8"?>
<svg width="24px" height="24px" viewBox="0 0 24 24" version="1.1" xmlns="http://www.w3.org/2000/svg" xmlns:xlink="http://www.w3.org/1999/xlink">
    <!-- Generator: Sketch 52.4 (67378) - http://www.bohemiancoding.com/sketch -->
    <title>c3p-photo</title>
    <desc>Created with Sketch.</desc>
    <g id="Page-1" stroke="none" stroke-width="1" fill="none" fill-rule="evenodd">
        <g id="C3p-icon-pack" transform="translate(-117.000000, -255.000000)" fill="#000000">
            <g id="Group" transform="translate(63.000000, 86.000000)">
                <g id="c3p-photo" transform="translate(54.000000, 169.000000)">
                    <path d="M1.49593846,7.18569846 L1.49593846,19.0243446 C1.49593846,19.4157292 1.91390769,19.7487754 2.08486154,19.7628062 L21.4805538,19.7628062 C21.7006154,19.7461908 22.1728615,19.33856 22.1728615,19.0472369 L22.1728615,7.20859077 C22.1654769,7.15025231 21.9550154,6.47049846 21.4344,6.47049846 L17.2019077,6.47049846 L16.7961231,5.75345231 L15.4776,3.51628308 L8.23993846,3.51628308 L6.89778462,5.75308308 L6.46763077,6.47049846 L2.2344,6.47049846 C2.12436923,6.48231385 1.49593846,6.71788308 1.49593846,7.18569846 Z M2.08043077,21.2397292 C1.12670769,21.2397292 0.0190153846,20.2472369 0.0190153846,19.0243446 L0.0190153846,7.18569846 C0.0190153846,5.73166769 1.49593846,4.99357538 2.2344,4.99357538 L5.63132308,4.99357538 L7.40363077,2.03936 L16.2651692,2.03936 L18.0378462,4.99357538 L21.4344,4.99357538 C22.9113231,4.99357538 23.6497846,6.47049846 23.6497846,7.20859077 L23.6497846,19.0472369 C23.6497846,20.2010831 22.4497846,21.2397292 21.4805538,21.2397292 L2.08043077,21.2397292 Z M11.8344,8.68569846 C9.79846154,8.68569846 8.14209231,10.3420677 8.14209231,12.3780062 C8.14209231,14.4139446 9.79846154,16.0703138 11.8344,16.0703138 C13.8703385,16.0703138 15.5267077,14.4139446 15.5267077,12.3780062 C15.5267077,10.3420677 13.8703385,8.68569846 11.8344,8.68569846 Z M11.8344,17.5472369 C8.97950769,17.5472369 6.66516923,15.2328985 6.66516923,12.3780062 C6.66516923,9.52311385 8.97950769,7.20877538 11.8344,7.20877538 C14.6892923,7.20877538 17.0036308,9.52311385 17.0036308,12.3780062 C17.0036308,15.2328985 14.6892923,17.5472369 11.8344,17.5472369 Z" id="Shape"></path>
                </g>
            </g>
        </g>
    </g>
</svg>