<?xml version="1.0" encoding="UTF-8"?>
<svg width="24px" height="24px" viewBox="0 0 24 24" version="1.1" xmlns="http://www.w3.org/2000/svg" xmlns:xlink="http://www.w3.org/1999/xlink">
    <!-- Generator: Sketch 52.4 (67378) - http://www.bohemiancoding.com/sketch -->
    <title>c3p-lock</title>
    <desc>Created with Sketch.</desc>
    <defs>
        <path d="M20.2693125,21.0000375 L20.2693125,12.0000375 C20.2693125,11.1731625 19.5961875,10.5000375 18.7693125,10.5000375 L5.2693125,10.5000375 C4.4424375,10.5000375 3.7693125,11.1731625 3.7693125,12.0000375 L3.7693125,21.0000375 C3.7693125,21.8269125 4.4424375,22.5000375 5.2693125,22.5000375 L18.7693125,22.5000375 C19.5961875,22.5000375 20.2693125,21.8269125 20.2693125,21.0000375 Z M7.5193125,6.1376625 L7.5193125,9.0000375 L16.5193125,9.0000375 L16.5193125,6.1376625 C16.5193125,3.5370375 14.6881875,1.5000375 11.9915625,1.5000375 C9.2668125,1.5000375 7.5193125,3.5809125 7.5193125,6.1376625 Z M18.7693125,9.0000375 C20.4238125,9.0000375 21.7693125,10.3455375 21.7693125,12.0000375 L21.7693125,21.0000375 C21.7693125,22.6545375 20.4238125,24.0000375 18.7693125,24.0000375 L5.2693125,24.0000375 C3.6148125,24.0000375 2.2693125,22.6545375 2.2693125,21.0000375 L2.2693125,12.0000375 C2.2693125,10.3455375 3.6148125,9.0000375 5.2693125,9.0000375 L6.0193125,9.0000375 L6.0193125,6.1376625 C6.0193125,2.7532875 8.4399375,3.75e-05 11.9915625,3.75e-05 C15.5289375,3.75e-05 18.0193125,2.6959125 18.0193125,6.1376625 L18.0193125,9.0000375 L18.7693125,9.0000375 Z M12.0193125,13.5000375 C12.8476875,13.5000375 13.5193125,14.1716625 13.5193125,15.0000375 C13.5193125,15.5539125 13.2155625,16.0320375 12.7693125,16.2919125 L12.7693125,18.7500375 C12.7693125,19.1640375 12.4333125,19.5000375 12.0193125,19.5000375 C11.6053125,19.5000375 11.2693125,19.1640375 11.2693125,18.7500375 L11.2693125,16.2919125 C10.8230625,16.0320375 10.5193125,15.5539125 10.5193125,15.0000375 C10.5193125,14.1716625 11.1909375,13.5000375 12.0193125,13.5000375 Z" id="path-1"></path>
    </defs>
    <g id="Page-1" stroke="none" stroke-width="1" fill="none" fill-rule="evenodd">
        <g id="C3p-icon-pack" transform="translate(-279.000000, -471.000000)">
            <g id="Group" transform="translate(63.000000, 86.000000)">
                <g id="c3p-lock" transform="translate(216.000000, 385.000000)">
                    <mask id="mask-2" fill="white">
                        <use xlink:href="#path-1"></use>
                    </mask>
                    <use id="Mask" fill="#000000" xlink:href="#path-1"></use>
                </g>
            </g>
        </g>
    </g>
</svg>