<?xml version="1.0" encoding="UTF-8"?>
<svg width="24px" height="24px" viewBox="0 0 24 24" version="1.1" xmlns="http://www.w3.org/2000/svg" xmlns:xlink="http://www.w3.org/1999/xlink">
    <!-- Generator: Sketch 52.4 (67378) - http://www.bohemiancoding.com/sketch -->
    <title>c3p-drawer</title>
    <desc>Created with Sketch.</desc>
    <defs>
        <path d="M1.48700308,12.6699938 L7.55900308,12.6699938 C8.20368,14.5261169 9.76958769,15.6626092 11.8254646,15.6626092 C13.8813415,15.6626092 15.4701415,14.5261169 16.1148185,12.6699938 L22.1639262,12.6699938 L22.1639262,20.7771938 L1.48700308,20.7771938 L1.48700308,12.6699938 Z M3.79248,3.76599385 L19.6321108,3.76599385 L21.7810338,11.1930708 L14.8959877,11.1930708 C14.8631262,12.9657477 13.6058954,14.1856862 11.8254646,14.1856862 C10.0450338,14.1856862 8.81106462,12.9657477 8.77783385,11.1930708 L1.72146462,11.1930708 L3.79248,3.76599385 Z M0.01008,12.6699938 L0.01008,20.7771938 C0.01008,21.5928246 0.671372308,22.2541169 1.48700308,22.2541169 L22.1639262,22.2541169 C22.9795569,22.2541169 23.6408492,21.5928246 23.6408492,20.7771938 L23.6408492,12.6699938 C23.6408492,12.6304862 23.6323569,12.5931938 23.6294031,12.5547938 C23.6486031,12.4480862 23.6482338,12.3362092 23.6172185,12.2250708 L20.9055877,2.83073231 C20.8169723,2.51024 20.5256492,2.28907077 20.1937108,2.28907077 L3.22423385,2.28907077 C2.88971077,2.28907077 2.59691077,2.51393231 2.51014154,2.83774769 L0.0318646154,11.7535631 C-0.01392,11.9263631 0.00823384615,12.0999015 0.0780184615,12.2505477 C0.0381415385,12.3842092 0.01008,12.5234092 0.01008,12.6699938 Z" id="path-1"></path>
    </defs>
    <g id="Page-1" stroke="none" stroke-width="1" fill="none" fill-rule="evenodd">
        <g id="C3p-icon-pack" transform="translate(-951.000000, -93.000000)">
            <g id="Group" transform="translate(63.000000, 86.000000)">
                <g id="c3p-drawer" transform="translate(888.000000, 7.000000)">
                    <mask id="mask-2" fill="white">
                        <use xlink:href="#path-1"></use>
                    </mask>
                    <use id="Mask" fill="#000000" xlink:href="#path-1"></use>
                </g>
            </g>
        </g>
    </g>
</svg>