<?xml version="1.0" encoding="UTF-8"?>
<svg width="24px" height="24px" viewBox="0 0 24 24" version="1.1" xmlns="http://www.w3.org/2000/svg" xmlns:xlink="http://www.w3.org/1999/xlink">
    <!-- Generator: Sketch 52.4 (67378) - http://www.bohemiancoding.com/sketch -->
    <title>c3p-user-follow-unfollow</title>
    <desc>Created with Sketch.</desc>
    <g id="Page-1" stroke="none" stroke-width="1" fill="none" fill-rule="evenodd">
        <g id="C3p-icon-pack" transform="translate(-1341.000000, -194.000000)" fill="#000000">
            <g id="Group" transform="translate(63.000000, 86.000000)">
                <g id="c3p-user-follow-unfollow" transform="translate(1278.000000, 108.000000)">
                    <path d="M23.4470031,17.1584123 C23.7353723,17.4467815 23.7353723,17.9142277 23.4470031,18.2025969 L21.3582646,20.2913354 L23.4470031,22.3800738 C23.7353723,22.6684431 23.7353723,23.1358892 23.4470031,23.4246277 C23.1586338,23.7126277 22.6908185,23.7126277 22.4028185,23.4246277 L20.31408,21.33552 L18.2249723,23.4246277 C17.9369723,23.7126277 17.4695262,23.7126277 17.1807877,23.4246277 C16.8924185,23.1358892 16.8924185,22.6684431 17.1807877,22.3800738 L19.2698954,20.2913354 L17.1807877,18.2025969 C16.8924185,17.9142277 16.8924185,17.4467815 17.1807877,17.1584123 C17.4695262,16.8700431 17.9369723,16.8700431 18.2249723,17.1584123 L20.31408,19.2471508 L22.4028185,17.1584123 C22.6908185,16.8700431 23.1586338,16.8700431 23.4470031,17.1584123 Z M18.4623877,8.86947692 C18.4623877,10.6421538 17.77008,13.8049846 15.7241723,15.4155692 L16.1735262,15.7545231 L15.5258954,16.9504615 L15.1079262,16.7573538 C14.6401108,16.5424615 14.3177723,16.1004923 14.2575877,15.5891077 C14.1966646,15.0784615 14.4067569,14.5729846 14.8106954,14.2550769 C16.3946954,13.0074462 16.9854646,10.2899077 16.9854646,8.86947692 L16.9854646,5.17901538 C16.9854646,3.60203077 14.3262646,1.49003077 11.81808,1.49003077 C9.33241846,1.49003077 6.64626462,3.636 6.64626462,5.17901538 L6.64626462,8.86947692 C6.64626462,10.3113231 7.36072615,13.0188923 8.89488,14.2506462 C9.29401846,14.5707692 9.49894154,15.0751385 9.43617231,15.5828308 C9.37377231,16.0905231 9.05291077,16.5302769 8.58804923,16.7436923 L2.10251077,19.8042462 C1.92675692,19.8851077 1.48589538,20.0697231 1.48589538,20.6568 L1.48589538,22.1551385 L15.51408,22.1544 L15.51408,23.6313231 L1.48478769,23.6313231 C0.669895385,23.6313231 0.00897230769,22.9707692 0.00897230769,22.1551385 L0.00897230769,19.9390154 C0.00897230769,19.1208 1.48478769,18.4628308 1.48478769,18.4628308 L7.97032615,15.4022769 C5.90521846,13.7444308 5.16934154,10.4819077 5.16934154,8.86947692 L5.16934154,5.17901538 C5.16934154,2.73470769 8.55703385,0.0131076923 11.81808,0.0131076923 C15.0787569,0.0131076923 18.4623877,2.73470769 18.4623877,5.17901538 L18.4623877,8.86947692 Z" id="Shape"></path>
                </g>
            </g>
        </g>
    </g>
</svg>