<?xml version="1.0" encoding="UTF-8"?>
<svg width="24px" height="24px" viewBox="0 0 24 24" version="1.1" xmlns="http://www.w3.org/2000/svg" xmlns:xlink="http://www.w3.org/1999/xlink">
    <!-- Generator: Sketch 52.4 (67378) - http://www.bohemiancoding.com/sketch -->
    <title>c3p-clip</title>
    <desc>Created with Sketch.</desc>
    <defs>
        <path d="M14.5267938,1.44668308 L1.27436308,15.5195446 C-0.424836923,17.2235446 -0.424836923,19.9968369 1.27473231,21.7015754 C2.04125538,22.4692062 3.00310154,22.8838523 4.00482462,22.8838523 C4.07977846,22.8838523 4.15473231,22.8816369 4.22968615,22.8764677 C5.24950154,22.8136985 6.26599385,22.3229908 7.10784,21.4781908 L17.6523323,10.2554215 C19.0059323,8.89923692 19.1480862,7.21886769 18.0049477,6.07351385 C17.2347323,5.30108308 16.4796554,5.19289846 15.9719631,5.23831385 C15.3213785,5.29665231 14.6826092,5.63708308 14.0575015,6.26514462 L6.10611692,14.7220062 C5.82697846,15.0188677 5.84064,15.4877908 6.13750154,15.7676677 C6.43325538,16.0486523 6.90144,16.0342523 7.18131692,15.7362831 L15.1175631,7.29529846 C15.4716554,6.94009846 15.8124554,6.73812923 16.1045169,6.71228308 C16.2071631,6.70379077 16.5180554,6.67646769 16.9607631,7.11991385 C17.7424246,7.90342154 16.9744246,8.84200615 16.5922708,9.22489846 L6.04777846,20.4480369 C5.47620923,21.0210831 4.79830154,21.3592985 4.13885538,21.3995446 C3.47276308,21.4397908 2.84654769,21.1828062 2.31928615,20.6551754 C1.19534769,19.5279138 1.19497846,17.6932062 2.33442462,16.5508062 L15.5861169,2.47794462 C17.3026708,0.757698462 19.6111015,1.50169846 21.0285785,2.92249846 C21.7836554,3.67905231 22.2079015,4.78637538 22.1912862,5.96089846 C22.1746708,7.13431385 21.7245785,8.24976 20.9399631,9.03585231 L10.9090708,19.7143754 C10.6291938,20.0119754 10.6435938,20.4805292 10.9404554,20.7611446 C11.2380554,21.0410215 11.7055015,21.02736 11.9842708,20.7290215 L22.0000246,10.0663754 C23.0386708,9.02588308 23.6464246,7.53714462 23.6682092,5.98157538 C23.6896246,4.40939077 23.1084554,2.91363692 22.0727631,1.87609846 C19.7617477,-0.43824 16.5944862,-0.624332308 14.5267938,1.44668308" id="path-1"></path>
    </defs>
    <g id="Page-1" stroke="none" stroke-width="1" fill="none" fill-rule="evenodd">
        <g id="C3p-icon-pack" transform="translate(-63.000000, -417.000000)">
            <g id="Group" transform="translate(63.000000, 86.000000)">
                <g id="c3p-clip" transform="translate(0.000000, 331.000000)">
                    <mask id="mask-2" fill="white">
                        <use xlink:href="#path-1"></use>
                    </mask>
                    <use id="Mask" fill="#000000" xlink:href="#path-1"></use>
                </g>
            </g>
        </g>
    </g>
</svg>