<?xml version="1.0" encoding="UTF-8"?>
<svg width="24px" height="24px" viewBox="0 0 24 24" version="1.1" xmlns="http://www.w3.org/2000/svg" xmlns:xlink="http://www.w3.org/1999/xlink">
    <!-- Generator: Sketch 52.4 (67378) - http://www.bohemiancoding.com/sketch -->
    <title>c3p-arrow-left-tail</title>
    <desc>Created with Sketch.</desc>
    <defs>
        <path d="M6.73589224,10.9248285 L11.2367673,6.74177036 C11.659243,6.33582549 11.6562253,5.68968488 11.2367673,5.30059585 C11.0285471,5.10675367 10.7509202,5 10.4582049,5 C10.1639808,5 9.88786272,5.10815832 9.68266024,5.30480981 L3.32440098,11.2254244 C3.11618082,11.4122433 3,11.6678902 3,11.9432023 C3,12.2171098 3.11618082,12.4727567 3.32741867,12.6623849 L9.6886956,18.5844041 C9.88786272,18.7768417 10.1639808,18.885 10.4597138,18.885 C10.7509202,18.885 11.0285471,18.7782463 11.2367673,18.5844041 C11.4404609,18.3933713 11.553624,18.1405336 11.553624,17.8666262 C11.553624,17.5955281 11.4404609,17.3412858 11.2367673,17.1516576 L6.7343834,12.9601715 L19.7036097,12.9601715 C20.3026199,12.9587668 20.7914846,12.5050637 20.7914846,11.9474163 C20.7914846,11.3841502 20.3026199,10.9248285 19.7036097,10.9248285 L6.73589224,10.9248285 Z" id="path-1"></path>
    </defs>
    <g id="Page-1" stroke="none" stroke-width="1" fill="none" fill-rule="evenodd">
        <g id="C3p-icon-pack" transform="translate(-1731.000000, -140.000000)">
            <g id="Group" transform="translate(63.000000, 86.000000)">
                <g id="c3p-arrow-left-tail" transform="translate(1668.000000, 54.000000)">
                    <mask id="mask-2" fill="white">
                        <use xlink:href="#path-1"></use>
                    </mask>
                    <use id="Mask" fill="#000000" xlink:href="#path-1"></use>
                </g>
            </g>
        </g>
    </g>
</svg>