<?xml version="1.0" encoding="UTF-8"?>
<svg width="24px" height="24px" viewBox="0 0 24 24" version="1.1" xmlns="http://www.w3.org/2000/svg" xmlns:xlink="http://www.w3.org/1999/xlink">
    <!-- Generator: Sketch 52.4 (67378) - http://www.bohemiancoding.com/sketch -->
    <title>c3p-magnifier-plus</title>
    <desc>Created with Sketch.</desc>
    <g id="Page-1" stroke="none" stroke-width="1" fill="none" fill-rule="evenodd">
        <g id="C3p-icon-pack" transform="translate(-279.000000, -201.000000)" fill="#000000">
            <g id="Group" transform="translate(63.000000, 86.000000)">
                <g id="c3p-magnifier-plus" transform="translate(216.000000, 115.000000)">
                    <path d="M9.61901538,1.47696 C5.15243077,1.47696 1.49593846,5.13345231 1.49593846,9.60003692 C1.49593846,14.0666215 5.15243077,17.7231138 9.61901538,17.7231138 C14.0856,17.7231138 17.7420923,14.0666215 17.7420923,9.60003692 C17.7420923,5.13345231 14.0856,1.47696 9.61901538,1.47696 Z M9.63156923,19.2251446 C4.32276923,19.2251446 0.0190153846,14.9213908 0.0190153846,9.61259077 C0.0190153846,4.30379077 4.32276923,3.69230769e-05 9.63156923,3.69230769e-05 C14.9403692,3.69230769e-05 19.2212308,4.30379077 19.2212308,9.61259077 C19.2212308,11.9653292 18.3793846,14.1197908 16.9803692,15.79056 L23.5120615,22.3624985 C23.8004308,22.6512369 23.8004308,23.1186831 23.5120615,23.4070523 C23.2240615,23.6954215 22.7562462,23.6954215 22.4678769,23.4070523 L15.948,16.84656 C14.2624615,18.3264369 12.0552,19.2251446 9.63156923,19.2251446 Z M5.92670769,10.3384985 C5.51907692,10.3384985 5.18824615,10.0076677 5.18824615,9.60003692 C5.18824615,9.19203692 5.51907692,8.86157538 5.92670769,8.86157538 L8.88055385,8.86157538 L8.88055385,5.90772923 C8.88055385,5.50009846 9.21138462,5.16926769 9.61901538,5.16926769 C10.0266462,5.16926769 10.3574769,5.50009846 10.3574769,5.90772923 L10.3574769,8.86157538 L13.3113231,8.86157538 C13.7189538,8.86157538 14.0497846,9.19203692 14.0497846,9.60003692 C14.0497846,10.0076677 13.7189538,10.3384985 13.3113231,10.3384985 L10.3574769,10.3384985 L10.3574769,13.2923446 C10.3574769,13.6999754 10.0266462,14.0308062 9.61901538,14.0308062 C9.21138462,14.0308062 8.88055385,13.6999754 8.88055385,13.2923446 L8.88055385,10.3384985 L5.92670769,10.3384985 Z" id="Shape"></path>
                </g>
            </g>
        </g>
    </g>
</svg>