<?xml version="1.0" encoding="UTF-8"?>
<svg width="24px" height="24px" viewBox="0 0 24 24" version="1.1" xmlns="http://www.w3.org/2000/svg" xmlns:xlink="http://www.w3.org/1999/xlink">
    <!-- Generator: Sketch 52.4 (67378) - http://www.bohemiancoding.com/sketch -->
    <title>c3p-handbag</title>
    <desc>Created with Sketch.</desc>
    <defs>
        <path d="M18.6241477,9.18516923 C19.4010092,9.18516923 20.1313477,9.83723077 20.2258708,10.6491692 L22.1491938,22.2633231 C22.1584246,22.3578462 22.0842092,22.4782154 21.86784,22.4782154 L1.73331692,22.4881846 C1.60630154,22.4881846 1.47928615,22.4206154 1.50882462,22.2415385 L3.29184,10.6085538 C3.38045538,9.83723077 4.11079385,9.18516923 4.88765538,9.18516923 L6.65737846,9.18516923 L6.65737846,10.8681231 C6.21688615,11.1236308 5.91780923,11.5951385 5.91780923,12.1408615 C5.91780923,12.9564923 6.57910154,13.6177846 7.39473231,13.6177846 C8.21036308,13.6177846 8.87165538,12.9564923 8.87165538,12.1408615 C8.87165538,11.5958769 8.57331692,11.1251077 8.13430154,10.8692308 L8.13430154,9.18516923 L15.5167015,9.18516923 L15.5167015,10.8692308 C15.0776862,11.1251077 14.7793477,11.5958769 14.7793477,12.1408615 C14.7793477,12.9564923 15.44064,13.6177846 16.2562708,13.6177846 C17.0719015,13.6177846 17.7331938,12.9564923 17.7331938,12.1408615 C17.7331938,11.5951385 17.4337477,11.1236308 16.9936246,10.8681231 L16.9936246,9.18516923 L18.6241477,9.18516923 Z M8.13430154,5.74024615 C8.13430154,3.55144615 9.66033231,1.77027692 11.8480246,1.77027692 C14.0360862,1.77027692 15.5167015,3.55144615 15.5167015,5.74024615 L15.5167015,7.70824615 L8.13430154,7.70824615 L8.13430154,5.74024615 Z M11.8480246,0.293353846 C8.84617846,0.293353846 6.65737846,2.73655385 6.65737846,5.74024615 L6.65737846,7.70824615 L4.88765538,7.70824615 C3.37011692,7.70824615 1.99657846,8.93409231 1.82931692,10.4095385 L0.0459323077,22.044 C-0.0227446154,22.6569231 0.0968861538,23.1402462 0.401132308,23.4814154 C0.688393846,23.8022769 1.10599385,23.9651077 1.64174769,23.9651077 L21.8010092,23.9651077 C22.5601477,23.9651077 22.99584,23.6601231 23.2280862,23.4042462 C23.4407631,23.1690462 23.6815015,22.7551385 23.6117169,22.0672615 L21.6869169,10.4412923 C21.5152246,8.93409231 20.1413169,7.70824615 18.6241477,7.70824615 L16.9936246,7.70824615 L16.9936246,5.74024615 C16.9936246,2.73655385 14.8509785,0.293353846 11.8480246,0.293353846 Z" id="path-1"></path>
    </defs>
    <g id="Page-1" stroke="none" stroke-width="1" fill="none" fill-rule="evenodd">
        <g id="C3p-icon-pack" transform="translate(-951.000000, -201.000000)">
            <g id="Group" transform="translate(63.000000, 86.000000)">
                <g id="c3p-handbag" transform="translate(888.000000, 115.000000)">
                    <mask id="mask-2" fill="white">
                        <use xlink:href="#path-1"></use>
                    </mask>
                    <use id="Mask" fill="#000000" xlink:href="#path-1"></use>
                </g>
            </g>
        </g>
    </g>
</svg>