<?xml version="1.0" encoding="UTF-8"?>
<svg width="24px" height="24px" viewBox="0 0 24 24" version="1.1" xmlns="http://www.w3.org/2000/svg" xmlns:xlink="http://www.w3.org/1999/xlink">
    <!-- Generator: Sketch 52.4 (67378) - http://www.bohemiancoding.com/sketch -->
    <title>c3p-arrow-up-tail</title>
    <desc>Created with Sketch.</desc>
    <defs>
        <path d="M12.9134138,6.78264994 L12.9134138,19.7503674 C12.9134138,20.3493776 12.4540921,20.8382423 11.890826,20.8382423 C11.3331786,20.8382423 10.8794755,20.3493776 10.8780708,19.7503674 L10.8780708,6.78114109 L6.68658475,11.283525 C6.49695652,11.4872186 6.24271423,11.6003817 5.97161611,11.6003817 C5.69770867,11.6003817 5.44487104,11.4872186 5.25383816,11.283525 C5.05999597,11.0753048 4.95324231,10.7976779 4.95324231,10.5064714 C4.95324231,10.2107385 5.06140063,9.93462041 5.25383816,9.7354533 L11.1758574,3.37417636 C11.3654856,3.16293851 11.6211325,3.04675769 11.89504,3.04675769 C12.1703521,3.04675769 12.425999,3.16293851 12.6128179,3.37115867 L18.5334325,9.72941793 C18.730084,9.93462041 18.8382423,10.2107385 18.8382423,10.5049626 C18.8382423,10.7976779 18.7314886,11.0753048 18.5376465,11.283525 C18.1485574,11.702983 17.5024168,11.7060007 17.0964719,11.283525 L12.9134138,6.78264994 Z" id="path-1"></path>
    </defs>
    <g id="Page-1" stroke="none" stroke-width="1" fill="none" fill-rule="evenodd">
        <g id="C3p-icon-pack" transform="translate(-1839.000000, -140.000000)">
            <g id="Group" transform="translate(63.000000, 86.000000)">
                <g id="c3p-arrow-up-tail" transform="translate(1776.000000, 54.000000)">
                    <mask id="mask-2" fill="white">
                        <use xlink:href="#path-1"></use>
                    </mask>
                    <use id="Mask" fill="#000000" xlink:href="#path-1"></use>
                </g>
            </g>
        </g>
    </g>
</svg>