<?xml version="1.0" encoding="UTF-8"?>
<svg width="24px" height="24px" viewBox="0 0 24 24" version="1.1" xmlns="http://www.w3.org/2000/svg" xmlns:xlink="http://www.w3.org/1999/xlink">
    <!-- Generator: Sketch 52.4 (67378) - http://www.bohemiancoding.com/sketch -->
    <title>c3p-briefcase</title>
    <desc>Created with Sketch.</desc>
    <defs>
        <path d="M22.1642954,6.48237538 L22.1642954,11.6575138 L14.0327262,11.6575138 L14.0327262,10.9016985 C14.0327262,10.0875446 13.3699569,9.42477538 12.5558031,9.42477538 L11.0844185,9.42477538 C10.2702646,9.42477538 9.60749538,10.0875446 9.60749538,10.9016985 L9.60749538,11.6575138 L1.48737231,11.6575138 L1.48737231,6.48237538 L22.1642954,6.48237538 Z M11.0844185,14.6205908 L11.0844185,10.9016985 L12.5558031,10.9016985 L12.5569108,14.6205908 L11.0844185,14.6205908 Z M22.1642954,21.9682831 L1.48737231,21.9682831 L1.48737231,13.1344369 L9.60749538,13.1344369 L9.60749538,14.6205908 C9.60749538,15.4347446 10.2702646,16.0975138 11.0844185,16.0975138 L12.5558031,16.0975138 C13.3699569,16.0975138 14.0327262,15.4347446 14.0327262,14.6205908 L14.0327262,13.1344369 L22.1642954,13.1344369 L22.1642954,21.9682831 Z M8.87124923,3.57468308 C8.87124923,3.16705231 9.20244923,2.83622154 9.60971077,2.83622154 L14.0504492,2.83622154 C14.45808,2.83622154 14.7889108,3.16705231 14.7889108,3.57468308 L14.7889108,5.00545231 L8.87124923,5.00545231 L8.87124923,3.57468308 Z M14.0504492,1.35929846 L9.60971077,1.35929846 C8.38792615,1.35929846 7.39432615,2.35289846 7.39432615,3.57468308 L7.39432615,5.00545231 L1.48737231,5.00545231 C0.675433846,5.00545231 0.0104492308,5.67043692 0.0104492308,6.48237538 L0.0104492308,11.6575138 L0.00971076923,11.6575138 L0.00971076923,13.1344369 L0.0104492308,13.1344369 L0.0104492308,21.9682831 C0.0104492308,22.7805908 0.675433846,23.4452062 1.48737231,23.4452062 L22.1642954,23.4452062 C22.9762338,23.4452062 23.6412185,22.7805908 23.6412185,21.9682831 L23.6412185,6.48237538 C23.6412185,5.67043692 22.9762338,5.00545231 22.1642954,5.00545231 L16.2658338,5.00545231 L16.2658338,3.57468308 C16.2658338,2.35289846 15.2722338,1.35929846 14.0504492,1.35929846 Z" id="path-1"></path>
    </defs>
    <g id="Page-1" stroke="none" stroke-width="1" fill="none" fill-rule="evenodd">
        <g id="C3p-icon-pack" transform="translate(-843.000000, -201.000000)">
            <g id="Group" transform="translate(63.000000, 86.000000)">
                <g id="c3p-briefcase" transform="translate(780.000000, 115.000000)">
                    <mask id="mask-2" fill="white">
                        <use xlink:href="#path-1"></use>
                    </mask>
                    <use id="Mask" fill="#000000" xlink:href="#path-1"></use>
                </g>
            </g>
        </g>
    </g>
</svg>