<?xml version="1.0" encoding="UTF-8"?>
<svg width="24px" height="24px" viewBox="0 0 24 24" version="1.1" xmlns="http://www.w3.org/2000/svg" xmlns:xlink="http://www.w3.org/1999/xlink">
    <!-- Generator: Sketch 52.4 (67378) - http://www.bohemiancoding.com/sketch -->
    <title>c3p-bag</title>
    <desc>Created with Sketch.</desc>
    <defs>
        <path d="M19.7331569,5.46472615 L19.7331569,22.4486031 L3.48700308,22.4486031 L3.48700308,5.46472615 L7.94509538,5.46472615 L7.94509538,6.98411077 C7.94509538,6.98411077 7.92552615,7.72183385 8.67949538,7.72183385 C9.51026462,7.72183385 9.42201846,6.98411077 9.42201846,6.98411077 L9.42201846,5.46472615 L13.8442954,5.46472615 L13.8442954,6.98411077 C13.8442954,6.98411077 13.7951877,7.72552615 14.5798031,7.72552615 C15.3182646,7.72552615 15.3212185,6.98411077 15.3212185,6.98411077 L15.3212185,5.46472615 L19.7331569,5.46472615 Z M9.42201846,2.57143385 C9.42201846,2.16417231 9.75321846,1.83297231 10.16048,1.83297231 L13.1058338,1.83297231 C13.5130954,1.83297231 13.8442954,2.16417231 13.8442954,2.57143385 L13.8442954,3.98780308 L9.42201846,3.98780308 L9.42201846,2.57143385 Z M13.1058338,0.356049231 L10.16048,0.356049231 C8.93906462,0.356049231 7.94509538,1.34964923 7.94509538,2.57143385 L7.94509538,3.98780308 L3.48700308,3.98780308 C2.67137231,3.98780308 2.01008,4.64909538 2.01008,5.46472615 L2.01008,22.4486031 C2.01008,23.2642338 2.67137231,23.9255262 3.48700308,23.9255262 L19.7331569,23.9255262 C20.5487877,23.9255262 21.21008,23.2642338 21.21008,22.4486031 L21.21008,5.46472615 C21.21008,4.64909538 20.5487877,3.98780308 19.7331569,3.98780308 L15.3212185,3.98780308 L15.3212185,2.57143385 C15.3212185,1.34964923 14.3272492,0.356049231 13.1058338,0.356049231 Z" id="path-1"></path>
    </defs>
    <g id="Page-1" stroke="none" stroke-width="1" fill="none" fill-rule="evenodd">
        <g id="C3p-icon-pack" transform="translate(-897.000000, -201.000000)">
            <g id="Group" transform="translate(63.000000, 86.000000)">
                <g id="c3p-bag" transform="translate(834.000000, 115.000000)">
                    <mask id="mask-2" fill="white">
                        <use xlink:href="#path-1"></use>
                    </mask>
                    <use id="Mask" fill="#000000" xlink:href="#path-1"></use>
                </g>
            </g>
        </g>
    </g>
</svg>