<?xml version="1.0" encoding="UTF-8"?>
<svg width="24px" height="24px" viewBox="0 0 24 24" version="1.1" xmlns="http://www.w3.org/2000/svg" xmlns:xlink="http://www.w3.org/1999/xlink">
    <!-- Generator: Sketch 52.4 (67378) - http://www.bohemiancoding.com/sketch -->
    <title>c3p-bubble</title>
    <desc>Created with Sketch.</desc>
    <defs>
        <path d="M11.8344,2.97696 C17.5349538,2.97696 22.1728615,6.28969846 22.1728615,10.3615754 C22.1728615,14.4330831 17.5349538,17.7461908 11.8344,17.7461908 L11.4851077,17.7476677 L11.2225846,17.7484062 C10.8168,17.7484062 10.5509538,17.7376985 10.1359385,17.6756677 L9.30849231,17.5571446 L8.77753846,18.1999754 C8.53347692,18.4946215 7.28806154,19.5181292 5.91341538,20.1764677 C6.19292308,19.4372677 6.39895385,18.6304985 6.41741538,17.8318523 L6.4248,17.7879138 L6.4248,16.7581292 L5.62024615,16.3471754 C2.99907692,15.0064985 1.49593846,12.8250831 1.49593846,10.3615754 C1.49593846,6.28969846 6.13384615,2.97696 11.8344,2.97696 M4.94787692,17.6616369 C4.94787692,17.6804677 4.94196923,17.6941292 4.94196923,17.7151754 C4.94196923,19.0392369 4.19981538,20.4951138 3.76523077,21.2446523 L3.76596923,21.2446523 C3.73163077,21.3251446 3.71132308,21.4133908 3.71132308,21.5079138 C3.71132308,21.8789908 4.0104,22.17696 4.38073846,22.17696 C4.43649231,22.17696 4.52473846,22.1655138 4.5576,22.1655138 C4.56535385,22.1655138 4.56978462,22.1655138 4.56904615,22.1677292 C6.87673846,21.7903754 9.41409231,19.7518523 9.9192,19.1367138 C10.4379692,19.2138831 10.7883692,19.2253292 11.2225846,19.2253292 C11.4053538,19.2253292 11.6028923,19.2231138 11.8344,19.2231138 C18.3594462,19.2231138 23.6497846,15.2560985 23.6497846,10.3615754 C23.6497846,5.46779077 18.3594462,1.50003692 11.8344,1.50003692 C5.30824615,1.50003692 0.0190153846,5.46779077 0.0190153846,10.3615754 C0.0190153846,13.4092062 1.82492308,16.0650831 4.94787692,17.6616369" id="path-1"></path>
    </defs>
    <g id="Page-1" stroke="none" stroke-width="1" fill="none" fill-rule="evenodd">
        <g id="C3p-icon-pack" transform="translate(-171.000000, -309.000000)">
            <g id="Group" transform="translate(63.000000, 86.000000)">
                <g id="c3p-bubble" transform="translate(108.000000, 223.000000)">
                    <mask id="mask-2" fill="white">
                        <use xlink:href="#path-1"></use>
                    </mask>
                    <use id="Mask" fill="#000000" xlink:href="#path-1"></use>
                </g>
            </g>
        </g>
    </g>
</svg>