<?xml version="1.0" encoding="UTF-8"?>
<svg width="24px" height="24px" viewBox="0 0 24 24" version="1.1" xmlns="http://www.w3.org/2000/svg" xmlns:xlink="http://www.w3.org/1999/xlink">
    <!-- Generator: Sketch 52.4 (67378) - http://www.bohemiancoding.com/sketch -->
    <title>c3p-paper-plane</title>
    <desc>Created with Sketch.</desc>
    <defs>
        <path d="M13.24224,21.12768 L10.2322708,16.2002954 C10.0546708,15.9093415 9.82020923,15.5991877 9.55842462,15.2912492 L20.5061169,4.15894154 L13.24224,21.12768 Z M8.52494769,14.2363569 C8.19190154,13.9413415 7.85405538,13.6777108 7.53799385,13.48128 L2.49208615,10.3380185 L19.4216862,3.15574154 L8.52494769,14.2363569 Z M22.6856862,0.129895385 L0.654793846,9.47771077 C-0.138313846,9.81444923 -0.188529231,10.4631877 0.543286154,10.9195569 L6.76851692,14.7968492 C7.50033231,15.2528492 8.46808615,16.2294646 8.91891692,16.9671877 L12.6507323,23.0772185 C12.8652554,23.4276185 13.1237169,23.6015262 13.3725785,23.6015262 C13.6476554,23.6015262 13.9098092,23.3903262 14.0888862,22.9730954 L23.5098092,0.963618462 C23.7653169,0.366203077 23.61984,0.00620307692 23.1955938,0.00620307692 C23.0549169,0.00620307692 22.8835938,0.04608 22.6856862,0.129895385 Z" id="path-1"></path>
    </defs>
    <g id="Page-1" stroke="none" stroke-width="1" fill="none" fill-rule="evenodd">
        <g id="C3p-icon-pack" transform="translate(-63.000000, -363.000000)">
            <g id="Group" transform="translate(63.000000, 86.000000)">
                <g id="c3p-paper-plane" transform="translate(0.000000, 277.000000)">
                    <mask id="mask-2" fill="white">
                        <use xlink:href="#path-1"></use>
                    </mask>
                    <use id="Mask" fill="#000000" xlink:href="#path-1"></use>
                </g>
            </g>
        </g>
    </g>
</svg>