<?xml version="1.0" encoding="UTF-8"?>
<svg width="24px" height="24px" viewBox="0 0 24 24" version="1.1" xmlns="http://www.w3.org/2000/svg" xmlns:xlink="http://www.w3.org/1999/xlink">
    <!-- Generator: Sketch 52.4 (67378) - http://www.bohemiancoding.com/sketch -->
    <title>c3p-anchor</title>
    <desc>Created with Sketch.</desc>
    <defs>
        <path d="M10.1767636,3.27949091 C10.1767636,2.46494545 10.8393091,1.8024 11.6538545,1.8024 C12.4687636,1.8024 13.1313091,2.46494545 13.1313091,3.27949091 C13.1313091,4.09403636 12.4687636,4.75658182 11.6538545,4.75658182 C10.8393091,4.75658182 10.1767636,4.09403636 10.1767636,3.27949091 Z M21.3414909,13.5780364 C21.3385818,13.5736727 21.3393091,13.5689455 21.3364,13.5645818 L21.2029455,13.3340364 C21.1284,13.2067636 21.0109455,13.1242182 20.8804,13.0933091 C20.7509455,13.0613091 20.6080364,13.0809455 20.4851273,13.1609455 L20.2607636,13.3045818 C20.2567636,13.3071273 20.2542182,13.3111273 20.2498545,13.3144 L16.9411273,15.5485818 C16.6934909,15.7078545 16.6131273,16.0416727 16.7604,16.2965818 L16.9091273,16.4602182 C17.0567636,16.7144 17.3927636,16.7249455 17.6400364,16.5656727 L19.6182182,15.2205818 C19.1498545,18.9933091 16.1014909,21.8882182 12.3694909,22.2242182 L12.3694909,7.64312727 L15.2789455,7.64312727 C15.6804,7.64312727 16.0062182,7.31730909 16.0062182,6.91585455 C16.0062182,6.5144 15.6804,6.18858182 15.2789455,6.18858182 L12.3371273,6.18858182 C12.3316727,6.16967273 12.3269455,6.15076364 12.3196727,6.13258182 C13.6178545,5.83076364 14.5858545,4.66930909 14.5858545,3.27949091 C14.5858545,1.66021818 13.2734909,0.347490909 11.6538545,0.347490909 C10.0345818,0.347490909 8.72221818,1.66021818 8.72221818,3.27949091 C8.72221818,4.66167273 9.67930909,5.81730909 10.9662182,6.12676364 C10.9585818,6.14676364 10.9531273,6.16785455 10.9473091,6.18858182 L8.00621818,6.18858182 C7.6044,6.18858182 7.27894545,6.5144 7.27894545,6.91585455 C7.27894545,7.31730909 7.6044,7.64312727 8.00621818,7.64312727 L10.9149455,7.64312727 L10.9149455,22.2242182 C7.18367273,21.8882182 4.13894545,18.9944 3.66912727,15.2220364 L5.64512727,16.5656727 C5.8924,16.7249455 6.22803636,16.7144 6.37567273,16.4602182 L6.52476364,16.2965818 C6.67203636,16.0416727 6.59130909,15.7078545 6.34403636,15.5485818 L3.03494545,13.3144 C3.03058182,13.3111273 3.02803636,13.3071273 3.02403636,13.3045818 L2.80003636,13.1609455 C2.67676364,13.0809455 2.53385455,13.0613091 2.4044,13.0933091 C2.27385455,13.1242182 2.1564,13.2067636 2.08185455,13.3340364 L1.9484,13.5645818 C1.94585455,13.5689455 1.94621818,13.5736727 1.94367273,13.5780364 L0.0738545455,17.0165818 C-0.0737818182,17.2711273 0.00694545455,17.6049455 0.254218182,17.7642182 L0.461854545,17.8420364 C0.708763636,18.0005818 1.01312727,17.8562182 1.16076364,17.6024 L2.24949091,15.5802182 C2.91749091,20.2325818 6.91130909,23.7125818 11.6422182,23.7125818 C16.3709455,23.7125818 20.3676727,20.2333091 21.0367636,15.5827636 L22.1240364,17.6024 C22.2720364,17.8562182 22.5760364,18.0005818 22.8233091,17.8420364 L23.0305818,17.7642182 C23.2782182,17.6049455 23.3585818,17.2711273 23.2113091,17.0165818 L21.3414909,13.5780364 Z" id="path-1"></path>
    </defs>
    <g id="Page-1" stroke="none" stroke-width="1" fill="none" fill-rule="evenodd">
        <g id="C3p-icon-pack" transform="translate(-1233.000000, -464.000000)">
            <g id="Group" transform="translate(63.000000, 86.000000)">
                <g id="c3p-anchor" transform="translate(1170.000000, 378.000000)">
                    <mask id="mask-2" fill="white">
                        <use xlink:href="#path-1"></use>
                    </mask>
                    <use id="Mask" fill="#000000" xlink:href="#path-1"></use>
                </g>
            </g>
        </g>
    </g>
</svg>