<?xml version="1.0" encoding="UTF-8"?>
<svg width="24px" height="24px" viewBox="0 0 24 24" version="1.1" xmlns="http://www.w3.org/2000/svg" xmlns:xlink="http://www.w3.org/1999/xlink">
    <!-- Generator: Sketch 52.4 (67378) - http://www.bohemiancoding.com/sketch -->
    <title>c3p-video</title>
    <desc>Created with Sketch.</desc>
    <defs>
        <path d="M17.1485538,10.0463754 L22.1726769,7.20256 L22.1726769,17.7352369 L17.1212308,14.9767138 C16.8679385,14.8002215 16.5721846,14.7104985 16.2753231,14.7104985 C16.0416,14.7104985 15.8078769,14.7658831 15.5929846,14.8770215 C15.1056,15.1314215 14.7991385,15.6357908 14.7984,16.1852062 L14.7947077,19.0892062 C14.7947077,19.1183754 14.7718154,19.1412677 14.7419077,19.1412677 L1.54855385,19.1412677 C1.51901538,19.1412677 1.49575385,19.1183754 1.49575385,19.0903138 L1.49944615,5.87222154 C1.49944615,5.84305231 1.52270769,5.82052923 1.55224615,5.82052923 L14.7448615,5.82052923 C14.7744,5.82052923 14.7984,5.84342154 14.7984,5.87222154 L14.7984,8.82311385 C14.7984,9.36920615 15.0996923,9.87099077 15.5830154,10.1276062 C15.8001231,10.2431754 16.0379077,10.3000369 16.2753231,10.3000369 C16.5651692,10.3000369 16.8996923,10.2151138 17.1485538,10.0463754 M14.7448615,4.34360615 L1.55224615,4.34360615 C0.705969231,4.34360615 0.0225230769,5.02852923 0.0225230769,5.87222154 L0.0188307692,19.0892062 C0.0188307692,19.9332677 0.702646154,20.6181908 1.54855385,20.6181908 L14.7419077,20.6181908 C15.5878154,20.6181908 16.2716308,19.9332677 16.2716308,19.0892062 L16.2753231,16.1874215 L22.3436308,19.7253908 C22.5219692,19.9029908 22.7187692,19.8797292 22.8768,19.8797292 C23.0403692,19.8797292 23.1622154,19.8302523 23.1773538,19.8232369 C23.4642462,19.7036062 23.6496,19.4266831 23.6496,19.1154215 L23.6496,5.84674462 C23.6496,5.53511385 23.4642462,5.25708308 23.1773538,5.13929846 C23.1607385,5.13228308 23.0381538,5.08132923 22.8738462,5.08132923 C22.7165538,5.08132923 22.4056615,5.12785231 22.2284308,5.30397538 L16.2753231,8.82311385 L16.2753231,5.87222154 C16.2753231,5.02852923 15.5900308,4.34360615 14.7448615,4.34360615" id="path-1"></path>
    </defs>
    <g id="Page-1" stroke="none" stroke-width="1" fill="none" fill-rule="evenodd">
        <g id="C3p-icon-pack" transform="translate(-171.000000, -255.000000)">
            <g id="Group" transform="translate(63.000000, 86.000000)">
                <g id="c3p-video" transform="translate(108.000000, 169.000000)">
                    <mask id="mask-2" fill="white">
                        <use xlink:href="#path-1"></use>
                    </mask>
                    <use id="Mask" fill="#000000" xlink:href="#path-1"></use>
                </g>
            </g>
        </g>
    </g>
</svg>