<?xml version="1.0" encoding="UTF-8"?>
<svg width="24px" height="24px" viewBox="0 0 24 24" version="1.1" xmlns="http://www.w3.org/2000/svg" xmlns:xlink="http://www.w3.org/1999/xlink">
    <!-- Generator: Sketch 52.4 (67378) - http://www.bohemiancoding.com/sketch -->
    <title>c3p-arrow-right-circle</title>
    <desc>Created with Sketch.</desc>
    <g id="Page-1" stroke="none" stroke-width="1" fill="none" fill-rule="evenodd">
        <g id="C3p-icon-pack" transform="translate(-561.000000, -201.000000)" fill="#000000">
            <g id="Group" transform="translate(63.000000, 86.000000)">
                <g id="c3p-arrow-right-circle" transform="translate(498.000000, 115.000000)">
                    <path d="M11.85312,1.47847385 C6.15256615,1.47847385 1.51465846,6.11638154 1.51465846,11.8169354 C1.51465846,17.5174892 6.15256615,22.1786585 11.85312,22.1786585 C17.5536738,22.1786585 22.1915815,17.5174892 22.1915815,11.8169354 C22.1915815,6.11638154 17.5536738,1.47847385 11.85312,1.47847385 Z M11.85312,23.63232 C5.32770462,23.63232 0.0377353846,18.34272 0.0377353846,11.8169354 C0.0377353846,5.29152 5.32770462,0.00155076923 11.85312,0.00155076923 C18.3789046,0.00155076923 23.6685046,5.29152 23.6685046,11.8169354 C23.6685046,18.34272 18.3789046,23.63232 11.85312,23.63232 Z M15.3154846,11.218 L12.3324846,8.24 C12.0524846,7.951 12.0544846,7.491 12.3324846,7.214 C12.4704846,7.076 12.6544846,7 12.8484846,7 C13.0434846,7 13.2264846,7.077 13.3624846,7.217 L17.5764846,11.432 C17.7144846,11.565 17.7914846,11.747 17.7914846,11.943 C17.7914846,12.138 17.7144846,12.32 17.5744846,12.455 L13.3584846,16.671 C13.2264846,16.808 13.0434846,16.885 12.8474846,16.885 C12.6544846,16.885 12.4704846,16.809 12.3324846,16.671 C12.1974846,16.535 12.1224846,16.355 12.1224846,16.16 C12.1224846,15.967 12.1974846,15.786 12.3324846,15.651 L15.3164846,12.667 L6.721,12.667 C6.324,12.666 6,12.343 6,11.946 C6,11.545 6.324,11.218 6.721,11.218 L15.3154846,11.218 Z" id="Shape"></path>
                </g>
            </g>
        </g>
    </g>
</svg>