<?xml version="1.0" encoding="UTF-8"?>
<svg width="24px" height="24px" viewBox="0 0 24 24" version="1.1" xmlns="http://www.w3.org/2000/svg" xmlns:xlink="http://www.w3.org/1999/xlink">
    <!-- Generator: Sketch 52.4 (67378) - http://www.bohemiancoding.com/sketch -->
    <title>c3p-music-tone-1</title>
    <desc>Created with Sketch.</desc>
    <defs>
        <path d="M11.4223508,20.0135631 C11.3706585,21.0411323 10.1725046,22.1573169 8.46592,22.1573169 C6.72019692,22.1573169 5.50358154,20.9905477 5.50358154,19.9445169 C5.50358154,18.8984862 6.72019692,17.7331938 8.46592,17.7331938 C10.1725046,17.7331938 11.3706585,18.8482708 11.4223508,19.87584 L11.4223508,20.0135631 Z M18.9421046,8.54119385 C19.2301046,8.82956308 19.69792,8.82956308 19.9862892,8.54119385 C20.2750277,8.25245538 20.2750277,7.78500923 19.9862892,7.49700923 L12.7656123,0.275963077 C12.5370585,0.0474092308 12.1966277,0.00310153846 11.9215508,0.137132308 C11.6317046,0.236455385 11.4223508,0.508947692 11.4223508,0.832393846 L11.4223508,17.1800862 C10.6395815,16.6000246 9.61238154,16.2448246 8.48327385,16.2448246 C6.03527385,16.2448246 4.04992,17.9011938 4.04992,19.9437785 C4.04992,21.9871015 6.03527385,23.6434708 8.48327385,23.6434708 C10.9316431,23.6434708 12.91552,21.9871015 12.91552,19.9437785 C12.91552,19.8522092 12.9070277,19.7624862 12.8992738,19.6727631 L12.8992738,2.49799385 L18.9421046,8.54119385 Z" id="path-1"></path>
    </defs>
    <g id="Page-1" stroke="none" stroke-width="1" fill="none" fill-rule="evenodd">
        <g id="C3p-icon-pack" transform="translate(-561.000000, -363.000000)">
            <g id="Group" transform="translate(63.000000, 86.000000)">
                <g id="c3p-music-tone-1" transform="translate(498.000000, 277.000000)">
                    <mask id="mask-2" fill="white">
                        <use xlink:href="#path-1"></use>
                    </mask>
                    <use id="Mask" fill="#000000" xlink:href="#path-1"></use>
                </g>
            </g>
        </g>
    </g>
</svg>