<?xml version="1.0" encoding="UTF-8"?>
<svg width="24px" height="24px" viewBox="0 0 24 24" version="1.1" xmlns="http://www.w3.org/2000/svg" xmlns:xlink="http://www.w3.org/1999/xlink">
    <!-- Generator: Sketch 52.4 (67378) - http://www.bohemiancoding.com/sketch -->
    <title>c3p-move</title>
    <desc>Created with Sketch.</desc>
    <defs>
        <path d="M23.5775262,11.2929231 C23.5738338,11.2892308 23.5697723,11.2877538 23.5653415,11.2844308 L20.57088,8.55101538 C20.3552492,8.34498462 20.0066954,8.34498462 19.7903262,8.55101538 L19.66368,8.73710769 C19.4480492,8.94350769 19.5185723,9.27729231 19.7342031,9.48369231 L21.4987569,11.0839385 L12.92928,11.0839385 L12.92928,2.46830769 L14.5295262,4.23286154 C14.7359262,4.44849231 15.0697108,4.51864615 15.2761108,4.30264615 L15.4622031,4.17673846 C15.6682338,3.96036923 15.6682338,3.61144615 15.4622031,3.39544615 L12.8502646,0.534276923 C12.7867569,0.406523077 12.6881723,0.300553846 12.5663262,0.227815385 L12.5334646,0.193476923 C12.4311877,0.0856615385 12.2945723,0.0321230769 12.1590646,0.0328615385 C12.0231877,0.0321230769 11.8873108,0.0856615385 11.7835569,0.193476923 L11.5967262,0.389169231 C11.5930338,0.392861538 11.5926646,0.397661538 11.5886031,0.401723077 L8.92349538,3.34966154 C8.71709538,3.56492308 8.71709538,3.91421538 8.92349538,4.13058462 L9.10958769,4.25649231 C9.31561846,4.47212308 9.65014154,4.40233846 9.85654154,4.18670769 L11.4523569,2.40738462 L11.4523569,11.0839385 L2.76768,11.0839385 L4.53223385,9.48369231 C4.74786462,9.27729231 4.81801846,8.94350769 4.60238769,8.73710769 L4.47611077,8.55101538 C4.25974154,8.34498462 3.91081846,8.34498462 3.69518769,8.55101538 L0.833649231,11.1625846 C0.705895385,11.2260923 0.600295385,11.3246769 0.527556923,11.4465231 L0.493218462,11.4793846 C0.385033846,11.5820308 0.331495385,11.7182769 0.332233846,11.8541538 C0.331495385,11.9904 0.385033846,12.1259077 0.493218462,12.2296615 L0.688541538,12.4164923 C0.692233846,12.4201846 0.697033846,12.4205538 0.700726154,12.4242462 L3.64903385,15.0897231 C3.86466462,15.2961231 4.21358769,15.2961231 4.42995692,15.0897231 L4.55623385,14.9036308 C4.77186462,14.6976 4.70171077,14.3627077 4.48608,14.1566769 L2.70638769,12.5608615 L11.4523569,12.5608615 L11.4523569,21.2603077 L9.85654154,19.4809846 C9.65014154,19.2653538 9.31561846,19.1952 9.10958769,19.4108308 L8.92349538,19.5371077 C8.71709538,19.7534769 8.71709538,20.1024 8.92349538,20.3176615 L11.5886031,23.2663385 C11.5926646,23.2700308 11.5930338,23.2744615 11.5967262,23.2785231 L11.7835569,23.4738462 C11.8873108,23.5816615 12.0231877,23.6355692 12.1590646,23.6348308 C12.2945723,23.6355692 12.4311877,23.5816615 12.5334646,23.4738462 L12.7202954,23.2785231 C12.7236185,23.2744615 12.7250954,23.2704 12.7287877,23.2663385 L15.4622031,20.2718769 C15.6682338,20.0558769 15.6682338,19.7073231 15.4622031,19.4909538 L15.2761108,19.3646769 C15.0697108,19.1486769 14.7359262,19.2192 14.5295262,19.4348308 L12.92928,21.1993846 L12.92928,12.5608615 L21.55968,12.5608615 L19.7803569,14.1566769 C19.5647262,14.3627077 19.4945723,14.6976 19.7102031,14.9036308 L19.83648,15.0897231 C20.0528492,15.2961231 20.4017723,15.2961231 20.6170338,15.0897231 L23.5653415,12.4242462 C23.5694031,12.4205538 23.5738338,12.4201846 23.5775262,12.4164923 L23.7732185,12.2296615 C23.8810338,12.1259077 23.9349415,11.9904 23.9342031,11.8541538 C23.9349415,11.7182769 23.8810338,11.5820308 23.7732185,11.4793846 L23.5775262,11.2929231 Z" id="path-1"></path>
    </defs>
    <g id="Page-1" stroke="none" stroke-width="1" fill="none" fill-rule="evenodd">
        <g id="C3p-icon-pack" transform="translate(-1341.000000, -464.000000)">
            <g id="Group" transform="translate(63.000000, 86.000000)">
                <g id="c3p-move" transform="translate(1278.000000, 378.000000)">
                    <mask id="mask-2" fill="white">
                        <use xlink:href="#path-1"></use>
                    </mask>
                    <use id="Mask" fill="#000000" xlink:href="#path-1"></use>
                </g>
            </g>
        </g>
    </g>
</svg>