<?xml version="1.0" encoding="UTF-8"?>
<svg width="24px" height="24px" viewBox="0 0 24 24" version="1.1" xmlns="http://www.w3.org/2000/svg" xmlns:xlink="http://www.w3.org/1999/xlink">
    <!-- Generator: Sketch 52.4 (67378) - http://www.bohemiancoding.com/sketch -->
    <title>c3p-ban</title>
    <desc>Created with Sketch.</desc>
    <defs>
        <path d="M4.080375,5.11725 L18.8895,19.92675 C17.044125,21.54075 14.635125,22.52325 12,22.52325 C6.210375,22.52325 1.5,17.789625 1.5,12 C1.5,9.36825 2.475375,6.961875 4.080375,5.11725 M12,1.5 C17.79,1.5 22.5,6.21 22.5,12 C22.5,14.61675 21.5355,17.016 19.94625,18.86175 L5.14275,4.05825 C6.984,2.466375 9.380625,1.5 12,1.5 M12,24 C18.62775,24 24,18.627375 24,12 C24,5.372625 18.62775,0 12,0 C5.372625,0 0,5.372625 0,12 C0,18.627375 5.372625,24 12,24" id="path-1"></path>
    </defs>
    <g id="Page-1" stroke="none" stroke-width="1" fill="none" fill-rule="evenodd">
        <g id="C3p-icon-pack" transform="translate(-279.000000, -93.000000)">
            <g id="Group" transform="translate(63.000000, 86.000000)">
                <g id="c3p-ban" transform="translate(216.000000, 7.000000)">
                    <mask id="mask-2" fill="white">
                        <use xlink:href="#path-1"></use>
                    </mask>
                    <use id="Mask" fill="#000000" xlink:href="#path-1"></use>
                </g>
            </g>
        </g>
    </g>
</svg>