<?xml version="1.0" encoding="UTF-8"?>
<svg width="24px" height="24px" viewBox="0 0 24 24" version="1.1" xmlns="http://www.w3.org/2000/svg" xmlns:xlink="http://www.w3.org/1999/xlink">
    <!-- Generator: Sketch 52.4 (67378) - http://www.bohemiancoding.com/sketch -->
    <title>c3p-upload-cloud</title>
    <desc>Created with Sketch.</desc>
    <g id="Page-1" stroke="none" stroke-width="1" fill="none" fill-rule="evenodd">
        <g id="C3p-icon-pack" transform="translate(-117.000000, -147.000000)" fill="#000000">
            <g id="Group" transform="translate(63.000000, 86.000000)">
                <g id="c3p-upload-cloud" transform="translate(54.000000, 61.000000)">
                    <path d="M11.8314831,21.9138585 C11.4238523,21.9138585 11.0930215,21.5830277 11.0930215,21.1753969 L11.0930215,13.73392 L9.52120615,15.4870277 C9.31517538,15.7026585 8.98028308,15.7724431 8.77425231,15.5568123 L8.58816,15.4305354 C8.38176,15.2141662 8.38176,14.8652431 8.58816,14.6496123 L11.2536369,11.7016738 C11.25696,11.6979815 11.2576985,11.6928123 11.2613908,11.6894892 L11.4482215,11.4937969 C11.5519754,11.3856123 11.6874831,11.3324431 11.8237292,11.3331815 C11.9596062,11.3324431 12.0958523,11.3856123 12.1981292,11.4937969 L12.38496,11.6894892 C12.3886523,11.6928123 12.3901292,11.6972431 12.3934523,11.7016738 L15.1268677,14.6957662 C15.3328985,14.9113969 15.3328985,15.26032 15.1268677,15.4766892 L14.9407754,15.6029662 C14.7343754,15.8185969 14.4005908,15.7488123 14.1941908,15.5331815 L12.5699446,13.7416738 L12.5699446,21.1753969 C12.5699446,21.5830277 12.2391138,21.9138585 11.8314831,21.9138585 Z M23.6439877,12.3095385 C23.6439877,15.4804923 21.7206646,19.0084923 18.0283569,19.1056 L16.3465108,19.1078154 C15.93888,19.1078154 15.6080492,18.7777231 15.6080492,18.3693538 C15.6080492,17.9613538 15.93888,17.6308923 16.3465108,17.6308923 L18.0342646,17.6308923 C20.5598031,17.6308923 22.2276185,14.8262154 22.2276185,12.3095385 C22.2276185,9.544 19.8217108,7.31827692 17.0790646,7.26067692 L16.5462646,7.24923077 L16.3889723,6.7408 C15.6265108,4.27581538 13.9786338,2.83064615 11.0454646,2.83064615 C7.38601846,2.83064615 5.01888,5.54375385 5.01888,9.1408 L5.02404923,9.14929231 L5.08386462,9.82646154 L4.41371077,9.94203077 C2.78060308,10.2226462 1.47869538,11.8978462 1.47869538,13.7547077 C1.47869538,15.856 3.10626462,17.6308923 5.00558769,17.6308923 L7.13900308,17.6308923 C7.54663385,17.6308923 7.87746462,17.9613538 7.87746462,18.3693538 C7.87746462,18.7777231 7.54663385,19.1078154 7.13900308,19.1078154 L5.00558769,19.1078154 C2.30577231,19.1078154 0.0246646154,16.6564923 0.0246646154,13.7547077 C0.0246646154,11.3842462 1.50564923,9.29144615 3.55746462,8.63532308 C3.81334154,4.51323077 6.79008,1.35372308 11.0454646,1.35372308 C14.3895877,1.35372308 16.6034954,3.08467692 17.6336492,5.81772308 C20.9729723,6.17698462 23.6439877,8.9008 23.6439877,12.3095385 Z" id="Shape"></path>
                </g>
            </g>
        </g>
    </g>
</svg>