<?xml version="1.0" encoding="UTF-8"?>
<svg width="24px" height="24px" viewBox="0 0 24 24" version="1.1" xmlns="http://www.w3.org/2000/svg" xmlns:xlink="http://www.w3.org/1999/xlink">
    <!-- Generator: Sketch 52.4 (67378) - http://www.bohemiancoding.com/sketch -->
    <title>c3p-user-friends</title>
    <desc>Created with Sketch.</desc>
    <g id="Page-1" stroke="none" stroke-width="1" fill="none" fill-rule="evenodd">
        <g id="C3p-icon-pack" transform="translate(-1395.000000, -194.000000)" fill="#000000">
            <g id="Group" transform="translate(63.000000, 86.000000)">
                <g id="c3p-user-friends" transform="translate(1332.000000, 108.000000)">
                    <path d="M1.46069091,20.8881455 L1.46069091,22.1885091 L16.7341455,22.1885091 L16.7341455,20.8725091 C16.6374182,20.8056 16.5054182,20.7296 16.3981455,20.6841455 C16.3556,20.6659636 16.3043273,20.6416 16.2639636,20.6197818 L11.6850545,18.0834182 C11.2559636,17.8492364 10.9734182,17.4150545 10.9323273,16.9277818 C10.8919636,16.4408727 11.0985091,15.9656 11.4828727,15.6630545 C12.7377818,14.6757818 13.0912364,12.5005091 13.0912364,11.3612364 L13.0912364,8.28996364 C13.0912364,7.22050909 11.2312364,5.44632727 9.13050909,5.44632727 C7.06796364,5.44632727 5.09850909,7.24523636 5.09850909,8.28996364 L5.09850909,11.3612364 C5.09850909,12.5168727 5.62105455,14.6823273 6.84069091,15.6601455 C7.22069091,15.9648727 7.42287273,16.4401455 7.3796,16.9252364 C7.33632727,17.4103273 7.05232727,17.8412364 6.62396364,18.0736 L1.92650909,20.6212364 C1.89378182,20.6394182 1.85996364,20.6557818 1.82578182,20.6714182 C1.71050909,20.7241455 1.56505455,20.8121455 1.46069091,20.8881455 Z M1.23341818,23.6430545 C0.556690909,23.6430545 0.00614545455,23.0925091 0.00614545455,22.4143273 L0.00614545455,20.5714182 C0.00614545455,19.8896 1.23341818,19.3426909 1.23341818,19.3426909 L5.93087273,16.7950545 C4.21123636,15.4165091 3.64396364,12.7026909 3.64396364,11.3612364 L3.64396364,8.28996364 C3.64396364,6.25687273 6.41741818,3.99178182 9.13050909,3.99178182 C11.8443273,3.99178182 14.5457818,6.25687273 14.5457818,8.28996364 L14.5457818,11.3612364 C14.5457818,12.8361455 14.0836,15.4677818 12.3817818,16.8063273 L16.9606909,19.3426909 C16.9606909,19.3426909 18.1886909,19.8485091 18.1886909,20.5714182 L18.1886909,22.4143273 C18.1886909,23.0925091 17.6381455,23.6430545 16.9606909,23.6430545 L1.23341818,23.6430545 Z M19.6361091,7.73970909 C19.6361091,9.21498182 19.1055636,11.8462545 17.4037455,13.1851636 L22.0510182,15.7211636 C22.0510182,15.7211636 23.2790182,16.2269818 23.2790182,16.9498909 L23.2790182,18.7702545 C23.2790182,19.4484364 22.7284727,19.9989818 22.0510182,19.9989818 L19.6375636,19.9989818 C19.4655636,19.3575273 19.3313818,18.8789818 18.8881091,18.5444364 L21.8244727,18.5444364 L21.8244727,17.2509818 C21.7277455,17.1844364 21.5957455,17.1084364 21.4884727,17.0629818 C21.4459273,17.0444364 21.3946545,17.0200727 21.3542909,16.9982545 L16.7070182,14.4618909 C16.2782909,14.2277091 15.9953818,13.7935273 15.9542909,13.3066182 C15.9139273,12.8193455 16.1204727,12.3440727 16.5048364,12.0415273 C17.7597455,11.0542545 18.1815636,8.87898182 18.1815636,7.73970909 L18.1815636,4.6688 C18.1815636,3.59898182 16.2532,1.80225455 14.1524727,1.80225455 C13.1004727,1.80225455 12.1310182,2.15716364 11.3648364,2.75389091 C10.7946545,2.57207273 10.1346545,2.57134545 9.53610909,2.53461818 C10.5855636,1.30661818 12.3888364,0.347709091 14.1524727,0.347709091 C16.8662909,0.347709091 19.6361091,2.63534545 19.6361091,4.6688 L19.6361091,7.73970909 Z" id="Shape"></path>
                </g>
            </g>
        </g>
    </g>
</svg>