<?xml version="1.0" encoding="UTF-8"?>
<svg width="24px" height="24px" viewBox="0 0 24 24" version="1.1" xmlns="http://www.w3.org/2000/svg" xmlns:xlink="http://www.w3.org/1999/xlink">
    <!-- Generator: Sketch 52.4 (67378) - http://www.bohemiancoding.com/sketch -->
    <title>c3p-gender-male</title>
    <desc>Created with Sketch.</desc>
    <defs>
        <path d="M17.0620431,14.4461908 C17.0620431,18.7351754 13.5849969,22.2122215 9.29601231,22.2122215 C5.00702769,22.2122215 1.52998154,18.7351754 1.52998154,14.4461908 C1.52998154,10.1572062 5.00702769,6.68016 9.29601231,6.68016 C13.5849969,6.68016 17.0620431,10.1572062 17.0620431,14.4461908 M23.5346585,0.168036923 C23.4390277,0.0716676923 23.3049969,0.01296 23.1561969,0.0173907692 L22.88592,0.0232984615 C22.88112,0.0232984615 22.8770585,0.0251446154 22.8711508,0.0258830769 L16.0983508,0.00299076923 C15.8000123,0.00926769231 15.5533662,0.256283077 15.5463508,0.554990769 L15.5456123,0.933821538 C15.5910277,1.28569846 15.8675815,1.49136 16.1655508,1.48471385 L21.1324431,1.49505231 L15.2214277,7.36988308 C13.6178585,6.02551385 11.5516431,5.21542154 9.29601231,5.21542154 C4.19767385,5.21542154 0.0652430769,9.34785231 0.0652430769,14.4461908 C0.0652430769,19.54416 4.19767385,23.67696 9.29601231,23.67696 C14.3936123,23.67696 18.5267815,19.54416 18.5267815,14.4461908 C18.5267815,12.1359138 17.6757046,10.0253908 16.2729969,8.40668308 L22.2013662,2.51523692 L22.1795815,7.57222154 C22.1729354,7.87019077 22.4092431,8.13012923 22.7079508,8.12311385 L23.0867815,8.12274462 C23.3858585,8.11572923 23.6325046,7.93812923 23.6387815,7.63979077 L23.6542892,0.832283077 C23.6542892,0.826744615 23.6343508,0.823052308 23.6343508,0.817883077 L23.66352,0.547236923 C23.6668431,0.397698462 23.6317662,0.264036923 23.5346585,0.168036923" id="path-1"></path>
    </defs>
    <g id="Page-1" stroke="none" stroke-width="1" fill="none" fill-rule="evenodd">
        <g id="C3p-icon-pack" transform="translate(-225.000000, -417.000000)">
            <g id="Group" transform="translate(63.000000, 86.000000)">
                <g id="c3p-gender-male" transform="translate(162.000000, 331.000000)">
                    <mask id="mask-2" fill="white">
                        <use xlink:href="#path-1"></use>
                    </mask>
                    <use id="Mask" fill="#000000" xlink:href="#path-1"></use>
                </g>
            </g>
        </g>
    </g>
</svg>