<?xml version="1.0" encoding="UTF-8"?>
<svg width="24px" height="24px" viewBox="0 0 24 24" version="1.1" xmlns="http://www.w3.org/2000/svg" xmlns:xlink="http://www.w3.org/1999/xlink">
    <!-- Generator: Sketch 52.4 (67378) - http://www.bohemiancoding.com/sketch -->
    <title>c3p-phone-call-in</title>
    <desc>Created with Sketch.</desc>
    <g id="Page-1" stroke="none" stroke-width="1" fill="none" fill-rule="evenodd">
        <g id="C3p-icon-pack" transform="translate(-897.000000, -417.000000)" fill="#000000">
            <g id="Group" transform="translate(63.000000, 86.000000)">
                <g id="c3p-phone-call-in" transform="translate(834.000000, 331.000000)">
                    <path d="M23.3554338,0.614584615 C23.6438031,0.902953846 23.6438031,1.37076923 23.3554338,1.65913846 L17.3100185,7.69606154 L20.8062646,7.70529231 C21.1046031,7.69901538 21.3811569,7.90467692 21.4262031,8.25618462 L21.4258338,8.63538462 C21.4184492,8.93409231 21.1718031,9.18073846 20.8734646,9.18775385 L15.5775877,9.16449231 C15.57168,9.16486154 15.5679877,9.16707692 15.5628185,9.16707692 L15.2925415,9.17335385 C15.1437415,9.17704615 15.0093415,9.11833846 14.91408,9.02233846 C14.8169723,8.92633846 14.7822646,8.79267692 14.7852185,8.64276923 L14.8143877,8.37249231 C14.8143877,8.36732308 14.7944492,8.36326154 14.7944492,8.35846154 L14.8095877,3.02750769 C14.8162338,2.72953846 15.0632492,2.55156923 15.3619569,2.54455385 L15.7407877,2.54418462 C16.0391262,2.53716923 16.2758031,2.79710769 16.2691569,3.09544615 L16.2488492,6.66849231 L22.31088,0.614584615 C22.5996185,0.326584615 23.0670646,0.326584615 23.3554338,0.614584615 Z M22.1210215,19.6548554 C22.2328985,19.4938708 22.2421292,19.3657477 22.23216,19.3066708 C21.6232985,18.8890708 18.1746831,16.5994708 17.6093908,16.24464 C17.6045908,16.2439015 17.5979446,16.2439015 17.59056,16.2439015 C17.5444062,16.2439015 17.37456,16.2538708 17.1256985,16.3853169 C16.8155446,16.5481477 15.8621908,17.0883323 15.0731446,17.5391631 L14.2589908,18.0040246 L13.4917292,17.4653169 C12.9234831,17.0658092 11.6872985,16.1131938 9.79129846,14.2164554 C7.90342154,12.3285785 6.94785231,11.0883323 6.54612923,10.5178708 L6.00742154,9.75060923 L6.47191385,8.93645538 C7.06896,7.89005538 7.48877538,7.14199385 7.62354462,6.88537846 C7.75056,6.64464 7.77308308,6.47590154 7.77160615,6.40944 C7.36692923,5.77842462 5.13714462,2.40254769 4.72176,1.79922462 C4.70588308,1.79627077 4.68557538,1.79405538 4.66120615,1.79405538 C4.55154462,1.79405538 4.43412923,1.83208615 4.33886769,1.89780923 C3.05283692,2.82753231 1.69776,4.16599385 1.51129846,4.68808615 C1.63942154,7.44845538 4.07339077,11.3312862 8.37492923,15.6343015 C12.6768369,19.9369477 16.5637292,22.3712862 19.3336985,22.5012554 C19.8543138,22.3074092 21.1842831,20.9523323 22.1210215,19.6548554 Z M23.1415754,18.1395323 C23.7356677,18.5563938 23.9738215,19.5828554 23.3210215,20.5151631 C23.2973908,20.5491323 20.8098831,23.9803938 19.3949908,23.9803938 L19.36176,23.9803938 C15.3205292,23.8511631 10.5899446,19.9384246 7.33074462,16.6784862 C4.07191385,13.4189169 0.160283077,8.68833231 0.03216,4.66260923 C-0.0139938462,3.22999385 3.46120615,0.709993846 3.49591385,0.685624615 C3.85554462,0.435286154 4.27019077,0.317132308 4.66120615,0.317132308 C5.15671385,0.317132308 5.61308308,0.507655385 5.86748308,0.860270769 C6.13812923,1.23356308 8.75745231,5.20574769 9.04508308,5.66027077 C9.35154462,6.14174769 9.30908308,6.85657846 8.93099077,7.57177846 C8.73197538,7.95134769 8.07659077,9.10445538 7.75499077,9.66827077 C8.10612923,10.1682092 9.00816,11.3449477 10.8365908,13.1722708 C12.6760985,15.0136246 13.8436062,15.9079015 14.3405908,16.2568246 C14.9044062,15.9344862 16.0575138,15.2779938 16.4381908,15.0778708 C16.8292062,14.8722092 17.2294523,14.7669785 17.59056,14.7669785 C17.8711754,14.7669785 18.1285292,14.8304862 18.3400985,14.9593477 C18.8245292,15.25584 22.7800985,17.8858708 23.1415754,18.1395323 Z" id="Shape"></path>
                </g>
            </g>
        </g>
    </g>
</svg>