<?xml version="1.0" encoding="UTF-8"?>
<svg width="24px" height="24px" viewBox="0 0 24 24" version="1.1" xmlns="http://www.w3.org/2000/svg" xmlns:xlink="http://www.w3.org/1999/xlink">
    <!-- Generator: Sketch 52.4 (67378) - http://www.bohemiancoding.com/sketch -->
    <title>c3p-arrow-down-tail</title>
    <desc>Created with Sketch.</desc>
    <defs>
        <path d="M10.8780708,17.1023501 L10.8780708,4.13463261 C10.8780708,3.53562243 11.3373925,3.04675769 11.9006586,3.04675769 C12.458306,3.04675769 12.9120091,3.53562243 12.9134138,4.13463261 L12.9134138,17.1038589 L17.1048999,12.601475 C17.2945281,12.3977814 17.5487704,12.2846183 17.8198685,12.2846183 C18.0937759,12.2846183 18.3466136,12.3977814 18.5376465,12.601475 C18.7314886,12.8096952 18.8382423,13.0873221 18.8382423,13.3785286 C18.8382423,13.6742615 18.730084,13.9503796 18.5376465,14.1495467 L12.6156272,20.5108236 C12.425999,20.7220615 12.1703521,20.8382423 11.8964446,20.8382423 C11.6211325,20.8382423 11.3654856,20.7220615 11.1786667,20.5138413 L5.25805212,14.1555821 C5.06140063,13.9503796 4.95324231,13.6742615 4.95324231,13.3800374 C4.95324231,13.0873221 5.05999597,12.8096952 5.25383816,12.601475 C5.64292718,12.182017 6.2890678,12.1789993 6.69501267,12.601475 L10.8780708,17.1023501 Z" id="path-1"></path>
    </defs>
    <g id="Page-1" stroke="none" stroke-width="1" fill="none" fill-rule="evenodd">
        <g id="C3p-icon-pack" transform="translate(-1623.000000, -194.000000)">
            <g id="Group" transform="translate(63.000000, 86.000000)">
                <g id="c3p-arrow-down-tail" transform="translate(1560.000000, 108.000000)">
                    <mask id="mask-2" fill="white">
                        <use xlink:href="#path-1"></use>
                    </mask>
                    <use id="Mask" fill="#000000" xlink:href="#path-1"></use>
                </g>
            </g>
        </g>
    </g>
</svg>