<?xml version="1.0" encoding="UTF-8"?>
<svg width="24px" height="24px" viewBox="0 0 24 24" version="1.1" xmlns="http://www.w3.org/2000/svg" xmlns:xlink="http://www.w3.org/1999/xlink">
    <!-- Generator: Sketch 52.4 (67378) - http://www.bohemiancoding.com/sketch -->
    <title>c3p-monitor</title>
    <desc>Created with Sketch.</desc>
    <defs>
        <path d="M1.4832,16.4025846 L22.1601231,16.4025846 L22.1601231,3.84430769 L1.4832,3.84430769 L1.4832,16.4025846 Z M1.4832,17.8791385 L11.0832,17.8791385 L11.0832,20.0993231 L7.39089231,20.0993231 C6.98289231,20.0993231 6.65243077,20.4297846 6.65243077,20.8377846 C6.65243077,21.2454154 6.98289231,21.5762462 7.39089231,21.5762462 L16.2524308,21.5762462 C16.6600615,21.5762462 16.9908923,21.2454154 16.9908923,20.8377846 C16.9908923,20.4297846 16.6600615,20.0993231 16.2524308,20.0993231 L12.5601231,20.0993231 L12.5601231,17.8791385 L22.1601231,17.8791385 C22.9720615,17.8791385 23.6370462,17.2145231 23.6370462,16.4022154 L23.6370462,3.84430769 C23.6370462,3.032 22.9720615,2.36738462 22.1601231,2.36738462 L1.4832,2.36738462 C0.671261538,2.36738462 0.00627692308,3.032 0.00627692308,3.84430769 L0.00627692308,16.4022154 C0.00627692308,17.2145231 0.671261538,17.8791385 1.4832,17.8791385 Z" id="path-1"></path>
    </defs>
    <g id="Page-1" stroke="none" stroke-width="1" fill="none" fill-rule="evenodd">
        <g id="C3p-icon-pack" transform="translate(-1449.000000, -248.000000)">
            <g id="Group" transform="translate(63.000000, 86.000000)">
                <g id="c3p-monitor" transform="translate(1386.000000, 162.000000)">
                    <mask id="mask-2" fill="white">
                        <use xlink:href="#path-1"></use>
                    </mask>
                    <use id="Mask" fill="#000000" xlink:href="#path-1"></use>
                </g>
            </g>
        </g>
    </g>
</svg>