<?xml version="1.0" encoding="UTF-8"?>
<svg width="24px" height="24px" viewBox="0 0 24 24" version="1.1" xmlns="http://www.w3.org/2000/svg" xmlns:xlink="http://www.w3.org/1999/xlink">
    <!-- Generator: Sketch 52.4 (67378) - http://www.bohemiancoding.com/sketch -->
    <title>c3p-chart-pie</title>
    <desc>Created with Sketch.</desc>
    <g id="Page-1" stroke="none" stroke-width="1" fill="none" fill-rule="evenodd">
        <g id="C3p-icon-pack" transform="translate(-507.000000, -147.000000)" fill="#000000">
            <g id="Group" transform="translate(63.000000, 86.000000)">
                <g id="c3p-chart-pie" transform="translate(444.000000, 61.000000)">
                    <path d="M9.64349538,9.60731077 L9.64349538,1.50860308 C5.29395692,1.86528 1.90146462,5.25740308 1.54478769,9.60731077 L9.64349538,9.60731077 Z M10.3819569,0.00140307692 C10.7895877,0.00140307692 11.1204185,0.332233846 11.1204185,0.739864615 L11.1204185,10.3457723 C11.1204185,10.7534031 10.7895877,11.0842338 10.3819569,11.0842338 L0.776049231,11.0842338 C0.368418462,11.0842338 0.0375876923,10.7534031 0.0375876923,10.3457723 C0.0375876923,4.59389538 4.63044923,0.00140307692 10.3819569,0.00140307692 Z M12.7145354,22.1553969 C17.9402585,22.1553969 22.1915815,17.9040738 22.1915815,12.6779815 C22.1915815,7.45262769 18.5465354,3.63404308 13.3208123,3.63404308 C12.9128123,3.63404308 12.5823508,3.30358154 12.5823508,2.89558154 C12.5823508,2.48795077 12.9128123,2.15712 13.3208123,2.15712 C19.3606892,2.15712 23.6685046,6.63847385 23.6685046,12.6779815 C23.6685046,18.7182277 18.7544123,23.63232 12.7145354,23.63232 C6.67465846,23.63232 2.19330462,19.1945354 2.19330462,13.1542892 C2.19330462,12.7462892 2.52413538,12.4158277 2.93176615,12.4158277 C3.33976615,12.4158277 3.67022769,12.7462892 3.67022769,13.1542892 C3.67022769,18.3803815 7.48918154,22.1553969 12.7145354,22.1553969 Z" id="Shape"></path>
                </g>
            </g>
        </g>
    </g>
</svg>