<?xml version="1.0" encoding="UTF-8"?>
<svg width="24px" height="24px" viewBox="0 0 24 24" version="1.1" xmlns="http://www.w3.org/2000/svg" xmlns:xlink="http://www.w3.org/1999/xlink">
    <!-- Generator: Sketch 52.4 (67378) - http://www.bohemiancoding.com/sketch -->
    <title>c3p-arrow-ne-tail</title>
    <desc>Created with Sketch.</desc>
    <defs>
        <path d="M16.2639097,9.01353743 L7.09434873,18.1830984 C6.67078457,18.6066625 6.00031551,18.6275526 5.60202626,18.2292634 C5.20770997,17.8349471 5.23257301,17.168451 5.65514393,16.7438936 L14.8257718,7.57326572 L8.67827739,7.79310364 C8.40015683,7.80304939 8.14036197,7.70329137 7.94866664,7.51159604 C7.75498484,7.31791424 7.65622005,7.05911262 7.66517256,6.77999882 C7.67533933,6.4956978 7.79616494,6.22389971 8.00207901,6.01798564 C8.21119381,5.80887084 8.48291824,5.69010538 8.75982454,5.68534685 L17.4454265,5.37474474 C17.7288817,5.35946442 17.9918036,5.45808187 18.1854854,5.65176367 C18.3801604,5.84643872 18.4787779,6.10936064 18.4636449,6.38869546 L18.1541834,15.0711704 C18.1481369,15.3553241 18.0293715,15.6270485 17.8213236,15.8350964 C17.6143426,16.0420774 17.3425445,16.162903 17.0582435,16.1730697 C16.4865144,16.1945439 16.0274902,15.7397873 16.0391792,15.1540055 L16.2639097,9.01353743 Z" id="path-1"></path>
    </defs>
    <g id="Page-1" stroke="none" stroke-width="1" fill="none" fill-rule="evenodd">
        <g id="C3p-icon-pack" transform="translate(-1731.000000, -194.000000)">
            <g id="Group" transform="translate(63.000000, 86.000000)">
                <g id="c3p-arrow-ne-tail" transform="translate(1668.000000, 108.000000)">
                    <mask id="mask-2" fill="white">
                        <use xlink:href="#path-1"></use>
                    </mask>
                    <use id="Mask" fill="#000000" xlink:href="#path-1"></use>
                </g>
            </g>
        </g>
    </g>
</svg>