<?xml version="1.0" encoding="UTF-8"?>
<svg width="24px" height="24px" viewBox="0 0 24 24" version="1.1" xmlns="http://www.w3.org/2000/svg" xmlns:xlink="http://www.w3.org/1999/xlink">
    <!-- Generator: Sketch 52.4 (67378) - http://www.bohemiancoding.com/sketch -->
    <title>c3p-download-cloud</title>
    <desc>Created with Sketch.</desc>
    <g id="Page-1" stroke="none" stroke-width="1" fill="none" fill-rule="evenodd">
        <g id="C3p-icon-pack" transform="translate(-171.000000, -147.000000)" fill="#000000">
            <g id="Group" transform="translate(63.000000, 86.000000)">
                <g id="c3p-download-cloud" transform="translate(108.000000, 61.000000)">
                    <path d="M11.8314831,11.3323692 C12.2391138,11.3323692 12.5699446,11.6632 12.5699446,12.0708308 L12.5699446,19.5045538 L14.1941908,17.7130462 C14.4005908,17.4974154 14.7343754,17.4974154 14.9407754,17.7130462 L15.1268677,17.8618462 C15.3328985,18.0778462 15.3328985,18.3344615 15.1268677,18.5500923 L12.3934523,21.5445538 C12.3901292,21.5489846 12.3886523,21.5534154 12.38496,21.5567385 L12.1981292,21.7524308 C12.0958523,21.8606154 11.9596062,21.9137846 11.8237292,21.9130462 C11.6874831,21.9137846 11.5519754,21.8606154 11.4482215,21.7524308 L11.2613908,21.5567385 C11.2576985,21.5534154 11.25696,21.5482462 11.2536369,21.5445538 L8.58816,18.5962462 C8.38176,18.3809846 8.38176,18.0320615 8.58816,17.8156923 L8.77425231,17.7130462 C8.98028308,17.4974154 9.31517538,17.5435692 9.52120615,17.7592 L11.0930215,19.5123077 L11.0930215,12.0708308 C11.0930215,11.6632 11.4238523,11.3323692 11.8314831,11.3323692 Z M18.0341538,17.6309292 C20.5600615,17.6309292 22.2275077,14.8262523 22.2275077,12.3095754 C22.2275077,9.54403692 19.8219692,7.31831385 17.0789538,7.26071385 L16.5465231,7.24926769 L16.3888615,6.74083692 C15.6264,4.27585231 13.9788923,2.83068308 11.0453538,2.83068308 C7.38590769,2.83068308 5.01876923,5.54379077 5.01876923,9.14083692 L5.02430769,9.14932923 L5.08412308,9.82649846 L4.4136,9.94206769 C2.78049231,10.2226831 1.47858462,11.8978831 1.47858462,13.7547446 C1.47858462,15.8560369 3.10615385,17.6309292 5.00547692,17.6309292 L5.66196923,17.6309292 C6.06996923,17.6309292 6.40043077,17.9613908 6.40043077,18.3693908 C6.40043077,18.7773908 6.06996923,19.1078523 5.66196923,19.1078523 L5.00547692,19.1078523 C2.30566154,19.1078523 0.0249230769,16.6565292 0.0249230769,13.7547446 C0.0249230769,11.3842831 1.50553846,9.29148308 3.55735385,8.63536 C3.81323077,4.51326769 6.79033846,1.35376 11.0453538,1.35376 C14.3894769,1.35376 16.6033846,3.08471385 17.6335385,5.81776 C20.9728615,6.17702154 23.6438769,8.90046769 23.6438769,12.3095754 C23.6438769,15.4805292 21.516,19.00816 17.8236923,19.1056369 L17.8236923,19.1078523 C17.4156923,19.1078523 17.0852308,18.7773908 17.0852308,18.3693908 C17.0852308,17.9613908 17.4156923,17.6309292 17.8236923,17.6309292 L18.0341538,17.6309292 Z" id="Shape"></path>
                </g>
            </g>
        </g>
    </g>
</svg>