<?xml version="1.0" encoding="UTF-8"?>
<svg width="24px" height="24px" viewBox="0 0 24 24" version="1.1" xmlns="http://www.w3.org/2000/svg" xmlns:xlink="http://www.w3.org/1999/xlink">
    <!-- Generator: Sketch 52.4 (67378) - http://www.bohemiancoding.com/sketch -->
    <title>c3p-feed</title>
    <desc>Created with Sketch.</desc>
    <g id="Page-1" stroke="none" stroke-width="1" fill="none" fill-rule="evenodd">
        <g id="C3p-icon-pack" transform="translate(-843.000000, -363.000000)" fill="#000000">
            <g id="Group" transform="translate(63.000000, 86.000000)">
                <g id="c3p-feed" transform="translate(780.000000, 277.000000)">
                    <path d="M2.28384762,9.44289524 C1.86289524,9.44289524 1.52194286,9.10194286 1.52194286,8.68099048 C1.52194286,8.2600381 1.86289524,7.91908571 2.28384762,7.91908571 C10.1973714,7.91908571 16.0225143,13.7910857 16.0225143,21.7049905 C16.0225143,22.1259429 15.6819429,22.4668952 15.2606095,22.4668952 C14.8396571,22.4668952 14.4987048,22.1259429 14.4987048,21.7049905 C14.4987048,14.6600381 9.32918095,9.44289524 2.28384762,9.44289524 Z M4.19398095,17.050019 C2.69150476,17.050019 1.46940952,18.2755429 1.46940952,19.7822095 C1.46940952,21.2892571 2.69150476,22.5155429 4.19398095,22.5155429 C5.69645714,22.5155429 6.91931429,21.2892571 6.91931429,19.7822095 C6.91931429,18.2755429 5.69645714,17.050019 4.19398095,17.050019 Z M4.19398095,23.9890667 C1.88121905,23.9890667 7.61904762e-05,22.1014476 7.61904762e-05,19.7822095 C7.61904762e-05,17.4629714 1.88121905,15.5764952 4.19398095,15.5764952 C6.50674286,15.5764952 8.38864762,17.4629714 8.38864762,19.7822095 C8.38864762,22.1014476 6.50674286,23.9890667 4.19398095,23.9890667 Z M1.52860952,1.06304762 C1.52860952,0.642095238 1.8695619,0.301142857 2.29051429,0.301142857 C14.0627048,0.301142857 23.6402286,9.87866667 23.6402286,21.6500952 C23.6402286,22.0710476 23.2992762,22.412 22.8783238,22.412 C22.4573714,22.412 22.116419,22.0710476 22.116419,21.6500952 C22.116419,10.7186667 13.2227048,1.82495238 2.29051429,1.82495238 C1.8695619,1.82495238 1.52860952,1.484 1.52860952,1.06304762 Z" id="Shape"></path>
                </g>
            </g>
        </g>
    </g>
</svg>