<?xml version="1.0" encoding="UTF-8"?>
<svg width="24px" height="24px" viewBox="0 0 24 24" version="1.1" xmlns="http://www.w3.org/2000/svg" xmlns:xlink="http://www.w3.org/1999/xlink">
    <!-- Generator: Sketch 52.4 (67378) - http://www.bohemiancoding.com/sketch -->
    <title>c3p-arrow-right-tail</title>
    <desc>Created with Sketch.</desc>
    <defs>
        <path d="M17.0555924,12.9601715 L4.08787492,12.9601715 C3.48886474,12.9601715 3,12.5008498 3,11.9375837 C3,11.3799363 3.48886474,10.9262332 4.08787492,10.9248285 L17.0571012,10.9248285 L12.5547173,6.73334244 C12.3510237,6.54371421 12.2378606,6.28947193 12.2378606,6.0183738 C12.2378606,5.74446636 12.3510237,5.49162873 12.5547173,5.30059585 C12.7629375,5.10675367 13.0405644,5 13.3317709,5 C13.6275039,5 13.9036219,5.10815832 14.102789,5.30059585 L20.4640659,11.2226151 C20.6753038,11.4122433 20.7914846,11.6678902 20.7914846,11.9417977 C20.7914846,12.2171098 20.6753038,12.4727567 20.4670836,12.6595756 L14.1088244,18.5801902 C13.9036219,18.7768417 13.6275039,18.885 13.3332797,18.885 C13.0405644,18.885 12.7629375,18.7782463 12.5547173,18.5844041 C12.1352593,18.1953151 12.1322416,17.5491745 12.5547173,17.1432296 L17.0555924,12.9601715 Z" id="path-1"></path>
    </defs>
    <g id="Page-1" stroke="none" stroke-width="1" fill="none" fill-rule="evenodd">
        <g id="C3p-icon-pack" transform="translate(-1785.000000, -140.000000)">
            <g id="Group" transform="translate(63.000000, 86.000000)">
                <g id="c3p-arrow-right-tail" transform="translate(1722.000000, 54.000000)">
                    <mask id="mask-2" fill="white">
                        <use xlink:href="#path-1"></use>
                    </mask>
                    <use id="Mask" fill="#000000" xlink:href="#path-1"></use>
                </g>
            </g>
        </g>
    </g>
</svg>