<?xml version="1.0" encoding="UTF-8"?>
<svg width="24px" height="24px" viewBox="0 0 24 24" version="1.1" xmlns="http://www.w3.org/2000/svg" xmlns:xlink="http://www.w3.org/1999/xlink">
    <!-- Generator: Sketch 52.4 (67378) - http://www.bohemiancoding.com/sketch -->
    <title>c3p-arrow-left-circle</title>
    <desc>Created with Sketch.</desc>
    <g id="Page-1" stroke="none" stroke-width="1" fill="none" fill-rule="evenodd">
        <g id="C3p-icon-pack" transform="translate(-507.000000, -201.000000)" fill="#000000">
            <g id="Group" transform="translate(63.000000, 86.000000)">
                <g id="c3p-arrow-left-circle" transform="translate(444.000000, 115.000000)">
                    <path d="M8.476,11.218 L17.0704846,11.218 C17.4674846,11.218 17.7914846,11.545 17.7914846,11.946 C17.7914846,12.343 17.4674846,12.666 17.0704846,12.667 L8.475,12.667 L11.459,15.651 C11.594,15.786 11.669,15.967 11.669,16.16 C11.669,16.355 11.594,16.535 11.459,16.671 C11.321,16.809 11.137,16.885 10.944,16.885 C10.748,16.885 10.565,16.808 10.433,16.671 L6.217,12.455 C6.077,12.32 6,12.138 6,11.943 C6,11.747 6.077,11.565 6.215,11.432 L10.429,7.217 C10.565,7.077 10.748,7 10.943,7 C11.137,7 11.321,7.076 11.459,7.214 C11.737,7.491 11.739,7.951 11.459,8.24 L8.476,11.218 Z M11.85312,22.1784738 C17.5536738,22.1784738 22.1915815,17.5176738 22.1915815,11.81712 C22.1915815,6.11619692 17.5536738,1.47828923 11.85312,1.47828923 C6.15256615,1.47828923 1.51465846,6.11619692 1.51465846,11.81712 C1.51465846,17.5176738 6.15256615,22.1784738 11.85312,22.1784738 Z M23.6685046,11.81712 C23.6685046,18.3425354 18.3785354,23.6325046 11.85312,23.6325046 C5.32733538,23.6325046 0.0377353846,18.3425354 0.0377353846,11.81712 C0.0377353846,5.29170462 5.32733538,0.00136615385 11.85312,0.00136615385 C18.3785354,0.00136615385 23.6685046,5.29170462 23.6685046,11.81712 Z" id="Shape"></path>
                </g>
            </g>
        </g>
    </g>
</svg>