<?xml version="1.0" encoding="UTF-8"?>
<svg width="24px" height="24px" viewBox="0 0 24 24" version="1.1" xmlns="http://www.w3.org/2000/svg" xmlns:xlink="http://www.w3.org/1999/xlink">
    <!-- Generator: Sketch 52.4 (67378) - http://www.bohemiancoding.com/sketch -->
    <title>c3p-trash</title>
    <desc>Created with Sketch.</desc>
    <defs>
        <path d="M18.0174154,5.17908923 L16.3171077,22.1216123 C16.3134154,22.1629662 16.2650462,22.2032123 16.2392,22.2032123 L7.03612308,22.2032123 C7.00990769,22.2032123 6.96153846,22.1629662 6.95710769,22.1145969 L5.25790769,5.17908923 L18.0174154,5.17908923 Z M9.43353846,1.68838154 C9.43353846,1.56764308 9.53212308,1.46905846 9.65323077,1.46905846 L13.6220923,1.46905846 C13.7432,1.46905846 13.8417846,1.56764308 13.8417846,1.68838154 L13.8417846,3.70216615 L9.43353846,3.70216615 L9.43353846,1.68838154 Z M13.6220923,0.0153969231 L9.65323077,0.0153969231 C8.7176,0.0153969231 7.95661538,0.75312 7.95661538,1.68838154 L7.95661538,3.70216615 L2.75784615,3.70216615 C2.34984615,3.70216615 2.01938462,4.03299692 2.01938462,4.44062769 C2.01938462,4.84825846 2.34984615,5.17908923 2.75784615,5.17908923 L3.7736,5.17908923 L5.48646154,22.2545354 C5.55846154,23.0535508 6.23932308,23.6801354 7.03612308,23.6801354 L16.2392,23.6801354 C17.036,23.6801354 17.7161231,23.0535508 17.7873846,22.2615508 L19.5020923,5.17908923 L20.5174769,5.17908923 C20.9258462,5.17908923 21.2559385,4.84825846 21.2559385,4.44062769 C21.2559385,4.03299692 20.9258462,3.70216615 20.5174769,3.70216615 L15.3187077,3.70216615 L15.3187077,1.68838154 C15.3187077,0.75312 14.5573538,0.0153969231 13.6220923,0.0153969231 Z" id="path-1"></path>
    </defs>
    <g id="Page-1" stroke="none" stroke-width="1" fill="none" fill-rule="evenodd">
        <g id="C3p-icon-pack" transform="translate(-615.000000, -201.000000)">
            <g id="Group" transform="translate(63.000000, 86.000000)">
                <g id="c3p-trash" transform="translate(552.000000, 115.000000)">
                    <mask id="mask-2" fill="white">
                        <use xlink:href="#path-1"></use>
                    </mask>
                    <use id="Mask" fill="#000000" xlink:href="#path-1"></use>
                </g>
            </g>
        </g>
    </g>
</svg>