<?xml version="1.0" encoding="UTF-8"?>
<svg width="24px" height="24px" viewBox="0 0 24 24" version="1.1" xmlns="http://www.w3.org/2000/svg" xmlns:xlink="http://www.w3.org/1999/xlink">
    <!-- Generator: Sketch 52.4 (67378) - http://www.bohemiancoding.com/sketch -->
    <title>c3p-umbrella</title>
    <desc>Created with Sketch.</desc>
    <defs>
        <path d="M11.85312,3.69910154 C18.05952,3.69910154 21.82752,6.43805538 22.1915815,11.0689477 L1.53792,11.0689477 C1.90198154,6.43805538 5.64635077,3.69910154 11.85312,3.69910154 M0.771027692,12.5458708 L11.1146585,12.5458708 L11.1146585,20.0335015 C11.1146585,21.2320246 10.1391508,22.2067938 8.93988923,22.2067938 C7.74099692,22.2067938 6.76548923,21.2320246 6.76548923,20.0335015 C6.76548923,19.6251323 6.43502769,19.29504 6.02702769,19.29504 C5.61939692,19.29504 5.28856615,19.6251323 5.28856615,20.0335015 C5.28856615,22.0461785 6.92647385,23.6837169 8.93988923,23.6837169 C10.9536738,23.6837169 12.5915815,22.0461785 12.5915815,20.0335015 L12.5915815,12.5458708 L22.9581046,12.5458708 C23.3664738,12.5458708 23.6965662,12.21504 23.6965662,11.8074092 C23.6965662,6.09614769 19.4969354,2.47547077 12.5915815,2.23584 L12.5915815,0.780701538 C12.5915815,0.372701538 12.2614892,0.04224 11.85312,0.04224 C11.4454892,0.04224 11.1146585,0.372701538 11.1146585,0.780701538 L11.1146585,2.23584 C4.21115077,2.47547077 0.0325661538,6.09614769 0.0325661538,11.8074092 C0.0325661538,12.21504 0.363396923,12.5458708 0.771027692,12.5458708" id="path-1"></path>
    </defs>
    <g id="Page-1" stroke="none" stroke-width="1" fill="none" fill-rule="evenodd">
        <g id="C3p-icon-pack" transform="translate(-669.000000, -93.000000)">
            <g id="Group" transform="translate(63.000000, 86.000000)">
                <g id="c3p-umbrella" transform="translate(606.000000, 7.000000)">
                    <mask id="mask-2" fill="white">
                        <use xlink:href="#path-1"></use>
                    </mask>
                    <use id="Mask" fill="#000000" xlink:href="#path-1"></use>
                </g>
            </g>
        </g>
    </g>
</svg>