<?xml version="1.0" encoding="UTF-8"?>
<svg width="24px" height="24px" viewBox="0 0 24 24" version="1.1" xmlns="http://www.w3.org/2000/svg" xmlns:xlink="http://www.w3.org/1999/xlink">
    <!-- Generator: Sketch 52.4 (67378) - http://www.bohemiancoding.com/sketch -->
    <title>c3p-arrows-down</title>
    <desc>Created with Sketch.</desc>
    <defs>
        <path d="M7.35127771,12.5566731 L12.006368,17.2281058 L16.6664867,12.5566731 C17.0310495,12.2046814 17.6080645,12.2059385 17.957542,12.5566731 C18.1310236,12.7301547 18.2265642,12.9602064 18.2265642,13.2040864 C18.2265642,13.4504806 18.1297665,13.6805323 17.9537706,13.8502426 L12.6537813,19.1489748 C12.4878423,19.3211993 12.2577906,19.4192542 12.0126535,19.4179971 C11.7675165,19.4179971 11.5387219,19.3211993 11.3677545,19.1452035 L6.06776512,13.8464713 C5.89679772,13.6805323 5.8,13.4504806 5.8,13.2040864 C5.8,12.9602064 5.8955406,12.7301547 6.06776512,12.5566731 C6.23873251,12.3857057 6.46627001,12.2926793 6.71014997,12.2926793 C6.95402994,12.2926793 7.18031032,12.3857057 7.35127771,12.5566731 Z M7.35127771,5.01399378 L12.006368,9.6854265 L16.6664867,5.01399378 C17.0310495,4.66200207 17.6080645,4.66325919 17.957542,5.01399378 C18.1310236,5.1874754 18.2265642,5.41752712 18.2265642,5.66140708 C18.2265642,5.90780128 18.1297665,6.137853 17.9537706,6.30756328 L12.6537813,11.6062955 C12.4878423,11.77852 12.2577906,11.8765748 12.0126535,11.8753177 C11.7675165,11.8753177 11.5387219,11.77852 11.3677545,11.6025242 L6.06776512,6.30379194 C5.89679772,6.137853 5.8,5.90780128 5.8,5.66140708 C5.8,5.41752712 5.8955406,5.1874754 6.06776512,5.01399378 C6.23873251,4.84302638 6.46627001,4.75 6.71014997,4.75 C6.95402994,4.75 7.18031032,4.84302638 7.35127771,5.01399378 Z" id="path-1"></path>
    </defs>
    <g id="Page-1" stroke="none" stroke-width="1" fill="none" fill-rule="evenodd">
        <g id="C3p-icon-pack" transform="translate(-1785.000000, -356.000000)">
            <g id="Group" transform="translate(63.000000, 86.000000)">
                <g id="c3p-arrows-down" transform="translate(1722.000000, 270.000000)">
                    <mask id="mask-2" fill="white">
                        <use xlink:href="#path-1"></use>
                    </mask>
                    <use id="Shape" fill="#000000" xlink:href="#path-1"></use>
                </g>
            </g>
        </g>
    </g>
</svg>