<?xml version="1.0" encoding="UTF-8"?>
<svg width="24px" height="24px" viewBox="0 0 24 24" version="1.1" xmlns="http://www.w3.org/2000/svg" xmlns:xlink="http://www.w3.org/1999/xlink">
    <!-- Generator: Sketch 52.4 (67378) - http://www.bohemiancoding.com/sketch -->
    <title>c3p-dashboard</title>
    <desc>Created with Sketch.</desc>
    <g id="Page-1" stroke="none" stroke-width="1" fill="none" fill-rule="evenodd">
        <g id="C3p-icon-pack" transform="translate(-1233.000000, -410.000000)" fill="#000000">
            <g id="Group" transform="translate(63.000000, 86.000000)">
                <g id="c3p-dashboard" transform="translate(1170.000000, 324.000000)">
                    <path d="M17.5637908,9.49954462 C17.7676062,9.85289846 17.6468677,10.3044677 17.2935138,10.5082831 L13.2943754,12.8170831 C13.2943754,12.81856 13.2947446,12.8204062 13.2947446,12.8218831 C13.2947446,13.6352985 12.6356677,14.2951138 11.8215138,14.2951138 C11.0077292,14.2951138 10.3482831,13.6352985 10.3482831,12.8218831 C10.3482831,12.0092062 11.0077292,11.3493908 11.8215138,11.3493908 C12.0851446,11.3493908 12.3292062,11.4243446 12.54336,11.5454523 L16.5550523,9.22963692 C16.9084062,9.02545231 17.3596062,9.14656 17.5637908,9.49954462 Z M11.8443323,1.00974769 C18.3512862,1.00974769 23.6453169,6.30377846 23.6453169,12.8107323 C23.6453169,16.9379938 21.5451323,20.6963938 18.0267323,22.8637785 C17.9063631,22.9379938 17.7723323,22.9730708 17.6401477,22.9730708 C17.3920246,22.9730708 17.1505477,22.8482708 17.0106092,22.6219323 C16.7971938,22.2752246 16.90464,21.8199631 17.2520862,21.6058092 C18.5429169,20.8112246 19.61184,19.7692554 20.4219323,18.5637169 L19.6890092,18.1405785 C19.3356554,17.9367631 19.2145477,17.4851938 19.4187323,17.13184 C19.6218092,16.7792246 20.0748554,16.6573785 20.4274708,16.8615631 L21.1589169,17.2832246 C21.7105477,16.1323323 22.0461785,14.8732554 22.1395938,13.56064 L21.3287631,13.56064 C20.9207631,13.56064 20.5903015,13.2305477 20.5903015,12.8221785 C20.5903015,12.4141785 20.9207631,12.0837169 21.3287631,12.0837169 L22.1399631,12.0837169 C22.0450708,10.7312246 21.6909785,9.44925538 21.1234708,8.28950154 L20.4282092,8.69085538 C20.3122708,8.75768615 20.1852554,8.78944 20.0597169,8.78944 C19.8045785,8.78944 19.5564554,8.65762462 19.4194708,8.42020923 C19.2152862,8.06685538 19.3363938,7.61565538 19.6897477,7.41147077 L20.3813169,7.01196308 C19.6472862,5.93528615 18.7153477,5.00334769 17.6379323,4.27042462 L17.2391631,4.96088615 C17.1021785,5.19830154 16.8540554,5.33011692 16.5989169,5.33011692 C16.4733785,5.33011692 16.3463631,5.29836308 16.2304246,5.23153231 C15.8770708,5.02734769 15.7559631,4.57577846 15.9597785,4.22242462 L16.3603938,3.52864 C15.2002708,2.96224 13.91904,2.60888615 12.5669169,2.51473231 L12.5669169,3.43707077 C12.5669169,3.84544 12.2364554,4.17553231 11.8284554,4.17553231 C11.4204554,4.17553231 11.0899938,3.84544 11.0899938,3.43707077 L11.0899938,2.51731692 C9.76777846,2.61331692 8.51350154,2.95596308 7.37516308,3.50537846 L7.78944,4.22242462 C7.99325538,4.57577846 7.87214769,5.02734769 7.51879385,5.23153231 C7.40285538,5.29836308 7.27584,5.33011692 7.15030154,5.33011692 C6.89516308,5.33011692 6.64704,5.19830154 6.51005538,4.96088615 L6.09430154,4.24088615 C5.00691692,4.97270154 4.06685538,5.90685538 3.32544,6.98722462 L4.06020923,7.41147077 C4.41356308,7.61565538 4.53467077,8.06685538 4.33048615,8.42020923 C4.19350154,8.65688615 3.94537846,8.78944 3.69024,8.78944 C3.56470154,8.78944 3.43768615,8.75768615 3.32174769,8.69085538 L2.57959385,8.26254769 C2.00765538,9.42304 1.64913231,10.7061169 1.55128615,12.0608246 L2.36987077,12.0608246 C2.77787077,12.0608246 3.10833231,12.3909169 3.10833231,12.7992862 C3.10833231,13.2072862 2.77787077,13.5377477 2.36987077,13.5377477 L1.54759385,13.5377477 C1.63990154,14.8673477 1.98328615,16.14304 2.54636308,17.3090708 L3.32174769,16.8615631 C3.67362462,16.6573785 4.12593231,16.7777477 4.33048615,17.13184 C4.53467077,17.4851938 4.41356308,17.9367631 4.06020923,18.1405785 L3.28593231,18.5877169 C4.07940923,19.7607631 5.11657846,20.7783631 6.36494769,21.5618708 C6.71054769,21.77824 6.81504,22.2338708 6.59793231,22.5794708 C6.38082462,22.9250708 5.92519385,23.03104 5.58033231,22.8124554 C2.11362462,20.6380554 0.0440861538,16.8988554 0.0440861538,12.8107323 C0.0440861538,6.30377846 5.33737846,1.00974769 11.8443323,1.00974769 Z" id="Shape"></path>
                </g>
            </g>
        </g>
    </g>
</svg>