<?xml version="1.0" encoding="UTF-8"?>
<svg width="24px" height="24px" viewBox="0 0 24 24" version="1.1" xmlns="http://www.w3.org/2000/svg" xmlns:xlink="http://www.w3.org/1999/xlink">
    <!-- Generator: Sketch 52.4 (67378) - http://www.bohemiancoding.com/sketch -->
    <title>c3p-rewind</title>
    <desc>Created with Sketch.</desc>
    <defs>
        <path d="M22.2002215,19.1114215 L13.3386831,13.4119754 L13.3386831,19.1114215 L1.67837538,11.8630523 L13.3386831,4.61468308 L13.3386831,10.3144985 L22.2002215,4.61468308 L22.2002215,19.1114215 Z M23.6771446,4.61468308 C23.6771446,4.07856 23.5172677,3.58416 23.0487138,3.32385231 C22.82496,3.19942154 22.7086523,3.13776 22.4620062,3.13776 C22.1909908,3.13776 21.9354831,3.21234462 21.6976985,3.36040615 L14.8156062,7.65751385 L14.8156062,4.61468308 C14.8156062,4.07856 14.4943754,3.58416 14.0254523,3.32385231 C13.8020677,3.19942154 13.5244062,3.13776 13.2773908,3.13776 C13.0067446,3.13776 12.7360985,3.21234462 12.4983138,3.36040615 L0.838375385,10.6087754 C0.404898462,10.8783138 0.142375385,11.3524062 0.142375385,11.8630523 C0.142375385,12.3736985 0.407852308,12.84816 0.84096,13.1173292 L12.5053292,20.3653292 C12.7434831,20.5141292 13.0222523,20.5883446 13.2925292,20.5883446 C13.5399138,20.5883446 13.8020677,20.5263138 14.0254523,20.4022523 C14.4943754,20.1419446 14.8156062,19.6479138 14.8156062,19.1114215 L14.8156062,16.06896 L21.6670523,20.3653292 C21.9052062,20.5141292 22.1141908,20.5883446 22.3848369,20.5883446 C22.6318523,20.5883446 22.8175754,20.5263138 23.04096,20.4022523 C23.5098831,20.1419446 23.6771446,19.6479138 23.6771446,19.1114215 L23.6771446,4.61468308 Z" id="path-1"></path>
    </defs>
    <g id="Page-1" stroke="none" stroke-width="1" fill="none" fill-rule="evenodd">
        <g id="C3p-icon-pack" transform="translate(-615.000000, -309.000000)">
            <g id="Group" transform="translate(63.000000, 86.000000)">
                <g id="c3p-rewind" transform="translate(552.000000, 223.000000)">
                    <mask id="mask-2" fill="white">
                        <use xlink:href="#path-1"></use>
                    </mask>
                    <use id="Mask" fill="#000000" xlink:href="#path-1"></use>
                </g>
            </g>
        </g>
    </g>
</svg>