<?xml version="1.0" encoding="UTF-8"?>
<svg width="24px" height="24px" viewBox="0 0 24 24" version="1.1" xmlns="http://www.w3.org/2000/svg" xmlns:xlink="http://www.w3.org/1999/xlink">
    <!-- Generator: Sketch 52.4 (67378) - http://www.bohemiancoding.com/sketch -->
    <title>c3p-social-media-youtube</title>
    <desc>Created with Sketch.</desc>
    <g id="Page-1" stroke="none" stroke-width="1" fill="none" fill-rule="evenodd">
        <g id="C3p-icon-pack" transform="translate(-1341.000000, -86.000000)" fill="#000000">
            <g id="Group" transform="translate(63.000000, 86.000000)">
                <g id="c3p-social-media-youtube" transform="translate(1278.000000, 0.000000)">
                    <path d="M10.3500554,8.79227077 L10.3500554,14.3329477 L14.8269785,11.56224 L10.3500554,8.79227077 Z M9.24900923,16.2843323 C9.01676308,16.1532554 8.87313231,15.9073477 8.87313231,15.6411323 L8.87313231,7.48482462 C8.87313231,7.21860923 9.01676308,6.97270154 9.24900923,6.84162462 C9.48051692,6.71091692 9.76445538,6.71460923 9.99300923,6.85233231 L16.6376862,10.9297477 C16.8592246,11.06304 16.9947323,11.3034092 16.9947323,11.56224 C16.9947323,11.8210708 16.8592246,12.0607015 16.6376862,12.1947323 L9.99300923,16.2736246 C9.87633231,16.3441477 9.74340923,16.3795938 9.61159385,16.3795938 C9.48679385,16.3795938 9.36125538,16.34784 9.24900923,16.2843323 Z M3.00221538,5.19876923 C2.29772308,5.62153846 1.53526154,8.16184615 1.47692308,11.6422154 C1.536,15.1303385 2.28812308,17.4 3.00073846,17.8275692 C3.28061538,17.9963077 4.76196923,18.5446154 11.8220308,18.5446154 C19.1243077,18.5446154 20.6019692,17.9401846 20.8593231,17.7548308 C21.4873846,17.3025231 22.1689846,15.1938462 22.1793231,11.6322462 C22.1689846,8.12603077 21.4918154,5.72750769 20.8593231,5.27150769 C20.6004923,5.08541538 19.1184,4.47692308 11.8220308,4.47692308 C4.76972308,4.47692308 3.28283077,5.02929231 3.00221538,5.19876923 Z M2.23938462,19.0932923 C0.258092308,17.9032615 0.0247384615,13.0925538 7.10542736e-15,11.6466462 C0.0180923077,10.5518769 0.210461538,5.15261538 2.24049231,3.93304615 C2.62227692,3.70301538 3.81046154,3 11.8220308,3 C19.2974769,3 21.0816,3.61218462 21.7218462,4.07298462 C23.5004308,5.35384615 23.6518154,10.1848615 23.6562462,11.6278154 C23.6510769,13.4219077 23.4520615,17.7086769 21.7218462,18.9533538 C21.0845538,19.4119385 19.3022769,20.0215385 11.8220308,20.0215385 C3.80196923,20.0215385 2.62006154,19.3225846 2.23938462,19.0932923 Z" id="Shape"></path>
                </g>
            </g>
        </g>
    </g>
</svg>