<?xml version="1.0" encoding="UTF-8"?>
<svg width="24px" height="24px" viewBox="0 0 24 24" version="1.1" xmlns="http://www.w3.org/2000/svg" xmlns:xlink="http://www.w3.org/1999/xlink">
    <!-- Generator: Sketch 52.4 (67378) - http://www.bohemiancoding.com/sketch -->
    <title>c3p-social-share</title>
    <desc>Created with Sketch.</desc>
    <defs>
        <path d="M3.73004308,9.60155077 C4.95330462,9.60155077 5.94542769,10.5933046 5.94542769,11.8169354 C5.94542769,13.0401969 4.95330462,14.03232 3.73004308,14.03232 C2.50641231,14.03232 1.51465846,13.0401969 1.51465846,11.8169354 C1.51465846,10.5933046 2.50641231,9.60155077 3.73004308,9.60155077 M19.9761969,1.47847385 C21.1994585,1.47847385 22.1915815,2.47022769 22.1915815,3.69385846 C22.1915815,4.91712 21.1994585,5.90924308 19.9761969,5.90924308 C18.7529354,5.90924308 17.7608123,4.91712 17.7608123,3.69385846 C17.7608123,2.47022769 18.7529354,1.47847385 19.9761969,1.47847385 M19.9761969,17.7246277 C21.1994585,17.7246277 22.1915815,18.7163815 22.1915815,19.9400123 C22.1915815,21.1632738 21.1994585,22.1553969 19.9761969,22.1553969 C18.7529354,22.1553969 17.7608123,21.1632738 17.7608123,19.9400123 C17.7608123,18.7163815 18.7529354,17.7246277 19.9761969,17.7246277 M3.73004308,15.5092431 C4.90419692,15.5092431 5.94838154,14.9594585 6.62444308,14.1050585 L16.3883815,19.0808123 C16.3222892,19.3569969 16.2838892,19.64352 16.2838892,19.9400123 C16.2838892,21.9792738 17.9369354,23.63232 19.9761969,23.63232 C22.0154585,23.63232 23.6685046,21.9792738 23.6685046,19.9400123 C23.6685046,17.9007508 22.0154585,16.2477046 19.9761969,16.2477046 C18.76032,16.2477046 17.6847508,16.8381046 17.0120123,17.7449354 L7.28868923,12.7898585 C7.37324308,12.4793354 7.42235077,12.1540431 7.42235077,11.8169354 C7.42235077,11.3945354 7.34813538,10.9905969 7.21742769,10.6128738 L16.9965046,5.86788923 C17.6681354,6.78653538 18.75072,7.38616615 19.9761969,7.38616615 C22.0154585,7.38616615 23.6685046,5.73275077 23.6685046,3.69385846 C23.6685046,1.65459692 22.0154585,0.00155076923 19.9761969,0.00155076923 C17.9369354,0.00155076923 16.2838892,1.65459692 16.2838892,3.69385846 C16.2838892,3.98038154 16.3197046,4.25841231 16.3817354,4.52647385 L6.46235077,9.33976615 C5.78665846,8.59502769 4.81484308,8.12462769 3.73004308,8.12462769 C1.69078154,8.12462769 0.0377353846,9.77767385 0.0377353846,11.8169354 C0.0377353846,13.8558277 1.69078154,15.5092431 3.73004308,15.5092431" id="path-1"></path>
    </defs>
    <g id="Page-1" stroke="none" stroke-width="1" fill="none" fill-rule="evenodd">
        <g id="C3p-icon-pack" transform="translate(-507.000000, -93.000000)">
            <g id="Group" transform="translate(63.000000, 86.000000)">
                <g id="c3p-social-share" transform="translate(444.000000, 7.000000)">
                    <mask id="mask-2" fill="white">
                        <use xlink:href="#path-1"></use>
                    </mask>
                    <use id="Mask" fill="#000000" xlink:href="#path-1"></use>
                </g>
            </g>
        </g>
    </g>
</svg>