<?xml version="1.0" encoding="UTF-8"?>
<svg width="24px" height="24px" viewBox="0 0 24 24" version="1.1" xmlns="http://www.w3.org/2000/svg" xmlns:xlink="http://www.w3.org/1999/xlink">
    <!-- Generator: Sketch 52.4 (67378) - http://www.bohemiancoding.com/sketch -->
    <title>c3p-shopping-cart-filled</title>
    <desc>Created with Sketch.</desc>
    <g id="Page-1" stroke="none" stroke-width="1" fill="none" fill-rule="evenodd">
        <g id="C3p-icon-pack" transform="translate(-1059.000000, -363.000000)" fill="#000000">
            <g id="Group" transform="translate(63.000000, 86.000000)">
                <g id="c3p-shopping-cart-filled" transform="translate(996.000000, 277.000000)">
                    <path d="M9.0102375,21.7054875 C9.0102375,20.6697375 9.8494875,19.8304875 10.8852375,19.8304875 C11.9209875,19.8304875 12.7602375,20.6697375 12.7602375,21.7054875 C12.7602375,22.7412375 11.9209875,23.5804875 10.8852375,23.5804875 C9.8494875,23.5804875 9.0102375,22.7412375 9.0102375,21.7054875 Z M15.7602375,21.7054875 C15.7602375,20.6697375 16.5994875,19.8304875 17.6352375,19.8304875 C18.6709875,19.8304875 19.5102375,20.6697375 19.5102375,21.7054875 C19.5102375,22.7412375 18.6709875,23.5804875 17.6352375,23.5804875 C16.5994875,23.5804875 15.7602375,22.7412375 15.7602375,21.7054875 Z M10.077375,16.83195 L19.112625,16.83195 L22.146375,7.782075 L7.706625,7.782075 L10.077375,16.83195 Z M14.99925,3.25545 L11.43525,6.292575 L18.5625,6.292575 L14.99925,3.25545 Z M20.33775,17.8287 C20.231625,18.124575 19.951125,18.321825 19.636875,18.321825 L9.512625,18.321825 C9.178875,18.321825 8.885625,18.099825 8.795625,17.778075 L4.65075,2.5452 C4.43925,1.814325 4.1295,1.814325 4.0275,1.814325 L0.81525,1.814325 C0.4035,1.814325 0.070125,1.48095 0.070125,1.069575 C0.070125,0.657825 0.4035,0.32445 0.81525,0.32445 L4.0275,0.32445 C4.488375,0.32445 5.611125,0.501075 6.083625,2.1372 L7.2885,6.292575 L9.21225,6.292575 L13.93875,2.19495 C14.524125,1.608825 15.47475,1.609575 16.05975,2.19495 L20.86725,6.292575 L23.205375,6.292575 C23.447625,6.292575 23.674875,6.410325 23.81475,6.6087 C23.953875,6.8067 23.988375,7.060575 23.90625,7.289325 L20.33775,17.8287 Z" id="Shape"></path>
                </g>
            </g>
        </g>
    </g>
</svg>