<?xml version="1.0" encoding="UTF-8"?>
<svg width="24px" height="24px" viewBox="0 0 24 24" version="1.1" xmlns="http://www.w3.org/2000/svg" xmlns:xlink="http://www.w3.org/1999/xlink">
    <!-- Generator: Sketch 52.4 (67378) - http://www.bohemiancoding.com/sketch -->
    <title>c3p-pencil</title>
    <desc>Created with Sketch.</desc>
    <defs>
        <path d="M3.28940308,17.1655754 C3.69518769,17.2733908 4.53814154,17.5861292 5.39734154,18.4527138 C6.05900308,19.1199138 6.37137231,19.8554215 6.51168,20.3040369 C5.48484923,20.6341292 3.23734154,21.4098831 1.80915692,21.8703138 C2.23266462,20.4775754 2.94675692,18.3094523 3.28940308,17.1655754 M16.5691569,3.63991385 C16.9454031,3.73111385 17.8326646,4.02908308 18.7387569,4.94329846 C19.6548185,5.86711385 19.9022031,6.92311385 19.9479877,7.16385231 C17.0439877,10.0527138 10.3601723,16.6656369 7.72644923,19.2712985 C7.48275692,18.70416 7.08989538,18.0221908 6.45740308,17.3845292 C5.68497231,16.6058215 4.89888,16.1660677 4.29260308,15.9190523 C6.89937231,13.3111754 13.7113108,6.49702154 16.5691569,3.63991385 M17.8544492,2.35536 C17.9390031,2.27228308 18.7058954,1.53936 19.6618338,1.53936 C20.2119877,1.53936 20.7521723,1.79006769 21.2679877,2.28446769 C21.8801723,2.87154462 22.1951262,3.45049846 22.2054646,4.00619077 C22.2158031,4.57332923 21.9078646,5.18403692 21.2901415,5.82169846 C21.2598646,5.85234462 21.20928,5.90366769 21.1502031,5.96348308 C20.9168492,5.36237538 20.5073723,4.59031385 19.7984492,3.87511385 C19.0743877,3.14477538 18.3396185,2.71425231 17.7506954,2.45911385 C17.8005415,2.40963692 17.83968,2.37049846 17.8544492,2.35536 M0.774203077,23.6902523 C0.851003077,23.6902523 0.927803077,23.6784369 1.00349538,23.6540677 C1.05777231,23.6363446 6.47586462,21.8847138 7.36755692,21.6188677 C7.48497231,21.5837908 7.59241846,21.5199138 7.67992615,21.4335138 C8.24337231,20.8767138 21.4825108,7.78452923 22.36128,6.87732923 C23.2703262,5.94022154 23.7218954,4.96508308 23.7045415,3.97849846 C23.6868185,3.00409846 23.2149415,2.06588308 22.3014646,1.19006769 C21.49728,0.419113846 20.60928,0.0284676923 19.6618338,0.0284676923 C18.18048,0.0284676923 17.0993723,0.985144615 16.8039877,1.27831385 C16.3882338,1.69037538 2.19278769,15.8906215 2.19278769,15.8906215 C2.10011077,15.9840369 2.03291077,16.0999754 1.99783385,16.2277292 C1.67771077,17.4107446 0.0741415385,22.6597292 0.0582646154,22.7125292 C-0.0240738462,22.9813292 0.0494030769,23.2741292 0.24768,23.4724062 C0.389833846,23.6138215 0.579987692,23.6902523 0.774203077,23.6902523" id="path-1"></path>
    </defs>
    <g id="Page-1" stroke="none" stroke-width="1" fill="none" fill-rule="evenodd">
        <g id="C3p-icon-pack" transform="translate(-669.000000, -201.000000)">
            <g id="Group" transform="translate(63.000000, 86.000000)">
                <g id="c3p-pencil" transform="translate(606.000000, 115.000000)">
                    <mask id="mask-2" fill="white">
                        <use xlink:href="#path-1"></use>
                    </mask>
                    <use id="Mask" fill="#000000" xlink:href="#path-1"></use>
                </g>
            </g>
        </g>
    </g>
</svg>