<?xml version="1.0" encoding="UTF-8"?>
<svg width="24px" height="24px" viewBox="0 0 24 24" version="1.1" xmlns="http://www.w3.org/2000/svg" xmlns:xlink="http://www.w3.org/1999/xlink">
    <!-- Generator: Sketch 52.4 (67378) - http://www.bohemiancoding.com/sketch -->
    <title>c3p-disc</title>
    <desc>Created with Sketch.</desc>
    <defs>
        <path d="M21.2355692,16.11312 L14.7001846,12.6153969 C14.7699692,12.3628431 14.8102154,12.0973662 14.8102154,11.8222892 C14.8102154,10.1781046 13.4776615,8.84518154 11.8334769,8.84518154 C11.496,8.84518154 11.1729231,8.90425846 10.8705231,9.00764308 L6.95630769,2.70930462 C8.41033846,1.92801231 10.0707692,1.48382769 11.8334769,1.48382769 C17.5340308,1.48382769 22.1719385,6.12136615 22.1719385,11.8222892 C22.1719385,13.3523815 21.8348308,14.8049354 21.2355692,16.11312 M17.8438154,20.2259815 L13.9321846,13.9331815 C13.9432615,13.9213662 13.9539692,13.9091815 13.9654154,13.8977354 L20.5255385,17.4087508 C19.8166154,18.5079508 18.9049846,19.4646277 17.8438154,20.2259815 M10.3332923,11.8222892 C10.3332923,10.9952123 11.0060308,10.3221046 11.8334769,10.3221046 C12.6605538,10.3221046 13.3332923,10.9952123 13.3332923,11.8222892 C13.3332923,12.6493662 12.6605538,13.3221046 11.8334769,13.3221046 C11.0060308,13.3221046 10.3332923,12.6493662 10.3332923,11.8222892 M11.8334769,22.1607508 C6.13255385,22.1607508 1.49464615,17.5228431 1.49464615,11.8222892 C1.49464615,10.3523815 1.8048,8.95484308 2.36012308,7.68801231 L8.92283077,11.1990277 C8.88,11.4002585 8.85636923,11.6085046 8.85636923,11.8222892 C8.85636923,13.4664738 10.1889231,14.7990277 11.8334769,14.7990277 C12.1196308,14.7990277 12.3954462,14.7565662 12.6572308,14.6812431 L16.5847385,20.99952 C15.1609846,21.7394585 13.5459692,22.1607508 11.8334769,22.1607508 M5.70793846,3.50019692 L9.63544615,9.81921231 C9.61772308,9.83878154 9.6,9.85761231 9.58264615,9.87718154 L3.048,6.38093538 C3.74473846,5.25958154 4.64898462,4.28148923 5.70793846,3.50019692 M11.8334769,0.00690461538 C5.30769231,0.00690461538 0.0180923077,5.29650462 0.0180923077,11.8222892 C0.0180923077,18.3480738 5.30769231,23.6376738 11.8334769,23.6376738 C18.3588923,23.6376738 23.6488615,18.3480738 23.6488615,11.8222892 C23.6488615,5.29650462 18.3588923,0.00690461538 11.8334769,0.00690461538" id="path-1"></path>
    </defs>
    <g id="Page-1" stroke="none" stroke-width="1" fill="none" fill-rule="evenodd">
        <g id="C3p-icon-pack" transform="translate(-1287.000000, -464.000000)">
            <g id="Group" transform="translate(63.000000, 86.000000)">
                <g id="c3p-disc" transform="translate(1224.000000, 378.000000)">
                    <mask id="mask-2" fill="white">
                        <use xlink:href="#path-1"></use>
                    </mask>
                    <use id="Mask" fill="#000000" xlink:href="#path-1"></use>
                </g>
            </g>
        </g>
    </g>
</svg>