<?xml version="1.0" encoding="UTF-8"?>
<svg width="24px" height="24px" viewBox="0 0 24 24" version="1.1" xmlns="http://www.w3.org/2000/svg" xmlns:xlink="http://www.w3.org/1999/xlink">
    <!-- Generator: Sketch 52.4 (67378) - http://www.bohemiancoding.com/sketch -->
    <title>c3p-volume-off</title>
    <desc>Created with Sketch.</desc>
    <defs>
        <path d="M23.4117375,8.482575 C23.7046125,8.77545 23.7046125,9.2502 23.4117375,9.543075 L20.9603625,12.023325 L23.3884875,14.47995 C23.6809875,14.772825 23.6809875,15.24795 23.3884875,15.540825 C23.0952375,15.834075 22.6204875,15.834075 22.3276125,15.540825 L19.9058625,13.090575 L17.4844875,15.540825 C17.1916125,15.834075 16.7164875,15.834075 16.4236125,15.540825 C16.1307375,15.24795 16.1307375,14.772825 16.4236125,14.47995 L18.8513625,12.023325 L16.4003625,9.543075 C16.1071125,9.2502 16.1071125,8.77545 16.4003625,8.482575 C16.6932375,8.1897 17.1679875,8.1897 17.4608625,8.482575 L19.9058625,10.956825 L22.3512375,8.482575 C22.6441125,8.1897 23.1188625,8.1897 23.4117375,8.482575 Z M12.3935625,20.3935875 L12.3935625,3.6273375 L5.8471875,8.8773375 C5.7234375,8.9605875 5.5775625,9.0052125 5.4286875,9.0052125 L2.7001875,9.0070875 C2.2183125,9.0070875 1.8826875,9.2804625 1.8826875,9.5264625 L1.9228125,14.4749625 C1.9228125,14.7269625 2.2588125,15.0014625 2.7403125,15.0014625 L5.4680625,15.0029625 C5.6176875,15.0029625 5.7635625,15.0475875 5.8873125,15.1312125 L12.3935625,20.3935875 Z M13.4956875,1.5565875 C13.7405625,1.6867125 13.8935625,1.9413375 13.8935625,2.2184625 L13.8935625,21.8050875 C13.8935625,22.0825875 13.7405625,22.3375875 13.4953125,22.4669625 C13.3854375,22.5258375 13.2643125,22.5550875 13.1435625,22.5550875 C12.9961875,22.5550875 12.8499375,22.5115875 12.7239375,22.4268375 L5.2381875,16.5029625 L2.7399375,16.5014625 C1.4626875,16.5014625 0.4228125,15.5947125 0.4228125,14.4805875 L0.3826875,9.5320875 C0.3826875,8.4130875 1.4221875,7.5070875 2.6998125,7.5070875 L5.1988125,7.5052125 L12.7246875,1.5963375 C12.9545625,1.4410875 13.2511875,1.4264625 13.4956875,1.5565875 Z" id="path-1"></path>
    </defs>
    <g id="Page-1" stroke="none" stroke-width="1" fill="none" fill-rule="evenodd">
        <g id="C3p-icon-pack" transform="translate(-63.000000, -471.000000)">
            <g id="Group" transform="translate(63.000000, 86.000000)">
                <g id="c3p-volume-off" transform="translate(0.000000, 385.000000)">
                    <mask id="mask-2" fill="white">
                        <use xlink:href="#path-1"></use>
                    </mask>
                    <use id="Mask" fill="#000000" xlink:href="#path-1"></use>
                </g>
            </g>
        </g>
    </g>
</svg>