<?xml version="1.0" encoding="UTF-8"?>
<svg width="24px" height="24px" viewBox="0 0 24 24" version="1.1" xmlns="http://www.w3.org/2000/svg" xmlns:xlink="http://www.w3.org/1999/xlink">
    <!-- Generator: Sketch 52.4 (67378) - http://www.bohemiancoding.com/sketch -->
    <title>c3p-social-media-dribbble</title>
    <desc>Created with Sketch.</desc>
    <defs>
        <path d="M1.51278003,11.5176888 C1.96451295,11.5630872 2.66537433,11.6133631 3.58347273,11.6133631 C5.62077321,11.6133631 8.68873013,11.3612331 12.2365595,10.2499101 C12.3033439,10.3759751 12.3697532,10.5016649 12.4369128,10.6314819 C12.7757125,11.2828177 13.0814951,11.9255241 13.3610143,12.5558491 C12.7186831,12.7577032 12.0620945,13.0027045 11.3942502,13.3054856 C7.11179202,15.2448606 5.1048822,18.0115372 4.39051386,19.2230369 C2.60159145,17.3391905 1.50077384,14.7968796 1.50077384,12.0001876 C1.50077384,11.838104 1.50565135,11.6778964 1.51278003,11.5176888 M7.40481811,2.56182094 C8.04302218,3.34222333 9.52466115,5.30673629 11.5109353,8.90371598 C6.82064189,10.3174449 3.0116779,10.1478575 1.68987134,10.024794 C2.31794519,6.73809933 4.48168587,3.99055763 7.40481811,2.56182094 M11.9994372,1.50077384 C14.5424985,1.50077384 16.876577,2.41024278 18.6955149,3.92002126 C18.3454594,4.74544687 17.0758047,6.87504495 12.9569309,8.41971642 C11.106852,5.03772258 9.66836025,3.01055232 8.86281989,1.97952069 C9.85370582,1.66886051 10.9072491,1.50077384 11.9994372,1.50077384 M22.4992262,12.0001876 C22.4992262,12.0842309 22.4947238,12.1671487 22.4928479,12.2508168 C21.3432551,11.9457845 18.4268764,11.3728641 14.8295215,12.1630216 C14.512483,11.438523 14.1609267,10.6956399 13.767724,9.93962512 C13.734707,9.87621742 13.7024403,9.81581128 13.6697985,9.75315397 C17.518533,8.26776307 19.1543765,6.26685635 19.8312255,5.01746213 C21.4888302,6.87466975 22.4992262,9.3213063 22.4992262,12.0001876 M17.4307377,20.9819438 C17.2146263,19.5378242 16.6773493,16.8225491 15.4151985,13.5801273 C18.8962434,12.8871449 21.6512889,13.5666203 22.3468976,13.7692248 C21.8265043,16.8229243 19.9846796,19.4320196 17.4307377,20.9819438 M11.9994372,22.4992262 C9.55992934,22.4992262 7.31439649,21.6606688 5.52997639,20.2596964 C5.91079776,19.5385746 7.65469695,16.6465834 12.012569,14.6726906 C12.668032,14.3759126 13.3141151,14.1384151 13.9448153,13.9478168 C15.3690497,17.5665578 15.8628043,20.5504713 16.0125064,21.7004393 C14.7754936,22.2140791 13.4199196,22.4992262 11.9994372,22.4992262 M11.9994372,24 C18.6167242,24 24,18.6167242 24,12.0001876 C24,5.38290056 18.6167242,0 11.9994372,0 C10.3613426,0 8.7994122,0.330920631 7.37555302,0.927478231 C7.32565229,0.94361155 7.27762753,0.96424719 7.23110354,0.990510732 C2.98053684,2.83871371 0,7.07727422 0,12.0001876 C0,18.6167242 5.38290056,24 11.9994372,24" id="path-1"></path>
    </defs>
    <g id="Page-1" stroke="none" stroke-width="1" fill="none" fill-rule="evenodd">
        <g id="C3p-icon-pack" transform="translate(-1449.000000, -86.000000)">
            <g id="Group" transform="translate(63.000000, 86.000000)">
                <g id="c3p-social-media-dribbble" transform="translate(1386.000000, 0.000000)">
                    <mask id="mask-2" fill="white">
                        <use xlink:href="#path-1"></use>
                    </mask>
                    <use id="Mask" fill="#000000" xlink:href="#path-1"></use>
                </g>
            </g>
        </g>
    </g>
</svg>