<?xml version="1.0" encoding="UTF-8"?>
<svg width="24px" height="24px" viewBox="0 0 24 24" version="1.1" xmlns="http://www.w3.org/2000/svg" xmlns:xlink="http://www.w3.org/1999/xlink">
    <!-- Generator: Sketch 52.4 (67378) - http://www.bohemiancoding.com/sketch -->
    <title>c3p-glasses</title>
    <desc>Created with Sketch.</desc>
    <defs>
        <path d="M18.5814182,19.3473091 C16.5770545,19.3473091 14.8839636,17.6887636 14.8839636,15.7258545 C14.8839636,13.7629455 16.5770545,12.1044 18.5814182,12.1044 C20.3086909,12.1044 21.7545091,13.3200364 22.1145091,14.9404 C22.1294182,15.0887636 22.1417818,15.2280364 22.1508727,15.3556727 C22.1552364,15.4164 22.1716,15.4742182 22.1930545,15.5298545 C22.1963273,15.5953091 22.2028727,15.6596727 22.2028727,15.7258545 C22.2028727,17.7229455 20.5785091,19.3473091 18.5814182,19.3473091 M5.49123636,19.3473091 C3.48687273,19.3473091 1.79378182,17.6887636 1.79378182,15.7258545 C1.79378182,13.7629455 3.48687273,12.1044 5.49123636,12.1044 C7.48832727,12.1044 9.11269091,13.7287636 9.11269091,15.7258545 C9.11269091,17.7229455 7.48832727,19.3473091 5.49123636,19.3473091 M22.2363273,6.54403636 C22.0934182,5.42694545 21.8265091,3.34803636 18.4756,3.34803636 C18.0737818,3.34803636 17.7483273,3.67312727 17.7483273,4.07530909 C17.7483273,4.47712727 18.0737818,4.80258182 18.4756,4.80258182 C20.5465091,4.80258182 20.6559636,5.65276364 20.7937818,6.72949091 C20.8116,6.86730909 20.8286909,6.99930909 20.8490545,7.12221818 C20.9345091,7.63421818 21.3196,9.67130909 21.6523273,11.6909455 C20.7992364,11.0404 19.7370545,10.6498545 18.5814182,10.6498545 C16.7257818,10.6498545 15.0741455,11.6487636 14.1661455,13.1353091 C13.7294182,12.9702182 12.9883273,12.7640364 11.9981455,12.7640364 C11.0221455,12.7640364 10.3046909,12.9720364 9.86141818,13.1527636 C8.97814545,11.6567636 7.35414545,10.6498545 5.49123636,10.6498545 C4.28069091,10.6498545 3.15596364,11.0749455 2.2676,11.7822182 C2.60469091,9.73676364 3.0036,7.64476364 3.09050909,7.12221818 C3.11123636,6.99930909 3.12832727,6.86730909 3.14614545,6.72949091 C3.28396364,5.65276364 3.39305455,4.80258182 5.46432727,4.80258182 C5.86614545,4.80258182 6.1916,4.47712727 6.1916,4.07530909 C6.1916,3.67312727 5.86614545,3.34803636 5.46432727,3.34803636 C2.11341818,3.34803636 1.84650909,5.42694545 1.7036,6.54403636 C1.68796364,6.66330909 1.67378182,6.77712727 1.65596364,6.88367273 C1.47050909,7.99494545 0.360690909,14.8920364 0.338509091,15.2065818 C0.333418182,15.2767636 0.341781818,15.3440364 0.3556,15.4098545 C0.348690909,15.5149455 0.339236364,15.6189455 0.339236364,15.7258545 C0.339236364,18.5291273 2.68796364,20.8018545 5.49123636,20.8018545 C8.29450909,20.8018545 10.5672364,18.5291273 10.5672364,15.7258545 C10.5672364,15.3018545 10.5097818,14.8924 10.4116,14.4989455 C10.7101455,14.3789455 11.2490545,14.2185818 11.9981455,14.2185818 C12.7294182,14.2185818 13.2817818,14.3651273 13.5959636,14.4760364 C13.4912364,14.8767636 13.4294182,15.2938545 13.4294182,15.7258545 C13.4294182,18.5291273 15.7781455,20.8018545 18.5814182,20.8018545 C21.3846909,20.8018545 23.6574182,18.5291273 23.6574182,15.7258545 C23.6574182,15.6498545 23.6494182,15.5756727 23.6461455,15.5004 C23.6679636,15.4214909 23.6799636,15.3385818 23.6737818,15.2520364 C23.6516,14.9374909 22.4690545,7.99494545 22.2839636,6.88367273 C22.2661455,6.77712727 22.2519636,6.66330909 22.2363273,6.54403636" id="path-1"></path>
    </defs>
    <g id="Page-1" stroke="none" stroke-width="1" fill="none" fill-rule="evenodd">
        <g id="C3p-icon-pack" transform="translate(-1395.000000, -356.000000)">
            <g id="Group" transform="translate(63.000000, 86.000000)">
                <g id="c3p-glasses" transform="translate(1332.000000, 270.000000)">
                    <mask id="mask-2" fill="white">
                        <use xlink:href="#path-1"></use>
                    </mask>
                    <use id="Mask" fill="#000000" xlink:href="#path-1"></use>
                </g>
            </g>
        </g>
    </g>
</svg>