<?xml version="1.0" encoding="UTF-8"?>
<svg width="24px" height="24px" viewBox="0 0 24 24" version="1.1" xmlns="http://www.w3.org/2000/svg" xmlns:xlink="http://www.w3.org/1999/xlink">
    <!-- Generator: Sketch 52.4 (67378) - http://www.bohemiancoding.com/sketch -->
    <title>c3p-gender-female</title>
    <desc>Created with Sketch.</desc>
    <defs>
        <path d="M14.4190154,16.9969108 C10.1300308,16.9969108 6.65298462,13.5198646 6.65298462,9.23088 C6.65298462,4.94189538 10.1300308,1.46484923 14.4190154,1.46484923 C18.708,1.46484923 22.1850462,4.94189538 22.1850462,9.23088 C22.1850462,13.5198646 18.708,16.9969108 14.4190154,16.9969108 M23.6497846,9.23088 C23.6497846,4.13254154 19.5169846,0.000110769231 14.4190154,0.000110769231 C9.32104615,0.000110769231 5.18824615,4.13254154 5.18824615,9.23088 C5.18824615,11.5042338 6.01163077,13.58448 7.37446154,15.1928492 L4.43649231,18.1489108 L1.31538462,14.9982646 C1.02701538,14.7098954 0.5592,14.7098954 0.2712,14.9982646 C-0.0175384615,15.2866338 -0.0175384615,15.75408 0.2712,16.0424492 L3.39563077,19.1964185 L0.249046154,22.3625723 C-0.0396923077,22.6509415 -0.0396923077,23.1187569 0.249046154,23.4067569 C0.537046154,23.6954954 1.00486154,23.6954954 1.29323077,23.4067569 L4.43501538,20.2457723 L7.58418462,23.4248492 C7.87255385,23.7132185 8.34,23.7132185 8.62836923,23.4248492 C8.91710769,23.13648 8.91673846,22.6686646 8.62836923,22.3802954 L5.47587692,19.1982646 L8.41606154,16.2399877 C10.0303385,17.6234954 12.1260923,18.4616492 14.4190154,18.4616492 C19.5169846,18.4616492 23.6497846,14.32848 23.6497846,9.23088" id="path-1"></path>
    </defs>
    <g id="Page-1" stroke="none" stroke-width="1" fill="none" fill-rule="evenodd">
        <g id="C3p-icon-pack" transform="translate(-171.000000, -417.000000)">
            <g id="Group" transform="translate(63.000000, 86.000000)">
                <g id="c3p-gender-female" transform="translate(108.000000, 331.000000)">
                    <mask id="mask-2" fill="white">
                        <use xlink:href="#path-1"></use>
                    </mask>
                    <use id="Mask" fill="#000000" xlink:href="#path-1"></use>
                </g>
            </g>
        </g>
    </g>
</svg>