<?xml version="1.0" encoding="UTF-8"?>
<svg width="24px" height="24px" viewBox="0 0 24 24" version="1.1" xmlns="http://www.w3.org/2000/svg" xmlns:xlink="http://www.w3.org/1999/xlink">
    <!-- Generator: Sketch 52.4 (67378) - http://www.bohemiancoding.com/sketch -->
    <title>c3p-envelope-letter</title>
    <desc>Created with Sketch.</desc>
    <defs>
        <path d="M2.54470154,22.1751508 L7.63491692,17.4530585 C7.73202462,17.4113354 7.82211692,17.3481969 7.89707077,17.2632738 C7.93657846,17.2185969 7.96759385,17.1698585 7.99454769,17.1192738 L11.1769477,14.1669046 C11.3442092,14.0317662 11.5424862,13.9612431 11.7511015,13.9612431 C11.96304,13.9612431 12.1749785,14.0354585 12.3171323,14.1458585 L21.1746092,22.1751508 L2.54470154,22.1751508 Z M1.48168615,12.5884431 L6.21079385,16.7603815 L1.48168615,21.1472123 L1.48168615,12.5884431 Z M2.36747077,10.2371815 L2.40107077,10.2371815 L4.43553231,8.20345846 L4.43553231,13.2249969 L1.74457846,10.8508431 L2.36747077,10.2371815 Z M5.91245538,4.42105846 L17.72784,4.42105846 L17.72784,14.6867815 L16.4052554,15.8605662 L13.2597785,13.0093662 C12.3898708,12.3277662 11.1415015,12.2982277 10.22064,13.04112 L7.29854769,15.7512738 L5.91245538,14.5283815 L5.91245538,4.42105846 Z M11.3434708,1.68727385 C11.4834092,1.54807385 11.6687631,1.47090462 11.8655631,1.47090462 C12.0631015,1.47090462 12.2484554,1.54807385 12.3883938,1.68727385 L13.8797169,2.94413538 L9.85436308,2.94413538 L11.3434708,1.68727385 Z M22.1586092,12.7298585 L22.1586092,21.0752123 L17.5063015,16.8585969 L22.1586092,12.7298585 Z M19.2047631,8.11004308 L20.72784,9.63275077 L20.7056862,9.63275077 L21.9721477,10.9202585 L19.2047631,13.3760123 L19.2047631,8.11004308 Z M23.6355323,22.1751508 L23.6355323,11.1392123 C23.6407015,11.0727508 23.6340554,11.00592 23.6211323,10.9401969 C23.5897477,10.6791508 23.4915323,10.4391508 23.3419938,10.2371815 L23.3456862,10.2371815 L23.3253785,10.2168738 C23.2496862,10.1175508 23.1610708,10.0293046 23.0621169,9.95176615 L19.2047631,6.06598154 L19.2047631,3.68259692 C19.2047631,3.27459692 18.8746708,2.94413538 18.4663015,2.94413538 L16.1279631,2.94413538 L13.4325785,0.643089231 C12.5970092,-0.192849231 11.1367015,-0.194326154 10.2992862,0.643089231 L7.61313231,2.94413538 L5.17399385,2.94413538 C4.76599385,2.94413538 4.43553231,3.27459692 4.43553231,3.68259692 L4.43553231,6.11435077 L0.671224615,9.87865846 C0.270978462,10.1433969 0.00476307692,10.5964431 0.00476307692,11.1096738 L0.00476307692,22.1751508 C0.00476307692,22.9870892 0.669747692,23.6520738 1.48168615,23.6520738 L22.1586092,23.6520738 C22.9705477,23.6520738 23.6355323,22.9870892 23.6355323,22.1751508 Z" id="path-1"></path>
    </defs>
    <g id="Page-1" stroke="none" stroke-width="1" fill="none" fill-rule="evenodd">
        <g id="C3p-icon-pack" transform="translate(-1341.000000, -140.000000)">
            <g id="Group" transform="translate(63.000000, 86.000000)">
                <g id="c3p-envelope-letter" transform="translate(1278.000000, 54.000000)">
                    <mask id="mask-2" fill="white">
                        <use xlink:href="#path-1"></use>
                    </mask>
                    <use id="Mask" fill="#000000" xlink:href="#path-1"></use>
                </g>
            </g>
        </g>
    </g>
</svg>