<?xml version="1.0" encoding="UTF-8"?>
<svg width="24px" height="24px" viewBox="0 0 24 24" version="1.1" xmlns="http://www.w3.org/2000/svg" xmlns:xlink="http://www.w3.org/1999/xlink">
    <!-- Generator: Sketch 52.4 (67378) - http://www.bohemiancoding.com/sketch -->
    <title>c3p-arrow-up-circle</title>
    <desc>Created with Sketch.</desc>
    <g id="Page-1" stroke="none" stroke-width="1" fill="none" fill-rule="evenodd">
        <g id="C3p-icon-pack" transform="translate(-1623.000000, -248.000000)" fill="#000000">
            <g id="Group" transform="translate(63.000000, 86.000000)">
                <g id="c3p-arrow-up-circle" transform="translate(1560.000000, 162.000000)">
                    <path d="M12.6202423,8.52275769 L12.6202423,17.1172423 C12.6202423,17.5142423 12.2932423,17.8382423 11.8922423,17.8382423 C11.4952423,17.8382423 11.1722423,17.5142423 11.1712423,17.1172423 L11.1712423,8.52175769 L8.18724231,11.5057577 C8.05224231,11.6407577 7.87124231,11.7157577 7.67824231,11.7157577 C7.48324231,11.7157577 7.30324231,11.6407577 7.16724231,11.5057577 C7.02924231,11.3677577 6.95324231,11.1837577 6.95324231,10.9907577 C6.95324231,10.7947577 7.03024231,10.6117577 7.16724231,10.4797577 L11.3832423,6.26375769 C11.5182423,6.12375769 11.7002423,6.04675769 11.8952423,6.04675769 C12.0912423,6.04675769 12.2732423,6.12375769 12.4062423,6.26175769 L16.6212423,10.4757577 C16.7612423,10.6117577 16.8382423,10.7947577 16.8382423,10.9897577 C16.8382423,11.1837577 16.7622423,11.3677577 16.6242423,11.5057577 C16.3472423,11.7837577 15.8872423,11.7857577 15.5982423,11.5057577 L12.6202423,8.52275769 Z M11.85312,22.1784738 C17.5536738,22.1784738 22.1915815,17.5176738 22.1915815,11.81712 C22.1915815,6.11619692 17.5536738,1.47828923 11.85312,1.47828923 C6.15256615,1.47828923 1.51465846,6.11619692 1.51465846,11.81712 C1.51465846,17.5176738 6.15256615,22.1784738 11.85312,22.1784738 Z M23.6685046,11.81712 C23.6685046,18.3425354 18.3785354,23.6325046 11.85312,23.6325046 C5.32733538,23.6325046 0.0377353846,18.3425354 0.0377353846,11.81712 C0.0377353846,5.29170462 5.32733538,0.00136615385 11.85312,0.00136615385 C18.3785354,0.00136615385 23.6685046,5.29170462 23.6685046,11.81712 Z" id="Shape"></path>
                </g>
            </g>
        </g>
    </g>
</svg>