<?xml version="1.0" encoding="UTF-8"?>
<svg width="24px" height="24px" viewBox="0 0 24 24" version="1.1" xmlns="http://www.w3.org/2000/svg" xmlns:xlink="http://www.w3.org/1999/xlink">
    <!-- Generator: Sketch 52.4 (67378) - http://www.bohemiancoding.com/sketch -->
    <title>c3p-grab-move</title>
    <desc>Created with Sketch.</desc>
    <g id="Page-1" stroke="none" stroke-width="1" fill="none" fill-rule="evenodd">
        <g id="C3p-icon-pack" transform="translate(-1677.000000, -410.000000)" fill="#000000">
            <g id="Group" transform="translate(63.000000, 86.000000)">
                <g id="c3p-grab-move" transform="translate(1614.000000, 324.000000)">
                    <path d="M13.3998,11.6635087 C13.3998,12.4906775 12.728429,13.1625 11.8998,13.1625 C11.071171,13.1625 10.3998,12.4906775 10.3998,11.6635087 C10.3998,10.8343225 11.071171,10.1625 11.8998,10.1625 C12.728429,10.1625 13.3998,10.8343225 13.3998,11.6635087 Z M13.3998,6.66350874 C13.3998,7.49067754 12.728429,8.1625 11.8998,8.1625 C11.071171,8.1625 10.3998,7.49067754 10.3998,6.66350874 C10.3998,5.83432246 11.071171,5.1625 11.8998,5.1625 C12.728429,5.1625 13.3998,5.83432246 13.3998,6.66350874 Z M13.3998,16.6635087 C13.3998,17.4906775 12.728429,18.1625 11.8998,18.1625 C11.071171,18.1625 10.3998,17.4906775 10.3998,16.6635087 C10.3998,15.8343225 11.071171,15.1625 11.8998,15.1625 C12.728429,15.1625 13.3998,15.8343225 13.3998,16.6635087 Z M19.3998,11.6635087 C19.3998,12.4906775 18.728429,13.1625 17.8998,13.1625 C17.071171,13.1625 16.3998,12.4906775 16.3998,11.6635087 C16.3998,10.8343225 17.071171,10.1625 17.8998,10.1625 C18.728429,10.1625 19.3998,10.8343225 19.3998,11.6635087 Z M19.3998,6.66350874 C19.3998,7.49067754 18.728429,8.1625 17.8998,8.1625 C17.071171,8.1625 16.3998,7.49067754 16.3998,6.66350874 C16.3998,5.83432246 17.071171,5.1625 17.8998,5.1625 C18.728429,5.1625 19.3998,5.83432246 19.3998,6.66350874 Z M19.3998,16.6635087 C19.3998,17.4906775 18.728429,18.1625 17.8998,18.1625 C17.071171,18.1625 16.3998,17.4906775 16.3998,16.6635087 C16.3998,15.8343225 17.071171,15.1625 17.8998,15.1625 C18.728429,15.1625 19.3998,15.8343225 19.3998,16.6635087 Z M7.3998,11.6635087 C7.3998,12.4906775 6.72842903,13.1625 5.8998,13.1625 C5.07117097,13.1625 4.3998,12.4906775 4.3998,11.6635087 C4.3998,10.8343225 5.07117097,10.1625 5.8998,10.1625 C6.72842903,10.1625 7.3998,10.8343225 7.3998,11.6635087 Z M7.3998,6.66350874 C7.3998,7.49067754 6.72842903,8.1625 5.8998,8.1625 C5.07117097,8.1625 4.3998,7.49067754 4.3998,6.66350874 C4.3998,5.83432246 5.07117097,5.1625 5.8998,5.1625 C6.72842903,5.1625 7.3998,5.83432246 7.3998,6.66350874 Z M7.3998,16.6635087 C7.3998,17.4906775 6.72842903,18.1625 5.8998,18.1625 C5.07117097,18.1625 4.3998,17.4906775 4.3998,16.6635087 C4.3998,15.8343225 5.07117097,15.1625 5.8998,15.1625 C6.72842903,15.1625 7.3998,15.8343225 7.3998,16.6635087 Z" id="Shape"></path>
                </g>
            </g>
        </g>
    </g>
</svg>