<?xml version="1.0" encoding="UTF-8"?>
<svg width="24px" height="24px" viewBox="0 0 24 24" version="1.1" xmlns="http://www.w3.org/2000/svg" xmlns:xlink="http://www.w3.org/1999/xlink">
    <!-- Generator: Sketch 52.4 (67378) - http://www.bohemiancoding.com/sketch -->
    <title>c3p-rocket</title>
    <desc>Created with Sketch.</desc>
    <g id="Page-1" stroke="none" stroke-width="1" fill="none" fill-rule="evenodd">
        <g id="C3p-icon-pack" transform="translate(-669.000000, -471.000000)" fill="#000000">
            <g id="Group" transform="translate(63.000000, 86.000000)">
                <g id="c3p-rocket" transform="translate(606.000000, 385.000000)">
                    <path d="M16.3997091,8.73058182 C17.2026182,8.73058182 17.8560727,8.07712727 17.8560727,7.27421818 C17.8560727,6.47167273 17.2026182,5.81785455 16.3997091,5.81785455 C15.5968,5.81785455 14.9433455,6.47167273 14.9433455,7.27421818 C14.9433455,8.07712727 15.5968,8.73058182 16.3997091,8.73058182 Z M16.3997091,4.35749091 C18.0077091,4.35749091 19.3164364,5.66585455 19.3164364,7.27421818 C19.3164364,8.88294545 18.0077091,10.1916727 16.3997091,10.1916727 C14.7913455,10.1916727 13.4826182,8.88294545 13.4826182,7.27421818 C13.4826182,5.66585455 14.7913455,4.35749091 16.3997091,4.35749091 Z M21.3326182,8.23945455 C22.1889818,5.93436364 22.2395273,2.82490909 22.2162545,1.48418182 C20.9497091,1.47472727 18.1798909,1.58054545 15.4958909,2.58309091 C14.2900727,3.034 13.3297091,3.72672727 12.3849818,4.82963636 C11.5846182,5.76309091 10.6784364,7.686 9.95007273,9.13945455 C9.52025455,9.99763636 9.14861818,10.7387273 8.82861818,11.2598182 C8.69661818,11.4747273 8.46170909,11.6063636 8.20898182,11.6063636 L4.07189091,11.6063636 L2.43770909,13.3336364 L5.76934545,14.0954545 C5.92752727,14.1318182 6.06752727,14.2190909 6.16861818,14.342 C6.32352727,14.5198182 8.34389091,16.7605455 9.68134545,18.2427273 C9.76352727,18.3336364 9.82134545,18.4438182 9.84934545,18.5623636 L10.5028,21.3256364 L12.0373455,19.6398182 L12.0373455,15.8383636 C12.0373455,15.6198182 12.1355273,15.4132727 12.3046182,15.2754545 C12.5988,15.0347273 13.2700727,14.6689091 14.3908,14.0423636 C15.8922545,13.2027273 18.3573455,12.0529091 19.2588,11.2521818 C20.4788,10.1674545 20.8846182,9.44563636 21.3326182,8.23945455 Z M22.9733455,0.0550909091 C23.3362545,0.082 23.6238909,0.372909091 23.6457091,0.735818182 C23.6580727,0.927454545 23.9177091,5.458 22.6962545,8.746 C22.1828,10.1281818 21.6598909,11.0638182 20.2246182,12.3390909 C19.2053455,13.2456364 16.7475273,14.3910909 15.1002545,15.3114545 C14.4958909,15.6496364 13.8540727,15.9961818 13.4918909,16.2212727 L13.4918909,19.9743636 C13.4918909,20.1863636 13.3988,20.3881818 13.2373455,20.526 L10.5428,23.2063636 C10.4089818,23.3216364 10.2406182,23.382 10.0693455,23.382 C9.99370909,23.382 9.91770909,23.3696364 9.84425455,23.3463636 C9.6028,23.2674545 9.41989091,23.0685455 9.36170909,22.8223636 L8.47661818,19.0787273 L6.83298182,17.2561818 C6.04461818,16.3812727 5.55225455,15.8350909 5.25625455,15.47 L0.916618182,14.4776364 C0.666436364,14.4209091 0.464618182,14.2354545 0.386436364,13.9903636 C0.308254545,13.7463636 0.364618182,13.4783636 0.535163636,13.286 L3.20098182,10.3965455 C3.33916364,10.2409091 3.53698182,10.1518182 3.74498182,10.1518182 L7.7908,10.1518182 C8.04243636,9.69945455 8.33952727,9.10709091 8.64970909,8.48781818 C9.45334545,6.88345455 10.3642545,4.95181818 11.2802545,3.88309091 C12.3795273,2.60090909 13.5569818,1.75472727 14.9875273,1.22054545 C18.9028,-0.241636364 22.9733455,0.0550909091 22.9733455,0.0550909091 Z M5.14367273,20.1439273 C5.32221818,19.7744727 5.5244,19.3548364 5.84803636,18.9137455 L6.92621818,19.8937455 C6.65967273,20.3366545 6.57167273,20.5588364 6.41349091,20.8875636 C5.69130909,22.3875636 4.97058182,23.2581091 1.11567273,23.2581091 L0.400763636,23.2741091 L0.3884,22.5308364 C0.3884,18.8784727 1.12330909,18.1119273 2.68330909,17.3341091 C3.05567273,17.1490182 3.44003636,16.9799273 3.85858182,16.6588364 L4.74367273,17.7893818 C4.21458182,18.1966545 3.72549091,18.4399273 3.3324,18.6362909 C2.39603636,19.1028364 1.9284,19.3657455 1.85530909,21.8195636 C4.39821818,21.7272 4.68658182,21.0941091 5.14367273,20.1439273 Z" id="Shape"></path>
                </g>
            </g>
        </g>
    </g>
</svg>