<?xml version="1.0" encoding="UTF-8"?>
<svg width="24px" height="24px" viewBox="0 0 24 24" version="1.1" xmlns="http://www.w3.org/2000/svg" xmlns:xlink="http://www.w3.org/1999/xlink">
    <!-- Generator: Sketch 52.4 (67378) - http://www.bohemiancoding.com/sketch -->
    <title>c3p-lab</title>
    <desc>Created with Sketch.</desc>
    <g id="Page-1" stroke="none" stroke-width="1" fill="none" fill-rule="evenodd">
        <g id="C3p-icon-pack" transform="translate(-1395.000000, -464.000000)" fill="#000000">
            <g id="Group" transform="translate(63.000000, 86.000000)">
                <g id="c3p-lab" transform="translate(1332.000000, 378.000000)">
                    <path d="M16.4520246,1.47947077 C15.8368862,1.47947077 15.3365785,1.97756308 15.3365785,2.59011692 C15.3365785,3.20230154 15.8368862,3.70076308 16.4520246,3.70076308 C17.0671631,3.70076308 17.5674708,3.20230154 17.5674708,2.59011692 C17.5674708,1.97756308 17.0671631,1.47947077 16.4520246,1.47947077 Z M16.4634708,5.19540923 C15.0245785,5.19540923 13.8578092,4.03417846 13.8578092,2.60119385 C13.8578092,1.16820923 15.0245785,0.00697846154 16.4634708,0.00697846154 C17.9031015,0.00697846154 19.0695015,1.16820923 19.0695015,2.60119385 C19.0695015,4.03417846 17.9031015,5.19540923 16.4634708,5.19540923 Z M15.3450708,17.7577108 L19.2773785,22.4114954 C19.4730708,22.6274954 19.5225477,22.9391262 19.4043938,23.20608 C19.2855015,23.4730338 19.0215015,23.6443569 18.72944,23.6443569 L6.05227077,23.6443569 C5.76020923,23.6443569 5.49620923,23.4730338 5.37731692,23.20608 C5.25916308,22.9391262 5.30864,22.6274954 5.50433231,22.4114954 L9.43664,17.7577108 L9.43664,9.59992615 L8.94482462,9.59992615 C8.53682462,9.59992615 8.20636308,9.26983385 8.20636308,8.86146462 C8.20636308,8.45346462 8.53682462,8.12300308 8.94482462,8.12300308 L10.1751015,8.12300308 C10.5834708,8.12300308 10.9135631,8.45346462 10.9135631,8.86146462 L10.9135631,18.0420185 C10.9135631,18.2251569 10.8456246,18.4009108 10.72304,18.5364185 L7.71454769,22.1674338 L17.0671631,22.1674338 L14.0586708,18.5364185 C13.9360862,18.4009108 13.8681477,18.2251569 13.8681477,18.0420185 L13.8681477,8.86146462 C13.8681477,8.45346462 14.1986092,8.12300308 14.6066092,8.12300308 L15.8368862,8.12300308 C16.2452554,8.12300308 16.5753477,8.45346462 16.5753477,8.86146462 C16.5753477,9.26983385 16.2452554,9.59992615 15.8368862,9.59992615 L15.3450708,9.59992615 L15.3450708,17.7577108 Z M13.1256985,5.91419077 C13.1256985,6.72760615 12.4662523,7.38742154 11.6524677,7.38742154 C10.8383138,7.38742154 10.1792369,6.72760615 10.1792369,5.91419077 C10.1792369,5.10151385 10.8383138,4.44169846 11.6524677,4.44169846 C12.4662523,4.44169846 13.1256985,5.10151385 13.1256985,5.91419077 Z" id="Shape"></path>
                </g>
            </g>
        </g>
    </g>
</svg>