<?xml version="1.0" encoding="UTF-8"?>
<svg width="24px" height="24px" viewBox="0 0 24 24" version="1.1" xmlns="http://www.w3.org/2000/svg" xmlns:xlink="http://www.w3.org/1999/xlink">
    <!-- Generator: Sketch 52.4 (67378) - http://www.bohemiancoding.com/sketch -->
    <title>c3p-calculator</title>
    <desc>Created with Sketch.</desc>
    <g id="Page-1" stroke="none" stroke-width="1" fill="none" fill-rule="evenodd">
        <g id="C3p-icon-pack" transform="translate(-897.000000, -309.000000)" fill="#000000">
            <g id="Group" transform="translate(63.000000, 86.000000)">
                <g id="c3p-calculator" transform="translate(834.000000, 223.000000)">
                    <path d="M18.4716185,6.97155692 C18.8792492,6.97155692 19.21008,7.30238769 19.21008,7.71001846 C19.21008,8.11764923 18.8792492,8.44848 18.4716185,8.44848 L14.0408492,8.44848 C13.6332185,8.44848 13.3023877,8.11764923 13.3023877,7.71001846 C13.3023877,7.30238769 13.6332185,6.97155692 14.0408492,6.97155692 L18.4716185,6.97155692 Z M1.48689231,22.4747077 L22.1638154,22.4747077 L22.1638154,1.79335385 L1.48689231,1.79335385 L1.48689231,22.4747077 Z M0.00996923077,22.4747077 L0.00996923077,1.79335385 C0.00996923077,0.981415385 0.674953846,0.316430769 1.48689231,0.316430769 L22.1638154,0.316430769 C22.9761231,0.316430769 23.6407385,0.981415385 23.6407385,1.79335385 L23.6407385,22.4747077 C23.6407385,23.2866462 22.9761231,23.9516308 22.1638154,23.9516308 L1.48689231,23.9516308 C0.674953846,23.9516308 0.00996923077,23.2866462 0.00996923077,22.4747077 Z M18.4716185,14.3561723 C18.8792492,14.3561723 19.21008,14.6870031 19.21008,15.0946338 C19.21008,15.5022646 18.8792492,15.8330954 18.4716185,15.8330954 L14.0408492,15.8330954 C13.6332185,15.8330954 13.3023877,15.5022646 13.3023877,15.0946338 C13.3023877,14.6870031 13.6332185,14.3561723 14.0408492,14.3561723 L18.4716185,14.3561723 Z M10.0054523,13.9606154 C10.2938215,14.2489846 10.2938215,14.7168 10.0054523,15.0051692 L8.43880615,16.5714462 L10.0054523,18.1377231 C10.2938215,18.4264615 10.2938215,18.8939077 10.0054523,19.1826462 C9.71708308,19.4710154 9.24963692,19.4710154 8.96126769,19.1826462 L7.39462154,17.6156308 L5.82834462,19.1826462 C5.53960615,19.4710154 5.07216,19.4710154 4.78379077,19.1826462 C4.49542154,18.8939077 4.49542154,18.4264615 4.78379077,18.1377231 L6.35043692,16.5714462 L4.78379077,15.0051692 C4.49542154,14.7168 4.49542154,14.2489846 4.78379077,13.9606154 C5.07216,13.6722462 5.53960615,13.6722462 5.82834462,13.9606154 L7.39462154,15.5272615 L8.96126769,13.9606154 C9.24963692,13.6722462 9.71708308,13.6722462 10.0054523,13.9606154 Z M9.61008,6.97155692 C10.0177108,6.97155692 10.3485415,7.30238769 10.3485415,7.71001846 C10.3485415,8.11764923 10.0177108,8.44848 9.61008,8.44848 L8.13315692,8.44848 L8.13315692,9.92540308 C8.13315692,10.3330338 7.80232615,10.6638646 7.39469538,10.6638646 C6.98706462,10.6638646 6.65623385,10.3330338 6.65623385,9.92540308 L6.65623385,8.44848 L5.17931077,8.44848 C4.77168,8.44848 4.44084923,8.11764923 4.44084923,7.71001846 C4.44084923,7.30238769 4.77168,6.97155692 5.17931077,6.97155692 L6.65623385,6.97155692 L6.65623385,5.49463385 C6.65623385,5.08700308 6.98706462,4.75617231 7.39469538,4.75617231 C7.80232615,4.75617231 8.13315692,5.08700308 8.13315692,5.49463385 L8.13315692,6.97155692 L9.61008,6.97155692 Z M18.4716185,17.3100185 C18.8792492,17.3100185 19.21008,17.6408492 19.21008,18.04848 C19.21008,18.4561108 18.8792492,18.7869415 18.4716185,18.7869415 L14.0408492,18.7869415 C13.6332185,18.7869415 13.3023877,18.4561108 13.3023877,18.04848 C13.3023877,17.6408492 13.6332185,17.3100185 14.0408492,17.3100185 L18.4716185,17.3100185 Z" id="Shape"></path>
                </g>
            </g>
        </g>
    </g>
</svg>