<?xml version="1.0" encoding="UTF-8"?>
<svg width="24px" height="24px" viewBox="0 0 24 24" version="1.1" xmlns="http://www.w3.org/2000/svg" xmlns:xlink="http://www.w3.org/1999/xlink">
    <!-- Generator: Sketch 52.4 (67378) - http://www.bohemiancoding.com/sketch -->
    <title>c3p-tag</title>
    <desc>Created with Sketch.</desc>
    <g id="Page-1" stroke="none" stroke-width="1" fill="none" fill-rule="evenodd">
        <g id="C3p-icon-pack" transform="translate(-615.000000, -93.000000)" fill="#000000">
            <g id="Group" transform="translate(63.000000, 86.000000)">
                <g id="c3p-tag" transform="translate(552.000000, 7.000000)">
                    <path d="M17.7608123,4.43232 C16.9451815,4.43232 16.2838892,5.09361231 16.2838892,5.90924308 C16.2838892,6.72487385 16.9451815,7.38616615 17.7608123,7.38616615 C18.5764431,7.38616615 19.2377354,6.72487385 19.2377354,5.90924308 C19.2377354,5.09361231 18.5764431,4.43232 17.7608123,4.43232 Z M17.7608123,8.86308923 C16.1295508,8.86308923 14.8069662,7.54050462 14.8069662,5.90924308 C14.8069662,4.27798154 16.1295508,2.95539692 17.7608123,2.95539692 C19.3920738,2.95539692 20.7146585,4.27798154 20.7146585,5.90924308 C20.7146585,7.54050462 19.3920738,8.86308923 17.7608123,8.86308923 Z M13.1800246,1.55132308 L1.51713231,13.2168 L10.4421785,22.1525538 L22.1287015,10.4771077 C22.1936862,10.3648615 22.1922092,9.89483077 22.1907323,9.61384615 L22.1907323,1.79944615 C22.1907323,1.62221538 22.0474708,1.47858462 21.8706092,1.47858462 L14.2279015,1.47969231 L13.8952246,1.47858462 C13.7202092,1.47858462 13.29744,1.47858462 13.1800246,1.55132308 Z M9.39836308,23.1967385 L0.472209231,14.2724308 C0.191593846,13.9918154 0.0372553846,13.6192615 0.0372553846,13.2216 C0.0372553846,12.8254154 0.192332308,12.4524923 0.472947692,12.1722462 L12.1483938,0.496430769 C12.6427938,0.00166153846 13.4000862,0.00166153846 13.9003938,0.00166153846 L14.2279015,0.00276923077 L21.8706092,0.00166153846 C22.8616246,0.00166153846 23.6676554,0.808061538 23.6676554,1.79944615 L23.6676554,9.60756923 C23.6706092,10.3024615 23.6735631,11.0213538 23.1728862,11.5212923 L11.4970708,23.1974769 C11.2175631,23.4780923 10.8442708,23.6324308 10.4477169,23.6324308 C10.0507938,23.6324308 9.67824,23.4780923 9.39836308,23.1967385 Z" id="Shape"></path>
                </g>
            </g>
        </g>
    </g>
</svg>