<?xml version="1.0" encoding="UTF-8"?>
<svg width="24px" height="24px" viewBox="0 0 24 24" version="1.1" xmlns="http://www.w3.org/2000/svg" xmlns:xlink="http://www.w3.org/1999/xlink">
    <!-- Generator: Sketch 52.4 (67378) - http://www.bohemiancoding.com/sketch -->
    <title>c3p-magic-wand</title>
    <desc>Created with Sketch.</desc>
    <defs>
        <path d="M11.2685818,8.19603636 L13.8282182,6.19458182 C13.9987636,6.06112727 14.1002182,5.85930909 14.1074909,5.64330909 L14.2038545,2.39494545 L16.8991273,4.21021818 C17.0791273,4.33094545 17.3034909,4.36512727 17.5093091,4.30549091 L20.6285818,3.39421818 L19.7344,6.51858182 C19.6754909,6.72658182 19.7118545,6.94949091 19.8333091,7.1284 L21.6642182,9.81312727 L18.4162182,9.9284 C18.2002182,9.93530909 17.9987636,10.0389455 17.8667636,10.2102182 L15.8787636,12.7804 L14.7656727,9.72803636 C14.6918545,9.52476364 14.5314909,9.36585455 14.3274909,9.29276364 L11.2685818,8.19603636 Z M1.04967273,23.5960364 C1.23585455,23.5960364 1.42203636,23.5247636 1.56421818,23.3829455 L13.6264,11.3204 C13.6733091,11.2734909 13.7100364,11.2204 13.7413091,11.1654909 L14.9638545,14.5185818 C15.0547636,14.7669455 15.2736727,14.9465818 15.5354909,14.9880364 C15.5725818,14.9934909 15.6100364,14.9964 15.6471273,14.9964 C15.8700364,14.9964 16.0831273,14.8934909 16.2224,14.7138545 L18.8082182,11.3694909 L22.9882182,11.2200364 C23.2529455,11.2109455 23.4914909,11.0582182 23.6114909,10.8218545 C23.7307636,10.5858545 23.7125818,10.3025818 23.5634909,10.0836727 L21.2274909,6.59094545 L22.3900364,2.52694545 C22.4624,2.27203636 22.3914909,1.99785455 22.2031273,1.81094545 C22.0158545,1.62367273 21.7431273,1.55385455 21.4867636,1.6284 L17.4289455,2.81312727 L13.9227636,0.451672727 C13.7016727,0.303309091 13.4191273,0.285490909 13.1849455,0.407672727 C12.9489455,0.5284 12.7976727,0.7684 12.7893091,1.03276364 L12.6634909,5.25858182 L9.33403636,7.86294545 C9.12494545,8.02621818 9.02203636,8.29058182 9.06421818,8.55203636 C9.10603636,8.81312727 9.28712727,9.03130909 9.53694545,9.12076364 L12.6609455,10.2404 C12.6398545,10.2574909 12.6176727,10.2724 12.5980364,10.2920364 L0.535490909,22.3545818 C0.251490909,22.6385818 0.251490909,23.0985818 0.535490909,23.3829455 C0.677672727,23.5247636 0.863854545,23.5960364 1.04967273,23.5960364 Z" id="path-1"></path>
    </defs>
    <g id="Page-1" stroke="none" stroke-width="1" fill="none" fill-rule="evenodd">
        <g id="C3p-icon-pack" transform="translate(-1449.000000, -356.000000)">
            <g id="Group" transform="translate(63.000000, 86.000000)">
                <g id="c3p-magic-wand" transform="translate(1386.000000, 270.000000)">
                    <mask id="mask-2" fill="white">
                        <use xlink:href="#path-1"></use>
                    </mask>
                    <use id="Mask" fill="#000000" xlink:href="#path-1"></use>
                </g>
            </g>
        </g>
    </g>
</svg>