<?xml version="1.0" encoding="UTF-8"?>
<svg width="24px" height="24px" viewBox="0 0 24 24" version="1.1" xmlns="http://www.w3.org/2000/svg" xmlns:xlink="http://www.w3.org/1999/xlink">
    <!-- Generator: Sketch 52.4 (67378) - http://www.bohemiancoding.com/sketch -->
    <title>c3p-credit-card</title>
    <desc>Created with Sketch.</desc>
    <defs>
        <path d="M22.1622646,7.69917538 L1.47869538,7.69917538 L1.47869538,6.22225231 C1.47869538,5.81462154 1.80989538,5.48379077 2.21715692,5.48379077 L21.4238031,5.48379077 C21.8314338,5.48379077 22.1622646,5.81462154 22.1622646,6.22225231 L22.1622646,7.69917538 Z M22.1622646,17.2991754 C22.1622646,17.7068062 21.8314338,18.0376369 21.4238031,18.0376369 L2.21715692,18.0376369 C1.80989538,18.0376369 1.47869538,17.7068062 1.47869538,17.2991754 L1.47869538,10.6530215 L22.1622646,10.6530215 L22.1622646,17.2991754 Z M21.4238031,4.00686769 L2.21715692,4.00686769 C0.993526154,4.00686769 0.00177230769,4.99862154 0.00177230769,6.22225231 L0.00177230769,17.2991754 C0.00177230769,18.5228062 0.993526154,19.51456 2.21715692,19.51456 L21.4238031,19.51456 C22.6474338,19.51456 23.6391877,18.5228062 23.6391877,17.2991754 L23.6391877,6.22225231 C23.6391877,4.99862154 22.6474338,4.00686769 21.4238031,4.00686769 Z" id="path-1"></path>
    </defs>
    <g id="Page-1" stroke="none" stroke-width="1" fill="none" fill-rule="evenodd">
        <g id="C3p-icon-pack" transform="translate(-1341.000000, -356.000000)">
            <g id="Group" transform="translate(63.000000, 86.000000)">
                <g id="c3p-credit-card" transform="translate(1278.000000, 270.000000)">
                    <mask id="mask-2" fill="white">
                        <use xlink:href="#path-1"></use>
                    </mask>
                    <use id="Mask" fill="#000000" xlink:href="#path-1"></use>
                </g>
            </g>
        </g>
    </g>
</svg>