<?xml version="1.0" encoding="UTF-8"?>
<svg width="24px" height="24px" viewBox="0 0 24 24" version="1.1" xmlns="http://www.w3.org/2000/svg" xmlns:xlink="http://www.w3.org/1999/xlink">
    <!-- Generator: Sketch 52.4 (67378) - http://www.bohemiancoding.com/sketch -->
    <title>c3p-key</title>
    <desc>Created with Sketch.</desc>
    <defs>
        <path d="M10.1420923,6.64619077 C10.1420923,3.79056 12.4671385,1.47696 15.3113231,1.47696 C18.1555077,1.47696 20.4805538,3.79056 20.4805538,6.64619077 C20.4805538,9.50145231 18.1555077,11.8154215 15.3113231,11.8154215 C12.4671385,11.8154215 10.1420923,9.50145231 10.1420923,6.64619077 M10.9459077,11.6684677 C12.1141538,12.6904985 13.6383385,13.3144985 15.3113231,13.3144985 C18.9818462,13.3144985 21.9574769,10.3336985 21.9574769,6.65689846 C21.9574769,2.98046769 18.9818462,3.69230769e-05 15.3113231,3.69230769e-05 C11.6408,3.69230769e-05 8.66516923,2.98046769 8.66516923,6.65689846 C8.66516923,8.30477538 9.26590769,9.80976 10.2561846,10.9724677 C10.0523692,10.9602831 9.84412308,11.0285908 9.68830769,11.1844062 L2.24867692,18.6701908 C1.96067692,18.9589292 1.96067692,19.4263754 2.24867692,19.7147446 C2.25421538,19.7199138 2.26012308,19.7236062 2.26566154,19.7287754 C2.26787692,19.7306215 2.26898462,19.7328369 2.2712,19.7346831 L5.89187692,23.4247754 C6.18024615,23.7135138 6.64769231,23.7135138 6.93606154,23.4247754 C7.2248,23.1364062 7.2248,22.66896 6.93606154,22.3805908 L3.81015385,19.1944985 L5.71390769,17.2792985 L8.84572308,20.4709292 C9.13409231,20.7596677 9.60153846,20.7596677 9.88990769,20.4709292 C10.1786462,20.18256 10.1786462,19.7151138 9.88990769,19.4263754 L6.75476923,16.2314215 L10.7332308,12.2285908 C10.8872,12.0746215 10.9558769,11.8696985 10.9459077,11.6684677" id="path-1"></path>
    </defs>
    <g id="Page-1" stroke="none" stroke-width="1" fill="none" fill-rule="evenodd">
        <g id="C3p-icon-pack" transform="translate(-279.000000, -363.000000)">
            <g id="Group" transform="translate(63.000000, 86.000000)">
                <g id="c3p-key" transform="translate(216.000000, 277.000000)">
                    <mask id="mask-2" fill="white">
                        <use xlink:href="#path-1"></use>
                    </mask>
                    <use id="Mask" fill="#000000" xlink:href="#path-1"></use>
                </g>
            </g>
        </g>
    </g>
</svg>