<?xml version="1.0" encoding="UTF-8"?>
<svg width="24px" height="24px" viewBox="0 0 24 24" version="1.1" xmlns="http://www.w3.org/2000/svg" xmlns:xlink="http://www.w3.org/1999/xlink">
    <!-- Generator: Sketch 52.4 (67378) - http://www.bohemiancoding.com/sketch -->
    <title>c3p-question-mark</title>
    <desc>Created with Sketch.</desc>
    <g id="Page-1" stroke="none" stroke-width="1" fill="none" fill-rule="evenodd">
        <g id="C3p-icon-pack" transform="translate(-1785.000000, -86.000000)" fill="#000000">
            <g id="Group" transform="translate(63.000000, 86.000000)">
                <g id="c3p-question-mark" transform="translate(1722.000000, 0.000000)">
                    <path d="M11.9999836,5 C14.201111,5 15.9948108,6.82813386 15.9999036,9.07430516 C16.0111079,10.7901305 15.0434674,11.8674608 14.1359226,12.7440915 L14.0330471,12.8428815 C13.6602509,13.2016449 13.3088446,13.5396105 13.0715181,13.8734165 C12.7934488,14.2623369 12.6803876,14.5919834 12.6803876,15.0141804 L12.6803876,15.2970316 C12.6752948,15.6942711 12.3707427,16 11.9999836,16 L11.9908165,16 C11.8095112,15.9979202 11.6394102,15.9220079 11.5120891,15.7889015 C11.384768,15.6568349 11.3175424,15.4810928 11.3195796,15.2949518 L11.3195796,15.0141804 C11.3195796,14.3257705 11.5395905,13.6675175 11.9745194,13.0591794 C12.30861,12.5891473 12.7048333,12.2095859 13.0878152,11.8435432 L13.2008763,11.7343543 C13.9454502,11.0147476 14.6492813,10.3336169 14.6390956,9.0847041 C14.6390956,7.59869541 13.4555185,6.38929854 11.9999836,6.38929854 C10.5444487,6.38929854 9.36087162,7.59869541 9.36087162,9.08366421 C9.35577877,9.48402344 9.05020811,9.77935337 8.67130048,9.78663263 C8.29646713,9.78143316 7.99497074,9.46530535 8.00006358,9.08262431 C8.00006358,6.83229344 9.79376339,5 11.9999836,5 Z M12.0005322,17 C12.5518893,17 13,17.4489362 13,18 C13,18.5510638 12.5518893,19 12.0005322,19 C11.4491751,19 11,18.5510638 11,18 C11,17.4489362 11.4491751,17 12.0005322,17 Z" id="Shape"></path>
                </g>
            </g>
        </g>
    </g>
</svg>