<?xml version="1.0" encoding="UTF-8"?>
<svg width="24px" height="24px" viewBox="0 0 24 24" version="1.1" xmlns="http://www.w3.org/2000/svg" xmlns:xlink="http://www.w3.org/1999/xlink">
    <!-- Generator: Sketch 52.4 (67378) - http://www.bohemiancoding.com/sketch -->
    <title>c3p-home</title>
    <desc>Created with Sketch.</desc>
    <defs>
        <path d="M19.96464,10.4966769 L19.96464,22.1466462 L16.2845169,22.1466462 L16.2845169,14.7723692 C16.2845169,14.3643692 15.9544246,14.0339077 15.5460554,14.0339077 L8.18765538,14.0339077 C7.78076308,14.0339077 7.45030154,14.3625231 7.44919385,14.7701538 L7.42556308,22.1466462 L3.74100923,22.1466462 L3.74100923,10.4966769 C3.74100923,10.4357538 3.73177846,10.3777846 3.71774769,10.3209231 L11.88144,1.81421538 L19.9908554,10.3116923 C19.9753477,10.3711385 19.96464,10.4324308 19.96464,10.4966769 Z M12.41424,0.236123077 C12.2746708,0.0910153846 12.0826708,0.00904615385 11.88144,0.00904615385 C11.6802092,0.00904615385 11.48784,0.0910153846 11.34864,0.236123077 L0.205624615,11.8476923 C-0.0768369231,12.1419692 -0.0668676923,12.6090462 0.22704,12.8918769 C0.521316923,13.1736 0.988393846,13.1658462 1.27159385,12.8700923 L2.26408615,11.8358769 L2.26408615,22.8851077 C2.26408615,23.2931077 2.59491692,23.6235692 3.00254769,23.6235692 L8.16144,23.6235692 C8.56833231,23.6235692 8.89842462,23.2945846 8.89990154,22.8873231 L8.92353231,15.5108308 L14.8075938,15.5108308 L14.8075938,22.8851077 C14.8075938,23.2931077 15.1380554,23.6235692 15.5460554,23.6235692 L20.7031015,23.6235692 C21.1111015,23.6235692 21.4415631,23.2931077 21.4415631,22.8851077 L21.4415631,11.8314462 L22.4336862,12.8708308 C22.5784246,13.0214769 22.7722708,13.0979077 22.9664862,13.0979077 C23.1503631,13.0975385 23.3349785,13.0296 23.4778708,12.8918769 C23.7721477,12.6097846 23.7813785,12.1423385 23.4992862,11.8480615 L12.41424,0.236123077 Z" id="path-1"></path>
    </defs>
    <g id="Page-1" stroke="none" stroke-width="1" fill="none" fill-rule="evenodd">
        <g id="C3p-icon-pack" transform="translate(-453.000000, -93.000000)">
            <g id="Group" transform="translate(63.000000, 86.000000)">
                <g id="c3p-home" transform="translate(390.000000, 7.000000)">
                    <mask id="mask-2" fill="white">
                        <use xlink:href="#path-1"></use>
                    </mask>
                    <use id="Mask" fill="#000000" xlink:href="#path-1"></use>
                </g>
            </g>
        </g>
    </g>
</svg>