<?xml version="1.0" encoding="UTF-8"?>
<svg width="24px" height="24px" viewBox="0 0 24 24" version="1.1" xmlns="http://www.w3.org/2000/svg" xmlns:xlink="http://www.w3.org/1999/xlink">
    <!-- Generator: Sketch 52.4 (67378) - http://www.bohemiancoding.com/sketch -->
    <title>c3p-heart</title>
    <desc>Created with Sketch.</desc>
    <defs>
        <path d="M20.6259692,12.19188 C20.5414154,12.2775415 16.0803692,17.0908338 12.3422769,21.12468 C12.1668923,21.2919415 11.9649231,21.3174185 11.8585846,21.3174185 C11.7529846,21.3174185 11.5539692,21.29268 11.3785846,21.1305877 C10.4676923,20.1174185 3.86584615,12.7767415 3.09821538,12.0098492 C2.07101538,10.9844954 1.50572308,9.62240308 1.50572308,8.17354154 C1.50609231,6.72541846 2.07138462,5.36443385 3.09895385,4.33944923 C4.09809231,3.34104923 5.26781538,2.94818769 6.67458462,2.94818769 C7.39864615,2.94818769 8.70756923,3.29452615 10.8306462,5.38511077 L11.8829538,6.42154154 L12.9197538,5.36886462 C14.3937231,3.87126462 15.9622154,2.94080308 17.0130462,2.94080308 C18.4301538,2.94080308 19.5470769,3.42560308 20.6363077,4.51224923 C21.6624,5.53649538 22.2276923,6.89748 22.2276923,8.34560308 C22.2284308,9.79446462 21.6631385,11.1569262 20.6259692,12.19188 M17.0130462,1.46388 C15.2676923,1.46388 13.3207385,2.85588 11.8670769,4.33280308 C10.3668923,2.85588 8.48012308,1.47126462 6.67458462,1.47126462 C4.90855385,1.47126462 3.35150769,1.99963385 2.05513846,3.29452615 C-0.646523077,5.98917231 -0.646523077,10.3590185 2.05513846,13.0551415 C2.82646154,13.8260954 10.3133538,22.1544646 10.3133538,22.1544646 C10.7401846,22.5816646 11.2999385,22.7943415 11.8585846,22.7943415 C12.4172308,22.7943415 12.9758769,22.5816646 13.4023385,22.1544646 C13.4023385,22.1544646 21.5915077,13.3161877 21.6790154,13.2275723 C24.3803077,10.53108 24.3803077,6.16123385 21.6790154,3.46658769 C20.3383385,2.12812615 18.8396308,1.46388 17.0130462,1.46388" id="path-1"></path>
    </defs>
    <g id="Page-1" stroke="none" stroke-width="1" fill="none" fill-rule="evenodd">
        <g id="C3p-icon-pack" transform="translate(-117.000000, -309.000000)">
            <g id="Group" transform="translate(63.000000, 86.000000)">
                <g id="c3p-heart" transform="translate(54.000000, 223.000000)">
                    <mask id="mask-2" fill="white">
                        <use xlink:href="#path-1"></use>
                    </mask>
                    <use id="Mask" fill="#000000" xlink:href="#path-1"></use>
                </g>
            </g>
        </g>
    </g>
</svg>