<?xml version="1.0" encoding="UTF-8"?>
<svg width="24px" height="24px" viewBox="0 0 24 24" version="1.1" xmlns="http://www.w3.org/2000/svg" xmlns:xlink="http://www.w3.org/1999/xlink">
    <!-- Generator: Sketch 52.4 (67378) - http://www.bohemiancoding.com/sketch -->
    <title>c3p-notification</title>
    <desc>Created with Sketch.</desc>
    <defs>
        <path d="M4.3335082,17.3097443 C5.23409836,16.0987279 6.73862295,14.3907934 6.73862295,12.3795148 L6.73862295,7.55394098 C6.73862295,4.26318689 9.11855738,1.58699016 12.2247869,1.58699016 C15.330623,1.58699016 17.7345574,4.26318689 17.7345574,7.55394098 L17.7345574,12.3795148 C17.7345574,14.458859 19.1222295,16.1963016 20.1357377,17.4289574 C20.3064918,17.6366951 20.5106885,17.8853508 20.6696393,18.0974164 C20.6228197,18.0989902 20.5712787,18.099777 20.5154098,18.099777 L4.06163934,18.099777 C3.94832787,18.099777 3.85390164,18.0966295 3.77560656,18.0911213 C3.92786885,17.8554492 4.15134426,17.5544656 4.3335082,17.3097443 M12.2377705,22.0652852 C10.9158033,22.0652852 9.84445902,20.9947279 9.8424918,19.6735475 L14.6330492,19.6735475 C14.631082,20.9947279 13.5593443,22.0652852 12.2377705,22.0652852 M4.06163934,19.6735475 L8.2962623,19.6735475 C8.29744262,21.8500721 10.0624262,23.6138754 12.2389508,23.6138754 C14.415082,23.6138754 16.1796721,21.8500721 16.1808525,19.6735475 L20.5154098,19.6735475 C20.9655082,19.6735475 22.0199344,19.6735475 22.3826885,18.9067279 C22.749377,18.1296787 22.1627541,17.4167607 21.3514754,16.4300066 C20.4894426,15.3810885 19.3083279,13.8950557 19.3083279,12.3795148 L19.3083279,7.55394098 C19.3083279,3.3956459 16.1981639,0.0132196721 12.2247869,0.0132196721 C8.25022951,0.0132196721 5.16485246,3.3956459 5.16485246,7.55394098 L5.16485246,12.3795148 C5.16485246,13.869482 3.88301639,15.2780066 3.07095082,16.3709902 C2.34032787,17.3526295 1.76314754,18.1284984 2.15265574,18.9035803 C2.49534426,19.5858098 3.35304918,19.6735475 4.06163934,19.6735475" id="path-1"></path>
    </defs>
    <g id="Page-1" stroke="none" stroke-width="1" fill="none" fill-rule="evenodd">
        <g id="C3p-icon-pack" transform="translate(-1449.000000, -194.000000)">
            <g id="Group" transform="translate(63.000000, 86.000000)">
                <g id="c3p-notification" transform="translate(1386.000000, 108.000000)">
                    <mask id="mask-2" fill="white">
                        <use xlink:href="#path-1"></use>
                    </mask>
                    <use id="Mask" fill="#000000" xlink:href="#path-1"></use>
                </g>
            </g>
        </g>
    </g>
</svg>