<?xml version="1.0" encoding="UTF-8"?>
<svg width="24px" height="24px" viewBox="0 0 24 24" version="1.1" xmlns="http://www.w3.org/2000/svg" xmlns:xlink="http://www.w3.org/1999/xlink">
    <!-- Generator: Sketch 52.4 (67378) - http://www.bohemiancoding.com/sketch -->
    <title>c3p-user-female</title>
    <desc>Created with Sketch.</desc>
    <defs>
        <path d="M1.49593846,22.1538831 L1.49593846,20.2652677 C1.49593846,20.1866215 1.77507692,19.9975754 2.00215385,19.9111754 C2.05126154,19.8938215 2.08153846,19.88016 2.12769231,19.8576369 L8.55452308,16.8100062 C9.06516923,16.5685292 9.39267692,16.0556677 9.39895385,15.4911138 C9.40486154,14.92656 9.0888,14.4074215 8.58406154,14.1541292 C8.08375385,13.9030523 7.42246154,13.7789908 6.38603077,13.5995446 C6.14012308,13.5563446 5.80412308,13.4957908 5.47809231,13.4308062 C5.90086154,12.4822523 6.36793846,11.1552369 6.55181538,9.65468308 C6.59723077,9.28139077 6.65593846,8.86046769 6.72055385,8.39486769 C6.83243077,7.60286769 6.97089231,6.59782154 7.10713846,5.39006769 C7.36486154,3.10822154 9.30590769,1.47696 11.8284923,1.47696 L11.8403077,1.47696 C14.3628923,1.47696 16.3039385,3.10822154 16.5616615,5.39006769 C16.6979077,6.59782154 16.8363692,7.60286769 16.9482462,8.39486769 C17.0128615,8.86046769 17.0715692,9.28139077 17.1169846,9.65468308 C17.3008615,11.1552369 17.7679385,12.4822523 18.1907077,13.4308062 C17.8646769,13.4957908 17.5286769,13.5563446 17.2827692,13.5995446 C16.2463385,13.7789908 15.5850462,13.9030523 15.0847385,14.1541292 C14.58,14.4074215 14.2639385,14.92656 14.2698462,15.4911138 C14.2761231,16.0556677 14.6036308,16.5685292 15.1142769,16.8100062 L21.5411077,19.8576369 C21.5872615,19.88016 21.6175385,19.8938215 21.6666462,19.9111754 C21.8937231,19.9975754 22.1396308,20.1866215 22.1728615,20.2652677 L22.1736,22.1538831 L1.49593846,22.1538831 Z M22.1736,18.5236062 L15.7467692,15.4759754 C16.6041231,15.0461908 19.9523077,14.9099446 20.2292308,14.1541292 C20.2292308,14.1541292 18.9059077,12.1229908 18.5828308,9.48446769 C18.4576615,8.46059077 18.2424,7.11696 18.0289846,5.22465231 C17.6830154,2.15560615 15.1013538,3.69230769e-05 11.8403077,3.69230769e-05 L11.8284923,3.69230769e-05 C8.56744615,3.69230769e-05 5.98578462,2.15560615 5.63981538,5.22465231 C5.4264,7.11696 5.21150769,8.46059077 5.08596923,9.48446769 C4.76289231,12.1229908 3.43956923,14.1541292 3.43956923,14.1541292 C3.71649231,14.9099446 7.06467692,15.0461908 7.92203077,15.4759754 L1.4952,18.5236062 C1.4952,18.5236062 0.0190153846,19.0420062 0.0190153846,20.2652677 L0.0190153846,22.2159138 C0.0190153846,23.0322831 0.679569231,23.6308062 1.4952,23.6308062 L22.1736,23.6308062 C22.9892308,23.6308062 23.6497846,23.0322831 23.6497846,22.2159138 L23.6497846,20.2652677 C23.6497846,19.0420062 22.1736,18.5236062 22.1736,18.5236062 Z" id="path-1"></path>
    </defs>
    <g id="Page-1" stroke="none" stroke-width="1" fill="none" fill-rule="evenodd">
        <g id="C3p-icon-pack" transform="translate(-279.000000, -255.000000)">
            <g id="Group" transform="translate(63.000000, 86.000000)">
                <g id="c3p-user-female" transform="translate(216.000000, 169.000000)">
                    <mask id="mask-2" fill="white">
                        <use xlink:href="#path-1"></use>
                    </mask>
                    <use id="Mask" fill="#000000" xlink:href="#path-1"></use>
                </g>
            </g>
        </g>
    </g>
</svg>