<?xml version="1.0" encoding="UTF-8"?>
<svg width="24px" height="24px" viewBox="0 0 24 24" version="1.1" xmlns="http://www.w3.org/2000/svg" xmlns:xlink="http://www.w3.org/1999/xlink">
    <!-- Generator: Sketch 52.4 (67378) - http://www.bohemiancoding.com/sketch -->
    <title>c3p-compass</title>
    <desc>Created with Sketch.</desc>
    <g id="Page-1" stroke="none" stroke-width="1" fill="none" fill-rule="evenodd">
        <g id="C3p-icon-pack" transform="translate(-897.000000, -255.000000)" fill="#000000">
            <g id="Group" transform="translate(63.000000, 86.000000)">
                <g id="c3p-compass" transform="translate(834.000000, 169.000000)">
                    <path d="M10.2764308,11.5667446 L8.26855385,15.6670523 L12.3042462,14.1048369 L10.2764308,11.5667446 Z M15.5339077,9.06483692 L11.4539077,10.6743138 L13.5031385,13.23936 L15.5339077,9.06483692 Z M6.70855385,17.8890831 C6.52615385,17.8890831 6.3456,17.8167138 6.21156923,17.6804677 C6.00258462,17.4670523 5.95347692,17.1439754 6.08898462,16.8781292 L9.39950769,10.2039138 C9.46670769,10.0724677 9.57267692,9.96649846 9.70301538,9.90003692 L16.9299692,6.79296 C17.2017231,6.65449846 17.5336615,6.70877538 17.7463385,6.92920615 C17.9582769,7.14926769 18.0022154,7.48231385 17.8537846,7.75000615 L14.3719385,14.6014523 C14.3025231,14.7269908 14.1958154,14.8277908 14.0669538,14.8898215 L7.01132308,17.8196677 C6.91495385,17.86656 6.81083077,17.8890831 6.70855385,17.8890831 Z M11.8254646,1.80214154 C6.12491077,1.80214154 1.48700308,6.44004923 1.48700308,12.1406031 C1.48700308,17.8415262 6.12491077,22.5023262 11.8254646,22.5023262 C17.5260185,22.5023262 22.1639262,17.8415262 22.1639262,12.1406031 C22.1639262,6.44004923 17.5260185,1.80214154 11.8254646,1.80214154 Z M11.8254646,23.9559877 C5.30004923,23.9559877 0.01008,18.6663877 0.01008,12.1406031 C0.01008,5.61555692 5.30004923,0.325218462 11.8254646,0.325218462 C18.3512492,0.325218462 23.6408492,5.61555692 23.6408492,12.1406031 C23.6408492,18.6663877 18.3512492,23.9559877 11.8254646,23.9559877 Z" id="Shape"></path>
                </g>
            </g>
        </g>
    </g>
</svg>