<?xml version="1.0" encoding="UTF-8"?>
<svg width="24px" height="24px" viewBox="0 0 24 24" version="1.1" xmlns="http://www.w3.org/2000/svg" xmlns:xlink="http://www.w3.org/1999/xlink">
    <!-- Generator: Sketch 52.4 (67378) - http://www.bohemiancoding.com/sketch -->
    <title>c3p-clock</title>
    <desc>Created with Sketch.</desc>
    <g id="Page-1" stroke="none" stroke-width="1" fill="none" fill-rule="evenodd">
        <g id="C3p-icon-pack" transform="translate(-63.000000, -255.000000)" fill="#000000">
            <g id="Group" transform="translate(63.000000, 86.000000)">
                <g id="c3p-clock" transform="translate(0.000000, 169.000000)">
                    <path d="M12.5728615,11.5156062 L16.0584,15.0011446 C16.3467692,15.2895138 16.3467692,15.7573292 16.0584,16.0456985 C15.7700308,16.3336985 15.3025846,16.3336985 15.0138462,16.0456985 L11.3588308,12.3903138 C11.3451692,12.3766523 11.3352,12.3607754 11.3230154,12.3463754 C11.1834462,12.2119754 11.0959385,12.0240369 11.0959385,11.8154215 L11.0959385,4.43080615 C11.0959385,4.02317538 11.4267692,3.69234462 11.8344,3.69234462 C12.2420308,3.69234462 12.5728615,4.02317538 12.5728615,4.43080615 L12.5728615,11.5156062 Z M11.8344,22.17696 C17.5349538,22.17696 22.1728615,17.51616 22.1728615,11.8156062 C22.1728615,6.11468308 17.5349538,1.47677538 11.8344,1.47677538 C6.13384615,1.47677538 1.49593846,6.11468308 1.49593846,11.8156062 C1.49593846,17.51616 6.13384615,22.17696 11.8344,22.17696 Z M11.8344,-0.000147692308 C18.3601846,-0.000147692308 23.6497846,5.29019077 23.6497846,11.8156062 C23.6497846,18.3410215 18.3601846,23.6309908 11.8344,23.6309908 C5.30898462,23.6309908 0.0190153846,18.3410215 0.0190153846,11.8156062 C0.0190153846,5.29019077 5.30898462,-0.000147692308 11.8344,-0.000147692308 Z" id="Shape"></path>
                </g>
            </g>
        </g>
    </g>
</svg>