<?xml version="1.0" encoding="UTF-8"?>
<svg width="24px" height="24px" viewBox="0 0 24 24" version="1.1" xmlns="http://www.w3.org/2000/svg" xmlns:xlink="http://www.w3.org/1999/xlink">
    <!-- Generator: Sketch 52.4 (67378) - http://www.bohemiancoding.com/sketch -->
    <title>c3p-plus-circle</title>
    <desc>Created with Sketch.</desc>
    <g id="Page-1" stroke="none" stroke-width="1" fill="none" fill-rule="evenodd">
        <g id="C3p-icon-pack" transform="translate(-117.000000, -93.000000)" fill="#000000">
            <g id="Group" transform="translate(63.000000, 86.000000)">
                <g id="c3p-plus-circle" transform="translate(54.000000, 7.000000)">
                    <path d="M11.8344,1.47696 C6.13384615,1.47696 1.49593846,6.11486769 1.49593846,11.8154215 C1.49593846,17.5159754 6.13384615,22.1771446 11.8344,22.1771446 C17.5349538,22.1771446 22.1728615,17.5159754 22.1728615,11.8154215 C22.1728615,6.11486769 17.5349538,1.47696 11.8344,1.47696 Z M11.8344,23.6308062 C5.30898462,23.6308062 0.0190153846,18.3412062 0.0190153846,11.8154215 C0.0190153846,5.29000615 5.30898462,3.69230769e-05 11.8344,3.69230769e-05 C18.3601846,3.69230769e-05 23.6497846,5.29000615 23.6497846,11.8154215 C23.6497846,18.3412062 18.3601846,23.6308062 11.8344,23.6308062 Z M6.66516923,12.5538831 C6.25753846,12.5538831 5.92670769,12.2230523 5.92670769,11.8154215 C5.92670769,11.4077908 6.25753846,11.07696 6.66516923,11.07696 L11.0959385,11.07696 L11.0959385,6.64619077 C11.0959385,6.23856 11.4267692,5.90772923 11.8344,5.90772923 C12.2420308,5.90772923 12.5728615,6.23856 12.5728615,6.64619077 L12.5728615,11.07696 L17.0036308,11.07696 C17.4112615,11.07696 17.7420923,11.4077908 17.7420923,11.8154215 C17.7420923,12.2230523 17.4112615,12.5538831 17.0036308,12.5538831 L12.5728615,12.5538831 L12.5728615,16.9846523 C12.5728615,17.3922831 12.2420308,17.7231138 11.8344,17.7231138 C11.4267692,17.7231138 11.0959385,17.3922831 11.0959385,16.9846523 L11.0959385,12.5538831 L6.66516923,12.5538831 Z" id="Shape"></path>
                </g>
            </g>
        </g>
    </g>
</svg>