<?xml version="1.0" encoding="UTF-8"?>
<svg width="24px" height="24px" viewBox="0 0 24 24" version="1.1" xmlns="http://www.w3.org/2000/svg" xmlns:xlink="http://www.w3.org/1999/xlink">
    <!-- Generator: Sketch 52.4 (67378) - http://www.bohemiancoding.com/sketch -->
    <title>c3p-target</title>
    <desc>Created with Sketch.</desc>
    <defs>
        <path d="M12.5728615,11.07696 L12.5728615,4.46699077 C16.0620923,4.81369846 18.8368615,7.58772923 19.1832,11.07696 L12.5728615,11.07696 Z M12.5728615,19.1638523 L12.5728615,12.5538831 L19.1832,12.5538831 C18.8368615,16.0431138 16.0620923,18.8171446 12.5728615,19.1638523 Z M11.0959385,11.07696 L4.4856,11.07696 C4.83193846,7.58772923 7.60670769,4.81369846 11.0959385,4.46699077 L11.0959385,11.07696 Z M11.0959385,19.1638523 C7.60670769,18.8171446 4.83193846,16.0431138 4.4856,12.5538831 L11.0959385,12.5538831 L11.0959385,19.1638523 Z M22.9113231,11.07696 L20.6627077,11.07696 C20.3075077,6.77283692 16.8766154,3.34526769 12.5728615,2.98932923 L12.5728615,0.738498462 C12.5728615,0.330867692 12.2420308,3.69230769e-05 11.8344,3.69230769e-05 C11.4267692,3.69230769e-05 11.0959385,0.330867692 11.0959385,0.738498462 L11.0959385,2.98932923 C6.79218462,3.34526769 3.36129231,6.77283692 3.00572308,11.07696 L0.757476923,11.07696 C0.349846154,11.07696 0.0190153846,11.4077908 0.0190153846,11.8154215 C0.0190153846,12.2230523 0.349846154,12.5538831 0.757476923,12.5538831 L3.00572308,12.5538831 C3.36129231,16.8580062 6.79218462,20.2855754 11.0959385,20.6415138 L11.0959385,22.8923446 C11.0959385,23.2999754 11.4267692,23.6308062 11.8344,23.6308062 C12.2420308,23.6308062 12.5728615,23.2999754 12.5728615,22.8923446 L12.5728615,20.6415138 C16.8766154,20.2855754 20.3071385,16.8580062 20.6627077,12.5538831 L22.9113231,12.5538831 C23.3189538,12.5538831 23.6497846,12.2230523 23.6497846,11.8154215 C23.6497846,11.4077908 23.3189538,11.07696 22.9113231,11.07696 Z" id="path-1"></path>
    </defs>
    <g id="Page-1" stroke="none" stroke-width="1" fill="none" fill-rule="evenodd">
        <g id="C3p-icon-pack" transform="translate(-279.000000, -417.000000)">
            <g id="Group" transform="translate(63.000000, 86.000000)">
                <g id="c3p-target" transform="translate(216.000000, 331.000000)">
                    <mask id="mask-2" fill="white">
                        <use xlink:href="#path-1"></use>
                    </mask>
                    <use id="Mask" fill="#000000" xlink:href="#path-1"></use>
                </g>
            </g>
        </g>
    </g>
</svg>