<?xml version="1.0" encoding="UTF-8"?>
<svg width="24px" height="24px" viewBox="0 0 24 24" version="1.1" xmlns="http://www.w3.org/2000/svg" xmlns:xlink="http://www.w3.org/1999/xlink">
    <!-- Generator: Sketch 52.4 (67378) - http://www.bohemiancoding.com/sketch -->
    <title>c3p-documents</title>
    <desc>Created with Sketch.</desc>
    <g id="Page-1" stroke="none" stroke-width="1" fill="none" fill-rule="evenodd">
        <g id="C3p-icon-pack" transform="translate(-1005.000000, -417.000000)" fill="#000000">
            <g id="Group" transform="translate(63.000000, 86.000000)">
                <g id="c3p-documents" transform="translate(942.000000, 331.000000)">
                    <path d="M17.7331569,6.23309538 L21.5517415,6.23309538 L17.7331569,2.41377231 L17.7331569,6.23309538 Z M9.61008,0.325403077 L17.7331569,0.325403077 L23.6408492,6.23346462 L23.6408492,19.5254031 C23.6408492,20.3410338 22.9795569,21.0023262 22.1639262,21.0023262 L16.9946954,21.0023262 L16.9946954,19.5254031 L22.1639262,19.5254031 L22.1639262,7.71001846 L16.2562338,7.71001846 L16.2562338,1.80232615 L8.13315692,1.80232615 C8.13315692,0.986695385 8.79444923,0.325403077 9.61008,0.325403077 Z M1.48700308,4.75617231 L1.48700308,22.4792492 L14.0408492,22.4792492 L14.0408492,10.6638646 L8.13315692,10.6638646 L8.13315692,4.75617231 L1.48700308,4.75617231 Z M9.61008,5.36761846 L9.61008,9.18694154 L13.4286646,9.18694154 L9.61008,5.36761846 Z M14.0408492,23.9561723 L1.48700308,23.9561723 C0.671372308,23.9561723 0.01008,23.29488 0.01008,22.4792492 L0.01008,4.75617231 C0.01008,3.94054154 0.671372308,3.27924923 1.48700308,3.27924923 L9.61008,3.27924923 L15.5177723,9.18731077 L15.5177723,22.4792492 C15.5177723,23.29488 14.85648,23.9561723 14.0408492,23.9561723 Z" id="Shape"></path>
                </g>
            </g>
        </g>
    </g>
</svg>