<?xml version="1.0" encoding="UTF-8"?>
<svg width="24px" height="24px" viewBox="0 0 24 24" version="1.1" xmlns="http://www.w3.org/2000/svg" xmlns:xlink="http://www.w3.org/1999/xlink">
    <!-- Generator: Sketch 52.4 (67378) - http://www.bohemiancoding.com/sketch -->
    <title>c3p-arrow-right-jump</title>
    <desc>Created with Sketch.</desc>
    <defs>
        <path d="M14.0704246,17.192 L14.0704246,13.7673846 C14.0704246,13.5709538 13.9925169,13.3830154 13.8533169,13.2445538 C13.7148554,13.1068308 13.5272862,13.0289231 13.3319631,13.0289231 L13.3304862,13.0289231 C5.94070154,13.0329846 3.11682462,15.5282462 1.50439385,17.7321846 C1.73996308,15.9668923 2.42894769,13.8386462 3.92728615,12.1006769 C5.92002462,9.79076923 9.12974769,8.57341538 13.3319631,8.57341538 C13.7399631,8.57341538 14.0704246,8.24332308 14.0704246,7.83495385 L14.0704246,4.51704615 L21.7419323,10.8249846 L14.0704246,17.192 Z M13.7986708,2.39027692 C13.5778708,2.21009231 13.2728862,2.17538462 13.0155323,2.29575385 C12.7578092,2.41833846 12.5935015,2.67790769 12.5935015,2.96295385 L12.5706092,7.10793846 C8.27867077,7.24455385 4.95522462,8.62473846 2.80113231,11.1458462 C-0.705452308,15.2483692 0.0773169231,21.2110769 0.113870769,21.4592 C0.168886154,21.8210462 0.433993846,22.0872615 0.798424615,22.0872615 C0.806178462,22.0872615 0.81504,22.0872615 0.823532308,22.0865231 C1.19719385,22.0743385 1.43276308,21.7844923 1.46451692,21.4123077 C1.48999385,21.1383385 2.22550154,14.5099077 12.5706092,14.5172923 L12.5935015,18.7553231 C12.5935015,19.0411077 12.7578092,19.3014154 13.01664,19.4232615 C13.2728862,19.5458462 13.5808246,19.5081846 13.8008862,19.3257846 L23.3768862,11.3924923 C23.5485785,11.2518154 23.6471631,11.0420923 23.6467938,10.8205538 C23.6460554,10.5993846 23.5463631,10.3892923 23.3746708,10.2493538 L13.7986708,2.39027692 Z" id="path-1"></path>
    </defs>
    <g id="Page-1" stroke="none" stroke-width="1" fill="none" fill-rule="evenodd">
        <g id="C3p-icon-pack" transform="translate(-951.000000, -147.000000)">
            <g id="Group" transform="translate(63.000000, 86.000000)">
                <g id="c3p-arrow-right-jump" transform="translate(888.000000, 61.000000)">
                    <mask id="mask-2" fill="white">
                        <use xlink:href="#path-1"></use>
                    </mask>
                    <use id="Mask" fill="#000000" xlink:href="#path-1"></use>
                </g>
            </g>
        </g>
    </g>
</svg>