<?xml version="1.0" encoding="UTF-8"?>
<svg width="24px" height="24px" viewBox="0 0 24 24" version="1.1" xmlns="http://www.w3.org/2000/svg" xmlns:xlink="http://www.w3.org/1999/xlink">
    <!-- Generator: Sketch 52.4 (67378) - http://www.bohemiancoding.com/sketch -->
    <title>c3p-help</title>
    <desc>Created with Sketch.</desc>
    <defs>
        <path d="M16.9563692,8.86308923 C16.4390769,7.97435077 15.6965538,7.23219692 14.8070769,6.71564308 L14.8070769,1.91675077 C18.1349538,2.90850462 20.7528,5.53484308 21.7464,8.86308923 L16.9563692,8.86308923 Z M22.1846769,11.8206277 C22.1846769,12.3213046 22.1418462,12.8116431 22.0728,13.2938585 L17.5644923,13.2938585 C17.6863385,12.8230892 17.7531692,12.3301662 17.7531692,11.8209969 C17.7531692,11.3088738 17.6856,10.8129969 17.5630154,10.3400123 L22.0720615,10.3400123 C22.1414769,10.8244431 22.1846769,11.3169969 22.1846769,11.8206277 Z M14.8070769,21.7241354 L14.8070769,16.9259815 C15.6991385,16.4079508 16.4431385,15.6628431 16.9608,14.7707815 L21.7486154,14.7707815 C20.7564923,18.1019815 18.1375385,20.7320123 14.8070769,21.7241354 Z M13.3301538,22.0486892 C12.8475692,22.1173662 12.3546462,22.1553969 11.8532308,22.1553969 C11.3514462,22.1553969 10.8585231,22.1173662 10.3763077,22.0486892 L10.3763077,17.5307815 C10.8489231,17.6529969 11.3422154,17.7246277 11.8532308,17.7246277 C12.3638769,17.7246277 12.8571692,17.6529969 13.3301538,17.5307815 L13.3301538,22.0486892 Z M8.89938462,21.7241354 C5.56892308,20.7320123 2.9496,18.1019815 1.95784615,14.7707815 L6.74566154,14.7707815 C7.26332308,15.6628431 8.00695385,16.4079508 8.89938462,16.9259815 L8.89938462,21.7241354 Z M1.52178462,11.8206277 C1.52178462,11.3169969 1.56461538,10.8244431 1.63403077,10.3400123 L6.14344615,10.3400123 C6.02049231,10.8129969 5.95329231,11.3088738 5.95329231,11.8209969 C5.95329231,12.3301662 6.02012308,12.8230892 6.1416,13.2938585 L1.63329231,13.2938585 C1.56424615,12.8116431 1.52178462,12.3213046 1.52178462,11.8206277 Z M8.89938462,1.91675077 L8.89938462,6.71564308 C8.00953846,7.23219692 7.26738462,7.97435077 6.74972308,8.86308923 L1.96006154,8.86308923 C2.95366154,5.53484308 5.57113846,2.90850462 8.89938462,1.91675077 Z M16.2751385,11.8217354 C16.2751385,14.2664123 14.2953231,16.2480738 11.8532308,16.2480738 C9.41076923,16.2480738 7.43095385,14.2664123 7.43095385,11.8217354 C7.43095385,9.37705846 9.41076923,7.39502769 11.8532308,7.39502769 C14.2953231,7.39502769 16.2751385,9.37705846 16.2751385,11.8217354 Z M10.3763077,1.59256615 C10.8585231,1.52315077 11.3514462,1.48548923 11.8532308,1.48548923 C12.3546462,1.48548923 12.8475692,1.52315077 13.3301538,1.59256615 L13.3301538,6.11084308 C12.8571692,5.98862769 12.3638769,5.91699692 11.8532308,5.91699692 C11.3422154,5.91699692 10.8489231,5.98862769 10.3763077,6.11084308 L10.3763077,1.59256615 Z M11.8532308,0.00155076923 C5.32781538,0.00155076923 0.0378461538,5.29115077 0.0378461538,11.8169354 C0.0378461538,18.3423508 5.32781538,23.63232 11.8532308,23.63232 C18.3786462,23.63232 23.6686154,18.3423508 23.6686154,11.8169354 C23.6686154,5.29115077 18.3786462,0.00155076923 11.8532308,0.00155076923 Z" id="path-1"></path>
    </defs>
    <g id="Page-1" stroke="none" stroke-width="1" fill="none" fill-rule="evenodd">
        <g id="C3p-icon-pack" transform="translate(-507.000000, -471.000000)">
            <g id="Group" transform="translate(63.000000, 86.000000)">
                <g id="c3p-help" transform="translate(444.000000, 385.000000)">
                    <mask id="mask-2" fill="white">
                        <use xlink:href="#path-1"></use>
                    </mask>
                    <use id="Mask" fill="#000000" xlink:href="#path-1"></use>
                </g>
            </g>
        </g>
    </g>
</svg>