<?xml version="1.0" encoding="UTF-8"?>
<svg width="24px" height="24px" viewBox="0 0 24 24" version="1.1" xmlns="http://www.w3.org/2000/svg" xmlns:xlink="http://www.w3.org/1999/xlink">
    <!-- Generator: Sketch 52.4 (67378) - http://www.bohemiancoding.com/sketch -->
    <title>c3p-user-male</title>
    <desc>Created with Sketch.</desc>
    <defs>
        <path d="M1.49881846,20.6499323 C1.49881846,20.0628554 1.93931077,19.8786092 2.11543385,19.7973785 L8.60060308,16.7368246 C9.06583385,16.5234092 9.38669538,16.0836554 9.44909538,15.5759631 C9.51186462,15.0682708 9.30694154,14.5642708 8.90780308,14.2437785 C7.37364923,13.0120246 6.65918769,10.3044554 6.65918769,8.86260923 L6.65918769,5.17214769 C6.65918769,3.62913231 9.34534154,1.48316308 11.8310031,1.48316308 C14.3388185,1.48316308 16.9987569,3.59553231 16.9987569,5.17214769 L16.9987569,8.86260923 C16.9987569,10.28304 16.4079877,13.0005785 14.8236185,14.2482092 C14.41968,14.5661169 14.2099569,15.0719631 14.2705108,15.58224 C14.3310646,16.0936246 14.6534031,16.5355938 15.1208492,16.7504862 L21.54768,19.7981169 C21.5978954,19.8210092 22.1635569,19.9162708 22.1635569,20.7060554 L22.1642954,22.1479015 L1.49881846,22.14864 L1.49881846,20.6499323 Z M0.0218953846,19.9325169 L0.0218953846,22.14864 C0.0218953846,22.9642708 0.682818462,23.6248246 1.49771077,23.6248246 L22.1642954,23.6248246 C22.9799262,23.6248246 23.64048,22.9642708 23.64048,22.14864 L23.64048,19.9325169 C23.64048,19.0648246 22.1642954,18.4563323 22.1642954,18.4563323 L15.7374646,15.4087015 C17.7833723,13.7981169 18.47568,10.6352862 18.47568,8.86260923 L18.47568,5.17214769 C18.47568,2.72784 15.09168,0.00624 11.8310031,0.00624 C8.56995692,0.00624 5.18226462,2.72784 5.18226462,5.17214769 L5.18226462,8.86260923 C5.18226462,10.47504 5.91814154,13.7375631 7.98324923,15.3957785 L1.49771077,18.4563323 C1.49771077,18.4563323 0.0218953846,19.1139323 0.0218953846,19.9325169 Z" id="path-1"></path>
    </defs>
    <g id="Page-1" stroke="none" stroke-width="1" fill="none" fill-rule="evenodd">
        <g id="C3p-icon-pack" transform="translate(-225.000000, -255.000000)">
            <g id="Group" transform="translate(63.000000, 86.000000)">
                <g id="c3p-user-male" transform="translate(162.000000, 169.000000)">
                    <mask id="mask-2" fill="white">
                        <use xlink:href="#path-1"></use>
                    </mask>
                    <use id="Mask" fill="#000000" xlink:href="#path-1"></use>
                </g>
            </g>
        </g>
    </g>
</svg>