<?xml version="1.0" encoding="UTF-8"?>
<svg width="24px" height="24px" viewBox="0 0 24 24" version="1.1" xmlns="http://www.w3.org/2000/svg" xmlns:xlink="http://www.w3.org/1999/xlink">
    <!-- Generator: Sketch 52.4 (67378) - http://www.bohemiancoding.com/sketch -->
    <title>c3p-logout</title>
    <desc>Created with Sketch.</desc>
    <g id="Page-1" stroke="none" stroke-width="1" fill="none" fill-rule="evenodd">
        <g id="C3p-icon-pack" transform="translate(-669.000000, -147.000000)" fill="#000000">
            <g id="Group" transform="translate(63.000000, 86.000000)">
                <g id="c3p-logout" transform="translate(606.000000, 61.000000)">
                    <path d="M16.2752123,11.8089969 C16.2752123,12.2166277 15.94512,12.5474585 15.5367508,12.5474585 L2.74216615,12.5474585 L5.45933538,15.2646277 C5.74770462,15.5533662 5.74770462,16.0204431 5.45933538,16.3091815 C5.31496615,16.4531815 5.12628923,16.5251815 4.93724308,16.5251815 C4.74819692,16.5251815 4.55952,16.4531815 4.41515077,16.3091815 L0.0530584615,11.8318892 L4.41515077,7.35496615 C4.70352,7.06622769 5.17096615,7.06622769 5.45933538,7.35496615 C5.74770462,7.64333538 5.74770462,8.11041231 5.45933538,8.39915077 L2.78795077,11.0705354 L15.5367508,11.0705354 C15.94512,11.0705354 16.2752123,11.4013662 16.2752123,11.8089969 Z M9.63806769,23.6321354 C8.82206769,23.6321354 8.16114462,22.9708431 8.16114462,22.1552123 L8.16114462,15.4865354 L9.64766769,15.4846892 L9.64766769,21.2627815 C9.64766769,21.7557046 10.0479138,22.1559508 10.5412062,22.1559508 L21.2884062,22.1559508 C21.7820677,22.1559508 22.1819446,21.7557046 22.1819446,21.2627815 L22.1586831,2.37921231 C22.1586831,1.88592 21.7588062,1.48567385 21.2651446,1.48567385 L10.5412062,1.48567385 C10.0479138,1.48567385 9.64766769,1.88592 9.64766769,2.37921231 L9.64766769,8.12444308 L8.16114462,8.12444308 L8.16114462,1.47828923 C8.16114462,0.662658462 8.82206769,0.00136615385 9.63806769,0.00136615385 L22.1915446,0.00136615385 C23.0075446,0.00136615385 23.6688369,0.662658462 23.6688369,1.47828923 L23.6688369,22.1552123 C23.6688369,22.9708431 23.0075446,23.6321354 22.1915446,23.6321354 L9.63806769,23.6321354 Z" id="Shape"></path>
                </g>
            </g>
        </g>
    </g>
</svg>