<?xml version="1.0" encoding="UTF-8"?>
<svg width="24px" height="24px" viewBox="0 0 24 24" version="1.1" xmlns="http://www.w3.org/2000/svg" xmlns:xlink="http://www.w3.org/1999/xlink">
    <!-- Generator: Sketch 52.4 (67378) - http://www.bohemiancoding.com/sketch -->
    <title>c3p-arrow-ne-circle</title>
    <desc>Created with Sketch.</desc>
    <g id="Page-1" stroke="none" stroke-width="1" fill="none" fill-rule="evenodd">
        <g id="C3p-icon-pack" transform="translate(-1785.000000, -248.000000)" fill="#000000">
            <g id="Group" transform="translate(63.000000, 86.000000)">
                <g id="c3p-arrow-ne-circle" transform="translate(1722.000000, 162.000000)">
                    <path d="M11.85312,22.1784738 C17.5536738,22.1784738 22.1915815,17.5176738 22.1915815,11.81712 C22.1915815,6.11619692 17.5536738,1.47828923 11.85312,1.47828923 C6.15256615,1.47828923 1.51465846,6.11619692 1.51465846,11.81712 C1.51465846,17.5176738 6.15256615,22.1784738 11.85312,22.1784738 Z M23.6685046,11.81712 C23.6685046,18.3425354 18.3785354,23.6325046 11.85312,23.6325046 C5.32733538,23.6325046 0.0377353846,18.3425354 0.0377353846,11.81712 C0.0377353846,5.29170462 5.32733538,0.00136615385 11.85312,0.00136615385 C18.3785354,0.00136615385 23.6685046,5.29170462 23.6685046,11.81712 Z M14.8261641,10.0366759 L8.74894579,16.1138942 C8.4682244,16.3946156 8.00789789,16.3924943 7.72434807,16.1089445 C7.44362668,15.8282231 7.44433378,15.370725 7.72434807,15.0892965 L13.8022735,9.01137105 L9.58226026,9.01137105 C9.39134143,9.01137105 9.21032209,8.93641774 9.07385048,8.79994613 C8.93596466,8.6620603 8.86171845,8.48174808 8.86101134,8.29012214 C8.86101134,8.09496067 8.93737887,7.9111129 9.07385048,7.77464129 C9.21244341,7.63604837 9.39629117,7.56109505 9.5865029,7.56463058 L15.5488273,7.56463058 C15.7432816,7.56109505 15.9264223,7.63534126 16.0643081,7.77322708 C16.202901,7.91182001 16.2771473,8.09496067 16.2736117,8.2865866 L16.2743188,14.2467897 C16.2771473,14.4419511 16.2021939,14.6257989 16.0643081,14.7636847 C15.9271294,14.9008634 15.7432816,14.977231 15.5481202,14.977231 C15.1556759,14.9779381 14.8289926,14.6540832 14.8226286,14.2517394 L14.8261641,10.0366759 Z" id="Shape"></path>
                </g>
            </g>
        </g>
    </g>
</svg>