<?xml version="1.0" encoding="UTF-8"?>
<svg width="24px" height="24px" viewBox="0 0 24 24" version="1.1" xmlns="http://www.w3.org/2000/svg" xmlns:xlink="http://www.w3.org/1999/xlink">
    <!-- Generator: Sketch 52.4 (67378) - http://www.bohemiancoding.com/sketch -->
    <title>c3p-envelope</title>
    <desc>Created with Sketch.</desc>
    <defs>
        <path d="M1.49593846,7.09308308 L11.3507077,14.9772677 C11.4895385,15.0976369 11.6619692,15.1574523 11.8344,15.1574523 C12.0068308,15.1574523 12.1792615,15.0976369 12.3180923,14.9772677 L22.1728615,7.09345231 L22.1728615,17.6726523 C22.1728615,18.0802831 22.2112615,18.7803446 21.8036308,18.7803446 L2.60363077,18.7803446 C2.19636923,18.7803446 1.49593846,18.0802831 1.49593846,17.6726523 L1.49593846,7.09308308 Z M2.60363077,5.48803692 L21.8036308,5.48803692 L21.8139692,5.48803692 L11.8344,13.4416369 L1.89544615,5.52052923 C2.12141538,5.47880615 2.39944615,5.48803692 2.60363077,5.48803692 Z M2.60363077,20.2572677 L21.8036308,20.2572677 C23.0272615,20.2572677 23.6497846,18.8966523 23.6497846,17.6726523 L23.6497846,5.85726769 C23.6497846,5.79191385 23.6409231,5.73505231 23.6372308,5.67265231 C23.6597538,5.53123692 23.6409231,5.38465231 23.5796308,5.25099077 C23.3935385,4.43314462 22.8024,4.01111385 21.8036308,4.01111385 L2.60363077,4.01111385 C1.72486154,4.01111385 0.778153846,4.33382154 0.312553846,4.96816 C0.272307692,4.99880615 0.233907692,5.03388308 0.1992,5.07376 C0.0504,5.24545231 -0.00166153846,5.46625231 0.0319384615,5.67449846 C0.0249230769,5.73394462 0.0190153846,5.79412923 0.0190153846,5.85726769 L0.0190153846,17.6726523 C0.0190153846,18.8966523 1.38036923,20.2572677 2.60363077,20.2572677 Z" id="path-1"></path>
    </defs>
    <g id="Page-1" stroke="none" stroke-width="1" fill="none" fill-rule="evenodd">
        <g id="C3p-icon-pack" transform="translate(-117.000000, -363.000000)">
            <g id="Group" transform="translate(63.000000, 86.000000)">
                <g id="c3p-envelope" transform="translate(54.000000, 277.000000)">
                    <mask id="mask-2" fill="white">
                        <use xlink:href="#path-1"></use>
                    </mask>
                    <use id="Mask" fill="#000000" xlink:href="#path-1"></use>
                </g>
            </g>
        </g>
    </g>
</svg>