<?xml version="1.0" encoding="UTF-8"?>
<svg width="24px" height="24px" viewBox="0 0 24 24" version="1.1" xmlns="http://www.w3.org/2000/svg" xmlns:xlink="http://www.w3.org/1999/xlink">
    <!-- Generator: Sketch 52.4 (67378) - http://www.bohemiancoding.com/sketch -->
    <title>c3p-close-circle</title>
    <desc>Created with Sketch.</desc>
    <g id="Page-1" stroke="none" stroke-width="1" fill="none" fill-rule="evenodd">
        <g id="C3p-icon-pack" transform="translate(-171.000000, -93.000000)" fill="#000000">
            <g id="Group" transform="translate(63.000000, 86.000000)">
                <g id="c3p-close-circle" transform="translate(108.000000, 7.000000)">
                    <path d="M11.8344,1.47696 C6.13384615,1.47696 1.49593846,6.11486769 1.49593846,11.8154215 C1.49593846,17.5159754 6.13384615,22.1771446 11.8344,22.1771446 C17.5349538,22.1771446 22.1728615,17.5159754 22.1728615,11.8154215 C22.1728615,6.11486769 17.5349538,1.47696 11.8344,1.47696 Z M11.8344,23.6308062 C5.30898462,23.6308062 0.0190153846,18.3412062 0.0190153846,11.8154215 C0.0190153846,5.29000615 5.30898462,3.69230769e-05 11.8344,3.69230769e-05 C18.3601846,3.69230769e-05 23.6497846,5.29000615 23.6497846,11.8154215 C23.6497846,18.3412062 18.3601846,23.6308062 11.8344,23.6308062 Z M7.65692308,15.9927138 C7.36855385,15.7043446 7.36855385,15.2368985 7.65692308,14.9485292 L10.7898462,11.8156062 L7.65692308,8.68231385 C7.36855385,8.39394462 7.36855385,7.92649846 7.65692308,7.63812923 C7.94529231,7.34976 8.41273846,7.34976 8.70147692,7.63812923 L11.8344,10.7710523 L14.9673231,7.63812923 C15.2560615,7.34976 15.7231385,7.34976 16.0115077,7.63812923 C16.3002462,7.92649846 16.3002462,8.39394462 16.0115077,8.68231385 L12.8785846,11.8156062 L16.0115077,14.9485292 C16.3002462,15.2368985 16.3002462,15.7043446 16.0115077,15.9927138 C15.7231385,16.2810831 15.2560615,16.2810831 14.9673231,15.9927138 L11.8344,12.8597908 L8.70147692,15.9927138 C8.41273846,16.2810831 7.94529231,16.2810831 7.65692308,15.9927138 Z" id="Shape"></path>
                </g>
            </g>
        </g>
    </g>
</svg>