<?xml version="1.0" encoding="UTF-8"?>
<svg width="24px" height="24px" viewBox="0 0 24 24" version="1.1" xmlns="http://www.w3.org/2000/svg" xmlns:xlink="http://www.w3.org/1999/xlink">
    <!-- Generator: Sketch 52.4 (67378) - http://www.bohemiancoding.com/sketch -->
    <title>c3p-gift</title>
    <desc>Created with Sketch.</desc>
    <defs>
        <path d="M1.47876923,10.2845538 L11.0787692,10.2845538 L11.0787692,7.34067692 L1.47876923,7.34067692 L1.47876923,10.2845538 Z M5.74523077,2.1456 C7.58215385,2.1456 9.49883077,4.30486154 10.5481846,5.86301538 L8.04701538,5.86301538 C6.32492308,5.86301538 4.42486154,4.95507692 4.42486154,3.31458462 C4.42486154,2.50633846 4.83212308,2.1456 5.74523077,2.1456 Z M2.96861538,21.3744 L11.0787692,21.3744 L11.0787692,11.7614769 L2.96861538,11.7614769 L2.96861538,21.3744 Z M12.5556923,21.3744 L20.6846769,21.3744 L20.6846769,11.7614769 L12.5556923,11.7614769 L12.5556923,21.3744 Z M12.5556923,10.2845538 L22.1556923,10.2845538 L22.1556923,7.34067692 L12.5556923,7.34067692 L12.5556923,10.2845538 Z M17.9073231,2.1456 C18.8204308,2.1456 19.2280615,2.52923077 19.2280615,3.33784615 C19.2280615,4.97833846 17.3970462,5.86301538 15.6749538,5.86301538 L13.1745231,5.86301538 C14.2238769,4.30486154 16.0707692,2.1456 17.9073231,2.1456 Z M1.49169231,21.3744 C1.49169231,22.1900308 2.15298462,22.8513231 2.96861538,22.8513231 L20.6846769,22.8513231 C21.5003077,22.8513231 22.1616,22.1900308 22.1616,21.3744 L22.1616,11.7614769 L23.6326154,11.7614769 L23.6326154,7.34067692 C23.6326154,6.52504615 22.9713231,5.86375385 22.1556923,5.86375385 L19.6345846,5.86375385 C20.2870154,5.22055385 20.7049846,4.37649231 20.7049846,3.33784615 C20.7049846,2.05846154 19.9698462,0.668676923 17.9073231,0.668676923 C15.1938462,0.668676923 12.9264,3.55827692 11.8611692,5.17809231 C10.7955692,3.55827692 8.45907692,0.668676923 5.74523077,0.668676923 C3.68270769,0.668676923 2.94793846,2.05846154 2.94793846,3.33784615 C2.94793846,4.37649231 3.37661538,5.22055385 4.04270769,5.86375385 L1.47876923,5.86375385 C0.663138462,5.86375385 0.00184615385,6.52504615 0.00184615385,7.34067692 L0.00184615385,11.7614769 L1.49169231,11.7614769 L1.49169231,21.3744 Z" id="path-1"></path>
    </defs>
    <g id="Page-1" stroke="none" stroke-width="1" fill="none" fill-rule="evenodd">
        <g id="C3p-icon-pack" transform="translate(-843.000000, -93.000000)">
            <g id="Group" transform="translate(63.000000, 86.000000)">
                <g id="c3p-gift" transform="translate(780.000000, 7.000000)">
                    <mask id="mask-2" fill="white">
                        <use xlink:href="#path-1"></use>
                    </mask>
                    <use id="Mask" fill="#000000" xlink:href="#path-1"></use>
                </g>
            </g>
        </g>
    </g>
</svg>