<?xml version="1.0" encoding="UTF-8"?>
<svg width="24px" height="24px" viewBox="0 0 24 24" version="1.1" xmlns="http://www.w3.org/2000/svg" xmlns:xlink="http://www.w3.org/1999/xlink">
    <!-- Generator: Sketch 52.4 (67378) - http://www.bohemiancoding.com/sketch -->
    <title>c3p-graduation-cap</title>
    <desc>Created with Sketch.</desc>
    <defs>
        <path d="M11.7999877,14.7371446 L2.30152615,9.69345231 L11.8166031,4.59400615 L21.3612185,9.67905231 L11.7999877,14.7371446 Z M17.0146338,19.1808369 C16.4342031,19.4599754 14.8982031,20.0093908 11.8051569,20.0093908 C8.69254154,20.0093908 7.19124923,19.4245292 6.64811077,19.1435446 L6.64811077,13.6704369 L11.44368,16.2232985 C11.5526031,16.2827446 11.6737108,16.3122831 11.79408,16.3122831 C11.9118646,16.3122831 12.02928,16.2838523 12.1359877,16.2277292 L17.0146338,13.6508677 L17.0146338,19.1808369 Z M23.2801108,9.04729846 L12.1699569,3.10268308 C11.94768,2.98083692 11.67888,2.98157538 11.4551262,3.10489846 L0.405895385,9.05726769 C0.170695385,9.18871385 0.0248492308,9.43720615 0.0263261538,9.70711385 C0.0278030769,9.97665231 0.176603077,10.2240369 0.414387692,10.3525292 L5.26940308,12.9371446 C5.20848,13.0442215 5.17118769,13.1668062 5.17118769,13.2989908 L5.17118769,19.5478523 C5.17118769,19.7586831 5.26128,19.9599138 5.41857231,20.0994831 C5.57844923,20.2416369 7.11334154,21.4863138 11.8051569,21.4863138 C16.4803569,21.4863138 18.0558646,20.3103138 18.2205415,20.1759138 C18.3922338,20.0363446 18.4915569,19.8262523 18.4915569,19.6043446 L18.4915569,13.1944985 C18.4915569,13.0907446 18.4697723,12.99216 18.4310031,12.9024369 L21.41808,11.3250831 L21.41808,16.50576 C20.9801723,16.7620062 20.6833108,17.2324062 20.6833108,17.7759138 C20.6833108,18.5915446 21.3446031,19.2528369 22.1602338,19.2528369 C22.9758646,19.2528369 23.6371569,18.5915446 23.6371569,17.7759138 C23.6371569,17.2294523 23.3366031,16.7575754 22.8950031,16.5020677 L22.8950031,10.5448985 L23.2664492,10.3488369 C23.5079262,10.2232985 23.6600492,9.97480615 23.6630031,9.70194462 C23.6659569,9.43019077 23.5186338,9.17837538 23.2801108,9.04729846 Z" id="path-1"></path>
    </defs>
    <g id="Page-1" stroke="none" stroke-width="1" fill="none" fill-rule="evenodd">
        <g id="C3p-icon-pack" transform="translate(-1233.000000, -356.000000)">
            <g id="Group" transform="translate(63.000000, 86.000000)">
                <g id="c3p-graduation-cap" transform="translate(1170.000000, 270.000000)">
                    <mask id="mask-2" fill="white">
                        <use xlink:href="#path-1"></use>
                    </mask>
                    <use id="Mask" fill="#000000" xlink:href="#path-1"></use>
                </g>
            </g>
        </g>
    </g>
</svg>