<?xml version="1.0" encoding="UTF-8"?>
<svg width="24px" height="24px" viewBox="0 0 24 24" version="1.1" xmlns="http://www.w3.org/2000/svg" xmlns:xlink="http://www.w3.org/1999/xlink">
    <!-- Generator: Sketch 52.4 (67378) - http://www.bohemiancoding.com/sketch -->
    <title>c3p-phone</title>
    <desc>Created with Sketch.</desc>
    <g id="Page-1" stroke="none" stroke-width="1" fill="none" fill-rule="evenodd">
        <g id="C3p-icon-pack" transform="translate(-951.000000, -417.000000)" fill="#000000">
            <g id="Group" transform="translate(63.000000, 86.000000)">
                <g id="c3p-phone" transform="translate(888.000000, 331.000000)">
                    <path d="M22.2248492,18.9975508 C21.6211569,18.5821662 18.2456492,16.3523815 17.6146338,15.9477046 C17.5481723,15.9462277 17.3794338,15.9687508 17.1386954,16.0957662 C16.8817108,16.2305354 16.1340185,16.6503508 15.0876185,17.2473969 L14.2734646,17.7118892 L13.5062031,17.1731815 C12.9357415,16.7714585 11.6951262,15.8158892 9.80724923,13.9280123 C7.91051077,12.0320123 6.95789538,10.7958277 6.55838769,10.2275815 L6.01968,9.46032 L6.48491077,8.64616615 C6.93574154,7.85712 7.47592615,6.90376615 7.63875692,6.59361231 C7.76983385,6.34475077 7.78017231,6.17453538 7.78017231,6.12838154 C7.78017231,6.12136615 7.78017231,6.11472 7.77906462,6.10992 C7.42460308,5.54425846 5.13500308,2.09601231 4.71740308,1.48715077 C4.65832615,1.47718154 4.52983385,1.48641231 4.36921846,1.59828923 C3.07137231,2.53502769 1.71666462,3.86499692 1.52281846,4.38561231 C1.65241846,7.15558154 4.08712615,11.0424738 8.38940308,15.3440123 C12.6927877,19.64592 16.5752492,22.0798892 19.3359877,22.2080123 C19.85808,22.0211815 21.1965415,20.6664738 22.1258954,19.3804431 C22.1916185,19.2851815 22.2300185,19.1677662 22.2300185,19.0581046 C22.2300185,19.0337354 22.2278031,19.0134277 22.2248492,18.9975508 Z M19.3610954,23.6871508 C15.3357415,23.5590277 10.6047877,19.6473969 7.34521846,16.3885662 C4.08564923,13.1293662 0.172541538,8.39878154 0.04368,4.35755077 L0.04368,4.32432 C0.04368,2.90942769 3.47457231,0.42192 3.50854154,0.398289231 C4.44084923,-0.254510769 5.46731077,-0.0163569231 5.88417231,0.577735385 C6.13820308,0.939212308 8.76823385,4.89478154 9.06435692,5.37921231 C9.19358769,5.59041231 9.25709538,5.84813538 9.25709538,6.12838154 C9.25709538,6.48985846 9.15149538,6.89010462 8.94620308,7.28112 C8.74571077,7.66179692 8.08958769,8.81490462 7.76724923,9.37872 C8.11617231,9.87570462 9.01008,11.0432123 10.8514338,12.88272 C12.6787569,14.7111508 13.8558646,15.6131815 14.3558031,15.96432 C14.9196185,15.64272 16.0727262,14.9873354 16.4519262,14.78832 C17.1674954,14.4102277 17.8819569,14.3677662 18.3638031,14.6742277 C18.8179569,14.9618585 22.7439877,17.5811815 23.1176492,17.8514585 C23.4702646,18.1062277 23.6607877,18.5625969 23.6607877,19.0581046 C23.6607877,19.44912 23.5422646,19.8637662 23.2922954,20.2233969 C23.2675569,20.2581046 20.79408,23.7333046 19.3610954,23.6871508 Z" id="Shape"></path>
                </g>
            </g>
        </g>
    </g>
</svg>