<?xml version="1.0" encoding="UTF-8"?>
<svg width="24px" height="24px" viewBox="0 0 24 24" version="1.1" xmlns="http://www.w3.org/2000/svg" xmlns:xlink="http://www.w3.org/1999/xlink">
    <!-- Generator: Sketch 52.4 (67378) - http://www.bohemiancoding.com/sketch -->
    <title>c3p-social-media-facebook</title>
    <desc>Created with Sketch.</desc>
    <defs>
        <path d="M10.6382045,8.50025806 L10.6382045,4.89096774 C10.6382045,1.74425806 13.2518819,1.5483871 13.9029787,1.5483871 C13.9951077,1.5483871 14.04814,1.55225806 14.04814,1.55225806 L16.0695593,1.55225806 L16.0591077,3.87483871 L14.0508497,3.87483871 C12.9456884,3.87483871 12.9712368,4.81819355 12.9712368,4.81819355 L12.9712368,8.50025806 L16.8816884,8.50025806 L16.3358819,10.8197419 L12.9584626,10.8197419 L12.9584626,22.4276129 L10.6382045,22.4276129 L10.6366561,10.8197419 L7.55420451,10.8197419 L7.54839806,8.50025806 L10.6382045,8.50025806 Z M7.55420451,12.368129 L9.08826902,12.368129 L9.08981741,22.4276129 C9.08981741,23.2827097 9.78310773,23.976 10.6382045,23.976 L12.9584626,23.976 C13.8135593,23.976 14.5068497,23.2827097 14.5068497,22.4276129 L14.5068497,12.368129 L16.3358819,12.368129 C17.0229787,12.368129 17.628011,11.9152258 17.8215593,11.256 L18.3673658,8.93651613 C18.5047852,8.46851613 18.4134303,7.96258065 18.1207852,7.57277419 C17.8289142,7.18180645 17.3694303,6.95187097 16.8816884,6.95187097 L14.5196239,6.95187097 L14.5196239,5.424 L16.0591077,5.42322581 C16.9111077,5.42322581 17.6036239,4.73419355 17.6074948,3.88141935 L17.6179464,1.63741935 C17.6194948,1.60877419 17.620269,1.58090323 17.620269,1.55225806 C17.620269,0.69716129 16.9285271,0.00387096774 16.0734303,0.00387096774 L14.0911077,0.00387096774 C14.0473658,0.0015483871 13.9831077,0 13.9029787,0 C13.3463335,0 12.2585916,0.0921290323 11.2277529,0.713032258 C10.2526561,1.29948387 9.08981741,2.50180645 9.08981741,4.89096774 L9.08981741,6.95187097 L7.54839806,6.95187097 C7.13691419,6.95187097 6.74246257,7.116 6.4513658,7.40709677 C6.16104322,7.69896774 5.99846257,8.09341935 6.00001096,8.50567742 L6.00581741,10.8251613 C6.00891419,11.6779355 6.70143031,12.368129 7.55420451,12.368129 Z" id="path-1"></path>
    </defs>
    <g id="Page-1" stroke="none" stroke-width="1" fill="none" fill-rule="evenodd">
        <g id="C3p-icon-pack" transform="translate(-1233.000000, -86.000000)">
            <g id="Group" transform="translate(63.000000, 86.000000)">
                <g id="c3p-social-media-facebook" transform="translate(1170.000000, 0.000000)">
                    <mask id="mask-2" fill="white">
                        <use xlink:href="#path-1"></use>
                    </mask>
                    <use id="Mask" fill="#000000" xlink:href="#path-1"></use>
                </g>
            </g>
        </g>
    </g>
</svg>