<?xml version="1.0" encoding="UTF-8"?>
<svg width="24px" height="24px" viewBox="0 0 24 24" version="1.1" xmlns="http://www.w3.org/2000/svg" xmlns:xlink="http://www.w3.org/1999/xlink">
    <!-- Generator: Sketch 52.4 (67378) - http://www.bohemiancoding.com/sketch -->
    <title>c3p-start</title>
    <desc>Created with Sketch.</desc>
    <defs>
        <path d="M21.9500554,1.51056 L21.9729477,22.1232369 L4.97171692,11.8165292 L21.9500554,1.51056 Z M21.9729477,23.60016 C22.2203323,23.60016 22.4669785,23.5381292 22.6907323,23.4140677 C23.1596554,23.15376 23.4498708,22.6597292 23.4498708,22.1232369 L23.4269785,1.51056 C23.4269785,0.974436923 23.1363938,0.480036923 22.66784,0.219729231 C22.4440862,0.0952984615 22.19744,0.0336369231 21.9500554,0.0336369231 C21.6797785,0.0336369231 21.4083938,0.108221538 21.1706092,0.256283077 L4.19264,10.5622523 C3.82488615,10.7908062 3.58082462,11.1663138 3.51473231,11.5864985 L3.51473231,0.739975385 C3.51473231,0.332344615 3.18390154,0.00151384615 2.77627077,0.00151384615 C2.36827077,0.00151384615 2.03780923,0.332344615 2.03780923,0.739975385 L2.03780923,22.8938215 C2.03780923,23.3018215 2.36827077,23.6322831 2.77627077,23.6322831 C3.18390154,23.6322831 3.51473231,23.3018215 3.51473231,22.8938215 L3.51473231,12.04656 C3.58082462,12.4667446 3.82488615,12.8426215 4.19264,13.0708062 L21.1938708,23.3775138 C21.4316554,23.5259446 21.7026708,23.60016 21.9729477,23.60016 Z" id="path-1"></path>
    </defs>
    <g id="Page-1" stroke="none" stroke-width="1" fill="none" fill-rule="evenodd">
        <g id="C3p-icon-pack" transform="translate(-453.000000, -363.000000)">
            <g id="Group" transform="translate(63.000000, 86.000000)">
                <g id="c3p-start" transform="translate(390.000000, 277.000000)">
                    <mask id="mask-2" fill="white">
                        <use xlink:href="#path-1"></use>
                    </mask>
                    <use id="Mask" fill="#000000" xlink:href="#path-1"></use>
                </g>
            </g>
        </g>
    </g>
</svg>