<?xml version="1.0" encoding="UTF-8"?>
<svg width="24px" height="24px" viewBox="0 0 24 24" version="1.1" xmlns="http://www.w3.org/2000/svg" xmlns:xlink="http://www.w3.org/1999/xlink">
    <!-- Generator: Sketch 52.4 (67378) - http://www.bohemiancoding.com/sketch -->
    <title>c3p-arrow-nw-circle</title>
    <desc>Created with Sketch.</desc>
    <g id="Page-1" stroke="none" stroke-width="1" fill="none" fill-rule="evenodd">
        <g id="C3p-icon-pack" transform="translate(-1731.000000, -248.000000)" fill="#000000">
            <g id="Group" transform="translate(63.000000, 86.000000)">
                <g id="c3p-arrow-nw-circle" transform="translate(1668.000000, 162.000000)">
                    <path d="M11.85312,22.1784738 C17.5536738,22.1784738 22.1915815,17.5176738 22.1915815,11.81712 C22.1915815,6.11619692 17.5536738,1.47828923 11.85312,1.47828923 C6.15256615,1.47828923 1.51465846,6.11619692 1.51465846,11.81712 C1.51465846,17.5176738 6.15256615,22.1784738 11.85312,22.1784738 Z M23.6685046,11.81712 C23.6685046,18.3425354 18.3785354,23.6325046 11.85312,23.6325046 C5.32733538,23.6325046 0.0377353846,18.3425354 0.0377353846,11.81712 C0.0377353846,5.29170462 5.32733538,0.00136615385 11.85312,0.00136615385 C18.3785354,0.00136615385 23.6685046,5.29170462 23.6685046,11.81712 Z M9.98991819,9.01207816 L16.0671365,15.0892965 C16.3478579,15.3700179 16.3457366,15.8303444 16.0621868,16.1138942 C15.7814654,16.3946156 15.3239673,16.3939085 15.0425388,16.1138942 L8.96461336,10.0359688 L8.96461336,14.2559821 C8.96461336,14.4469009 8.88966004,14.6279202 8.75318843,14.7643918 C8.61530261,14.9022776 8.43499038,14.9765239 8.24336445,14.977231 C8.04820297,14.977231 7.86435521,14.9008634 7.7278836,14.7643918 C7.58929067,14.6257989 7.51433735,14.4419511 7.51787289,14.2517394 L7.51787289,8.28941503 C7.51433735,8.09496067 7.58858357,7.91182001 7.72646939,7.77393419 C7.86506232,7.63534126 8.04820297,7.56109505 8.23982891,7.56463058 L14.200032,7.56392347 C14.3951934,7.56109505 14.5790412,7.63604837 14.716927,7.77393419 C14.8541057,7.9111129 14.9304733,8.09496067 14.9304733,8.29012214 C14.9311804,8.6825664 14.6073255,9.00924973 14.2049817,9.0156137 L9.98991819,9.01207816 Z" id="Shape"></path>
                </g>
            </g>
        </g>
    </g>
</svg>