<?xml version="1.0" encoding="UTF-8"?>
<svg width="24px" height="24px" viewBox="0 0 24 24" version="1.1" xmlns="http://www.w3.org/2000/svg" xmlns:xlink="http://www.w3.org/1999/xlink">
    <!-- Generator: Sketch 52.4 (67378) - http://www.bohemiancoding.com/sketch -->
    <title>c3p-tablet</title>
    <desc>Created with Sketch.</desc>
    <g id="Page-1" stroke="none" stroke-width="1" fill="none" fill-rule="evenodd">
        <g id="C3p-icon-pack" transform="translate(-1395.000000, -248.000000)" fill="#000000">
            <g id="Group" transform="translate(63.000000, 86.000000)">
                <g id="c3p-tablet" transform="translate(1332.000000, 162.000000)">
                    <path d="M3.47884308,21.4222523 C3.47884308,21.8298831 3.80967385,22.1607138 4.21730462,22.1607138 L18.9931815,22.1607138 C19.4004431,22.1607138 19.7316431,21.8298831 19.7316431,21.4222523 L19.7316431,2.22225231 C19.7316431,1.81462154 19.4004431,1.48379077 18.9931815,1.48379077 L4.21730462,1.48379077 C3.80967385,1.48379077 3.47884308,1.81462154 3.47884308,2.22225231 L3.47884308,21.4222523 Z M18.9931815,23.6376369 L4.21730462,23.6376369 C2.99367385,23.6376369 2.00192,22.6458831 2.00192,21.4222523 L2.00192,2.22225231 C2.00192,0.998621538 2.99367385,0.00686769231 4.21730462,0.00686769231 L18.9931815,0.00686769231 C20.2168123,0.00686769231 21.2085662,0.998621538 21.2085662,2.22225231 L21.2085662,21.4222523 C21.2085662,22.6458831 20.2168123,23.6376369 18.9931815,23.6376369 Z M10.1293169,3.69917538 C9.72168615,3.69917538 9.39085538,3.36834462 9.39085538,2.96071385 C9.39085538,2.55308308 9.72168615,2.22225231 10.1293169,2.22225231 L13.0831631,2.22225231 C13.4907938,2.22225231 13.8216246,2.55308308 13.8216246,2.96071385 C13.8216246,3.36834462 13.4907938,3.69917538 13.0831631,3.69917538 L10.1293169,3.69917538 Z M11.60624,18.4723569 C12.4200246,18.4723569 13.0794708,19.1321723 13.0794708,19.9452185 C13.0794708,20.7582646 12.4200246,21.4184492 11.60624,21.4184492 C10.7920862,21.4184492 10.1330092,20.7582646 10.1330092,19.9452185 C10.1330092,19.1321723 10.7920862,18.4723569 11.60624,18.4723569 Z" id="Shape"></path>
                </g>
            </g>
        </g>
    </g>
</svg>