<?xml version="1.0" encoding="UTF-8"?>
<svg width="24px" height="24px" viewBox="0 0 24 24" version="1.1" xmlns="http://www.w3.org/2000/svg" xmlns:xlink="http://www.w3.org/1999/xlink">
    <!-- Generator: Sketch 52.4 (67378) - http://www.bohemiancoding.com/sketch -->
    <title>c3p-list</title>
    <desc>Created with Sketch.</desc>
    <g id="Page-1" stroke="none" stroke-width="1" fill="none" fill-rule="evenodd">
        <g id="C3p-icon-pack" transform="translate(-453.000000, -255.000000)" fill="#000000">
            <g id="Group" transform="translate(63.000000, 86.000000)">
                <g id="c3p-list" transform="translate(390.000000, 169.000000)">
                    <path d="M2.25312,15.8169354 C2.66075077,15.8169354 2.99158154,16.1477662 2.99158154,16.5553969 L2.99158154,18.03232 C2.99158154,18.4399508 2.66075077,18.7707815 2.25312,18.7707815 L0.776196923,18.7707815 C0.368566154,18.7707815 0.0377353846,18.4399508 0.0377353846,18.03232 L0.0377353846,16.5553969 C0.0377353846,16.1477662 0.368566154,15.8169354 0.776196923,15.8169354 L2.25312,15.8169354 Z M2.99158154,10.6477046 L2.99158154,12.1246277 C2.99158154,12.5322585 2.66075077,12.8630892 2.25312,12.8630892 L0.776196923,12.8630892 C0.368566154,12.8630892 0.0377353846,12.5322585 0.0377353846,12.1246277 L0.0377353846,10.6477046 C0.0377353846,10.2400738 0.368566154,9.90924308 0.776196923,9.90924308 L2.25312,9.90924308 C2.66075077,9.90924308 2.99158154,10.2400738 2.99158154,10.6477046 Z M2.99158154,4.74001231 L2.99158154,6.21693538 C2.99158154,6.62456615 2.66075077,6.95539692 2.25312,6.95539692 L0.776196923,6.95539692 C0.368566154,6.95539692 0.0377353846,6.62456615 0.0377353846,6.21693538 L0.0377353846,4.74001231 C0.0377353846,4.33238154 0.368566154,4.00155077 0.776196923,4.00155077 L2.25312,4.00155077 C2.66075077,4.00155077 2.99158154,4.33238154 2.99158154,4.74001231 Z M22.9300431,4.74001231 C23.3376738,4.74001231 23.6685046,5.07084308 23.6685046,5.47847385 C23.6685046,5.88610462 23.3376738,6.21693538 22.9300431,6.21693538 L7.42235077,6.21693538 C7.01472,6.21693538 6.68388923,5.88610462 6.68388923,5.47847385 C6.68388923,5.07084308 7.01472,4.74001231 7.42235077,4.74001231 L22.9300431,4.74001231 Z M22.9300431,10.6477046 C23.3376738,10.6477046 23.6685046,10.9785354 23.6685046,11.3861662 C23.6685046,11.7937969 23.3376738,12.1246277 22.9300431,12.1246277 L7.42235077,12.1246277 C7.01472,12.1246277 6.68388923,11.7937969 6.68388923,11.3861662 C6.68388923,10.9785354 7.01472,10.6477046 7.42235077,10.6477046 L22.9300431,10.6477046 Z M22.9300431,16.5553969 C23.3376738,16.5553969 23.6685046,16.8862277 23.6685046,17.2938585 C23.6685046,17.7014892 23.3376738,18.03232 22.9300431,18.03232 L7.42235077,18.03232 C7.01472,18.03232 6.68388923,17.7014892 6.68388923,17.2938585 C6.68388923,16.8862277 7.01472,16.5553969 7.42235077,16.5553969 L22.9300431,16.5553969 Z" id="Shape"></path>
                </g>
            </g>
        </g>
    </g>
</svg>