<?xml version="1.0" encoding="UTF-8"?>
<svg width="24px" height="24px" viewBox="0 0 24 24" version="1.1" xmlns="http://www.w3.org/2000/svg" xmlns:xlink="http://www.w3.org/1999/xlink">
    <!-- Generator: Sketch 52.4 (67378) - http://www.bohemiancoding.com/sketch -->
    <title>c3p-playlist</title>
    <desc>Created with Sketch.</desc>
    <g id="Page-1" stroke="none" stroke-width="1" fill="none" fill-rule="evenodd">
        <g id="C3p-icon-pack" transform="translate(-843.000000, -255.000000)" fill="#000000">
            <g id="Group" transform="translate(63.000000, 86.000000)">
                <g id="c3p-playlist" transform="translate(780.000000, 169.000000)">
                    <path d="M0.748541538,6.23309538 C0.340910769,6.23309538 0.01008,5.90226462 0.01008,5.49463385 C0.01008,5.08700308 0.340910769,4.75617231 0.748541538,4.75617231 L11.0870031,4.75617231 C11.4946338,4.75617231 11.8254646,5.08700308 11.8254646,5.49463385 C11.8254646,5.90226462 11.4946338,6.23309538 11.0870031,6.23309538 L0.748541538,6.23309538 Z M0.748541538,1.80232615 C0.340910769,1.80232615 0.01008,1.47149538 0.01008,1.06386462 C0.01008,0.656233846 0.340910769,0.325403077 0.748541538,0.325403077 L11.0870031,0.325403077 C11.4946338,0.325403077 11.8254646,0.656233846 11.8254646,1.06386462 C11.8254646,1.47149538 11.4946338,1.80232615 11.0870031,1.80232615 L0.748541538,1.80232615 Z M0.748541538,10.6638646 C0.340910769,10.6638646 0.01008,10.3330338 0.01008,9.92540308 C0.01008,9.51777231 0.340910769,9.18694154 0.748541538,9.18694154 L11.0870031,9.18694154 C11.4946338,9.18694154 11.8254646,9.51777231 11.8254646,9.92540308 C11.8254646,10.3330338 11.4946338,10.6638646 11.0870031,10.6638646 L0.748541538,10.6638646 Z M14.7793108,20.3368985 L14.7793108,20.1999138 C14.7279877,19.1723446 13.5298338,18.0572677 11.82288,18.0572677 C10.0771569,18.0572677 8.86054154,19.22256 8.86054154,20.2682215 C8.86054154,21.3146215 10.0771569,22.4810215 11.82288,22.4810215 C13.5298338,22.4810215 14.7279877,21.3648369 14.7793108,20.3368985 Z M22.2990646,8.86489846 L16.2562338,2.82206769 L16.2562338,19.9960985 C16.2639877,20.0858215 16.27248,20.1755446 16.27248,20.2674831 C16.27248,22.3108062 14.2886031,23.9675446 11.8402338,23.9675446 C9.39223385,23.9675446 7.40651077,22.3108062 7.40651077,20.2674831 C7.40651077,18.2252677 9.39223385,16.5685292 11.8402338,16.5685292 C12.9693415,16.5685292 13.9965415,16.9237292 14.7793108,17.50416 L14.7793108,1.15609846 C14.7793108,0.832652308 14.9886646,0.560529231 15.2785108,0.460836923 C15.5535877,0.326806154 15.8940185,0.371113846 16.1225723,0.599667692 L23.3432492,7.82071385 C23.6316185,8.10908308 23.6316185,8.57652923 23.3432492,8.86489846 C23.05488,9.15326769 22.5874338,9.15326769 22.2990646,8.86489846 Z" id="Shape"></path>
                </g>
            </g>
        </g>
    </g>
</svg>