<?xml version="1.0" encoding="UTF-8"?>
<svg width="24px" height="24px" viewBox="0 0 24 24" version="1.1" xmlns="http://www.w3.org/2000/svg" xmlns:xlink="http://www.w3.org/1999/xlink">
    <!-- Generator: Sketch 52.4 (67378) - http://www.bohemiancoding.com/sketch -->
    <title>c3p-frame</title>
    <desc>Created with Sketch.</desc>
    <g id="Page-1" stroke="none" stroke-width="1" fill="none" fill-rule="evenodd">
        <g id="C3p-icon-pack" transform="translate(-843.000000, -309.000000)" fill="#000000">
            <g id="Group" transform="translate(63.000000, 86.000000)">
                <g id="c3p-frame" transform="translate(780.000000, 223.000000)">
                    <path d="M23.6408492,4.06386462 L23.6408492,8.49463385 C23.6408492,8.90226462 23.3100185,9.23309538 22.9023877,9.23309538 C22.4947569,9.23309538 22.1639262,8.90226462 22.1639262,8.49463385 L22.1639262,4.80232615 L18.4716185,4.80232615 C18.0639877,4.80232615 17.7331569,4.47149538 17.7331569,4.06386462 C17.7331569,3.65623385 18.0639877,3.32540308 18.4716185,3.32540308 L22.9023877,3.32540308 C23.3100185,3.32540308 23.6408492,3.65623385 23.6408492,4.06386462 Z M0.748541538,21.7869415 C0.340910769,21.7869415 0.01008,21.4561108 0.01008,21.04848 L0.01008,16.6177108 C0.01008,16.21008 0.340910769,15.8792492 0.748541538,15.8792492 C1.15617231,15.8792492 1.48700308,16.21008 1.48700308,16.6177108 L1.48700308,20.3100185 L5.17931077,20.3100185 C5.58694154,20.3100185 5.91777231,20.6408492 5.91777231,21.04848 C5.91777231,21.4561108 5.58694154,21.7869415 5.17931077,21.7869415 L0.748541538,21.7869415 Z M23.6408492,21.04848 C23.6408492,21.4561108 23.3100185,21.7869415 22.9023877,21.7869415 L18.4716185,21.7869415 C18.0639877,21.7869415 17.7331569,21.4561108 17.7331569,21.04848 C17.7331569,20.6408492 18.0639877,20.3100185 18.4716185,20.3100185 L22.1639262,20.3100185 L22.1639262,16.6177108 C22.1639262,16.21008 22.4947569,15.8792492 22.9023877,15.8792492 C23.3100185,15.8792492 23.6408492,16.21008 23.6408492,16.6177108 L23.6408492,21.04848 Z M0.01008,8.49463385 L0.01008,4.06386462 C0.01008,3.65623385 0.340910769,3.32540308 0.748541538,3.32540308 L5.17931077,3.32540308 C5.58694154,3.32540308 5.91777231,3.65623385 5.91777231,4.06386462 C5.91777231,4.47149538 5.58694154,4.80232615 5.17931077,4.80232615 L1.48700308,4.80232615 L1.48700308,8.49463385 C1.48700308,8.90226462 1.15617231,9.23309538 0.748541538,9.23309538 C0.340910769,9.23309538 0.01008,8.90226462 0.01008,8.49463385 Z" id="Shape"></path>
                </g>
            </g>
        </g>
    </g>
</svg>