<?xml version="1.0" encoding="UTF-8"?>
<svg width="24px" height="24px" viewBox="0 0 24 24" version="1.1" xmlns="http://www.w3.org/2000/svg" xmlns:xlink="http://www.w3.org/1999/xlink">
    <!-- Generator: Sketch 52.4 (67378) - http://www.bohemiancoding.com/sketch -->
    <title>c3p-user-follow</title>
    <desc>Created with Sketch.</desc>
    <g id="Page-1" stroke="none" stroke-width="1" fill="none" fill-rule="evenodd">
        <g id="C3p-icon-pack" transform="translate(-1233.000000, -194.000000)" fill="#000000">
            <g id="Group" transform="translate(63.000000, 86.000000)">
                <g id="c3p-user-follow" transform="translate(1170.000000, 108.000000)">
                    <path d="M19.9447015,16.2530215 C20.3523323,16.2530215 20.6831631,16.5838523 20.6831631,16.9914831 L20.6831631,19.2068677 L22.8985477,19.2068677 C23.3061785,19.2068677 23.6370092,19.5376985 23.6370092,19.9453292 C23.6370092,20.35296 23.3061785,20.6837908 22.8985477,20.6837908 L20.6831631,20.6837908 L20.6831631,22.8991754 C20.6831631,23.3068062 20.3523323,23.6376369 19.9447015,23.6376369 C19.5370708,23.6376369 19.20624,23.3068062 19.20624,22.8991754 L19.20624,20.6837908 L16.9908554,20.6837908 C16.5832246,20.6837908 16.2523938,20.35296 16.2523938,19.9453292 C16.2523938,19.5376985 16.5832246,19.2068677 16.9908554,19.2068677 L19.20624,19.2068677 L19.20624,16.9914831 C19.20624,16.5838523 19.5370708,16.2530215 19.9447015,16.2530215 Z M1.48478769,23.6315077 C0.669895385,23.6315077 0.00897230769,22.9709538 0.00897230769,22.1553231 L0.00897230769,19.9392 C0.00897230769,19.1206154 1.48478769,18.4630154 1.48478769,18.4630154 L7.97032615,15.4024615 C5.90521846,13.7446154 5.16934154,10.4820923 5.16934154,8.86966154 L5.16934154,5.17883077 C5.16934154,2.73452308 8.55703385,0.0129230769 11.81808,0.0129230769 C15.0787569,0.0129230769 18.4623877,2.73452308 18.4623877,5.17883077 L18.4623877,8.86966154 C18.4623877,10.6419692 17.77008,13.8051692 15.7241723,15.4153846 L17.6862646,16.3329231 L17.3214646,17.8072615 L15.1079262,16.7575385 C14.64048,16.5426462 14.3181415,16.1006769 14.2575877,15.5892923 C14.1970338,15.0786462 14.4067569,14.5731692 14.8106954,14.2548923 C16.3950646,13.0076308 16.9854646,10.2897231 16.9854646,8.86966154 L16.9854646,5.17883077 C16.9854646,3.60184615 14.3258954,1.48984615 11.81808,1.48984615 C9.33241846,1.48984615 6.64626462,3.63618462 6.64626462,5.17883077 L6.64626462,8.86966154 C6.64626462,10.3115077 7.36072615,13.0190769 8.89488,14.2508308 C9.29401846,14.5709538 9.49894154,15.0749538 9.43617231,15.5826462 C9.37377231,16.0903385 9.05291077,16.5304615 8.58804923,16.7438769 L2.10251077,19.8044308 C1.92675692,19.8852923 1.48589538,20.0699077 1.48589538,20.6566154 L1.48589538,22.1553231 L17.7294646,22.1545846 L17.7294646,23.6315077 L1.48478769,23.6315077 Z" id="Shape"></path>
                </g>
            </g>
        </g>
    </g>
</svg>