<?xml version="1.0" encoding="UTF-8"?>
<svg width="24px" height="24px" viewBox="0 0 24 24" version="1.1" xmlns="http://www.w3.org/2000/svg" xmlns:xlink="http://www.w3.org/1999/xlink">
    <!-- Generator: Sketch 52.4 (67378) - http://www.bohemiancoding.com/sketch -->
    <title>c3p-earphones-microphone</title>
    <desc>Created with Sketch.</desc>
    <defs>
        <path d="M22.1559877,19.0170092 C22.1559877,19.2847015 21.9381415,19.50144 21.6708185,19.50144 L19.7024492,19.50144 C19.4351262,19.50144 19.2180185,19.2847015 19.2180185,19.0170092 L19.2180185,14.0863015 C19.2180185,13.8189785 19.4351262,13.6018708 19.7024492,13.6018708 L21.6708185,13.6018708 C21.9381415,13.6018708 22.1559877,13.8189785 22.1559877,14.0863015 L22.1559877,19.0170092 Z M1.97088,13.6018708 L3.96214154,13.6018708 C4.22946462,13.6018708 4.44731077,13.8189785 4.44731077,14.0863015 L4.44731077,19.0399015 C4.44731077,19.3075938 4.22946462,19.5247015 3.96214154,19.5247015 L1.97088,19.5247015 C1.70318769,19.5247015 1.48644923,19.3075938 1.48644923,19.0399015 L1.48644923,14.0863015 C1.48644923,13.8189785 1.70318769,13.6018708 1.97088,13.6018708 Z M23.5003569,10.67904 C22.8279877,4.66168615 17.9445415,0.294424615 11.8880492,0.294424615 C5.58011077,0.294424615 0.469587692,5.15497846 0.122510769,11.5999015 C0.115495385,11.7405785 0.0634338462,12.7386092 0.0597415385,13.3327015 L0.0578953846,13.6631631 C0.0276184615,13.7997785 0.00952615385,13.9408246 0.00952615385,14.0863015 L0.00952615385,19.0399015 C0.00952615385,20.1217477 0.889033846,21.0016246 1.97088,21.0016246 L3.96214154,21.0016246 C5.04361846,21.0016246 5.92423385,20.1217477 5.92423385,19.0399015 L5.92423385,14.0863015 C5.92423385,13.0048246 5.04361846,12.1249477 3.96214154,12.1249477 L1.97088,12.1249477 C1.83500308,12.1249477 1.70244923,12.1389785 1.57432615,12.1651938 C1.58540308,11.9255631 1.59500308,11.7365169 1.59795692,11.6792862 C1.90183385,6.03042462 6.37801846,1.77134769 11.8880492,1.77134769 C17.1791262,1.77134769 21.4448492,5.58697846 22.0319262,10.8433477 C22.0566646,11.0626708 22.0884185,11.6202092 22.1138954,12.1795938 C21.9710031,12.1467323 21.82368,12.1249477 21.6708185,12.1249477 L19.7024492,12.1249477 C18.6209723,12.1249477 17.7410954,13.0048246 17.7410954,14.0863015 L17.7410954,19.0170092 C17.7410954,19.7639631 18.1657108,20.4075323 18.7819569,20.7383631 L14.0406646,22.5996554 L14.0406646,22.4792862 C14.0406646,22.0712862 13.7102031,21.7408246 13.3022031,21.7408246 L11.0868185,21.7408246 C10.6791877,21.7408246 10.3483569,22.0712862 10.3483569,22.4792862 L10.3483569,23.2177477 C10.3483569,23.6253785 10.6791877,23.9562092 11.0868185,23.9562092 L13.3022031,23.9562092 C13.30848,23.9562092 13.3143877,23.9547323 13.3202954,23.9543631 L14.6439877,23.9491938 L22.2490338,20.9632246 C22.3483569,20.92224 22.4329108,20.8605785 22.5019569,20.7871015 C23.16768,20.4728862 23.6329108,19.8005169 23.6329108,19.0170092 L23.6329108,14.0863015 C23.6329108,13.9659323 23.6181415,13.8492554 23.5970954,13.7347938 C23.6181415,13.6672246 23.6325415,13.5967015 23.6329108,13.5224862 C23.6351262,13.0365785 23.5586954,11.2033477 23.5003569,10.67904 Z" id="path-1"></path>
    </defs>
    <g id="Page-1" stroke="none" stroke-width="1" fill="none" fill-rule="evenodd">
        <g id="C3p-icon-pack" transform="translate(-951.000000, -471.000000)">
            <g id="Group" transform="translate(63.000000, 86.000000)">
                <g id="c3p-earphones-microphone" transform="translate(888.000000, 385.000000)">
                    <mask id="mask-2" fill="white">
                        <use xlink:href="#path-1"></use>
                    </mask>
                    <use id="Mask" fill="#000000" xlink:href="#path-1"></use>
                </g>
            </g>
        </g>
    </g>
</svg>