<?xml version="1.0" encoding="UTF-8"?>
<svg width="24px" height="24px" viewBox="0 0 24 24" version="1.1" xmlns="http://www.w3.org/2000/svg" xmlns:xlink="http://www.w3.org/1999/xlink">
    <!-- Generator: Sketch 52.4 (67378) - http://www.bohemiancoding.com/sketch -->
    <title>c3p-directions</title>
    <desc>Created with Sketch.</desc>
    <defs>
        <path d="M20.3597091,6.85741818 L6.18516364,6.85741818 L6.18516364,3.22869091 L20.3597091,3.22869091 L21.9797091,5.03196364 L20.3597091,6.85741818 Z M17.8277091,11.2232364 L17.8277091,14.8730545 L3.67570909,14.8730545 L2.05570909,13.0712364 L3.67570909,11.2232364 L17.8277091,11.2232364 Z M21.2306182,2.01850909 C21.0928,1.86323636 20.8946182,1.77414545 20.6862545,1.77414545 L12.7266182,1.77414545 L12.7266182,1.00214545 C12.7266182,0.625781818 12.4004364,0.320327273 11.9993455,0.320327273 C11.5975273,0.320327273 11.2720727,0.625781818 11.2720727,1.00214545 L11.2720727,1.77414545 L5.45789091,1.77414545 C5.05570909,1.77414545 4.73061818,2.0996 4.73061818,2.50141818 L4.73061818,7.58469091 C4.73061818,7.98650909 5.05570909,8.31196364 5.45789091,8.31196364 L11.2720727,8.31196364 L11.2720727,9.76869091 L3.34916364,9.76869091 C3.1408,9.76869091 2.94298182,9.85741818 2.80516364,10.0130545 L0.539345455,12.5883273 C0.294981818,12.8639636 0.294981818,13.2785091 0.539345455,13.5541455 L2.80516364,16.1061455 C2.94370909,16.2614182 3.1408,16.3276 3.34916364,16.3276 L11.2720727,16.3276 L11.2720727,22.9112364 C11.2720727,23.2879636 11.5975273,23.5930545 11.9993455,23.5930545 C12.4004364,23.5930545 12.7266182,23.2879636 12.7266182,22.9112364 L12.7266182,16.3276 L18.5549818,16.3276 C18.9571636,16.3276 19.2822545,16.0021455 19.2822545,15.6003273 L19.2822545,10.4959636 C19.2822545,10.0937818 18.9571636,9.76869091 18.5549818,9.76869091 L12.7266182,9.76869091 L12.7266182,8.31196364 L20.6862545,8.31196364 C20.8946182,8.31196364 21.0928,8.22323636 21.2306182,8.0676 L23.4964364,5.51523636 C23.7404364,5.2396 23.7404364,4.82469091 23.4964364,4.54905455 L21.2306182,2.01850909 Z" id="path-1"></path>
    </defs>
    <g id="Page-1" stroke="none" stroke-width="1" fill="none" fill-rule="evenodd">
        <g id="C3p-icon-pack" transform="translate(-1059.000000, -471.000000)">
            <g id="Group" transform="translate(63.000000, 86.000000)">
                <g id="c3p-directions" transform="translate(996.000000, 385.000000)">
                    <mask id="mask-2" fill="white">
                        <use xlink:href="#path-1"></use>
                    </mask>
                    <use id="Mask" fill="#000000" xlink:href="#path-1"></use>
                </g>
            </g>
        </g>
    </g>
</svg>