<?xml version="1.0" encoding="UTF-8"?>
<svg width="24px" height="24px" viewBox="0 0 24 24" version="1.1" xmlns="http://www.w3.org/2000/svg" xmlns:xlink="http://www.w3.org/1999/xlink">
    <!-- Generator: Sketch 52.4 (67378) - http://www.bohemiancoding.com/sketch -->
    <title>c3p-refresh</title>
    <desc>Created with Sketch.</desc>
    <g id="Page-1" stroke="none" stroke-width="1" fill="none" fill-rule="evenodd">
        <g id="C3p-icon-pack" transform="translate(-279.000000, -147.000000)" fill="#000000">
            <g id="Group" transform="translate(63.000000, 86.000000)">
                <g id="c3p-refresh" transform="translate(216.000000, 61.000000)">
                    <path d="M16.0303403,19.8982925 C18.0950567,18.829397 19.6199522,17.0208 20.3238328,14.8056358 C21.0284299,12.5908299 20.8278328,10.2341731 19.7592955,8.16945672 C18.6287881,5.98509851 16.6880119,4.37494925 14.306997,3.75130746 C14.0150567,3.67429254 13.7163104,3.61841194 13.4161313,3.57220299 L14.7816239,5.69065075 C14.9320716,5.93745672 14.9152358,6.29566567 14.6612657,6.43429254 L14.4946985,6.55035224 C14.2400119,6.6889791 13.9133254,6.60157612 13.7628776,6.35369552 L11.642997,3.0409791 C11.6401313,3.03703881 11.6358328,3.03417313 11.6340418,3.02987463 L11.4975642,2.80599403 C11.4219821,2.68277015 11.4058627,2.54163582 11.440609,2.41411343 C11.4742806,2.28659104 11.5584597,2.17303881 11.6856239,2.10282985 L11.9159522,1.9767403 C11.9198925,1.97387463 11.9249075,1.97494925 11.929206,1.97208358 L15.3615642,0.214710448 C15.6148179,0.0760835821 15.9422209,0.163486567 16.0933851,0.411367164 L16.1661015,0.599426866 C16.3165493,0.846949254 16.1653851,1.16038209 15.9114149,1.29972537 L14.0698627,2.23357612 C14.2715343,2.27333731 14.473206,2.31345672 14.6709373,2.36539701 C17.4427582,3.09148657 19.7152358,4.96706866 21.0312955,7.51106866 C22.2760716,9.91500896 22.5096239,12.6599642 21.6896836,15.2401433 C20.8697433,17.819606 19.0941015,19.9262328 16.6894448,21.1702925 C16.5837731,21.2247403 16.4709373,21.2505313 16.360609,21.2505313 C16.1009075,21.2505313 15.8512358,21.109397 15.7240716,20.8636657 C15.5421015,20.5119045 15.6792955,20.0802627 16.0303403,19.8982925 Z M6.96034627,23.2663164 C6.80989851,23.018794 6.8937194,22.7053612 7.14768955,22.5660179 L9.02327164,21.6149731 C8.99139104,21.6070925 8.95879403,21.6024358 8.92727164,21.594197 C6.15509254,20.8681075 3.80989851,18.9921672 2.49204776,16.447809 C1.24762985,14.0431522 1.0137194,11.2978388 1.8336597,8.71837612 C2.65395821,6.13819701 4.50231642,4.03192836 6.90697313,2.78751045 C7.25801791,2.60482388 7.69073433,2.74273433 7.87234627,3.09449552 C8.05431642,3.44589851 7.91676418,3.87825672 7.56500299,4.06022687 C5.50100299,5.12840597 3.90339104,6.93700299 3.19951045,9.15216716 C2.49527164,11.3673313 2.69622687,13.7239881 3.76476418,15.7887045 C4.89598806,17.9744955 6.9094806,19.585003 9.2894209,20.2075701 C9.40368955,20.2373015 9.52046567,20.2580776 9.63652537,20.2831522 L8.27783881,18.1750925 C8.12739104,17.9282866 8.1216597,17.5700776 8.37562985,17.4314507 L8.56476418,17.315391 C8.81909254,17.1767642 9.14613731,17.2641672 9.29622687,17.5120478 L11.4161075,20.824406 C11.4189731,20.8287045 11.4232716,20.8315701 11.4254209,20.8358687 L11.5618985,21.0597493 C11.6374806,21.1829731 11.6536,21.3241075 11.6184955,21.4516299 C11.5848239,21.578794 11.501003,21.6927045 11.3734806,21.7629134 L11.1435104,21.8886448 C11.1392119,21.8915104 11.134197,21.890794 11.1302567,21.8936597 L7.69789851,23.6510328 C7.44464478,23.7896597 7.18422687,23.7022567 7.03306269,23.4543761 L6.96034627,23.2663164 Z" id="Shape"></path>
                </g>
            </g>
        </g>
    </g>
</svg>