<?xml version="1.0" encoding="UTF-8"?>
<svg width="24px" height="24px" viewBox="0 0 24 24" version="1.1" xmlns="http://www.w3.org/2000/svg" xmlns:xlink="http://www.w3.org/1999/xlink">
    <!-- Generator: Sketch 52.4 (67378) - http://www.bohemiancoding.com/sketch -->
    <title>c3p-eye</title>
    <desc>Created with Sketch.</desc>
    <g id="Page-1" stroke="none" stroke-width="1" fill="none" fill-rule="evenodd">
        <g id="C3p-icon-pack" transform="translate(-225.000000, -309.000000)" fill="#000000">
            <g id="Group" transform="translate(63.000000, 86.000000)">
                <g id="c3p-eye" transform="translate(162.000000, 223.000000)">
                    <path d="M12.2036308,5.20749231 C8.00953846,5.20749231 3.83649231,7.46976923 1.83230769,11.8879846 C3.85569231,16.3220769 7.97372308,18.5271231 12.1574769,18.5271231 C16.3515692,18.5271231 20.4780923,16.3102615 22.4815385,11.8931538 C20.4766154,7.47235385 16.3962462,5.20749231 12.2036308,5.20749231 Z M12.1574769,20.0040462 C7.22455385,20.0040462 2.54898462,17.2196769 0.400061538,12.3022615 C0.390830769,12.2819538 0.392307692,12.2572154 0.384923077,12.2365385 C0.380123077,12.2221385 0.369046154,12.2151231 0.364615385,12.1985077 C0.3528,12.1630615 0.3576,12.1224462 0.350215385,12.0855231 C0.336553846,12.0183231 0.324,11.9551846 0.324,11.8872462 C0.324,11.8204154 0.336553846,11.7554308 0.350215385,11.6893385 C0.3576,11.6516769 0.3528,11.6129077 0.364615385,11.5756154 C0.369046154,11.5619538 0.380123077,11.5538308 0.384923077,11.5394308 C0.392307692,11.5161692 0.390830769,11.4943846 0.400061538,11.4740769 C2.54898462,6.55592308 7.27070769,3.73056923 12.2036308,3.73056923 C17.1369231,3.73056923 21.7652308,6.56109231 23.9137846,11.4785077 C23.9244923,11.4988154 23.9222769,11.5235538 23.9304,11.5446 C23.9352,11.5578923 23.9455385,11.5671231 23.9496,11.5826308 C23.9614154,11.6188154 23.9569846,11.6586923 23.9654769,11.6956154 C23.9787692,11.7628154 23.9909538,11.8266923 23.9909538,11.8931538 C23.9909538,11.9610923 23.9787692,12.0257077 23.9654769,12.0921692 C23.9569846,12.1294615 23.9614154,12.1693385 23.9496,12.2051538 C23.9455385,12.2191846 23.9352,12.2287846 23.9304,12.2417077 C23.9222769,12.2646 23.9244923,12.2871231 23.9137846,12.3078 C21.7652308,17.2255846 17.0907692,20.0040462 12.1574769,20.0040462 Z M12.2036308,8.91349846 C10.5749538,8.91349846 9.24978462,10.2386677 9.24978462,11.8673446 C9.24978462,13.4963908 10.6089231,14.8536831 12.2376,14.8536831 C13.8666462,14.8536831 15.1574769,13.4963908 15.1574769,11.8673446 C15.1574769,10.2386677 13.8326769,8.91349846 12.2036308,8.91349846 Z M12.2376,16.3306062 C9.79070769,16.3306062 7.80683077,14.3467292 7.80683077,11.8998369 C7.80683077,9.45294462 9.79070769,7.46906769 12.2376,7.46906769 C14.6844923,7.46906769 16.6683692,9.45294462 16.6683692,11.8998369 C16.6683692,14.3467292 14.6844923,16.3306062 12.2376,16.3306062 Z" id="Shape"></path>
                </g>
            </g>
        </g>
    </g>
</svg>