<?xml version="1.0" encoding="UTF-8"?>
<svg width="24px" height="24px" viewBox="0 0 24 24" version="1.1" xmlns="http://www.w3.org/2000/svg" xmlns:xlink="http://www.w3.org/1999/xlink">
    <!-- Generator: Sketch 52.4 (67378) - http://www.bohemiancoding.com/sketch -->
    <title>c3p-printer</title>
    <desc>Created with Sketch.</desc>
    <g id="Page-1" stroke="none" stroke-width="1" fill="none" fill-rule="evenodd">
        <g id="C3p-icon-pack" transform="translate(-1059.000000, -147.000000)" fill="#000000">
            <g id="Group" transform="translate(63.000000, 86.000000)">
                <g id="c3p-printer" transform="translate(996.000000, 61.000000)">
                    <path d="M18.4716185,10.6638646 C18.0639877,10.6638646 17.7331569,10.3330338 17.7331569,9.92540308 C17.7331569,9.51777231 18.0639877,9.18694154 18.4716185,9.18694154 L19.21008,9.18694154 C19.6177108,9.18694154 19.9485415,9.51777231 19.9485415,9.92540308 C19.9485415,10.3330338 19.6177108,10.6638646 19.21008,10.6638646 L18.4716185,10.6638646 Z M1.48593231,7.86779077 L1.48593231,17.8805908 C1.48593231,17.9743754 1.56162462,18.0500677 1.65467077,18.0500677 L4.44051692,18.0500677 L4.44051692,12.8723446 L19.2104862,12.8723446 L19.2104862,18.0500677 L21.9963323,18.0500677 C22.0893785,18.0500677 22.1650708,17.9743754 22.1650708,17.8805908 L22.1650708,7.86779077 C22.1650708,7.77400615 22.0893785,7.69831385 21.9963323,7.69831385 L1.65467077,7.69831385 C1.56162462,7.69831385 1.48593231,7.77400615 1.48593231,7.86779077 Z M5.91744,6.22139077 L17.7335631,6.22139077 L17.7335631,1.80354462 L5.91744,1.80354462 L5.91744,6.22139077 Z M5.91744,22.4812062 L17.7335631,22.4812062 L17.7335631,14.3492677 L5.91744,14.3492677 L5.91744,22.4812062 Z M1.65467077,19.5269908 C0.747470769,19.5269908 0.00900923077,18.7885292 0.00900923077,17.8805908 L0.00900923077,7.86779077 C0.00900923077,6.95985231 0.747470769,6.22139077 1.65467077,6.22139077 L4.44051692,6.22139077 L4.44051692,0.349513846 L19.2104862,0.349513846 L19.2104862,6.22139077 L21.9963323,6.22139077 C22.9035323,6.22139077 23.6419938,6.95985231 23.6419938,7.86779077 L23.6419938,17.8805908 C23.6419938,18.7885292 22.9035323,19.5269908 21.9963323,19.5269908 L19.2104862,19.5269908 L19.2104862,23.95776 L4.44051692,23.95776 L4.44051692,19.5269908 L1.65467077,19.5269908 Z" id="Shape"></path>
                </g>
            </g>
        </g>
    </g>
</svg>