<?xml version="1.0" encoding="UTF-8"?>
<svg width="24px" height="24px" viewBox="0 0 24 24" version="1.1" xmlns="http://www.w3.org/2000/svg" xmlns:xlink="http://www.w3.org/1999/xlink">
    <!-- Generator: Sketch 52.4 (67378) - http://www.bohemiancoding.com/sketch -->
    <title>c3p-focus</title>
    <desc>Created with Sketch.</desc>
    <g id="Page-1" stroke="none" stroke-width="1" fill="none" fill-rule="evenodd">
        <g id="C3p-icon-pack" transform="translate(-1623.000000, -86.000000)" fill="#000000">
            <g id="Group" transform="translate(63.000000, 86.000000)">
                <g id="c3p-focus" transform="translate(1560.000000, 0.000000)">
                    <path d="M11.84375,6.75 C14.6506787,6.75 16.9375,9.03682131 16.9375,11.84375 C16.9375,14.6506787 14.6506787,16.9375 11.84375,16.9375 C9.03682131,16.9375 6.75,14.6506787 6.75,11.84375 C6.75,9.03682131 9.03682131,6.75 11.84375,6.75 Z M11.85,15.4 C13.8073375,15.4 15.4,13.8073375 15.4,11.85 C15.4,9.89266247 13.8073375,8.3 11.85,8.3 C9.89266247,8.3 8.3,9.89266247 8.3,11.85 C8.3,13.8073375 9.89266247,15.4 11.85,15.4 Z M21.0093851,3.3823123 C21.0093851,3.19555716 20.8602121,3.04638415 20.6734569,3.04638415 L15.1752295,3.04460593 C15.1363623,3.04749333 15.1363623,3.04749333 15.0971154,3.04807692 C14.6143973,3.04807692 14.2230769,2.65675657 14.2230769,2.17403846 C14.2230769,1.69132035 14.6143973,1.3 15.0971154,1.3 C15.1118296,1.30008181 15.1118296,1.30008181 15.1114845,1.30023953 L20.6734569,1.3 C21.8227796,1.3 22.7557692,2.2329896 22.7557692,3.3823123 L22.7548503,8.97300966 C22.7254404,9.43248821 22.3440568,9.79230769 21.8817308,9.79230769 C21.3990127,9.79230769 21.0076923,9.40098734 21.0076923,8.91826923 C21.008118,8.88964039 21.0082332,8.88189498 21.0093851,8.86471339 L21.0093851,3.3823123 Z M21.0076923,15.0971154 C21.0076923,14.6143973 21.3990127,14.2230769 21.8817308,14.2230769 C22.3440568,14.2230769 22.7254404,14.5828964 22.7557692,15.0711193 L22.7557692,20.6330723 C22.7557692,21.782395 21.8227796,22.7153846 20.6734376,22.7153846 L15.1264998,22.7148952 C15.1118296,22.7153028 15.1118296,22.7153028 15.0971154,22.7153846 C14.6143973,22.7153846 14.2230769,22.3240643 14.2230769,21.8413462 C14.2230769,21.358628 14.6143973,20.9673077 15.0971154,20.9673077 C15.1363623,20.9678913 15.1363623,20.9678913 15.135264,20.9690005 L20.6734569,20.9690005 C20.8602121,20.9690005 21.0093851,20.8198275 21.0093851,20.6330723 L21.0093851,15.1506712 C21.0082332,15.1334896 21.008118,15.1257442 21.0076923,15.0971154 Z M3.3823123,3.04638415 C3.19555716,3.04638415 3.04638415,3.19555716 3.04638415,3.3823123 L3.04460593,8.88053975 C3.04749333,8.91940692 3.04749333,8.91940692 3.04807692,8.95865385 C3.04807692,9.44137196 2.65675657,9.83269231 2.17403846,9.83269231 C1.69132035,9.83269231 1.3,9.44137196 1.3,8.95865385 C1.30008181,8.94393959 1.30008181,8.94393959 1.30023953,8.9442847 L1.3,3.3823123 C1.3,2.2329896 2.2329896,1.3 3.3823123,1.3 L8.97300966,1.30091898 C9.43248821,1.33032884 9.79230769,1.71171247 9.79230769,2.17403846 C9.79230769,2.65675657 9.40098734,3.04807692 8.91826923,3.04807692 C8.88964039,3.04765122 8.88189498,3.04753604 8.86471339,3.04638415 L3.3823123,3.04638415 Z M8.91826923,21.0076923 C9.40098734,21.0076923 9.79230769,21.3990127 9.79230769,21.8817308 C9.79230769,22.3440568 9.43248821,22.7254404 8.94426532,22.7557692 L3.3823123,22.7557692 C2.2329896,22.7557692 1.3,21.8227796 1.3,20.6734376 L1.30048946,15.1264998 C1.30008181,15.1118296 1.30008181,15.1118296 1.3,15.0971154 C1.3,14.6143973 1.69132035,14.2230769 2.17403846,14.2230769 C2.65675657,14.2230769 3.04807692,14.6143973 3.04807692,15.0971154 C3.04749333,15.1363623 3.04749333,15.1363623 3.04638415,15.135264 L3.04638415,20.6734569 C3.04638415,20.8602121 3.19555716,21.0093851 3.3823123,21.0093851 L8.86471339,21.0093851 C8.88189498,21.0082332 8.88964039,21.008118 8.91826923,21.0076923 Z" id="Shape"></path>
                </g>
            </g>
        </g>
    </g>
</svg>