<?xml version="1.0" encoding="UTF-8"?>
<svg width="24px" height="24px" viewBox="0 0 24 24" version="1.1" xmlns="http://www.w3.org/2000/svg" xmlns:xlink="http://www.w3.org/1999/xlink">
    <!-- Generator: Sketch 52.4 (67378) - http://www.bohemiancoding.com/sketch -->
    <title>c3p-folder-open</title>
    <desc>Created with Sketch.</desc>
    <defs>
        <path d="M1.49390769,20.3099077 L22.1708308,20.3099077 L22.1708308,9.97144615 L1.49390769,9.97144615 L1.49390769,20.3099077 Z M1.49390769,4.80221538 L8.20356923,4.80221538 L10.0179692,6.58486154 L10.4820923,7.0176 L22.1708308,7.0176 L22.1708308,8.49452308 L1.49390769,8.49452308 L1.49390769,4.80221538 Z M1.49390769,21.7868308 L22.1708308,21.7868308 C22.9864615,21.7868308 23.6477538,21.1255385 23.6477538,20.3099077 L23.6477538,7.0176 C23.6477538,6.20196923 22.9864615,5.54067692 22.1708308,5.54067692 L11.0939077,5.54067692 L8.87852308,3.32529231 L1.49390769,3.32529231 C0.678276923,3.32529231 0.0169846154,3.98658462 0.0169846154,4.80221538 L0.0169846154,8.49452308 L0.00996923077,8.49452308 L0.00996923077,9.97144615 L0.0169846154,9.97144615 L0.0169846154,20.3099077 C0.0169846154,21.1255385 0.678276923,21.7868308 1.49390769,21.7868308 Z" id="path-1"></path>
    </defs>
    <g id="Page-1" stroke="none" stroke-width="1" fill="none" fill-rule="evenodd">
        <g id="C3p-icon-pack" transform="translate(-1059.000000, -417.000000)">
            <g id="Group" transform="translate(63.000000, 86.000000)">
                <g id="c3p-folder-open" transform="translate(996.000000, 331.000000)">
                    <mask id="mask-2" fill="white">
                        <use xlink:href="#path-1"></use>
                    </mask>
                    <use id="Mask" fill="#000000" xlink:href="#path-1"></use>
                </g>
            </g>
        </g>
    </g>
</svg>