<?xml version="1.0" encoding="UTF-8"?>
<svg width="24px" height="24px" viewBox="0 0 24 24" version="1.1" xmlns="http://www.w3.org/2000/svg" xmlns:xlink="http://www.w3.org/1999/xlink">
    <!-- Generator: Sketch 52.4 (67378) - http://www.bohemiancoding.com/sketch -->
    <title>c3p-music-tone-2</title>
    <desc>Created with Sketch.</desc>
    <defs>
        <path d="M4.61803077,22.1593846 C3.08203077,22.1593846 2.01126154,21.1857231 2.01126154,20.3132308 C2.01126154,19.4403692 3.08203077,18.4681846 4.61803077,18.4681846 C5.98455385,18.4681846 6.98073846,19.2384 7.18381538,20.0230154 L7.18381538,20.0322462 C7.18381538,20.1068308 7.19821538,20.1780923 7.21889231,20.2456615 C7.22036923,20.2681846 7.22406154,20.2907077 7.22406154,20.3132308 C7.22406154,21.1857231 6.15329231,22.1593846 4.61803077,22.1593846 Z M18.6259077,18.4670769 C17.1032,18.4670769 16.0420308,17.4937846 16.0420308,16.6209231 C16.0420308,15.7480615 17.1032,14.7758769 18.6259077,14.7758769 C20.1478769,14.7758769 21.2090462,15.7480615 21.2090462,16.6209231 C21.2090462,17.4937846 20.1478769,18.4670769 18.6259077,18.4670769 Z M8.66073846,4.99495385 L21.2145846,1.72689231 L21.2145846,14.0448 C20.5119385,13.5740308 19.6128615,13.2908308 18.6329231,13.2908308 C16.3820923,13.2908308 14.5566154,14.7825231 14.5566154,16.6201846 C14.5566154,18.4593231 16.3820923,19.9502769 18.6329231,19.9502769 C20.8844923,19.9502769 22.7084923,18.4593231 22.7084923,16.6201846 C22.7084923,16.5068308 22.7014769,16.3956923 22.6878154,16.2852923 C22.6881846,16.2727385 22.6915077,16.2605538 22.6915077,16.2476308 L22.6915077,0.853661538 C22.7003692,0.773169231 22.6970462,0.690092308 22.6782154,0.606276923 C22.6150769,0.262523077 22.3152615,0.00147692308 21.9530462,0.00147692308 C21.8168,0.00147692308 21.6908923,0.0409846154 21.5812308,0.1056 L7.78492308,3.69673846 C7.53606154,3.75803077 7.35181538,3.94449231 7.27612308,4.17415385 C7.21926154,4.27864615 7.18381538,4.39716923 7.18381538,4.52455385 L7.18381538,17.7371077 C6.48116923,17.2663385 5.58209231,16.9831385 4.60215385,16.9831385 C2.35132308,16.9831385 0.525846154,18.4744615 0.525846154,20.3124923 C0.525846154,22.1516308 2.35132308,23.6425846 4.60215385,23.6425846 C6.85372308,23.6425846 8.67772308,22.1516308 8.67772308,20.3124923 C8.67772308,20.2187077 8.66996923,20.1264 8.66036923,20.0344615 C8.66036923,20.0337231 8.66073846,20.0329846 8.66073846,20.0322462 L8.66073846,4.99495385 Z" id="path-1"></path>
    </defs>
    <g id="Page-1" stroke="none" stroke-width="1" fill="none" fill-rule="evenodd">
        <g id="C3p-icon-pack" transform="translate(-615.000000, -363.000000)">
            <g id="Group" transform="translate(63.000000, 86.000000)">
                <g id="c3p-music-tone-2" transform="translate(552.000000, 277.000000)">
                    <mask id="mask-2" fill="white">
                        <use xlink:href="#path-1"></use>
                    </mask>
                    <use id="Mask" fill="#000000" xlink:href="#path-1"></use>
                </g>
            </g>
        </g>
    </g>
</svg>