<?xml version="1.0" encoding="UTF-8"?>
<svg width="24px" height="24px" viewBox="0 0 24 24" version="1.1" xmlns="http://www.w3.org/2000/svg" xmlns:xlink="http://www.w3.org/1999/xlink">
    <!-- Generator: Sketch 52.4 (67378) - http://www.bohemiancoding.com/sketch -->
    <title>c3p-shield</title>
    <desc>Created with Sketch.</desc>
    <g id="Page-1" stroke="none" stroke-width="1" fill="none" fill-rule="evenodd">
        <g id="C3p-icon-pack" transform="translate(-1341.000000, -302.000000)" fill="#000000">
            <g id="Group" transform="translate(63.000000, 86.000000)">
                <g id="c3p-shield" transform="translate(1278.000000, 216.000000)">
                    <path d="M14.9383625,8.121825 C15.2312375,8.4147 15.2312375,8.889825 14.9383625,9.182325 L12.8169875,11.3037 L14.9383625,13.42545 C15.2312375,13.71795 15.2312375,14.1927 14.9383625,14.48595 C14.6454875,14.778825 14.1703625,14.778825 13.8778625,14.48595 L11.7564875,12.3642 L9.6351125,14.48595 C9.3422375,14.778825 8.8674875,14.778825 8.5742375,14.48595 C8.2813625,14.1927 8.2813625,13.71795 8.5742375,13.42545 L10.6956125,11.3037 L8.5742375,9.182325 C8.2813625,8.889825 8.2813625,8.4147 8.5742375,8.121825 C8.8674875,7.82895 9.3422375,7.82895 9.6351125,8.121825 L11.7564875,10.2432 L13.8778625,8.121825 C14.1703625,7.82895 14.6454875,7.82895 14.9383625,8.121825 Z M20.017325,4.4897625 C20.017325,4.4897625 19.733075,4.5096375 19.274825,4.5096375 C18.488075,4.5096375 17.1872,4.4515125 15.917075,4.1395125 C13.8422,3.6298875 11.726825,1.5287625 11.726825,1.5287625 C11.726825,1.5287625 9.701825,3.6298875 7.6247,4.1395125 C6.356075,4.4515125 5.0327,4.5096375 4.24595,4.5096375 C3.786575,4.5096375 3.503075,4.4897625 3.503075,4.4897625 L3.503075,8.2405125 C3.503075,21.0118875 11.726825,22.4852625 11.726825,22.4852625 C11.726825,22.4852625 20.017325,21.0118875 20.017325,8.2405125 L20.017325,4.4897625 Z M12.56045,0.2811375 C13.06145,0.6167625 14.78345,2.3166375 16.2752,2.6830125 C17.430575,2.9668875 18.650075,3.0096375 19.274825,3.0096375 C19.6517,3.0096375 19.892825,2.9950125 19.9142,2.9935125 C19.948325,2.9912625 19.982825,2.9897625 20.017325,2.9897625 C20.396075,2.9897625 20.762075,3.1333875 21.0407,3.3932625 C21.34445,3.6767625 21.517325,4.0738875 21.517325,4.4897625 L21.517325,8.2405125 C21.517325,22.1068875 12.37745,23.8922625 11.99195,23.9620125 C11.90495,23.9773875 11.815325,23.9852625 11.726825,23.9852625 C11.638325,23.9852625 11.54945,23.9773875 11.4617,23.9620125 C11.076575,23.8922625 2.003075,22.1068875 2.003075,8.2405125 L2.003075,4.4897625 C2.003075,4.0746375 2.176325,3.6782625 2.479325,3.3947625 C2.758325,3.1341375 3.1262,2.9897625 3.505325,2.9897625 C3.538325,2.9897625 3.571325,2.9912625 3.604325,2.9935125 C3.627575,2.9950125 3.8687,3.0096375 4.24595,3.0096375 C4.86995,3.0096375 6.1127,2.9668875 7.267325,2.6830125 C9.03095,2.2498875 10.8332,0.3216375 10.89395,0.2803875 C11.14595,0.1127625 11.43695,0.0287625 11.726825,0.0287625 C12.01745,0.0287625 12.30845,0.1127625 12.56045,0.2811375 Z" id="Shape"></path>
                </g>
            </g>
        </g>
    </g>
</svg>