<?xml version="1.0" encoding="UTF-8"?>
<svg width="24px" height="24px" viewBox="0 0 24 24" version="1.1" xmlns="http://www.w3.org/2000/svg" xmlns:xlink="http://www.w3.org/1999/xlink">
    <!-- Generator: Sketch 52.4 (67378) - http://www.bohemiancoding.com/sketch -->
    <title>c3p-airplane</title>
    <desc>Created with Sketch.</desc>
    <defs>
        <path d="M21.2976,3.93319385 L16.4363077,8.79448615 L15.9673846,9.26340923 L16.0057846,9.92470154 C16.0866462,11.3085785 16.2365538,13.7883323 16.3657846,15.9143631 C16.4795077,17.8066708 16.5876923,19.5937477 16.5950769,19.7458708 C16.5984,19.8503631 16.5998769,19.8751015 16.5027692,19.9925169 C16.2849231,20.2572554 15.8780308,20.7058708 15.5357538,21.0780554 C15.0040615,19.6465477 13.8878769,16.6225477 13.2712615,14.9299938 L12.4785231,12.7522708 L10.8395077,14.3912862 L7.82584615,17.2897477 L7.40603077,17.7088246 L7.39310769,18.30144 C7.38276923,18.7744246 7.38498462,19.6232862 7.38646154,20.3717169 C7.38756923,20.8373169 7.38867692,21.2560246 7.38646154,21.5277785 C7.34806154,21.4664862 7.31150769,21.4074092 7.27052308,21.3424246 C6.6624,20.3731938 5.82166154,19.0328862 5.56504615,18.6145477 L5.37747692,18.3080862 L5.06953846,18.1219938 C3.98843077,17.4688246 2.79987692,16.7215015 2.03741538,16.2319015 L2.06584615,16.2319015 C2.304,16.2319015 2.6976,16.2367015 3.13883077,16.2433477 C3.71593846,16.2511015 4.37058462,16.2607015 4.872,16.2607015 C5.06363077,16.2607015 5.23458462,16.2592246 5.37156923,16.2562708 L5.96455385,16.2426092 L6.38326154,15.8235323 L9.28541538,12.8301785 L10.9188923,11.19744 L8.75113846,10.3999015 C7.12172308,9.80064 4.00135385,8.63497846 2.54178462,8.08704 C2.91618462,7.74217846 3.36738462,7.33270154 3.63064615,7.11485538 C3.70449231,7.05430154 3.76135385,7.02328615 3.80086154,7.02328615 L3.85292308,7.02476308 C4.01575385,7.03288615 6.03803077,7.16470154 7.99310769,7.29245538 C10.0685538,7.42796308 12.4109538,7.58082462 13.7427692,7.66500923 L14.4084923,7.70710154 L14.88,7.23522462 L19.7398154,2.37540923 C20.4886154,1.62771692 21.2241231,1.51584 21.5963077,1.51584 C21.8370462,1.51584 22.0065231,1.56051692 22.0944,1.59448615 C22.2003692,1.87657846 22.3425231,2.88753231 21.2976,3.93319385 M23.1511385,0.538116923 C22.8668308,0.253809231 22.2948923,0.0389169231 21.5963077,0.0389169231 C20.7234462,0.0389169231 19.6526769,0.374178462 18.6956308,1.33122462 L13.8358154,6.19104 C11.0983385,6.01787077 4.08738462,5.55448615 3.91347692,5.54931692 C3.88246154,5.54784 3.84406154,5.54636308 3.80086154,5.54636308 C3.56455385,5.54636308 3.15544615,5.59177846 2.69021538,5.97614769 C2.14449231,6.42771692 1.00578462,7.49848615 1.00578462,7.49848615 C0.731076923,7.77393231 0.591876923,8.11510154 0.625107692,8.43596308 C0.645046154,8.63017846 0.750646154,8.98353231 1.22658462,9.16962462 C1.51569231,9.28260923 6.11667692,11.0039631 8.24123077,11.7859938 L5.33907692,14.7793477 C5.21095385,14.7823015 5.05144615,14.7837785 4.872,14.7837785 C3.98695385,14.7837785 2.61526154,14.7549785 2.06584615,14.7549785 C1.99310769,14.7549785 1.93476923,14.7549785 1.89341538,14.7560862 C1.72615385,14.7612554 1.38018462,14.6792862 0.466338462,15.4428554 L0.401353846,15.5034092 C0.127384615,15.7773785 0.0631384615,16.0506092 0.0576,16.2311631 C0.0516923077,16.4172554 0.101538462,16.6853169 0.370338462,16.9009477 C0.532061538,17.0316554 2.60529231,18.35904 4.3056,19.38624 C4.71323077,20.0508554 6.58892308,23.0323938 6.68713846,23.1937477 C6.82966154,23.4352246 7.06338462,23.5729477 7.34326154,23.5818092 L7.36652308,23.5818092 C7.63827692,23.5818092 7.91741538,23.44704 8.19064615,23.1815631 C8.96381538,22.2773169 8.85710769,21.9029169 8.86043077,21.7456246 C8.87298462,21.2523323 8.85193846,19.1624862 8.87003077,18.3339323 L11.8836923,15.4354708 C12.6539077,17.5515323 14.3376,22.1048862 14.4502154,22.3947323 C14.6377846,22.8706708 14.9911385,22.9751631 15.1849846,22.9947323 C15.2167385,22.9984246 15.2492308,22.9999015 15.2809846,22.9999015 C15.5723077,22.9999015 15.8743385,22.8629169 16.1217231,22.6155323 C16.1217231,22.6155323 17.1891692,21.4823631 17.6429538,20.9314708 C18.0971077,20.3805785 18.0790154,19.9101785 18.0705231,19.6882708 C18.0668308,19.5346708 17.6392615,12.5617477 17.4804923,9.83867077 L22.3417846,4.97737846 C24.0646154,3.25380923 23.7906462,1.17688615 23.1511385,0.538116923" id="path-1"></path>
    </defs>
    <g id="Page-1" stroke="none" stroke-width="1" fill="none" fill-rule="evenodd">
        <g id="C3p-icon-pack" transform="translate(-1449.000000, -302.000000)">
            <g id="Group" transform="translate(63.000000, 86.000000)">
                <g id="c3p-airplane" transform="translate(1386.000000, 216.000000)">
                    <mask id="mask-2" fill="white">
                        <use xlink:href="#path-1"></use>
                    </mask>
                    <use id="Mask" fill="#000000" xlink:href="#path-1"></use>
                </g>
            </g>
        </g>
    </g>
</svg>