<?xml version="1.0" encoding="UTF-8"?>
<svg width="24px" height="24px" viewBox="0 0 24 24" version="1.1" xmlns="http://www.w3.org/2000/svg" xmlns:xlink="http://www.w3.org/1999/xlink">
    <!-- Generator: Sketch 52.4 (67378) - http://www.bohemiancoding.com/sketch -->
    <title>c3p-diamond</title>
    <desc>Created with Sketch.</desc>
    <defs>
        <path d="M17.3286806,7.11327761 L18.8657552,2.71160597 L21.1679642,7.11327761 L17.3286806,7.11327761 Z M13.071009,19.3049194 L16.8286209,8.54611343 L20.9741731,8.54611343 L13.071009,19.3049194 Z M11.4587104,19.5735761 L7.79924776,8.54611343 L15.3098149,8.54611343 L11.4587104,19.5735761 Z M2.15136716,8.54611343 L6.28939701,8.54611343 L9.85142687,19.2805612 L2.15136716,8.54611343 Z M4.28915821,2.51888955 L5.81369552,7.11327761 L1.84509851,7.11327761 L4.28915821,2.51888955 Z M10.1114866,2.09978507 L7.09715821,6.42981493 L5.66002388,2.09978507 L10.1114866,2.09978507 Z M11.5156657,2.5887403 L15.0300537,7.11327761 L8.36629254,7.11327761 L11.5156657,2.5887403 Z M17.5611582,2.09978507 L16.1311881,6.19482985 L12.9502925,2.09978507 L17.5611582,2.09978507 Z M22.8766209,7.2888 L19.7451582,1.30133731 C19.5624716,0.952441791 19.0903522,0.666949254 18.6963224,0.666949254 L11.4888,0.666949254 C11.4812776,0.666591045 11.473397,0.664441791 11.4658746,0.664083582 C11.4590687,0.664441791 11.4533373,0.666591045 11.4468896,0.666949254 L4.36796418,0.666949254 C3.97429254,0.666949254 3.50038209,0.951725373 3.31518806,1.29954627 L0.191964179,7.17130746 C0.00677014925,7.51912836 0.0436656716,8.06539701 0.273277612,8.38599403 L11.0202627,23.367009 C11.135606,23.5278448 11.2889194,23.6091582 11.4418746,23.6091582 C11.593397,23.6091582 11.7456358,23.529994 11.8616955,23.3720239 L22.7849194,8.5006209 C23.0181134,8.18288955 23.0593075,7.63805373 22.8766209,7.2888 Z" id="path-1"></path>
    </defs>
    <g id="Page-1" stroke="none" stroke-width="1" fill="none" fill-rule="evenodd">
        <g id="C3p-icon-pack" transform="translate(-1059.000000, -201.000000)">
            <g id="Group" transform="translate(63.000000, 86.000000)">
                <g id="c3p-diamond" transform="translate(996.000000, 115.000000)">
                    <mask id="mask-2" fill="white">
                        <use xlink:href="#path-1"></use>
                    </mask>
                    <use id="Mask" fill="#000000" xlink:href="#path-1"></use>
                </g>
            </g>
        </g>
    </g>
</svg>