<?xml version="1.0" encoding="UTF-8"?>
<svg width="24px" height="24px" viewBox="0 0 24 24" version="1.1" xmlns="http://www.w3.org/2000/svg" xmlns:xlink="http://www.w3.org/1999/xlink">
    <!-- Generator: Sketch 52.4 (67378) - http://www.bohemiancoding.com/sketch -->
    <title>c3p-forward</title>
    <desc>Created with Sketch.</desc>
    <defs>
        <path d="M10.5368625,19.3631625 L10.5368625,13.5746625 L1.5368625,19.3631625 L1.5368625,4.6399125 L10.5368625,10.4287875 L10.5368625,4.6399125 L22.3793625,12.0015375 L10.5368625,19.3631625 Z M23.9393625,12.0015375 C23.9393625,11.4829125 23.6727375,11.0014125 23.2324875,10.7276625 L11.3903625,3.3660375 C11.1488625,3.2156625 10.8736125,3.1399125 10.5991125,3.1399125 C10.3478625,3.1399125 10.0662375,3.2025375 9.8393625,3.3289125 C9.3631125,3.5932875 9.0368625,4.0954125 9.0368625,4.6399125 L9.0368625,7.7302875 L2.0472375,3.3660375 C1.8057375,3.2156625 1.5462375,3.1399125 1.2709875,3.1399125 C1.0204875,3.1399125 0.9023625,3.2025375 0.6747375,3.3289125 C0.1992375,3.5932875 0.0368625,4.0954125 0.0368625,4.6399125 L0.0368625,19.3631625 C0.0368625,19.9080375 0.2067375,20.4097875 0.6829875,20.6741625 C0.9098625,20.8001625 1.0984875,20.8631625 1.3493625,20.8631625 C1.6242375,20.8631625 1.8364875,20.7877875 2.0783625,20.6366625 L9.0368625,16.2731625 L9.0368625,19.3631625 C9.0368625,19.9080375 9.3631125,20.4097875 9.8393625,20.6741625 C10.0662375,20.8001625 10.3324875,20.8631625 10.5837375,20.8631625 C10.8582375,20.8631625 11.1413625,20.7877875 11.3832375,20.6366625 L23.2298625,13.2754125 C23.6697375,13.0020375 23.9393625,12.5201625 23.9393625,12.0015375 Z" id="path-1"></path>
    </defs>
    <g id="Page-1" stroke="none" stroke-width="1" fill="none" fill-rule="evenodd">
        <g id="C3p-icon-pack" transform="translate(-669.000000, -309.000000)">
            <g id="Group" transform="translate(63.000000, 86.000000)">
                <g id="c3p-forward" transform="translate(606.000000, 223.000000)">
                    <mask id="mask-2" fill="white">
                        <use xlink:href="#path-1"></use>
                    </mask>
                    <use id="Mask" fill="#000000" xlink:href="#path-1"></use>
                </g>
            </g>
        </g>
    </g>
</svg>