<?xml version="1.0" encoding="UTF-8"?>
<svg width="24px" height="24px" viewBox="0 0 24 24" version="1.1" xmlns="http://www.w3.org/2000/svg" xmlns:xlink="http://www.w3.org/1999/xlink">
    <!-- Generator: Sketch 52.4 (67378) - http://www.bohemiancoding.com/sketch -->
    <title>c3p-fire</title>
    <desc>Created with Sketch.</desc>
    <defs>
        <path d="M4.64963692,10.8149908 C4.83129846,11.2621292 5.04692923,11.7214523 5.28803692,12.1013908 C6.63351385,14.2218831 8.71191385,14.7624369 8.80348308,14.78496 C9.07191385,14.8492062 9.34994462,14.7583754 9.53123692,14.5534523 C9.71142154,14.3470523 9.76348308,14.0572062 9.66526769,13.8013292 C9.65308308,13.7703138 8.51806769,10.6370215 9.10219077,7.50262154 C9.70219077,4.28219077 11.56976,2.69856 12.7863754,1.98963692 C12.6637908,3.60760615 12.6434831,6.41745231 13.8456985,9.01572923 C14.4250215,10.2685292 15.7380062,12.1276062 15.79376,12.2062523 C15.9846523,12.4765292 16.3317292,12.5854523 16.6429908,12.4750523 C16.9546215,12.3646523 17.1551138,12.0604062 17.1336985,11.7306831 C17.1322215,11.7122215 17.0188677,9.87160615 17.46896,8.29831385 C17.5682831,7.94976 17.7037908,7.66065231 17.8503754,7.42397538 C17.9954831,8.15689846 18.2989908,9.07702154 18.9133908,10.1008985 C19.8327754,11.6343138 20.0709292,12.5293292 20.0709292,14.4567138 C20.0709292,18.9199754 16.6200985,22.1596062 11.8662523,22.1596062 C7.15412923,22.1596062 3.82662154,18.9199754 3.82662154,14.4567138 C3.82662154,13.1976369 4.24422154,11.83776 4.64963692,10.8149908 M11.8662523,23.6365292 C17.4759754,23.6365292 21.5478523,19.7762215 21.5478523,14.4567138 C21.5478523,12.2572062 21.2413908,11.1100062 20.1798523,9.34102154 C19.0042215,7.38151385 19.2132062,5.99985231 19.2213292,5.95000615 C19.2711754,5.67972923 19.1670523,5.40502154 18.9514215,5.23480615 C18.7350523,5.06532923 18.4429908,5.02766769 18.1930215,5.14176 C18.1295138,5.16982154 16.6285908,5.86286769 16.04816,7.89289846 C15.9019446,8.40502154 15.8066831,8.93265231 15.7453908,9.42889846 C15.52976,9.06779077 15.3292677,8.70631385 15.1856369,8.39542154 C13.6034831,4.97376 14.3493292,0.957636923 14.3563446,0.917021538 C14.4054523,0.665575385 14.3186831,0.406006154 14.1300062,0.232836923 C13.9402215,0.0604061538 13.6762215,-0.00384 13.42736,0.0677907692 C13.2342523,0.123175385 8.71892923,1.49560615 7.64963692,7.23160615 C7.26009846,9.32145231 7.49972923,11.3581292 7.81172923,12.7117292 C7.35019077,12.3986215 6.93997538,11.9477908 6.53529846,11.30976 C5.93345231,10.3612062 5.47671385,8.65351385 5.47265231,8.63652923 C5.39548308,8.34594462 5.14994462,8.13068308 4.85234462,8.09265231 C4.55068308,8.05942154 4.26231385,8.20157538 4.11536,8.46336 C4.04299077,8.59111385 2.34969846,11.6328369 2.34969846,14.4567138 C2.34969846,19.7762215 6.29899077,23.6365292 11.8662523,23.6365292" id="path-1"></path>
    </defs>
    <g id="Page-1" stroke="none" stroke-width="1" fill="none" fill-rule="evenodd">
        <g id="C3p-icon-pack" transform="translate(-1395.000000, -140.000000)">
            <g id="Group" transform="translate(63.000000, 86.000000)">
                <g id="c3p-fire" transform="translate(1332.000000, 54.000000)">
                    <mask id="mask-2" fill="white">
                        <use xlink:href="#path-1"></use>
                    </mask>
                    <use id="Mask" fill="#000000" xlink:href="#path-1"></use>
                </g>
            </g>
        </g>
    </g>
</svg>