<?xml version="1.0" encoding="UTF-8"?>
<svg width="24px" height="24px" viewBox="0 0 24 24" version="1.1" xmlns="http://www.w3.org/2000/svg" xmlns:xlink="http://www.w3.org/1999/xlink">
    <!-- Generator: Sketch 52.4 (67378) - http://www.bohemiancoding.com/sketch -->
    <title>c3p-layers</title>
    <desc>Created with Sketch.</desc>
    <g id="Page-1" stroke="none" stroke-width="1" fill="none" fill-rule="evenodd">
        <g id="C3p-icon-pack" transform="translate(-951.000000, -363.000000)" fill="#000000">
            <g id="Group" transform="translate(63.000000, 86.000000)">
                <g id="c3p-layers" transform="translate(888.000000, 277.000000)">
                    <path d="M2.79300923,10.2333415 L4.37073231,11.0929108 L2.40199385,12.0824492 L11.7756554,17.1866954 L21.2597169,12.0758031 L19.4135631,11.1383262 L20.9957169,10.2854031 L23.1871015,11.3978954 C23.4315323,11.5226954 23.5873477,11.7722954 23.59104,12.0477415 C23.5947323,12.3224492 23.4448246,12.57648 23.2029785,12.70608 L12.12384,18.6765415 C12.0145477,18.7356185 11.8938092,18.7651569 11.77344,18.7651569 C11.6515938,18.7651569 11.5304862,18.73488 11.4200862,18.6750646 L0.456516923,12.7046031 C0.215778462,12.5735262 0.0669784615,12.3187569 0.0714092308,12.0440492 C0.07584,11.7693415 0.232763077,11.5197415 0.477932308,11.3964185 L2.79300923,10.2333415 Z M2.65454769,15.5641108 L4.23227077,16.42368 L2.40199385,17.2514954 L11.7756554,22.3561108 L21.2597169,17.2452185 L19.5287631,16.4000492 L21.1109169,15.5467569 L23.1871015,16.5673108 C23.4315323,16.6921108 23.5873477,16.9413415 23.59104,17.2171569 C23.5947323,17.4918646 23.4448246,17.7455262 23.2029785,17.8754954 L12.12384,23.8459569 C12.0145477,23.9050338 11.8938092,23.9345723 11.77344,23.9345723 C11.6515938,23.9345723 11.5304862,23.9042954 11.4200862,23.84448 L0.456516923,17.8740185 C0.215778462,17.7425723 0.0669784615,17.4881723 0.0714092308,17.2134646 C0.07584,16.9387569 0.232763077,16.6891569 0.477932308,16.5658338 L2.65454769,15.5641108 Z M11.9026338,11.7607385 L21.3866954,6.64984615 L12.0137723,1.88972308 L2.52897231,6.65649231 L11.9026338,11.7607385 Z M23.31408,5.97193846 C23.5585108,6.09673846 23.7143262,6.34633846 23.7180185,6.62178462 C23.7217108,6.89649231 23.5718031,7.15052308 23.3299569,7.28012308 L12.2508185,13.2505846 C12.1411569,13.3096615 12.0207877,13.3392 11.9004185,13.3392 C11.7785723,13.3392 11.6574646,13.3089231 11.5470646,13.2491077 L0.583495385,7.27864615 C0.342387692,7.14756923 0.193956923,6.8928 0.198387692,6.61809231 C0.202818462,6.34338462 0.359741538,6.09378462 0.604910769,5.97046154 L11.6833108,0.402461538 C11.8941415,0.297230769 12.1407877,0.297969231 12.3497723,0.403938462 L23.31408,5.97193846 Z" id="Shape"></path>
                </g>
            </g>
        </g>
    </g>
</svg>