<?xml version="1.0" encoding="UTF-8"?>
<svg width="25px" height="24px" viewBox="0 0 25 24" version="1.1" xmlns="http://www.w3.org/2000/svg" xmlns:xlink="http://www.w3.org/1999/xlink">
    <!-- Generator: Sketch 52.4 (67378) - http://www.bohemiancoding.com/sketch -->
    <title>c3p-logo-full</title>
    <desc>Created with Sketch.</desc>
    <g id="Page-1" stroke="none" stroke-width="1" fill="none" fill-rule="evenodd">
        <g id="C3p-icon-pack" transform="translate(-1623.000000, -464.000000)" fill="#000000">
            <g id="Group" transform="translate(63.000000, 86.000000)">
                <g id="c3p-logo-full" transform="translate(1560.000000, 378.000000)">
                    <g id="logo-full" transform="translate(0.000000, 7.000000)">
                        <g id="c3p" transform="translate(10.080000, 1.632000)">
                            <path d="M4.79175786,0.713499924 L4.11898132,1.50909006 C3.82355546,1.24663961 3.42147837,1.04156298 2.91275006,1.04156298 C1.97741689,1.04156298 1.18160415,1.86990979 1.18160415,2.92795037 C1.18160415,3.99422975 1.97741689,4.81433775 2.91275006,4.81433775 C3.42147837,4.81433775 3.83994042,4.58474325 4.14360842,4.32229281 L4.8,5.11788294 C4.30765666,5.56893242 3.64312225,5.856 2.8963651,5.856 C1.46868858,5.856 0,4.65859466 0,2.93618916 C0,1.19740534 1.46868858,0 2.8963651,0 C3.64312225,0 4.29941453,0.262450445 4.79175786,0.713499924" id="Fill-1"></path>
                            <path d="M8.01040248,2.24341579 C8.6816099,2.34243993 9.23829102,3.00226811 9.23829102,3.89298623 C9.23829102,5.12200355 8.23133127,5.856 7.12629102,5.856 C5.93119504,5.856 5.088,5.03954998 5.088,4.03323714 L6.13577709,4.03323714 C6.13577709,4.69306532 6.7169288,4.94881113 7.12629102,4.94881113 C7.49463777,4.94881113 8.19041486,4.74257739 8.19041486,3.89298623 C8.19041486,3.36512368 7.74835913,2.84554644 6.94627863,2.84554644 C6.83165325,2.84554644 6.6842353,2.86201718 6.54513932,2.8950585 L7.68287307,0.907288695 L5.29258205,0.907288695 L5.29258205,0 L9.312,0 L8.01040248,2.24341579 Z" id="Fill-3"></path>
                            <path d="M12.8721983,3.42357215 C12.8721983,2.6056663 12.3073801,2.14766674 11.7589091,2.14766674 C11.2268842,2.14766674 10.6946612,2.49124065 10.6946612,3.42357215 C10.6946612,4.33957127 11.2268842,4.70759426 11.7589091,4.70759426 C12.3073801,4.70759426 12.8721983,4.2495947 12.8721983,3.42357215 M13.92,3.42357215 C13.92,4.91209547 12.8231569,5.60735998 11.9226776,5.60735998 C11.2514544,5.60735998 10.8011652,5.1656928 10.7439008,4.92031116 L10.7439008,7.104 L9.696,7.104 L9.696,1.29709613 L10.7439008,1.29709613 L10.7439008,1.86962032 C10.8011652,1.61612197 11.2514544,1.248 11.9226776,1.248 C12.8231569,1.248 13.92,1.96771359 13.92,3.42357215" id="Fill-5" fill-rule="nonzero"></path>
                        </g>
                        <g id="carrot-monogram">
                            <polygon id="Path" points="3.712 3.70469798 0 1.99731543 0.00402384824 5.41208053"></polygon>
                            <polygon id="Path" points="1.984 0.00497222207 3.71301111 3.67248323 5.44 0"></polygon>
                            <polygon id="Path" points="9.6 9.6 6.14255988 1.2885906 1.28 6.09726351"></polygon>
                        </g>
                    </g>
                </g>
            </g>
        </g>
    </g>
</svg>