<?xml version="1.0" encoding="UTF-8"?>
<svg width="24px" height="24px" viewBox="0 0 24 24" version="1.1" xmlns="http://www.w3.org/2000/svg" xmlns:xlink="http://www.w3.org/1999/xlink">
    <!-- Generator: Sketch 52.4 (67378) - http://www.bohemiancoding.com/sketch -->
    <title>c3p-lightning</title>
    <desc>Created with Sketch.</desc>
    <defs>
        <path d="M18.4112985,10.3445908 L10.1944369,22.2135138 L11.8604062,12.58176 L5.82422154,12.5607138 L14.0410831,1.56945231 L12.3747446,10.3242831 L18.4112985,10.3445908 Z M15.5268677,1.56945231 C15.5268677,0.770436923 14.8910523,0.119483077 14.0949908,0.0932676923 C14.0768985,0.0925292308 14.0595446,0.0925292308 14.0421908,0.0925292308 C14.0023138,0.0925292308 13.9624369,0.0940061538 13.9232985,0.09696 C13.6626215,0.118006154 13.4898215,0.205144615 13.2845292,0.342867692 C13.1711754,0.41856 13.0666831,0.510867692 12.9754831,0.618313846 C12.9485292,0.650067692 12.9234215,0.683298462 12.8994215,0.717267692 L4.62422154,11.6701292 C4.29708308,12.1180062 4.24945231,12.7091446 4.50016,13.2031754 C4.75086769,13.6972062 5.25782154,14.0103138 5.81351385,14.0143754 L10.0766523,14.0453908 L8.73597538,21.9421292 C8.60859077,22.6207754 8.97080615,23.2972062 9.60736,23.5696985 C9.79714462,23.6512985 9.99652923,23.6904369 10.1936985,23.6904369 C10.6578215,23.6904369 11.0392369,23.4733292 11.3253908,23.0808369 L19.6116677,11.2122831 C19.9384369,10.7644062 19.9860677,10.17216 19.73536,9.67886769 C19.4846523,9.18483692 18.9776985,8.87209846 18.4220062,8.86766769 L14.1588677,8.86028308 L15.4847754,1.91726769 C15.5124677,1.80539077 15.5268677,1.68945231 15.5268677,1.56945231 Z" id="path-1"></path>
    </defs>
    <g id="Page-1" stroke="none" stroke-width="1" fill="none" fill-rule="evenodd">
        <g id="C3p-icon-pack" transform="translate(-1341.000000, -410.000000)">
            <g id="Group" transform="translate(63.000000, 86.000000)">
                <g id="c3p-lightning" transform="translate(1278.000000, 324.000000)">
                    <mask id="mask-2" fill="white">
                        <use xlink:href="#path-1"></use>
                    </mask>
                    <use id="Mask" fill="#000000" xlink:href="#path-1"></use>
                </g>
            </g>
        </g>
    </g>
</svg>