<?xml version="1.0" encoding="UTF-8"?>
<svg width="24px" height="24px" viewBox="0 0 24 24" version="1.1" xmlns="http://www.w3.org/2000/svg" xmlns:xlink="http://www.w3.org/1999/xlink">
    <!-- Generator: Sketch 52.4 (67378) - http://www.bohemiancoding.com/sketch -->
    <title>c3p-volume-1</title>
    <desc>Created with Sketch.</desc>
    <defs>
        <path d="M18.5364,8.1592125 C20.422275,8.4742125 21.79215,10.1485875 21.79215,12.1405875 C21.79215,14.0684625 20.432025,15.7390875 18.557775,16.1118375 C18.50865,16.1219625 18.458775,16.1264625 18.4104,16.1264625 C18.059775,16.1264625 17.747025,15.8797125 17.675775,15.5230875 C17.5944,15.1165875 17.858025,14.7217125 18.264525,14.6410875 C19.4394,14.4067125 20.29215,13.3555875 20.29215,12.1405875 C20.29215,10.8644625 19.4679,9.8358375 18.2889,9.6385875 C17.8809,9.5707125 17.6049,9.1837125 17.672775,8.7757125 C17.741025,8.3669625 18.121275,8.0905875 18.5364,8.1592125 Z M14.2685625,20.3935875 L14.2685625,3.6273375 L7.7221875,8.8773375 C7.5984375,8.9605875 7.4525625,9.0052125 7.3036875,9.0052125 L4.5751875,9.0070875 C4.0933125,9.0070875 3.7576875,9.2804625 3.7576875,9.5264625 L3.7978125,14.4749625 C3.7978125,14.7269625 4.1338125,15.0014625 4.6153125,15.0014625 L7.3430625,15.0029625 C7.4926875,15.0029625 7.6385625,15.0475875 7.7623125,15.1312125 L14.2685625,20.3935875 Z M15.3706875,1.5565875 C15.6155625,1.6867125 15.7685625,1.9413375 15.7685625,2.2184625 L15.7685625,21.8050875 C15.7685625,22.0825875 15.6155625,22.3375875 15.3703125,22.4669625 C15.2604375,22.5258375 15.1393125,22.5550875 15.0185625,22.5550875 C14.8711875,22.5550875 14.7249375,22.5115875 14.5989375,22.4268375 L7.1131875,16.5029625 L4.6149375,16.5014625 C3.3376875,16.5014625 2.2978125,15.5947125 2.2978125,14.4805875 L2.2576875,9.5320875 C2.2576875,8.4130875 3.2971875,7.5070875 4.5748125,7.5070875 L7.0738125,7.5052125 L14.5996875,1.5963375 C14.8295625,1.4410875 15.1261875,1.4264625 15.3706875,1.5565875 Z" id="path-1"></path>
    </defs>
    <g id="Page-1" stroke="none" stroke-width="1" fill="none" fill-rule="evenodd">
        <g id="C3p-icon-pack" transform="translate(-117.000000, -471.000000)">
            <g id="Group" transform="translate(63.000000, 86.000000)">
                <g id="c3p-volume-1" transform="translate(54.000000, 385.000000)">
                    <mask id="mask-2" fill="white">
                        <use xlink:href="#path-1"></use>
                    </mask>
                    <use id="Mask" fill="#000000" xlink:href="#path-1"></use>
                </g>
            </g>
        </g>
    </g>
</svg>