<?xml version="1.0" encoding="UTF-8"?>
<svg width="24px" height="24px" viewBox="0 0 24 24" version="1.1" xmlns="http://www.w3.org/2000/svg" xmlns:xlink="http://www.w3.org/1999/xlink">
    <!-- Generator: Sketch 52.4 (67378) - http://www.bohemiancoding.com/sketch -->
    <title>c3p-globe-2</title>
    <desc>Created with Sketch.</desc>
    <g id="Page-1" stroke="none" stroke-width="1" fill="none" fill-rule="evenodd">
        <g id="C3p-icon-pack" transform="translate(-1005.000000, -309.000000)" fill="#000000">
            <g id="Group" transform="translate(63.000000, 86.000000)">
                <g id="c3p-globe-2" transform="translate(942.000000, 223.000000)">
                    <path d="M17.1341046,9.96686769 C17.1341046,6.29708308 14.1485046,3.28822154 10.47872,3.28822154 C6.80782769,3.28822154 3.82148923,6.29708308 3.82148923,9.96686769 C3.82148923,13.6366523 6.80782769,16.6000985 10.47872,16.6000985 C14.1485046,16.6000985 17.1341046,13.6366523 17.1341046,9.96686769 Z M2.34456615,9.96686769 C2.34456615,5.47480615 5.98592,1.81129846 10.47872,1.81129846 C14.9707815,1.81129846 18.6110277,5.47480615 18.6110277,9.96686769 C18.6110277,14.4589292 14.9707815,18.0770215 10.47872,18.0770215 C5.98592,18.0770215 2.34456615,14.4589292 2.34456615,9.96686769 Z M21.6139077,9.90055385 C21.6139077,15.8440615 17.6358154,20.2829538 11.9629538,20.9420308 L11.9629538,22.4835692 L14.1875692,22.4835692 C14.6136615,22.4835692 14.9592615,22.8136615 14.9592615,23.2209231 C14.9592615,23.6281846 14.6136615,23.9579077 14.1875692,23.9579077 L8.35261538,23.9579077 C7.92652308,23.9579077 7.58092308,23.6281846 7.58092308,23.2209231 C7.58092308,22.8136615 7.92652308,22.4835692 8.35261538,22.4835692 L10.4971077,22.4835692 L10.4971077,21.0299077 C10.4923077,21.0299077 10.4878769,21.0302769 10.4834462,21.0302769 C9.04270769,21.0302769 7.64295385,20.7596308 6.32258462,20.2260923 C5.94449231,20.0739692 5.76209231,19.6434462 5.91495385,19.2646154 C6.06744615,18.8868923 6.49833846,18.7037538 6.87643077,18.8573538 C8.01956923,19.3188923 9.23323077,19.5533538 10.4834462,19.5533538 C16.0769231,19.5533538 20.1369846,15.4936615 20.1369846,9.90055385 C20.1369846,6.53501538 18.3565538,3.47741538 15.3739077,1.72283077 C15.0216615,1.51569231 14.9049846,1.06264615 15.1113846,0.711507692 C15.3174154,0.359630769 15.7704615,0.241476923 16.1223385,0.448984615 C19.5606154,2.47273846 21.6139077,6.00553846 21.6139077,9.90055385 Z" id="Shape"></path>
                </g>
            </g>
        </g>
    </g>
</svg>