<?xml version="1.0" encoding="UTF-8"?>
<svg width="24px" height="24px" viewBox="0 0 24 24" version="1.1" xmlns="http://www.w3.org/2000/svg" xmlns:xlink="http://www.w3.org/1999/xlink">
    <!-- Generator: Sketch 52.4 (67378) - http://www.bohemiancoding.com/sketch -->
    <title>c3p-direction</title>
    <desc>Created with Sketch.</desc>
    <defs>
        <path d="M17.2032123,11.4023262 L2.48087385,11.4023262 L2.48087385,4.01771077 L17.2032123,4.01771077 L20.6481354,7.71001846 L17.2032123,11.4023262 Z M18.0642585,2.77524923 C17.92432,2.62571077 17.7289969,2.54078769 17.5240738,2.54078769 L11.3597662,2.54078769 L11.3365046,1.01771077 C11.3365046,0.635556923 11.0056738,0.325403077 10.5980431,0.325403077 C10.1904123,0.325403077 9.90573538,0.635556923 9.90573538,1.01771077 L9.88284308,2.54078769 L1.74241231,2.54078769 C1.33404308,2.54078769 1.00395077,2.87124923 1.00395077,3.27924923 L1.00395077,12.1407877 C1.00395077,12.5487877 1.33404308,12.8792492 1.74241231,12.8792492 L9.87324308,12.8792492 L9.87324308,23.2638646 C9.87324308,23.6460185 10.2044431,23.9561723 10.6117046,23.9561723 C11.0197046,23.9561723 11.3501662,23.6460185 11.3501662,23.2638646 L11.3501662,12.8792492 L17.5240738,12.8792492 C17.7289969,12.8792492 17.92432,12.7943262 18.0642585,12.6447877 L22.1977969,8.21401846 C22.4625354,7.93008 22.4625354,7.48995692 22.1977969,7.20601846 L18.0642585,2.77524923 Z" id="path-1"></path>
    </defs>
    <g id="Page-1" stroke="none" stroke-width="1" fill="none" fill-rule="evenodd">
        <g id="C3p-icon-pack" transform="translate(-1005.000000, -471.000000)">
            <g id="Group" transform="translate(63.000000, 86.000000)">
                <g id="c3p-direction" transform="translate(942.000000, 385.000000)">
                    <mask id="mask-2" fill="white">
                        <use xlink:href="#path-1"></use>
                    </mask>
                    <use id="Mask" fill="#000000" xlink:href="#path-1"></use>
                </g>
            </g>
        </g>
    </g>
</svg>