<?xml version="1.0" encoding="UTF-8"?>
<svg width="24px" height="24px" viewBox="0 0 24 24" version="1.1" xmlns="http://www.w3.org/2000/svg" xmlns:xlink="http://www.w3.org/1999/xlink">
    <!-- Generator: Sketch 52.4 (67378) - http://www.bohemiancoding.com/sketch -->
    <title>c3p-microphone</title>
    <desc>Created with Sketch.</desc>
    <g id="Page-1" stroke="none" stroke-width="1" fill="none" fill-rule="evenodd">
        <g id="C3p-icon-pack" transform="translate(-453.000000, -417.000000)" fill="#000000">
            <g id="Group" transform="translate(63.000000, 86.000000)">
                <g id="c3p-microphone" transform="translate(390.000000, 331.000000)">
                    <path d="M12.5358031,19.9400123 L12.1606646,19.9400123 L12.1606646,22.1553969 L15.8529723,22.1553969 C16.2609723,22.1553969 16.5914338,22.4862277 16.5914338,22.8938585 C16.5914338,23.3014892 16.2609723,23.63232 15.8529723,23.63232 L6.99143385,23.63232 C6.58380308,23.63232 6.25297231,23.3014892 6.25297231,22.8938585 C6.25297231,22.4862277 6.58380308,22.1553969 6.99143385,22.1553969 L10.6837415,22.1553969 L10.6837415,19.9400123 L10.3407262,19.9400123 C6.15844923,19.9400123 4.03758769,17.0223508 4.03758769,11.9339815 L4.03758769,8.86308923 C4.03758769,8.45545846 4.36841846,8.12462769 4.77604923,8.12462769 C5.18404923,8.12462769 5.51451077,8.45545846 5.51451077,8.86308923 L5.51451077,11.9339815 C5.51451077,14.9129354 6.12189538,18.4630892 10.3407262,18.4630892 L12.5358031,18.4630892 C15.7614031,18.4630892 17.3298954,16.3278277 17.3298954,11.9339815 L17.3298954,8.86308923 C17.3298954,8.45545846 17.6603569,8.12462769 18.0683569,8.12462769 C18.4767262,8.12462769 18.8068185,8.45545846 18.8068185,8.86308923 L18.8068185,11.9339815 C18.8068185,18.5509662 15.3966031,19.9400123 12.5358031,19.9400123 Z M9.20696615,12.6484431 C9.20696615,13.8982892 10.1071508,14.7707815 11.3965046,14.7707815 L11.57152,14.7707815 C12.8077046,14.7707815 13.6377354,13.9178585 13.6377354,12.6484431 L13.6377354,3.84672 C13.6377354,2.49681231 12.7493662,1.47847385 11.57152,1.47847385 L11.3965046,1.47847385 C10.18912,1.47847385 9.20696615,2.54075077 9.20696615,3.84672 L9.20696615,12.6484431 Z M11.57152,16.2477046 L11.3965046,16.2477046 C9.30628923,16.2477046 7.73004308,14.7002585 7.73004308,12.6484431 L7.73004308,3.84672 C7.73004308,1.72659692 9.37459692,0.00155076923 11.3965046,0.00155076923 L11.57152,0.00155076923 C13.5583508,0.00155076923 15.1146585,1.69041231 15.1146585,3.84672 L15.1146585,12.6484431 C15.1146585,14.7338585 13.6248123,16.2477046 11.57152,16.2477046 Z" id="Shape"></path>
                </g>
            </g>
        </g>
    </g>
</svg>