<?xml version="1.0" encoding="UTF-8"?>
<svg width="24px" height="24px" viewBox="0 0 24 24" version="1.1" xmlns="http://www.w3.org/2000/svg" xmlns:xlink="http://www.w3.org/1999/xlink">
    <!-- Generator: Sketch 52.4 (67378) - http://www.bohemiancoding.com/sketch -->
    <title>c3p-lock-open</title>
    <desc>Created with Sketch.</desc>
    <defs>
        <path d="M11.8690154,13.6615754 C12.6846462,13.6615754 13.3459385,14.3228677 13.3459385,15.1384985 C13.3459385,15.6838523 13.0468615,16.1546215 12.6074769,16.4104985 L12.6074769,18.8308062 C12.6074769,19.2384369 12.2766462,19.5692677 11.8690154,19.5692677 C11.4613846,19.5692677 11.1305538,19.2384369 11.1305538,18.8308062 L11.1305538,16.4104985 C10.6911692,16.1546215 10.3920923,15.6838523 10.3920923,15.1384985 C10.3920923,14.3228677 11.0533846,13.6615754 11.8690154,13.6615754 Z M19.9920923,21.0461908 L19.9920923,12.1846523 C19.9920923,11.3704985 19.3293231,10.7077292 18.5151692,10.7077292 L5.22286154,10.7077292 C4.40870769,10.7077292 3.74593846,11.3704985 3.74593846,12.1846523 L3.74593846,21.0461908 C3.74593846,21.8603446 4.40870769,22.5231138 5.22286154,22.5231138 L18.5151692,22.5231138 C19.3293231,22.5231138 19.9920923,21.8603446 19.9920923,21.0461908 Z M18.5151692,9.23080615 C20.1442154,9.23080615 21.4690154,10.5556062 21.4690154,12.1846523 L21.4690154,21.0461908 C21.4690154,22.6752369 20.1442154,24.0000369 18.5151692,24.0000369 L5.22286154,24.0000369 C3.59381538,24.0000369 2.26901538,22.6752369 2.26901538,21.0461908 L2.26901538,12.1846523 C2.26901538,10.5556062 3.59381538,9.23080615 5.22286154,9.23080615 L6.45830769,9.23080615 L6.16144615,7.89936 C5.29892308,4.68040615 6.89916923,1.44483692 10.2768923,0.539852308 C13.6416923,-0.36144 16.6970769,1.56779077 17.574,4.84102154 L17.8882154,6.08643692 C17.9938154,6.48077538 17.7600923,6.88508308 17.3661231,6.99105231 C16.9714154,7.09665231 16.5671077,6.86292923 16.4611385,6.46896 L16.1476615,5.22317538 C15.4845231,2.74969846 13.2240923,1.27942154 10.6594154,1.96656 C8.06815385,2.66071385 6.93646154,5.08508308 7.58778462,7.51683692 L7.96956923,9.23080615 L18.5151692,9.23080615 Z" id="path-1"></path>
    </defs>
    <g id="Page-1" stroke="none" stroke-width="1" fill="none" fill-rule="evenodd">
        <g id="C3p-icon-pack" transform="translate(-225.000000, -471.000000)">
            <g id="Group" transform="translate(63.000000, 86.000000)">
                <g id="c3p-lock-open" transform="translate(162.000000, 385.000000)">
                    <mask id="mask-2" fill="white">
                        <use xlink:href="#path-1"></use>
                    </mask>
                    <use id="Mask" fill="#000000" xlink:href="#path-1"></use>
                </g>
            </g>
        </g>
    </g>
</svg>