<?xml version="1.0" encoding="UTF-8"?>
<svg width="24px" height="24px" viewBox="0 0 24 24" version="1.1" xmlns="http://www.w3.org/2000/svg" xmlns:xlink="http://www.w3.org/1999/xlink">
    <!-- Generator: Sketch 52.4 (67378) - http://www.bohemiancoding.com/sketch -->
    <title>c3p-social-media-tumblr</title>
    <desc>Created with Sketch.</desc>
    <defs>
        <path d="M5.51391548,6.6968812 C6.51318146,6.6968812 9.5109794,6.09005013 9.5109794,1.49927379 L12.2512771,1.49927379 L12.2512771,6.7437335 L17.5058569,6.7437335 L17.5058569,8.99189455 L12.2745158,8.99189455 L12.2673943,15.5167341 C12.2673943,16.7300214 12.3303638,17.5081445 12.4581769,17.8537271 C12.6583299,18.3983383 13.3851029,19.0951258 14.7351989,19.0951258 C15.7820668,19.0951258 17.1940079,18.7802783 18.2524952,17.9882869 L18.2524952,21.4860927 C17.3697978,21.9070138 16.5489454,22.0768065 15.8337918,22.2465993 C15.1178886,22.4160172 14.342764,22.5007262 13.5110419,22.5007262 C12.5848655,22.5007262 9.9112855,22.4752386 8.81419191,19.6802174 C8.61628777,19.177211 8.51771051,18.4466899 8.51771051,17.490528 L8.51771051,8.99564274 L5.49929756,8.99564274 L5.51391548,6.6968812 Z M5.49929756,10.4949165 L7.01843672,10.4949165 L7.01843672,17.490528 C7.01843672,18.6472178 7.14924836,19.5430338 7.41874283,20.2285768 C8.09454049,21.9486186 9.6998879,24 13.5110419,24 C14.4548347,24 15.3521501,23.9010479 16.1786248,23.7057675 L16.3442945,23.6667864 C17.0440806,23.5022411 17.9376477,23.2972154 18.8975578,22.8395621 C19.4196799,22.5906826 19.751769,22.0644375 19.751769,21.4860927 L19.751769,17.9882869 C19.751769,17.4208118 19.4312992,16.9020631 18.9237951,16.6479362 C18.7116478,16.5411129 18.4818841,16.4890131 18.2524952,16.4890131 C17.935024,16.4890131 17.6186772,16.5902141 17.3544302,16.7877434 C16.4619875,17.4560447 15.3199157,17.595852 14.7351989,17.595852 C14.1354894,17.595852 13.9120976,17.3784573 13.8629964,17.3207353 C13.8375087,17.2026675 13.7666681,16.7633802 13.7666681,15.5167341 L13.7715407,10.4911683 L17.5058569,10.4911683 C18.3338308,10.4911683 19.0051307,9.8198685 19.0051307,8.99189455 L19.0051307,6.7437335 C19.0051307,5.91575955 18.3338308,5.24445971 17.5058569,5.24445971 L13.7505509,5.24445971 L13.7505509,1.49927379 C13.7505509,0.671299839 13.079251,0 12.2512771,0 L9.5109794,0 C8.68300545,0 8.01170561,0.671299839 8.01170561,1.49927379 C8.01170561,4.93111149 6.09938189,5.19760741 5.51391548,5.19760741 C4.68894007,5.19760741 4.01838987,5.86440943 4.01464169,6.68938483 L4.00002377,8.98814637 C3.99777486,9.38732801 4.15519861,9.77001765 4.43631244,10.0533804 C4.71817591,10.3359935 5.10011591,10.4949165 5.49929756,10.4949165 Z" id="path-1"></path>
    </defs>
    <g id="Page-1" stroke="none" stroke-width="1" fill="none" fill-rule="evenodd">
        <g id="C3p-icon-pack" transform="translate(-1395.000000, -86.000000)">
            <g id="Group" transform="translate(63.000000, 86.000000)">
                <g id="c3p-social-media-tumblr" transform="translate(1332.000000, 0.000000)">
                    <mask id="mask-2" fill="white">
                        <use xlink:href="#path-1"></use>
                    </mask>
                    <use id="Mask" fill="#000000" xlink:href="#path-1"></use>
                </g>
            </g>
        </g>
    </g>
</svg>