<?xml version="1.0" encoding="UTF-8"?>
<svg width="24px" height="24px" viewBox="0 0 24 24" version="1.1" xmlns="http://www.w3.org/2000/svg" xmlns:xlink="http://www.w3.org/1999/xlink">
    <!-- Generator: Sketch 52.4 (67378) - http://www.bohemiancoding.com/sketch -->
    <title>c3p-login</title>
    <desc>Created with Sketch.</desc>
    <g id="Page-1" stroke="none" stroke-width="1" fill="none" fill-rule="evenodd">
        <g id="C3p-icon-pack" transform="translate(-615.000000, -147.000000)" fill="#000000">
            <g id="Group" transform="translate(63.000000, 86.000000)">
                <g id="c3p-login" transform="translate(552.000000, 61.000000)">
                    <path d="M22.1915815,0.00136615385 C23.0075815,0.00136615385 23.6688738,0.662658462 23.6688738,1.47828923 L23.6688738,22.1552123 C23.6688738,22.9708431 23.0075815,23.6321354 22.1915815,23.6321354 L8.89964308,23.6321354 C8.08364308,23.6321354 7.42235077,22.9708431 7.42235077,22.1552123 L7.42235077,15.4865354 L8.90924308,15.4846892 L8.90924308,21.2627815 C8.90924308,21.7557046 9.30948923,22.1559508 9.80278154,22.1559508 L21.2884431,22.1559508 C21.7821046,22.1559508 22.1819815,21.7557046 22.1819815,21.2627815 L22.15872,2.37921231 C22.15872,1.88592 21.7588431,1.48567385 21.2651815,1.48567385 L9.80278154,1.48567385 C9.30948923,1.48567385 8.90924308,1.88592 8.90924308,2.37921231 L8.90924308,8.12444308 L7.42235077,8.12444308 L7.42235077,1.47828923 C7.42235077,0.662658462 8.08364308,0.00136615385 8.89964308,0.00136615385 L22.1915815,0.00136615385 Z M0.76896,12.5474585 C0.36096,12.5474585 0.0304984615,12.2166277 0.0304984615,11.8089969 C0.0304984615,11.4013662 0.36096,11.0705354 0.76896,11.0705354 L14.9946831,11.0705354 L12.3232985,8.39915077 C12.0349292,8.11041231 12.0349292,7.64333538 12.3232985,7.35496615 C12.6116677,7.06622769 13.0791138,7.06622769 13.3674831,7.35496615 L17.7295754,11.8322585 L13.3674831,16.3091815 C13.2231138,16.4531815 13.0344369,16.5251815 12.8453908,16.5251815 C12.6563446,16.5251815 12.4676677,16.4531815 12.3232985,16.3091815 C12.0349292,16.0204431 12.0349292,15.5533662 12.3232985,15.2646277 L15.0404677,12.5474585 L0.76896,12.5474585 Z" id="Shape"></path>
                </g>
            </g>
        </g>
    </g>
</svg>