<?xml version="1.0" encoding="UTF-8"?>
<svg width="24px" height="24px" viewBox="0 0 24 24" version="1.1" xmlns="http://www.w3.org/2000/svg" xmlns:xlink="http://www.w3.org/1999/xlink">
    <!-- Generator: Sketch 52.4 (67378) - http://www.bohemiancoding.com/sketch -->
    <title>c3p-arrow-se-tail</title>
    <desc>Created with Sketch.</desc>
    <defs>
        <path d="M14.8247049,16.3106674 L5.65514393,7.14110642 C5.23157977,6.71754226 5.21068969,6.0470732 5.60897894,5.64878395 C6.00329523,5.25446766 6.66979133,5.2793307 7.09434873,5.70190163 L16.2649766,14.8725295 L16.0451387,8.72503508 C16.0351929,8.44691453 16.1349509,8.18711966 16.3266463,7.99542434 C16.5203281,7.80174253 16.7791297,7.70297775 17.0582435,7.71193026 C17.3425445,7.72209702 17.6143426,7.84292264 17.8202567,8.0488367 C18.0293715,8.2579515 18.1481369,8.52967593 18.1528955,8.80658223 L18.4634976,17.4921842 C18.4787779,17.7756394 18.3801604,18.0385613 18.1864786,18.2322431 C17.9918036,18.4269181 17.7288817,18.5255356 17.4495468,18.5104026 L8.76707191,18.2009411 C8.48291824,18.1948946 8.21119381,18.0761292 8.00314592,17.8680813 C7.79616494,17.6611003 7.67533933,17.3893022 7.66517256,17.1050012 C7.64369845,16.5332721 8.09845503,16.0742479 8.68423683,16.0859369 L14.8247049,16.3106674 Z" id="path-1"></path>
    </defs>
    <g id="Page-1" stroke="none" stroke-width="1" fill="none" fill-rule="evenodd">
        <g id="C3p-icon-pack" transform="translate(-1839.000000, -194.000000)">
            <g id="Group" transform="translate(63.000000, 86.000000)">
                <g id="c3p-arrow-se-tail" transform="translate(1776.000000, 108.000000)">
                    <mask id="mask-2" fill="white">
                        <use xlink:href="#path-1"></use>
                    </mask>
                    <use id="Mask" fill="#000000" xlink:href="#path-1"></use>
                </g>
            </g>
        </g>
    </g>
</svg>