<?xml version="1.0" encoding="UTF-8"?>
<svg width="24px" height="24px" viewBox="0 0 24 24" version="1.1" xmlns="http://www.w3.org/2000/svg" xmlns:xlink="http://www.w3.org/1999/xlink">
    <!-- Generator: Sketch 52.4 (67378) - http://www.bohemiancoding.com/sketch -->
    <title>c3p-like</title>
    <desc>Created with Sketch.</desc>
    <defs>
        <path d="M21.2641846,15.5316185 C20.9377846,15.7586954 20.8591385,16.2165415 21.0744,16.5506954 C21.0828923,16.5636185 21.4443692,16.8804185 21.4225846,17.4073108 C21.3889846,18.2314338 19.9146462,18.7594338 19.9087385,18.7623877 C19.5432,18.9226338 19.3763077,19.35648 19.5262154,19.7264492 C19.5280615,19.7301415 20.0767385,20.2422646 19.9641231,20.76288 C19.6794462,22.0647877 15.9705231,22.1438031 14.0741538,22.1438031 C7.85667692,22.1438031 7.94566154,21.9713723 7.36818462,21.5367877 C6.6216,20.9748185 5.20707692,20.6783262 2.56043077,20.4597415 C2.21335385,19.88928 1.49150769,18.1265723 1.49150769,15.8480492 C1.49150769,13.61568 1.98110769,12.3854031 2.24141538,11.79168 C5.26024615,11.4837415 8.94590769,8.06872615 11.4149538,2.16509538 C11.6686154,1.55918769 11.9123077,1.47832615 12.0145846,1.47832615 C12.7530462,1.47832615 12.7980923,1.80657231 12.9952615,2.13481846 C13.6643077,3.24804923 13.2614769,6.50798769 12.54,8.58564923 C12.4584,8.82011077 12.4691077,9.07672615 12.6075692,9.28275692 C12.7464,9.48915692 12.9694154,9.61100308 13.2275077,9.60989538 C13.2275077,9.60989538 18.0116308,9.59106462 19.8744,9.59106462 C20.1505846,9.59106462 21.4395692,9.62872615 21.4665231,10.82688 C21.4798154,11.3862646 21.1043077,11.9833108 21.1043077,11.9833108 C20.9747077,12.1524185 20.9281846,12.3713723 20.9695385,12.5799877 C21.0112615,12.7889723 21.1460308,12.9717415 21.3306462,13.0777108 C21.3557538,13.09248 22.1817231,13.5333415 22.1998154,14.1599262 C22.2230769,14.9497108 21.2678769,15.5286646 21.2641846,15.5316185 M22.7344615,12.3355569 C22.8865846,11.98848 22.9556308,11.3179569 22.9434462,10.7929108 C22.9068923,9.20226462 21.6995077,8.11377231 19.8744,8.11377231 C18.5628923,8.11377231 15.8058462,8.13481846 14.2827692,8.14700308 C14.7310154,6.33777231 15.2150769,2.95118769 14.2613538,1.37457231 C13.7961231,0.60288 12.8549538,0.00140307692 12.0145846,0.00140307692 C10.5376615,0.00140307692 10.4545846,0.633895385 10.0524923,1.59537231 C7.72707692,7.15488 4.26886154,10.3391262 1.77396923,10.3391262 C1.5192,10.3391262 1.28289231,10.4705723 1.14812308,10.6862031 C1.1016,10.7604185 0.0145846154,12.3536492 0.0145846154,15.8480492 C0.0145846154,19.39488 1.53323077,21.6091569 1.59747692,21.6878031 C1.73815385,21.8587569 1.94787692,21.9429415 2.16830769,21.9573415 C5.20707692,22.1552492 6.03858462,22.3849108 6.47944615,22.71648 C7.31058462,23.3423262 7.36264615,23.6207262 14.0741538,23.6207262 C18.3505846,23.6207262 21.0108923,22.8918646 21.4059692,21.0774646 C21.5056615,20.6229415 21.4705846,20.0351262 21.4251692,19.7238646 C21.9727385,19.3406031 22.8518769,18.6069415 22.8980308,17.4678646 C22.9168615,17.0048492 22.7237538,16.6175262 22.6273846,16.3258338 C23.0472,15.8871877 23.7048,15.1221415 23.6767385,14.1182031 C23.6545846,13.3398646 23.1361846,12.7361723 22.7344615,12.3355569" id="path-1"></path>
    </defs>
    <g id="Page-1" stroke="none" stroke-width="1" fill="none" fill-rule="evenodd">
        <g id="C3p-icon-pack" transform="translate(-561.000000, -471.000000)">
            <g id="Group" transform="translate(63.000000, 86.000000)">
                <g id="c3p-like" transform="translate(498.000000, 385.000000)">
                    <mask id="mask-2" fill="white">
                        <use xlink:href="#path-1"></use>
                    </mask>
                    <use id="Mask" fill="#000000" xlink:href="#path-1"></use>
                </g>
            </g>
        </g>
    </g>
</svg>