<?xml version="1.0" encoding="UTF-8"?>
<svg width="24px" height="24px" viewBox="0 0 24 24" version="1.1" xmlns="http://www.w3.org/2000/svg" xmlns:xlink="http://www.w3.org/1999/xlink">
    <!-- Generator: Sketch 52.4 (67378) - http://www.bohemiancoding.com/sketch -->
    <title>c3p-end</title>
    <desc>Created with Sketch.</desc>
    <defs>
        <path d="M3.51772308,22.1233108 L3.54061538,1.51063385 L20.5193231,11.8166031 L3.51772308,22.1233108 Z M3.54061538,0.0337107692 C3.29323077,0.0337107692 3.04658462,0.0953723077 2.8232,0.219803077 C2.35427692,0.480110769 2.06369231,0.974510769 2.06369231,1.51063385 L2.0408,22.1233108 C2.0408,22.6598031 2.33138462,23.1538338 2.79993846,23.4141415 C3.02369231,23.5382031 3.27033846,23.6002338 3.51772308,23.6002338 C3.788,23.6002338 4.05938462,23.5260185 4.29716923,23.3772185 L21.2984,13.0705108 C21.6661538,12.8426954 21.9098462,12.4664492 21.9763077,12.0462646 L21.9763077,22.8938954 C21.9763077,23.3015262 22.3067692,23.6323569 22.7147692,23.6323569 C23.1224,23.6323569 23.4532308,23.3015262 23.4532308,22.8938954 L23.4532308,0.740049231 C23.4532308,0.332049231 23.1224,0.00158769231 22.7147692,0.00158769231 C22.3067692,0.00158769231 21.9763077,0.332049231 21.9763077,0.740049231 L21.9763077,11.5869415 C21.9098462,11.1667569 21.6661538,10.79088 21.2984,10.5619569 L4.32006154,0.255987692 C4.08227692,0.108295385 3.81089231,0.0337107692 3.54061538,0.0337107692 Z" id="path-1"></path>
    </defs>
    <g id="Page-1" stroke="none" stroke-width="1" fill="none" fill-rule="evenodd">
        <g id="C3p-icon-pack" transform="translate(-507.000000, -363.000000)">
            <g id="Group" transform="translate(63.000000, 86.000000)">
                <g id="c3p-end" transform="translate(444.000000, 277.000000)">
                    <mask id="mask-2" fill="white">
                        <use xlink:href="#path-1"></use>
                    </mask>
                    <use id="Mask" fill="#000000" xlink:href="#path-1"></use>
                </g>
            </g>
        </g>
    </g>
</svg>