<?xml version="1.0" encoding="UTF-8"?>
<svg width="24px" height="24px" viewBox="0 0 24 24" version="1.1" xmlns="http://www.w3.org/2000/svg" xmlns:xlink="http://www.w3.org/1999/xlink">
    <!-- Generator: Sketch 52.4 (67378) - http://www.bohemiancoding.com/sketch -->
    <title>c3p-picture</title>
    <desc>Created with Sketch.</desc>
    <g id="Page-1" stroke="none" stroke-width="1" fill="none" fill-rule="evenodd">
        <g id="C3p-icon-pack" transform="translate(-1005.000000, -255.000000)" fill="#000000">
            <g id="Group" transform="translate(63.000000, 86.000000)">
                <g id="c3p-picture" transform="translate(942.000000, 169.000000)">
                    <path d="M16.9946954,9.70625231 C16.1805415,9.70625231 15.5214646,9.04606769 15.5214646,8.23302154 C15.5214646,7.42034462 16.1805415,6.76016 16.9946954,6.76016 C17.8088492,6.76016 18.4679262,7.42034462 18.4679262,8.23302154 C18.4679262,9.04606769 17.8088492,9.70625231 16.9946954,9.70625231 Z M22.1639262,17.3144 L22.1639262,3.79353846 L1.48700308,3.79353846 L1.48700308,14.3690462 L6.88404923,9.11710769 C7.03321846,8.9768 7.23371077,8.91070769 7.43715692,8.91809231 C7.64134154,8.93101538 7.83038769,9.02775385 7.96072615,9.18541538 L14.0748185,15.2337846 L16.8569723,12.8101538 C17.1490338,12.5871385 17.5614646,12.6140923 17.8247262,12.8736615 L22.1639262,17.3144 Z M22.1639262,20.7825846 L22.1639262,19.4160615 C22.1439877,19.4001846 22.1233108,19.3865231 22.1048492,19.3680615 L17.2398646,14.3749538 L14.5426338,16.8166769 C14.2247262,17.0577846 13.7761108,17.0965538 13.5246646,16.7908308 L7.41426462,10.6870769 L1.48700308,16.4308308 L1.48700308,20.7825846 L22.1639262,20.7825846 Z M22.1639262,2.31661538 C22.9758646,2.31661538 23.6408492,2.9816 23.6408492,3.79353846 L23.6408492,20.7825846 C23.6408492,21.5945231 22.9758646,22.2595077 22.1639262,22.2595077 L1.48700308,22.2595077 C0.675064615,22.2595077 0.01008,21.5945231 0.01008,20.7825846 L0.01008,3.79353846 C0.01008,2.9816 0.675064615,2.31661538 1.48700308,2.31661538 L22.1639262,2.31661538 Z" id="Shape"></path>
                </g>
            </g>
        </g>
    </g>
</svg>