<?xml version="1.0" encoding="UTF-8"?>
<svg width="24px" height="24px" viewBox="0 0 24 24" version="1.1" xmlns="http://www.w3.org/2000/svg" xmlns:xlink="http://www.w3.org/1999/xlink">
    <!-- Generator: Sketch 52.4 (67378) - http://www.bohemiancoding.com/sketch -->
    <title>c3p-dislike</title>
    <desc>Created with Sketch.</desc>
    <defs>
        <path d="M21.4736492,11.8421908 C18.4548185,12.1501292 14.7691569,15.5647754 12.3001108,21.4684062 C12.0464492,22.0746831 11.8031262,22.1555446 11.70048,22.1555446 C10.9620185,22.1555446 10.9166031,21.8272985 10.7198031,21.4990523 C10.0507569,20.3854523 10.4535877,17.1262523 11.1746954,15.0482215 C11.2566646,14.81376 11.2459569,14.5575138 11.1074954,14.3511138 C10.9690338,14.1447138 10.7456492,14.0228677 10.4875569,14.0236062 C10.4875569,14.0236062 5.70343385,14.0428062 3.84066462,14.0428062 C3.56448,14.0428062 2.27586462,14.0051446 2.24854154,12.8066215 C2.23524923,12.2476062 2.61075692,11.6501908 2.61075692,11.6501908 C2.74035692,11.4814523 2.78724923,11.2624985 2.74515692,11.0538831 C2.70380308,10.8448985 2.56940308,10.6621292 2.38478769,10.5565292 C2.35931077,10.54176 1.53334154,10.10016 1.51524923,9.47357538 C1.49198769,8.68379077 2.44755692,8.10483692 2.45088,8.10188308 C2.77691077,7.87480615 2.85555692,7.41696 2.64066462,7.08280615 C2.63217231,7.06988308 2.27069538,6.75345231 2.29248,6.22656 C2.32644923,5.40280615 3.80041846,4.87406769 3.80595692,4.87111385 C4.17186462,4.71123692 4.33912615,4.27739077 4.18884923,3.90705231 C4.18700308,3.90336 3.63795692,3.39123692 3.75131077,2.87062154 C4.03561846,1.56908308 7.74454154,1.49006769 9.64091077,1.49006769 C15.8587569,1.49006769 15.7694031,1.66249846 16.34688,2.09671385 C17.0934646,2.65905231 18.5083569,2.95554462 21.1550031,3.17412923 C21.5017108,3.74459077 22.2235569,5.50729846 22.2235569,7.78545231 C22.2235569,10.0181908 21.7339569,11.2480985 21.4736492,11.8421908 M21.5467569,1.67652923 C18.5083569,1.47862154 17.67648,1.24896 17.2352492,0.917021538 C16.40448,0.291175385 16.3524185,0.0127753846 9.64091077,0.0127753846 C5.36448,0.0127753846 2.70417231,0.742006154 2.30909538,2.55640615 C2.20940308,3.01056 2.24484923,3.59874462 2.29026462,3.91000615 C1.74232615,4.29289846 0.863556923,5.02692923 0.817033846,6.16563692 C0.798572308,6.62865231 0.991310769,7.01597538 1.08731077,7.30803692 C0.667864615,7.74668308 0.00989538462,8.51136 0.0383261538,9.51529846 C0.0608492308,10.2936369 0.579249231,10.8976985 0.980603077,11.2983138 C0.82848,11.6450215 0.759433846,12.3155446 0.771618462,12.8405908 C0.808541538,14.4316062 2.01592615,15.5197292 3.84066462,15.5197292 C5.15254154,15.5197292 7.90958769,15.4986831 9.43266462,15.4864985 C8.98441846,17.2960985 8.49998769,20.6826831 9.45334154,22.2592985 C9.91894154,23.0309908 10.86048,23.6324677 11.70048,23.6324677 C13.1774031,23.6324677 13.26048,22.9999754 13.6625723,22.0381292 C15.9879877,16.47936 19.4465723,13.2947446 21.9414646,13.2947446 C22.1958646,13.2947446 22.4325415,13.1629292 22.5673108,12.9472985 C22.6138338,12.8734523 23.70048,11.2802215 23.70048,7.78545231 C23.70048,4.23899077 22.1822031,2.02471385 22.1175877,1.94606769 C21.9769108,1.77511385 21.7675569,1.69092923 21.5467569,1.67652923" id="path-1"></path>
    </defs>
    <g id="Page-1" stroke="none" stroke-width="1" fill="none" fill-rule="evenodd">
        <g id="C3p-icon-pack" transform="translate(-615.000000, -471.000000)">
            <g id="Group" transform="translate(63.000000, 86.000000)">
                <g id="c3p-dislike" transform="translate(552.000000, 385.000000)">
                    <mask id="mask-2" fill="white">
                        <use xlink:href="#path-1"></use>
                    </mask>
                    <use id="Mask" fill="#000000" xlink:href="#path-1"></use>
                </g>
            </g>
        </g>
    </g>
</svg>