<?xml version="1.0" encoding="UTF-8"?>
<svg width="24px" height="24px" viewBox="0 0 24 24" version="1.1" xmlns="http://www.w3.org/2000/svg" xmlns:xlink="http://www.w3.org/1999/xlink">
    <!-- Generator: Sketch 52.4 (67378) - http://www.bohemiancoding.com/sketch -->
    <title>c3p-moustache</title>
    <desc>Created with Sketch.</desc>
    <defs>
        <path d="M21.4706585,14.4729723 C20.7543508,15.3513723 19.5443815,15.8963569 18.3141046,15.8963569 C16.4974892,15.8963569 15.4979815,15.06928 14.6952738,14.4042954 C14.3961969,14.1565415 14.1240738,13.9176492 13.8770585,13.7005415 C13.1249354,13.0414646 12.6290585,12.6065108 12.0951508,12.5308185 C12.0881354,12.5293415 12.0268431,12.5215877 12.0190892,12.5208492 C12.0190892,12.5201108 11.9120123,12.5119877 11.9112738,12.5119877 C11.88912,12.5101415 11.8270892,12.5079262 11.8041969,12.5079262 C11.6494892,12.5079262 11.4261046,12.5452185 11.4261046,12.5452185 C10.9571815,12.6282954 10.5229662,13.0019569 9.86499692,13.5672492 C9.57736615,13.8138954 9.24985846,14.0959877 8.87952,14.3850954 L8.80825846,14.44048 C7.89478154,15.1530954 6.95102769,15.89008 5.24370462,15.89008 C4.03410462,15.89008 2.85478154,15.35728 2.16395077,14.4995569 C1.69761231,13.9198646 1.46352,13.2231262 1.46425846,12.4218954 C1.80025846,12.5286031 2.20788923,12.6072492 2.67865846,12.6072492 C3.30635077,12.6072492 3.94585846,12.4647262 4.57798154,12.1833723 C5.62881231,11.7166646 6.33588923,10.5801723 6.96025846,9.88269538 C7.73527385,9.01611077 8.25035077,8.48441846 9.06007385,8.47888 C10.10832,8.47888 10.7980431,9.15235692 11.2256123,9.65857231 C11.3640738,9.82288 11.56752,9.91814154 11.7813046,9.91814154 C11.9954585,9.91814154 12.1981662,9.82361846 12.3373662,9.65931077 C12.7630892,9.15531077 13.4509662,8.48441846 14.5161969,8.48441846 C15.3148431,8.49106462 15.8439508,9.02681846 16.64112,9.90078769 C17.2732431,10.5938338 17.9895508,11.7255262 19.0341046,12.1889108 C19.6662277,12.4702646 20.3105354,12.6131569 20.9481969,12.6131569 C21.4333662,12.6131569 21.8553969,12.5322954 22.2021046,12.4241108 C22.1862277,13.2102031 21.9414277,13.8966031 21.4706585,14.4729723 M23.0934277,10.6218954 C22.8585969,10.5303262 22.5923815,10.5694646 22.3896738,10.7193723 C22.36752,10.7367262 21.8225354,11.1362338 20.9481969,11.1362338 C20.51472,11.1362338 20.0679508,11.0358031 19.62192,10.8375262 C18.8572431,10.4970954 18.3026585,9.54300308 17.7155815,8.89980308 C16.9113969,8.01808 16.0005046,7.01931077 14.4977354,7.00749538 C13.5074585,7.00749538 12.5969354,7.38115692 11.7820431,8.12109538 C10.9638277,7.37746462 10.0470277,7.00195692 9.03016615,7.00195692 C7.55656615,7.01340308 6.66413538,8.01143385 5.87582769,8.89204923 C5.29945846,9.53672615 4.75484308,10.4915569 3.99016615,10.8319877 C3.54413538,11.0302646 3.10253538,11.1303262 2.67865846,11.1303262 C1.83681231,11.1303262 1.33022769,10.7411569 1.31582769,10.73008 C1.11755077,10.5665108 0.851335385,10.51888 0.609489231,10.6060185 C0.36912,10.6920492 0.190043077,10.8988185 0.137981538,11.1513723 C-0.291433846,13.2382646 0.386104615,14.6310031 1.03041231,15.4314954 C1.99152,16.6255877 3.60542769,17.3670031 5.24370462,17.3670031 C7.44912,17.3670031 8.69748923,16.3926031 9.70105846,15.6094646 L9.77195077,15.5548185 C10.1629662,15.2498338 10.5085662,14.9526031 10.8117046,14.6922954 C11.1458585,14.4050338 11.5616123,14.0476185 11.6786585,13.9999877 C11.6856738,13.9992492 11.7543508,13.9855877 11.7813046,13.9833723 C11.7864738,13.9841108 11.8669662,13.9878031 11.8721354,13.9878031 C12.0419815,14.04688 12.5286277,14.4737108 12.9185354,14.8163569 C13.17552,15.0412185 13.45872,15.2893415 13.7692431,15.5466954 C14.6480123,16.2744492 15.9753969,17.37328 18.3141046,17.37328 C19.9689969,17.37328 21.6105969,16.6218954 22.59792,15.4134031 C23.2492431,14.6158646 23.9430277,13.2319877 23.54832,11.1679877 C23.5014277,10.9191262 23.3271508,10.7142031 23.0934277,10.6218954" id="path-1"></path>
    </defs>
    <g id="Page-1" stroke="none" stroke-width="1" fill="none" fill-rule="evenodd">
        <g id="C3p-icon-pack" transform="translate(-1287.000000, -410.000000)">
            <g id="Group" transform="translate(63.000000, 86.000000)">
                <g id="c3p-moustache" transform="translate(1224.000000, 324.000000)">
                    <mask id="mask-2" fill="white">
                        <use xlink:href="#path-1"></use>
                    </mask>
                    <use id="Mask" fill="#000000" xlink:href="#path-1"></use>
                </g>
            </g>
        </g>
    </g>
</svg>