<?xml version="1.0" encoding="UTF-8"?>
<svg width="24px" height="24px" viewBox="0 0 24 24" version="1.1" xmlns="http://www.w3.org/2000/svg" xmlns:xlink="http://www.w3.org/1999/xlink">
    <!-- Generator: Sketch 52.4 (67378) - http://www.bohemiancoding.com/sketch -->
    <title>c3p-speech</title>
    <desc>Created with Sketch.</desc>
    <g id="Page-1" stroke="none" stroke-width="1" fill="none" fill-rule="evenodd">
        <g id="C3p-icon-pack" transform="translate(-1059.000000, -93.000000)" fill="#000000">
            <g id="Group" transform="translate(63.000000, 86.000000)">
                <g id="c3p-speech" transform="translate(996.000000, 7.000000)">
                    <path d="M5.17931077,7.23309538 C4.77168,7.23309538 4.44084923,6.90226462 4.44084923,6.49463385 C4.44084923,6.08700308 4.77168,5.75617231 5.17931077,5.75617231 L18.4716185,5.75617231 C18.8792492,5.75617231 19.21008,6.08700308 19.21008,6.49463385 C19.21008,6.90226462 18.8792492,7.23309538 18.4716185,7.23309538 L5.17931077,7.23309538 Z M5.17931077,10.1869415 C4.77168,10.1869415 4.44084923,9.85611077 4.44084923,9.44848 C4.44084923,9.04084923 4.77168,8.71001846 5.17931077,8.71001846 L18.4716185,8.71001846 C18.8792492,8.71001846 19.21008,9.04084923 19.21008,9.44848 C19.21008,9.85611077 18.8792492,10.1869415 18.4716185,10.1869415 L5.17931077,10.1869415 Z M14.7793108,12.4023262 C14.7793108,12.8099569 14.44848,13.1407877 14.0408492,13.1407877 L5.17931077,13.1407877 C4.77168,13.1407877 4.44084923,12.8099569 4.44084923,12.4023262 C4.44084923,11.9946954 4.77168,11.6638646 5.17931077,11.6638646 L14.0408492,11.6638646 C14.44848,11.6638646 14.7793108,11.9946954 14.7793108,12.4023262 Z M1.48700308,2.76987077 L1.48700308,16.0968862 L5.90706462,16.0968862 L5.90706462,19.4867938 L9.35124923,16.0968862 L22.1639262,16.0968862 L22.1639262,2.76987077 L1.48700308,2.76987077 Z M1.48700308,17.5738092 C0.671372308,17.5738092 0.01008,16.9125169 0.01008,16.0968862 L0.01008,2.76987077 C0.01008,1.95424 0.671372308,1.29294769 1.48700308,1.29294769 L22.1639262,1.29294769 C22.9795569,1.29294769 23.6408492,1.95424 23.6408492,2.76987077 L23.6408492,16.0968862 C23.6408492,16.9125169 22.9795569,17.5738092 22.1639262,17.5738092 L9.95604923,17.5738092 L5.68626462,21.7767631 C5.54558769,21.9152246 5.35875692,21.9887015 5.16860308,21.9887015 C5.07260308,21.9887015 4.97512615,21.9698708 4.88281846,21.9311015 C4.60884923,21.8162708 4.43014154,21.54784 4.43014154,21.25024 L4.43014154,17.5738092 L1.48700308,17.5738092 Z" id="Shape"></path>
                </g>
            </g>
        </g>
    </g>
</svg>