<?xml version="1.0" encoding="UTF-8"?>
<svg width="24px" height="24px" viewBox="0 0 24 24" version="1.1" xmlns="http://www.w3.org/2000/svg" xmlns:xlink="http://www.w3.org/1999/xlink">
    <!-- Generator: Sketch 52.4 (67378) - http://www.bohemiancoding.com/sketch -->
    <title>c3p-power</title>
    <desc>Created with Sketch.</desc>
    <g id="Page-1" stroke="none" stroke-width="1" fill="none" fill-rule="evenodd">
        <g id="C3p-icon-pack" transform="translate(-225.000000, -93.000000)" fill="#000000">
            <g id="Group" transform="translate(63.000000, 86.000000)">
                <g id="c3p-power" transform="translate(162.000000, 7.000000)">
                    <path d="M9.7223125,23.7576 C6.9585625,23.190225 4.6748125,21.58035 3.1215625,19.224975 C1.5686875,16.868475 1.0264375,14.04885 1.5938125,11.284725 C2.2688125,8.0001 4.3965625,5.293725 7.4318125,3.85785 C7.8068125,3.681975 8.2530625,3.840975 8.4304375,4.21485 C8.6074375,4.589475 8.4476875,5.03685 8.0734375,5.213475 C5.4683125,6.445725 3.6420625,8.76885 3.0630625,11.586225 C2.5759375,13.9581 3.0416875,16.377975 4.3740625,18.399225 C5.7068125,20.4201 7.6526875,21.8016 10.0241875,22.28835 C14.9194375,23.2911 19.7190625,20.128725 20.7248125,15.2331 C21.5715625,11.1096 19.5053125,6.9861 15.7001875,5.20485 C15.3251875,5.028975 15.1635625,4.582725 15.3394375,4.207725 C15.5149375,3.83235 15.9611875,3.6711 16.3361875,3.84585 C20.7724375,5.9226 23.1806875,10.72935 22.1940625,15.534975 C21.1684375,20.526225 16.7580625,23.974725 11.8493125,23.974725 C11.1476875,23.974725 10.4355625,23.904225 9.7223125,23.7576 Z M11.8943125,9.7500375 C11.4803125,9.7500375 11.1443125,9.4140375 11.1443125,9.0000375 L11.1443125,0.7500375 C11.1443125,0.3360375 11.4803125,3.75e-05 11.8943125,3.75e-05 C12.3083125,3.75e-05 12.6443125,0.3360375 12.6443125,0.7500375 L12.6443125,9.0000375 C12.6443125,9.4140375 12.3083125,9.7500375 11.8943125,9.7500375 Z" id="Shape"></path>
                </g>
            </g>
        </g>
    </g>
</svg>