<?xml version="1.0" encoding="UTF-8"?>
<svg width="24px" height="24px" viewBox="0 0 24 24" version="1.1" xmlns="http://www.w3.org/2000/svg" xmlns:xlink="http://www.w3.org/1999/xlink">
    <!-- Generator: Sketch 52.4 (67378) - http://www.bohemiancoding.com/sketch -->
    <title>c3p-medal</title>
    <desc>Created with Sketch.</desc>
    <defs>
        <path d="M18.8186545,17.7525091 C18.4579273,17.6674182 18.0964727,17.8688727 17.9713818,18.2154182 L17.0502909,20.7830545 L14.2510182,15.6794182 C15.9655636,15.1772364 17.4408364,14.1172364 18.4670182,12.7081455 L21.5317455,18.3746909 L18.8186545,17.7525091 Z M12.0012,14.5416 C8.39756364,14.5416 5.46556364,11.6092364 5.46556364,8.00596364 C5.46556364,4.40269091 8.39756364,1.47141818 12.0012,1.47141818 C15.6044727,1.47141818 18.5361091,4.40269091 18.5361091,8.00596364 C18.5361091,11.6092364 15.6044727,14.5416 12.0012,14.5416 Z M6.95574545,20.7645091 L6.04083636,18.2154182 C5.91610909,17.8688727 5.5532,17.6674182 5.19356364,17.7525091 L2.4932,18.3717818 L5.57065455,12.7590545 C6.58410909,14.1277818 8.02410909,15.1608727 9.69429091,15.6634182 L6.95574545,20.7645091 Z M19.3197455,11.2266909 C19.7539273,10.2412364 19.9968364,9.15250909 19.9968364,8.00596364 C19.9968364,3.59032727 16.4172,0.0103272727 12.0012,0.0103272727 C7.58447273,0.0103272727 4.00483636,3.59032727 4.00483636,8.00596364 C4.00483636,9.17941818 4.25974545,10.2925091 4.71356364,11.2965091 L0.438654545,19.0936 C0.300836364,19.3441455 0.323745455,19.6532364 0.496109091,19.8816 C0.668836364,20.1096 0.960836364,20.2168727 1.23901818,20.1517818 L4.88956364,19.3143273 L6.13901818,22.7943273 C6.23610909,23.0648727 6.48338182,23.2525091 6.76956364,23.2739636 C6.78810909,23.2754182 6.80592727,23.2757818 6.82374545,23.2757818 C7.08992727,23.2757818 7.3372,23.1296 7.46410909,22.8925091 L11.1848364,15.9612364 C11.4532,15.9885091 11.7255636,16.0026909 12.0012,16.0026909 C12.2535636,16.0026909 12.5033818,15.9892364 12.7499273,15.9663273 L16.5510182,22.8979636 C16.6793818,23.1325091 16.9244727,23.2757818 17.1888364,23.2757818 C17.2070182,23.2757818 17.2262909,23.2754182 17.2455636,23.2739636 C17.5310182,23.2510545 17.7768364,23.0634182 17.8732,22.7943273 L19.1226545,19.3143273 L22.7732,20.1517818 C23.0532,20.2190545 23.3419273,20.1103273 23.5146545,19.8830545 C23.6881091,19.6557818 23.7113818,19.3485091 23.5757455,19.0968727 L19.3197455,11.2266909 Z" id="path-1"></path>
    </defs>
    <g id="Page-1" stroke="none" stroke-width="1" fill="none" fill-rule="evenodd">
        <g id="C3p-icon-pack" transform="translate(-1395.000000, -410.000000)">
            <g id="Group" transform="translate(63.000000, 86.000000)">
                <g id="c3p-medal" transform="translate(1332.000000, 324.000000)">
                    <mask id="mask-2" fill="white">
                        <use xlink:href="#path-1"></use>
                    </mask>
                    <use id="Mask" fill="#000000" xlink:href="#path-1"></use>
                </g>
            </g>
        </g>
    </g>
</svg>