<?xml version="1.0" encoding="UTF-8"?>
<svg width="24px" height="24px" viewBox="0 0 24 24" version="1.1" xmlns="http://www.w3.org/2000/svg" xmlns:xlink="http://www.w3.org/1999/xlink">
    <!-- Generator: Sketch 52.4 (67378) - http://www.bohemiancoding.com/sketch -->
    <title>c3p-share</title>
    <desc>Created with Sketch.</desc>
    <g id="Page-1" stroke="none" stroke-width="1" fill="none" fill-rule="evenodd">
        <g id="C3p-icon-pack" transform="translate(-615.000000, -417.000000)" fill="#000000">
            <g id="Group" transform="translate(63.000000, 86.000000)">
                <g id="c3p-share" transform="translate(552.000000, 331.000000)">
                    <path d="M18.2737875,9.438825 C17.9812875,9.14595 17.9812875,8.6712 18.2737875,8.378325 L21.0217875,5.6307 C20.7690375,5.628825 20.5196625,5.626575 20.2571625,5.626575 C13.9909125,5.626575 8.7956625,10.1622 7.7441625,16.126575 L6.2329125,16.126575 C7.3140375,9.3282 13.1857875,4.126575 20.2882875,4.126575 C20.5286625,4.126575 20.7615375,4.127325 20.9966625,4.1277 L18.2737875,1.4052 C17.9812875,1.112325 17.9812875,0.637575 18.2737875,0.3447 C18.5670375,0.051825 19.0417875,0.051825 19.3342875,0.3447 L23.7649125,4.89195 L19.3342875,9.438825 C19.1880375,9.58545 18.9964125,9.658575 18.8044125,9.658575 C18.6124125,9.658575 18.4204125,9.58545 18.2737875,9.438825 Z M1.538325,23.626575 C0.70995,23.626575 0.038325,22.95495 0.038325,22.126575 L0.038325,7.126575 C0.038325,6.2982 0.70995,5.626575 1.538325,5.626575 L9.053325,5.626575 L9.0927,5.665575 L7.575825,7.126575 L1.538325,7.126575 L1.538325,22.126575 L21.038325,22.126575 L21.038325,11.8242 L22.538325,10.39245 L22.538325,22.126575 C22.538325,22.95495 21.8667,23.626575 21.038325,23.626575 L1.538325,23.626575 Z" id="Shape"></path>
                </g>
            </g>
        </g>
    </g>
</svg>