<?xml version="1.0" encoding="UTF-8"?>
<svg width="24px" height="24px" viewBox="0 0 24 24" version="1.1" xmlns="http://www.w3.org/2000/svg" xmlns:xlink="http://www.w3.org/1999/xlink">
    <!-- Generator: Sketch 52.4 (67378) - http://www.bohemiancoding.com/sketch -->
    <title>c3p-open-book</title>
    <desc>Created with Sketch.</desc>
    <g id="Page-1" stroke="none" stroke-width="1" fill="none" fill-rule="evenodd">
        <g id="C3p-icon-pack" transform="translate(-843.000000, -147.000000)" fill="#000000">
            <g id="Group" transform="translate(63.000000, 86.000000)">
                <g id="c3p-open-book" transform="translate(780.000000, 61.000000)">
                    <path d="M9.11678769,16.2185723 C9.50964923,16.3297108 9.73857231,16.7369723 9.62817231,17.1294646 C9.53660308,17.4554954 9.24011077,17.6681723 8.91777231,17.6681723 C8.85131077,17.6681723 8.78374154,17.6593108 8.71728,17.6408492 L3.54952615,16.18608 C3.15629538,16.0749415 2.92774154,15.66768 3.03814154,15.2751877 C3.14854154,14.8830646 3.55875692,14.6552492 3.94903385,14.7641723 L9.11678769,16.2185723 Z M14.8254646,8.80656 C14.5031262,8.80656 14.2066338,8.59388308 14.1150646,8.26785231 C14.0046646,7.87572923 14.2332185,7.46809846 14.6264492,7.35696 L19.7942031,5.90256 C20.18448,5.79363692 20.5946954,6.02145231 20.7050954,6.41394462 C20.8154954,6.80606769 20.5869415,7.21369846 20.1937108,7.32446769 L15.0259569,8.77923692 C14.9594954,8.79806769 14.8919262,8.80656 14.8254646,8.80656 Z M14.8254646,17.6680985 C14.5031262,17.6680985 14.2066338,17.4554215 14.1150646,17.1293908 C14.0046646,16.7372677 14.2332185,16.3296369 14.6264492,16.2184985 L19.7942031,14.7640985 C20.18448,14.6551754 20.5946954,14.8829908 20.7050954,15.2754831 C20.8154954,15.6676062 20.5869415,16.0752369 20.1937108,16.1860062 L15.0259569,17.6407754 C14.9594954,17.6596062 14.8919262,17.6680985 14.8254646,17.6680985 Z M14.8254646,13.2373292 C14.5031262,13.2373292 14.2066338,13.0246523 14.1150646,12.6986215 C14.0046646,12.3064985 14.2332185,11.8988677 14.6264492,11.7877292 L19.7942031,10.3333292 C20.18448,10.2244062 20.5946954,10.4522215 20.7050954,10.8447138 C20.8154954,11.2368369 20.5869415,11.6444677 20.1937108,11.7552369 L15.0259569,13.2100062 C14.9594954,13.2288369 14.8919262,13.2373292 14.8254646,13.2373292 Z M9.11678769,11.7878031 C9.50964923,11.8989415 9.73857231,12.3062031 9.62817231,12.6986954 C9.53660308,13.0247262 9.24011077,13.2374031 8.91777231,13.2374031 C8.85131077,13.2374031 8.78374154,13.2285415 8.71728,13.21008 L3.54952615,11.7553108 C3.15629538,11.6441723 2.92774154,11.2369108 3.03814154,10.8444185 C3.14854154,10.4522954 3.55875692,10.22448 3.94903385,10.3334031 L9.11678769,11.7878031 Z M9.11678769,7.35703385 C9.50964923,7.46817231 9.73857231,7.87543385 9.62817231,8.26792615 C9.53660308,8.59395692 9.24011077,8.80663385 8.91777231,8.80663385 C8.85131077,8.80663385 8.78374154,8.79777231 8.71728,8.77931077 L3.54952615,7.32454154 C3.15629538,7.21340308 2.92774154,6.80614154 3.03814154,6.41364923 C3.14854154,6.02152615 3.55875692,5.79371077 3.94903385,5.90263385 L9.11678769,7.35703385 Z M22.1714954,19.6036431 L22.1714954,1.87133538 L12.6054646,4.45853538 C12.5918031,4.46259692 12.5777723,4.46444308 12.5637415,4.46776615 L12.5637415,22.3736123 L21.9809723,19.8229662 C22.0518646,19.8033969 22.1714954,19.6763815 22.1714954,19.6036431 Z M11.0868185,22.4367508 L11.0868185,4.51502769 C10.9815877,4.49804308 10.8800492,4.47884308 10.7903262,4.45373538 L1.47943385,1.87982769 L1.47943385,19.6036431 C1.47943385,19.6778585 1.57912615,19.8085662 1.65038769,19.8277662 L11.0868185,22.4367508 Z M21.9809723,0.389243077 C22.8261415,0.159212308 23.6484185,0.773612308 23.6484185,1.64684308 L23.6484185,19.6036431 C23.6484185,20.3472738 23.0846031,21.0539815 22.3675569,21.2478277 L12.6054646,23.8922585 C12.2886646,23.9790277 11.9449108,23.9967508 11.7119262,23.9967508 C11.3722338,23.9967508 11.0447262,23.9579815 10.7903262,23.8874585 L1.27894154,21.25152 C0.564110769,21.0525046 0.00251076923,20.34432 0.00251076923,19.6036431 L0.00251076923,1.64684308 C0.00251076923,0.772873846 0.824787692,0.160689231 1.67328,0.394412308 L11.1846646,3.02998154 C11.4320492,3.09939692 11.9707569,3.10013538 12.21888,3.03367385 L21.9809723,0.389243077 Z" id="Shape"></path>
                </g>
            </g>
        </g>
    </g>
</svg>