<?xml version="1.0" encoding="UTF-8"?>
<svg width="24px" height="24px" viewBox="0 0 24 24" version="1.1" xmlns="http://www.w3.org/2000/svg" xmlns:xlink="http://www.w3.org/1999/xlink">
    <!-- Generator: Sketch 52.4 (67378) - http://www.bohemiancoding.com/sketch -->
    <title>c3p-cup</title>
    <desc>Created with Sketch.</desc>
    <g id="Page-1" stroke="none" stroke-width="1" fill="none" fill-rule="evenodd">
        <g id="C3p-icon-pack" transform="translate(-897.000000, -363.000000)" fill="#000000">
            <g id="Group" transform="translate(63.000000, 86.000000)">
                <g id="c3p-cup" transform="translate(834.000000, 277.000000)">
                    <path d="M3.70238769,1.06386462 C3.70238769,0.656233846 4.03321846,0.325403077 4.44084923,0.325403077 C4.84848,0.325403077 5.17931077,0.656233846 5.17931077,1.06386462 L5.17931077,4.75617231 C5.17931077,5.16380308 4.84848,5.49463385 4.44084923,5.49463385 C4.03321846,5.49463385 3.70238769,5.16380308 3.70238769,4.75617231 L3.70238769,1.06386462 Z M19.2257723,17.3320246 C20.9135262,17.3320246 22.1940185,16.0467323 22.1940185,14.3549169 C22.1940185,12.6634708 20.9135262,11.4047631 19.2257723,11.4047631 C19.0330338,11.4047631 18.4116185,11.4010708 17.7396185,11.3962708 L17.7289108,17.3227938 C18.3975877,17.3275938 19.0795569,17.3320246 19.2257723,17.3320246 Z M16.2482954,19.5363323 L16.2678646,8.44205538 L1.48718769,8.43762462 L1.48497231,8.43762462 L1.48718769,19.5363323 C1.48718769,21.1653785 2.81161846,22.4901785 4.44103385,22.4901785 L13.3177108,22.4901785 C14.9467569,22.4901785 16.2482954,21.1653785 16.2482954,19.5363323 Z M19.2257723,9.92599385 C21.6671262,9.92599385 23.6465723,11.9309169 23.6465723,14.3781785 C23.6465723,16.8250708 21.6671262,18.7875323 19.2257723,18.7875323 C19.0791877,18.7875323 18.39648,18.7834708 17.7263262,18.7783015 L17.7252185,19.5363323 C17.7252185,21.9832246 15.7642338,23.9671015 13.3177108,23.9671015 L4.44103385,23.9671015 C1.99414154,23.9671015 0.0102646154,21.9832246 0.0102646154,19.5363323 L0.0102646154,8.43762462 C0.0102646154,7.62199385 0.671556923,6.96070154 1.48718769,6.96070154 L16.2678646,6.96439385 C17.0834954,6.96439385 17.7447877,7.62568615 17.7447877,8.44131692 L17.7418338,9.91750154 C18.4130954,9.92230154 19.0337723,9.92599385 19.2257723,9.92599385 Z M12.5639262,1.06386462 C12.5639262,0.656233846 12.8947569,0.325403077 13.3023877,0.325403077 C13.7100185,0.325403077 14.0408492,0.656233846 14.0408492,1.06386462 L14.0408492,4.75617231 C14.0408492,5.16380308 13.7100185,5.49463385 13.3023877,5.49463385 C12.8947569,5.49463385 12.5639262,5.16380308 12.5639262,4.75617231 L12.5639262,1.06386462 Z M8.13315692,1.06386462 C8.13315692,0.656233846 8.46398769,0.325403077 8.87161846,0.325403077 C9.27924923,0.325403077 9.61008,0.656233846 9.61008,1.06386462 L9.61008,4.75617231 C9.61008,5.16380308 9.27924923,5.49463385 8.87161846,5.49463385 C8.46398769,5.49463385 8.13315692,5.16380308 8.13315692,4.75617231 L8.13315692,1.06386462 Z" id="Shape"></path>
                </g>
            </g>
        </g>
    </g>
</svg>