<?xml version="1.0" encoding="UTF-8"?>
<svg width="24px" height="24px" viewBox="0 0 24 24" version="1.1" xmlns="http://www.w3.org/2000/svg" xmlns:xlink="http://www.w3.org/1999/xlink">
    <!-- Generator: Sketch 52.4 (67378) - http://www.bohemiancoding.com/sketch -->
    <title>c3p-wallet</title>
    <desc>Created with Sketch.</desc>
    <g id="Page-1" stroke="none" stroke-width="1" fill="none" fill-rule="evenodd">
        <g id="C3p-icon-pack" transform="translate(-1005.000000, -93.000000)" fill="#000000">
            <g id="Group" transform="translate(63.000000, 86.000000)">
                <g id="c3p-wallet" transform="translate(942.000000, 7.000000)">
                    <path d="M1.48556308,8.70750769 L1.48556308,20.5184615 C1.48556308,20.9260923 1.81639385,21.2569231 2.22402462,21.2569231 L21.4347323,21.2569231 C21.8423631,21.2569231 22.1731938,20.9260923 22.1731938,20.5184615 L22.1731938,7.23316923 C22.1731938,7.72203077 21.41184,7.96904615 20.68704,7.96904615 L2.22402462,7.96904615 C1.81639385,7.96904615 1.48556308,8.29987692 1.48556308,8.70750769 Z M4.43091692,3.52461538 L4.43091692,6.49212308 L20.6848246,6.49212308 C21.2763323,6.49987692 21.4029785,6.08892308 21.39744,6.08596923 L5.10513231,2.78910769 C4.72777846,2.8216 4.43091692,3.13876923 4.43091692,3.52461538 Z M2.22402462,22.7338462 C1.00224,22.7338462 0.00864,21.7402462 0.00864,20.5184615 L0.00864,8.70750769 C0.00864,7.48867692 0.998178462,6.49803077 2.21553231,6.49286154 L2.95399385,6.49470769 L2.95399385,3.52461538 C2.95399385,2.30283077 3.94759385,1.30923077 5.16937846,1.30923077 L5.32297846,1.32510769 L21.8401477,4.64670769 C23.5002092,5.09015385 23.6471631,6.36363077 23.6364554,6.90972308 L23.6501169,20.5184615 C23.6501169,21.7402462 22.6565169,22.7338462 21.4347323,22.7338462 L2.22402462,22.7338462 Z M4.44084923,16.0946338 C3.62521846,16.0946338 2.96392615,15.4333415 2.96392615,14.6177108 C2.96392615,13.80208 3.62521846,13.1407877 4.44084923,13.1407877 C5.25648,13.1407877 5.91777231,13.80208 5.91777231,14.6177108 C5.91777231,15.4333415 5.25648,16.0946338 4.44084923,16.0946338 Z" id="Shape"></path>
                </g>
            </g>
        </g>
    </g>
</svg>