<?xml version="1.0" encoding="UTF-8"?>
<svg width="24px" height="24px" viewBox="0 0 24 24" version="1.1" xmlns="http://www.w3.org/2000/svg" xmlns:xlink="http://www.w3.org/1999/xlink">
    <!-- Generator: Sketch 52.4 (67378) - http://www.bohemiancoding.com/sketch -->
    <title>c3p-arrow-nw-tail</title>
    <desc>Created with Sketch.</desc>
    <defs>
        <path d="M8.96677974,7.57433263 L18.1363407,16.7438936 C18.5599048,17.1674577 18.5807949,17.8379268 18.1825057,18.236216 C17.7881894,18.6305323 17.1216933,18.6056693 16.6971359,18.1830984 L7.52650803,9.01247052 L7.74634595,15.1599649 C7.7562917,15.4380855 7.65653368,15.6978803 7.46483835,15.8895757 C7.27115655,16.0832575 7.01235492,16.1820223 6.73324113,16.1730697 C6.44894011,16.162903 6.17714201,16.0420774 5.97122795,15.8361633 C5.76211315,15.6270485 5.64334769,15.3553241 5.63858915,15.0784178 L5.32798704,6.39281576 C5.31270673,6.10936064 5.41132417,5.84643872 5.60500598,5.65275691 C5.79968102,5.45808187 6.06260295,5.35946442 6.34193777,5.37459739 L15.0244127,5.68405892 C15.3085664,5.69010538 15.5802908,5.80887084 15.7883387,6.01691873 C15.9953197,6.22389971 16.1161453,6.4956978 16.1263121,6.77999882 C16.1477862,7.35172791 15.6930296,7.81075215 15.1072478,7.79906308 L8.96677974,7.57433263 Z" id="path-1"></path>
    </defs>
    <g id="Page-1" stroke="none" stroke-width="1" fill="none" fill-rule="evenodd">
        <g id="C3p-icon-pack" transform="translate(-1677.000000, -194.000000)">
            <g id="Group" transform="translate(63.000000, 86.000000)">
                <g id="c3p-arrow-nw-tail" transform="translate(1614.000000, 108.000000)">
                    <mask id="mask-2" fill="white">
                        <use xlink:href="#path-1"></use>
                    </mask>
                    <use id="Mask" fill="#000000" xlink:href="#path-1"></use>
                </g>
            </g>
        </g>
    </g>
</svg>