<?xml version="1.0" encoding="UTF-8"?>
<svg width="24px" height="24px" viewBox="0 0 24 24" version="1.1" xmlns="http://www.w3.org/2000/svg" xmlns:xlink="http://www.w3.org/1999/xlink">
    <!-- Generator: Sketch 52.4 (67378) - http://www.bohemiancoding.com/sketch -->
    <title>c3p-globe-1</title>
    <desc>Created with Sketch.</desc>
    <defs>
        <path d="M5.75874462,16.8185723 C6.31960615,18.8866338 7.22754462,20.6412185 8.31936,21.8947569 C5.98692923,21.0473723 4.04809846,19.38288 2.83812923,17.2546338 C3.37609846,17.1401723 4.33720615,16.9666338 5.75874462,16.8185723 Z M1.48932923,12.1699569 C1.48932923,11.0862646 1.66028308,10.0417108 1.97154462,9.05918769 C2.25917538,9.13746462 3.33437538,9.40441846 5.33006769,9.62484923 C5.21523692,10.4426954 5.15062154,11.2926646 5.15062154,12.1699569 C5.15062154,13.2842954 5.25252923,14.3554338 5.43419077,15.3704492 C3.72059077,15.5554338 2.66569846,15.7762338 2.18976,15.8914338 C1.74151385,14.7353723 1.48932923,13.4822031 1.48932923,12.1699569 Z M8.31936,2.44552615 C7.11492923,3.82829538 6.13388308,5.81992615 5.59665231,8.17118769 C3.93031385,7.99063385 2.92859077,7.77869538 2.52317538,7.68121846 C3.69400615,5.26718769 5.77314462,3.37044923 8.31936,2.44552615 Z M11.0944985,1.94854154 L11.0944985,8.46989538 C9.51714462,8.45364923 8.16649846,8.38940308 7.03148308,8.30263385 C7.74003692,5.01131077 9.30299077,2.51678769 11.0944985,1.94854154 Z M11.0944985,15.0654646 C9.45659077,15.0813415 8.05646769,15.1481723 6.87825231,15.2382646 C6.71616,14.2642338 6.62754462,13.2329723 6.62754462,12.1699569 C6.62754462,11.3436185 6.68182154,10.5368492 6.78188308,9.76109538 C7.98003692,9.85488 9.41117538,9.92466462 11.0944985,9.94128 L11.0944985,15.0654646 Z M11.0944985,22.3902646 C9.42409846,21.85968 7.95160615,19.65648 7.18619077,16.6919262 C8.28834462,16.6110646 9.58840615,16.5519877 11.0944985,16.5368492 L11.0944985,22.3902646 Z M12.5684677,16.5361108 C14.0900677,16.5512492 15.38496,16.6121723 16.4738215,16.6963569 C15.7205908,19.6993108 14.2584369,21.9202338 12.5684677,22.4105723 L12.5684677,16.5361108 Z M12.5684677,9.94128 C14.2602831,9.92540308 15.6832985,9.85414154 16.8652062,9.75666462 C16.9623138,10.5338954 17.0151138,11.3421415 17.0151138,12.1699569 C17.0151138,13.2344492 16.9294523,14.2671877 16.7717908,15.2419569 C15.6087138,15.1485415 14.2156062,15.0806031 12.5684677,15.0650954 L12.5684677,9.94128 Z M12.5684677,1.93229538 C14.3791754,2.45734154 15.9292062,4.96848 16.6240985,8.30078769 C15.5075446,8.38977231 14.1642831,8.45512615 12.5684677,8.47026462 L12.5684677,1.93229538 Z M21.1475446,7.59998769 C20.9200985,7.67051077 19.9874215,7.93414154 18.1253908,8.15383385 C17.7088985,5.94029538 16.9571446,4.04688 15.9775754,2.68109538 C18.2280369,3.65844923 20.0623754,5.41266462 21.1475446,7.59998769 Z M22.2197908,12.1699569 C22.2197908,13.5132185 21.9605908,14.7959262 21.4916677,15.9741415 C21.0858831,15.8559877 20.0631138,15.5993723 18.2579446,15.3881723 C18.4071138,14.3676185 18.4894523,13.2905723 18.4894523,12.1699569 C18.4894523,11.2871262 18.4373908,10.4316185 18.3432369,9.60897231 C20.6291446,9.33537231 21.6301292,8.99198769 21.6973292,8.96798769 L21.4466215,8.26238769 C21.9424985,9.46940308 22.2197908,10.7871877 22.2197908,12.1699569 Z M15.9775754,21.6591877 C16.8589292,20.4296492 17.5560369,18.7729108 17.9906215,16.8407262 C19.45536,17.0087262 20.3747446,17.2051569 20.83776,17.3222031 C19.7296985,19.2385108 18.0253292,20.7697108 15.9775754,21.6591877 Z M11.8547446,23.98608 C11.9245292,23.98608 11.9932062,23.9820185 12.0626215,23.9805415 C12.1010215,23.9820185 12.1394215,23.98608 12.1778215,23.98608 C12.3077908,23.98608 12.4362831,23.9772185 12.5640369,23.9631877 C18.7630523,23.5954338 23.69376,18.4476185 23.69376,12.1699569 C23.69376,5.89229538 18.7630523,0.744849231 12.5640369,0.377095385 C12.4362831,0.363433846 12.3077908,0.353833846 12.1778215,0.353833846 C12.1394215,0.353833846 12.1010215,0.357895385 12.0626215,0.359372308 C11.9932062,0.358264615 11.9245292,0.353833846 11.8547446,0.353833846 C5.32674462,0.353833846 0.01536,5.65488 0.01536,12.1699569 C0.01536,18.6857723 5.32674462,23.98608 11.8547446,23.98608 Z" id="path-1"></path>
    </defs>
    <g id="Page-1" stroke="none" stroke-width="1" fill="none" fill-rule="evenodd">
        <g id="C3p-icon-pack" transform="translate(-951.000000, -309.000000)">
            <g id="Group" transform="translate(63.000000, 86.000000)">
                <g id="c3p-globe-1" transform="translate(888.000000, 223.000000)">
                    <mask id="mask-2" fill="white">
                        <use xlink:href="#path-1"></use>
                    </mask>
                    <use id="Mask" fill="#000000" xlink:href="#path-1"></use>
                </g>
            </g>
        </g>
    </g>
</svg>