<?xml version="1.0" encoding="UTF-8"?>
<svg width="24px" height="24px" viewBox="0 0 24 24" version="1.1" xmlns="http://www.w3.org/2000/svg" xmlns:xlink="http://www.w3.org/1999/xlink">
    <!-- Generator: Sketch 52.4 (67378) - http://www.bohemiancoding.com/sketch -->
    <title>c3p-calendar</title>
    <desc>Created with Sketch.</desc>
    <g id="Page-1" stroke="none" stroke-width="1" fill="none" fill-rule="evenodd">
        <g id="C3p-icon-pack" transform="translate(-453.000000, -201.000000)" fill="#000000">
            <g id="Group" transform="translate(63.000000, 86.000000)">
                <g id="c3p-calendar" transform="translate(390.000000, 115.000000)">
                    <path d="M12.5915815,8.86308923 C12.9992123,8.86308923 13.3300431,9.19392 13.3300431,9.60155077 L13.3300431,11.0784738 C13.3300431,11.4861046 12.9992123,11.8169354 12.5915815,11.8169354 L11.1146585,11.8169354 C10.7070277,11.8169354 10.3761969,11.4861046 10.3761969,11.0784738 L10.3761969,9.60155077 C10.3761969,9.19392 10.7070277,8.86308923 11.1146585,8.86308923 L12.5915815,8.86308923 Z M6.68388923,8.86308923 C7.09152,8.86308923 7.42235077,9.19392 7.42235077,9.60155077 L7.42235077,11.0784738 C7.42235077,11.4861046 7.09152,11.8169354 6.68388923,11.8169354 L5.20696615,11.8169354 C4.79933538,11.8169354 4.46850462,11.4861046 4.46850462,11.0784738 L4.46850462,9.60155077 C4.46850462,9.19392 4.79933538,8.86308923 5.20696615,8.86308923 L6.68388923,8.86308923 Z M12.5915815,14.7707815 C12.9992123,14.7707815 13.3300431,15.1016123 13.3300431,15.5092431 L13.3300431,16.9861662 C13.3300431,17.3937969 12.9992123,17.7246277 12.5915815,17.7246277 L11.1146585,17.7246277 C10.7070277,17.7246277 10.3761969,17.3937969 10.3761969,16.9861662 L10.3761969,15.5092431 C10.3761969,15.1016123 10.7070277,14.7707815 11.1146585,14.7707815 L12.5915815,14.7707815 Z M17.0223508,11.8169354 C16.61472,11.8169354 16.2838892,11.4861046 16.2838892,11.0784738 L16.2838892,9.60155077 C16.2838892,9.19392 16.61472,8.86308923 17.0223508,8.86308923 L18.4992738,8.86308923 C18.9069046,8.86308923 19.2377354,9.19392 19.2377354,9.60155077 L19.2377354,11.0784738 C19.2377354,11.4861046 18.9069046,11.8169354 18.4992738,11.8169354 L17.0223508,11.8169354 Z M17.0223508,17.7246277 C16.61472,17.7246277 16.2838892,17.3937969 16.2838892,16.9861662 L16.2838892,15.5092431 C16.2838892,15.1016123 16.61472,14.7707815 17.0223508,14.7707815 L18.4992738,14.7707815 C18.9069046,14.7707815 19.2377354,15.1016123 19.2377354,15.5092431 L19.2377354,16.9861662 C19.2377354,17.3937969 18.9069046,17.7246277 18.4992738,17.7246277 L17.0223508,17.7246277 Z M6.68388923,14.7707815 C7.09152,14.7707815 7.42235077,15.1016123 7.42235077,15.5092431 L7.42235077,16.9861662 C7.42235077,17.3937969 7.09152,17.7246277 6.68388923,17.7246277 L5.20696615,17.7246277 C4.79933538,17.7246277 4.46850462,17.3937969 4.46850462,16.9861662 L4.46850462,15.5092431 C4.46850462,15.1016123 4.79933538,14.7707815 5.20696615,14.7707815 L6.68388923,14.7707815 Z M22.1915815,22.1553969 L22.1915815,3.69385846 L16.27872,3.69385846 L16.27872,4.43785846 C16.27872,4.84585846 15.9486277,5.17632 15.5402585,5.17632 C15.1322585,5.17632 14.8017969,4.84585846 14.8017969,4.43785846 L14.8017969,3.69385846 L8.89410462,3.69385846 L8.89410462,4.43785846 C8.89410462,4.84585846 8.56364308,5.17632 8.15564308,5.17632 C7.74764308,5.17632 7.41718154,4.84585846 7.41718154,4.43785846 L7.41718154,3.69385846 L1.51465846,3.69385846 L1.51465846,22.1553969 L22.1915815,22.1553969 Z M23.6685046,3.69385846 L23.6685046,22.1553969 C23.6685046,22.9710277 23.0072123,23.63232 22.1915815,23.63232 L1.51465846,23.63232 C0.699027692,23.63232 0.0377353846,22.9710277 0.0377353846,22.1553969 L0.0377353846,3.69385846 C0.0377353846,2.87822769 0.699027692,2.21693538 1.51465846,2.21693538 L7.41718154,2.21693538 L7.41718154,0.745550769 C7.41718154,0.337181538 7.74764308,0.00708923077 8.15564308,0.00708923077 C8.56364308,0.00708923077 8.89410462,0.337181538 8.89410462,0.745550769 L8.89410462,2.21693538 L14.8017969,2.21693538 L14.8017969,0.745550769 C14.8017969,0.337181538 15.1322585,0.00708923077 15.5402585,0.00708923077 C15.9486277,0.00708923077 16.27872,0.337181538 16.27872,0.745550769 L16.27872,2.21693538 L22.1915815,2.21693538 C23.0072123,2.21693538 23.6685046,2.87822769 23.6685046,3.69385846 Z" id="Shape"></path>
                </g>
            </g>
        </g>
    </g>
</svg>