<?xml version="1.0" encoding="UTF-8"?>
<svg width="24px" height="24px" viewBox="0 0 24 24" version="1.1" xmlns="http://www.w3.org/2000/svg" xmlns:xlink="http://www.w3.org/1999/xlink">
    <!-- Generator: Sketch 52.4 (67378) - http://www.bohemiancoding.com/sketch -->
    <title>c3p-pinpoint</title>
    <desc>Created with Sketch.</desc>
    <defs>
        <path d="M19.2727385,9.37325538 C19.2727385,5.62187077 17.0156308,1.83725538 11.9726769,1.83725538 C7.92406154,1.83725538 4.50350769,5.28845538 4.50350769,9.37325538 C4.50350769,13.7253785 8.65587692,18.4891938 11.688,21.9677169 L12.0749538,22.4119015 C12.1015385,22.4381169 12.1392,22.4672862 12.1728,22.4905477 C12.2060308,22.4672862 12.2433231,22.4381169 12.2695385,22.4119015 C16.9166769,17.0647015 19.2727385,12.6775015 19.2727385,9.37325538 Z M3.02658462,9.37325538 C3.02658462,4.48648615 7.12910769,0.360701538 11.9726769,0.360701538 C17.5499077,0.360701538 20.7496615,4.48648615 20.7496615,9.37325538 C20.7496615,14.2629785 16.3665231,19.9520862 13.3650462,23.4025477 C13.3521231,23.4173169 12.8385231,23.9911015 12.2019692,23.9911015 L12.1454769,23.9911015 C11.5085538,23.9911015 10.9916308,23.4173169 10.9794462,23.4025477 C7.78116923,19.7239015 3.02658462,14.4907938 3.02658462,9.37325538 Z M14.8344,9.23080615 C14.8344,7.60212923 13.5096,6.27696 11.8805538,6.27696 C10.2518769,6.27696 8.92670769,7.60212923 8.92670769,9.23080615 C8.92670769,10.8598523 10.2858462,12.2171446 11.9145231,12.2171446 C13.5435692,12.2171446 14.8344,10.8598523 14.8344,9.23080615 Z M7.48375385,9.26329846 C7.48375385,6.81640615 9.46763077,4.83252923 11.9145231,4.83252923 C14.3614154,4.83252923 16.3452923,6.81640615 16.3452923,9.26329846 C16.3452923,11.7101908 14.3614154,13.6940677 11.9145231,13.6940677 C9.46763077,13.6940677 7.48375385,11.7101908 7.48375385,9.26329846 Z" id="path-1"></path>
    </defs>
    <g id="Page-1" stroke="none" stroke-width="1" fill="none" fill-rule="evenodd">
        <g id="C3p-icon-pack" transform="translate(-225.000000, -363.000000)">
            <g id="Group" transform="translate(63.000000, 86.000000)">
                <g id="c3p-pinpoint" transform="translate(162.000000, 277.000000)">
                    <mask id="mask-2" fill="white">
                        <use xlink:href="#path-1"></use>
                    </mask>
                    <use id="Mask" fill="#000000" xlink:href="#path-1"></use>
                </g>
            </g>
        </g>
    </g>
</svg>