<?xml version="1.0" encoding="UTF-8"?>
<svg width="24px" height="24px" viewBox="0 0 24 24" version="1.1" xmlns="http://www.w3.org/2000/svg" xmlns:xlink="http://www.w3.org/1999/xlink">
    <!-- Generator: Sketch 52.4 (67378) - http://www.bohemiancoding.com/sketch -->
    <title>c3p-arrows-up</title>
    <desc>Created with Sketch.</desc>
    <defs>
        <path d="M7.35127771,11.1113359 C7.18031032,11.2823033 6.95402994,11.3753297 6.71014997,11.3753297 C6.46627001,11.3753297 6.23873251,11.2823033 6.06776512,11.1113359 C5.8955406,10.9378543 5.8,10.7078026 5.8,10.4639226 C5.8,10.2175284 5.89679772,9.98747668 6.06776512,9.82153774 L11.3677545,4.52280551 C11.5387219,4.34680966 11.7675165,4.25001194 12.0126535,4.25001194 C12.2577906,4.24875483 12.4878423,4.34680966 12.6537813,4.51903417 L17.9537706,9.8177664 C18.1297665,9.98747668 18.2265642,10.2175284 18.2265642,10.4639226 C18.2265642,10.7078026 18.1310236,10.9378543 17.957542,11.1113359 C17.6080645,11.4620705 17.0310495,11.4633276 16.6664867,11.1113359 L12.006368,6.43990317 L7.35127771,11.1113359 Z M7.35127771,18.6540152 C7.18031032,18.8249826 6.95402994,18.918009 6.71014997,18.918009 C6.46627001,18.918009 6.23873251,18.8249826 6.06776512,18.6540152 C5.8955406,18.4805336 5.8,18.2504819 5.8,18.0066019 C5.8,17.7602077 5.89679772,17.530156 6.06776512,17.3642171 L11.3677545,12.0654848 C11.5387219,11.889489 11.7675165,11.7926913 12.0126535,11.7926913 C12.2577906,11.7914342 12.4878423,11.889489 12.6537813,12.0617135 L17.9537706,17.3604457 C18.1297665,17.530156 18.2265642,17.7602077 18.2265642,18.0066019 C18.2265642,18.2504819 18.1310236,18.4805336 17.957542,18.6540152 C17.6080645,19.0047498 17.0310495,19.0060069 16.6664867,18.6540152 L12.006368,13.9825825 L7.35127771,18.6540152 Z" id="path-1"></path>
    </defs>
    <g id="Page-1" stroke="none" stroke-width="1" fill="none" fill-rule="evenodd">
        <g id="C3p-icon-pack" transform="translate(-1731.000000, -356.000000)">
            <g id="Group" transform="translate(63.000000, 86.000000)">
                <g id="c3p-arrows-up" transform="translate(1668.000000, 270.000000)">
                    <mask id="mask-2" fill="white">
                        <use xlink:href="#path-1"></use>
                    </mask>
                    <use id="Shape" fill="#000000" xlink:href="#path-1"></use>
                </g>
            </g>
        </g>
    </g>
</svg>