<?xml version="1.0" encoding="UTF-8"?>
<svg width="24px" height="24px" viewBox="0 0 24 24" version="1.1" xmlns="http://www.w3.org/2000/svg" xmlns:xlink="http://www.w3.org/1999/xlink">
    <!-- Generator: Sketch 52.4 (67378) - http://www.bohemiancoding.com/sketch -->
    <title>c3p-arrow-sw-circle</title>
    <desc>Created with Sketch.</desc>
    <g id="Page-1" stroke="none" stroke-width="1" fill="none" fill-rule="evenodd">
        <g id="C3p-icon-pack" transform="translate(-1839.000000, -248.000000)" fill="#000000">
            <g id="Group" transform="translate(63.000000, 86.000000)">
                <g id="c3p-arrow-sw-circle" transform="translate(1776.000000, 162.000000)">
                    <path d="M11.85312,22.1784738 C17.5536738,22.1784738 22.1915815,17.5176738 22.1915815,11.81712 C22.1915815,6.11619692 17.5536738,1.47828923 11.85312,1.47828923 C6.15256615,1.47828923 1.51465846,6.11619692 1.51465846,11.81712 C1.51465846,17.5176738 6.15256615,22.1784738 11.85312,22.1784738 Z M23.6685046,11.81712 C23.6685046,18.3425354 18.3785354,23.6325046 11.85312,23.6325046 C5.32733538,23.6325046 0.0377353846,18.3425354 0.0377353846,11.81712 C0.0377353846,5.29170462 5.32733538,0.00136615385 11.85312,0.00136615385 C18.3785354,0.00136615385 23.6685046,5.29170462 23.6685046,11.81712 Z M8.96532047,13.8483241 L15.0425388,7.77110576 C15.3232602,7.49038437 15.7835867,7.49250569 16.0671365,7.77605551 C16.3478579,8.0567769 16.3471508,8.51427499 16.0671365,8.79570349 L9.98921109,14.8736289 L14.2092244,14.8736289 C14.4001432,14.8736289 14.5811625,14.9485823 14.7176341,15.0850539 C14.85552,15.2229397 14.9297662,15.4032519 14.9304733,15.5948779 C14.9304733,15.7900393 14.8541057,15.9738871 14.7176341,16.1103587 C14.5790412,16.2489516 14.3951934,16.323905 14.2049817,16.3203694 L8.24265734,16.3203694 C8.04820297,16.323905 7.86506232,16.2496587 7.7271765,16.1117729 C7.58858357,15.97318 7.51433735,15.7900393 7.51787289,15.5984134 L7.51716578,9.63821034 C7.51433735,9.44304887 7.58929067,9.2592011 7.7271765,9.12131528 C7.86435521,8.98413656 8.04820297,8.90776903 8.24336445,8.90776903 C8.63580871,8.90706193 8.96249204,9.23091683 8.968856,9.63326059 L8.96532047,13.8483241 Z" id="Shape"></path>
                </g>
            </g>
        </g>
    </g>
</svg>