<?xml version="1.0" encoding="UTF-8"?>
<svg width="24px" height="24px" viewBox="0 0 24 24" version="1.1" xmlns="http://www.w3.org/2000/svg" xmlns:xlink="http://www.w3.org/1999/xlink">
    <!-- Generator: Sketch 52.4 (67378) - http://www.bohemiancoding.com/sketch -->
    <title>c3p-link</title>
    <desc>Created with Sketch.</desc>
    <defs>
        <path d="M8.08532222,22.2501143 C7.16263157,23.1731685 5.95309974,23.6341502 4.74356791,23.6341502 C3.53367252,23.6341502 2.32414069,23.1731685 1.40145004,22.2501143 C-0.443931266,20.4040059 -0.443931266,17.4116234 1.40145004,15.5662421 L4.26295441,12.6138501 C5.18564507,11.6911595 6.39554045,11.2298142 7.60507228,11.2298142 C8.29036459,11.2298142 8.97383915,11.3832324 9.60750731,11.6795259 L8.47213974,12.8145299 C8.19184246,12.7374572 7.90391063,12.6840153 7.60507228,12.6840153 C6.73073382,12.6840153 5.9094737,13.0242984 5.29107465,13.6419704 L2.42266282,16.6016333 C1.15459938,17.8696968 1.15459938,19.9459325 2.42993382,21.221994 C3.04796933,21.839666 3.86922944,22.1799491 4.74356791,22.1799491 C5.61754282,22.1799491 6.43916649,21.839666 7.05720199,21.221994 L9.99396128,18.3761223 C10.8126765,17.5574071 11.0718879,16.5169261 10.8315812,15.4575405 L11.9843991,14.3050861 C12.7318586,16.03195 12.4264763,17.9998478 11.0151741,19.41115 L8.08532222,22.2501143 Z M6.73658698,17.0063012 C6.4526542,16.7223684 6.4526542,16.2621137 6.73658698,15.9781809 L15.5450471,7.1010098 C15.8293434,6.81707702 16.2892346,6.81707702 16.5735309,7.1010098 C16.8574637,7.38494258 16.8574637,7.84519725 16.5735309,8.12913004 L7.76470722,17.0063012 C7.6229226,17.1484493 7.43678485,17.2193416 7.2506471,17.2193416 C7.06450935,17.2193416 6.87873515,17.1484493 6.73658698,17.0063012 Z M18.561533,0.360387408 C19.7707013,0.360387408 20.9798695,0.822096284 21.9029237,1.74478693 C23.7486686,3.59089534 23.7486686,6.58291427 21.9029237,8.42829557 L18.9734355,11.3581474 C18.0503813,12.2812016 16.841213,12.7425469 15.6316811,12.7425469 C15.0140092,12.7425469 14.4196044,12.6665649 13.8411959,12.4258946 L14.9991036,11.2668963 C15.2128712,11.3101588 15.4088248,11.2879822 15.6316811,11.2879822 C16.5052925,11.2879822 17.3272797,10.9476991 17.9453152,10.3300272 L20.8820745,7.39326788 C22.1501379,6.1248409 22.1501379,4.04896871 20.8748035,2.77290717 C20.2571316,2.15523522 19.4347808,1.81458859 18.561533,1.81458859 C17.686831,1.81458859 16.8659344,2.15523522 16.2475353,2.77290717 L13.310776,5.61877889 C12.4364376,6.49311735 12.1797711,7.74809297 12.5138738,8.86419238 L11.3857772,9.9919254 C10.5281621,8.22979711 10.8266369,6.04704114 12.2899268,4.58338764 L15.2194151,1.74478693 C16.1417422,0.822096284 17.3516376,0.360387408 18.561533,0.360387408 Z" id="path-1"></path>
    </defs>
    <g id="Page-1" stroke="none" stroke-width="1" fill="none" fill-rule="evenodd">
        <g id="C3p-icon-pack" transform="translate(-117.000000, -417.000000)">
            <g id="Group" transform="translate(63.000000, 86.000000)">
                <g id="c3p-link" transform="translate(54.000000, 331.000000)">
                    <mask id="mask-2" fill="white">
                        <use xlink:href="#path-1"></use>
                    </mask>
                    <use id="Mask" fill="#000000" xlink:href="#path-1"></use>
                </g>
            </g>
        </g>
    </g>
</svg>