<?xml version="1.0" encoding="UTF-8"?>
<svg width="24px" height="25px" viewBox="0 0 24 25" version="1.1" xmlns="http://www.w3.org/2000/svg" xmlns:xlink="http://www.w3.org/1999/xlink">
    <!-- Generator: Sketch 52.4 (67378) - http://www.bohemiancoding.com/sketch -->
    <title>c3p-chart-bars</title>
    <desc>Created with Sketch.</desc>
    <g id="Page-1" stroke="none" stroke-width="1" fill="none" fill-rule="evenodd">
        <g id="C3p-icon-pack" transform="translate(-561.000000, -147.000000)" fill="#000000">
            <g id="Group" transform="translate(63.000000, 86.000000)">
                <g id="c3p-chart-bars" transform="translate(498.000000, 61.000000)">
                    <path d="M1.56266667,22.8586667 L5.37371429,22.8586667 L5.37371429,9.14438095 L1.56266667,9.14438095 L1.56266667,22.8586667 Z M0.800761905,24.3824762 C0.379809524,24.3824762 0.0388571429,24.0415238 0.0388571429,23.6205714 L0.0388571429,8.38247619 C0.0388571429,7.96114286 0.379809524,7.62057143 0.800761905,7.62057143 L6.13561905,7.62057143 C6.55695238,7.62057143 6.89752381,7.96114286 6.89752381,8.38247619 L6.89752381,23.6205714 C6.89752381,24.0415238 6.55695238,24.3824762 6.13561905,24.3824762 L0.800761905,24.3824762 Z M9.936,22.8586667 L13.7474286,22.8586667 L13.7474286,13.6742857 L9.936,13.6742857 L9.936,22.8586667 Z M9.17409524,12.1504762 L14.5093333,12.1504762 C14.9302857,12.1504762 15.2712381,12.4914286 15.2712381,12.912381 L15.2712381,23.6205714 C15.2712381,24.0415238 14.9302857,24.3824762 14.5093333,24.3824762 L9.17409524,24.3824762 C8.7527619,24.3824762 8.41219048,24.0415238 8.41219048,23.6205714 L8.41219048,12.912381 C8.41219048,12.4914286 8.7527619,12.1504762 9.17409524,12.1504762 Z M18.3310476,22.8586667 L22.1340952,22.8586667 L22.1340952,1.52571429 L18.3310476,1.52571429 L18.3310476,22.8586667 Z M16.8072381,0.763809524 C16.8072381,0.34247619 17.1478095,0.0019047619 17.5691429,0.0019047619 L22.896,0.0019047619 C23.3173333,0.0019047619 23.6579048,0.34247619 23.6579048,0.763809524 L23.6579048,23.6205714 C23.6579048,24.0415238 23.3173333,24.3824762 22.896,24.3824762 L17.5691429,24.3824762 C17.1478095,24.3824762 16.8072381,24.0415238 16.8072381,23.6205714 L16.8072381,0.763809524 Z" id="Shape"></path>
                </g>
            </g>
        </g>
    </g>
</svg>