<?xml version="1.0" encoding="UTF-8"?>
<svg width="24px" height="24px" viewBox="0 0 24 24" version="1.1" xmlns="http://www.w3.org/2000/svg" xmlns:xlink="http://www.w3.org/1999/xlink">
    <!-- Generator: Sketch 52.4 (67378) - http://www.bohemiancoding.com/sketch -->
    <title>c3p-earphones</title>
    <desc>Created with Sketch.</desc>
    <defs>
        <path d="M22.1559877,21.4939323 C22.1559877,21.7616246 21.9381415,21.9783631 21.6708185,21.9783631 L19.7024492,21.9783631 C19.4351262,21.9783631 19.2180185,21.7616246 19.2180185,21.4939323 L19.2180185,15.0863015 C19.2180185,14.8189785 19.4351262,14.6018708 19.7024492,14.6018708 L21.6708185,14.6018708 C21.9381415,14.6018708 22.1559877,14.8189785 22.1559877,15.0863015 L22.1559877,21.4939323 Z M1.97088,14.6018708 L3.96214154,14.6018708 C4.22946462,14.6018708 4.44731077,14.8189785 4.44731077,15.0863015 L4.44731077,21.5168246 C4.44731077,21.7845169 4.22946462,22.0016246 3.96214154,22.0016246 L1.97088,22.0016246 C1.70318769,22.0016246 1.48644923,21.7845169 1.48644923,21.5168246 L1.48644923,15.0863015 C1.48644923,14.8189785 1.70318769,14.6018708 1.97088,14.6018708 Z M23.5003569,11.67904 C22.8279877,5.66168615 17.9445415,1.29442462 11.8880492,1.29442462 C5.58011077,1.29442462 0.469587692,6.15497846 0.122510769,12.5999015 C0.115495385,12.7405785 0.0634338462,13.7386092 0.0597415385,14.3327015 L0.0578953846,14.6631631 C0.0279876923,14.7997785 0.00952615385,14.9408246 0.00952615385,15.0863015 L0.00952615385,21.5168246 C0.00952615385,22.5986708 0.889033846,23.4785477 1.97088,23.4785477 L3.96214154,23.4785477 C5.04361846,23.4785477 5.92423385,22.5986708 5.92423385,21.5168246 L5.92423385,15.0863015 C5.92423385,14.0048246 5.04361846,13.1249477 3.96214154,13.1249477 L1.97088,13.1249477 C1.83500308,13.1249477 1.70244923,13.1389785 1.57432615,13.1651938 C1.58540308,12.9259323 1.59500308,12.7365169 1.59795692,12.6792862 C1.90183385,7.03042462 6.37801846,2.77134769 11.8880492,2.77134769 C17.1791262,2.77134769 21.4448492,6.58697846 22.0319262,11.8433477 C22.0566646,12.0626708 22.0884185,12.6202092 22.1138954,13.1795938 C21.9710031,13.1467323 21.82368,13.1249477 21.6708185,13.1249477 L19.7024492,13.1249477 C18.6209723,13.1249477 17.7410954,14.0048246 17.7410954,15.0863015 L17.7410954,21.4939323 C17.7410954,22.5757785 18.6209723,23.4552862 19.7024492,23.4552862 L21.6708185,23.4552862 C22.7522954,23.4552862 23.6329108,22.5757785 23.6329108,21.4939323 L23.6329108,15.0863015 C23.6329108,14.9659323 23.6181415,14.8492554 23.5974646,14.7347938 C23.6181415,14.6672246 23.6329108,14.5967015 23.6329108,14.5224862 C23.6351262,14.0365785 23.5586954,12.2033477 23.5003569,11.67904 Z" id="path-1"></path>
    </defs>
    <g id="Page-1" stroke="none" stroke-width="1" fill="none" fill-rule="evenodd">
        <g id="C3p-icon-pack" transform="translate(-897.000000, -471.000000)">
            <g id="Group" transform="translate(63.000000, 86.000000)">
                <g id="c3p-earphones" transform="translate(834.000000, 385.000000)">
                    <mask id="mask-2" fill="white">
                        <use xlink:href="#path-1"></use>
                    </mask>
                    <use id="Mask" fill="#000000" xlink:href="#path-1"></use>
                </g>
            </g>
        </g>
    </g>
</svg>