<?xml version="1.0" encoding="UTF-8"?>
<svg width="24px" height="24px" viewBox="0 0 24 24" version="1.1" xmlns="http://www.w3.org/2000/svg" xmlns:xlink="http://www.w3.org/1999/xlink">
    <!-- Generator: Sketch 52.4 (67378) - http://www.bohemiancoding.com/sketch -->
    <title>c3p-ghost</title>
    <desc>Created with Sketch.</desc>
    <g id="Page-1" stroke="none" stroke-width="1" fill="none" fill-rule="evenodd">
        <g id="C3p-icon-pack" transform="translate(-1287.000000, -302.000000)" fill="#000000">
            <g id="Group" transform="translate(63.000000, 86.000000)">
                <g id="c3p-ghost" transform="translate(1224.000000, 216.000000)">
                    <path d="M19.7224862,20.9614154 L19.7224862,10.2869538 C19.7224862,5.4312 16.0815015,1.4808 11.6060554,1.4808 C7.13097846,1.4808 3.48999385,5.4312 3.48999385,10.2869538 L3.48999385,20.9865231 L5.59867077,18.6596308 C5.73934769,18.5045538 5.93836308,18.4163077 6.14587077,18.4163077 C6.15990154,18.4163077 6.17282462,18.4170462 6.18648615,18.4177846 C6.40839385,18.4296 6.61331692,18.5411077 6.74402462,18.7216615 L8.86710154,21.6544615 L11.0522092,18.7201846 C11.1914092,18.5326154 11.4103631,18.4222154 11.6440862,18.4222154 L11.64704,18.4222154 C11.8815015,18.4229538 12.1011938,18.5355692 12.2396554,18.7242462 L14.3859938,21.6529846 L16.5349169,18.7224 C16.6671015,18.5425846 16.8731323,18.4321846 17.0961477,18.4214769 C17.3173169,18.4070769 17.5336862,18.5016 17.6824862,18.6681231 L19.7224862,20.9614154 Z M20.7234708,23.5921846 C20.4384246,23.7018462 20.1127631,23.6217231 19.9093169,23.3931692 L17.18624,20.3326154 L14.9808246,23.3388923 C14.8416246,23.5286769 14.6204554,23.6405538 14.3852554,23.6405538 C14.1493169,23.6405538 13.9288862,23.5279385 13.7896862,23.3381538 L11.6389169,20.4038769 L9.45122462,23.3425846 C9.31202462,23.5301538 9.09196308,23.6405538 8.85897846,23.6405538 L8.85380923,23.6405538 C8.61897846,23.6390769 8.39891692,23.5257231 8.26119385,23.3355692 L6.08199385,20.3252308 L3.29910154,23.3976 C3.15620923,23.5552615 2.95571692,23.6405538 2.75153231,23.6405538 C2.66217846,23.6405538 2.57208615,23.6246769 2.48605538,23.5907077 C2.20137846,23.4810462 2.01307077,23.2070769 2.01307077,22.9020923 L2.01307077,10.2869538 C2.01307077,4.61704615 6.31608615,0.00387692308 11.6060554,0.00387692308 C16.8956554,0.00387692308 21.1994092,4.61704615 21.1994092,10.2869538 L21.1994092,22.9020923 C21.1994092,23.2085538 21.0096246,23.4832615 20.7234708,23.5921846 Z M15.2985477,8.13389538 C16.1127015,8.13389538 16.7717785,8.79371077 16.7717785,9.60638769 C16.7717785,10.4198031 16.1127015,11.0799877 15.2985477,11.0799877 C14.4843938,11.0799877 13.8253169,10.4198031 13.8253169,9.60638769 C13.8253169,8.79371077 14.4843938,8.13389538 15.2985477,8.13389538 Z M7.91393231,8.13389538 C8.72808615,8.13389538 9.38716308,8.79371077 9.38716308,9.60638769 C9.38716308,10.4198031 8.72808615,11.0799877 7.91393231,11.0799877 C7.09977846,11.0799877 6.44070154,10.4198031 6.44070154,9.60638769 C6.44070154,8.79371077 7.09977846,8.13389538 7.91393231,8.13389538 Z" id="Shape"></path>
                </g>
            </g>
        </g>
    </g>
</svg>