<?xml version="1.0" encoding="UTF-8"?>
<svg width="24px" height="24px" viewBox="0 0 24 24" version="1.1" xmlns="http://www.w3.org/2000/svg" xmlns:xlink="http://www.w3.org/1999/xlink">
    <!-- Generator: Sketch 52.4 (67378) - http://www.bohemiancoding.com/sketch -->
    <title>c3p-wrench</title>
    <desc>Created with Sketch.</desc>
    <defs>
        <path d="M20.6225455,11.9333455 L20.3523636,12.2486182 C19.54,13.0729818 18.4774545,13.4678909 17.3603636,13.4678909 C16.808,13.4678909 16.0625455,13.3638909 15.5596364,13.1540727 C15.1054545,12.9657091 14.6832727,12.6933455 14.3050909,12.3493455 L4.98327273,21.7497091 C4.70981818,22.0275273 4.34618182,22.1802545 3.95927273,22.1802545 C3.572,22.1802545 3.208,22.0275273 2.93418182,21.7497091 L1.91054545,20.7111636 C1.34545455,20.1380727 1.34545455,19.2064364 1.91018182,18.6333455 L11.0189091,9.34098182 C10.7134545,8.89625455 10.5054545,8.41152727 10.3814545,7.91007273 L10.3810909,7.91007273 C10.0305455,6.49189091 10.2349091,4.53189091 11.336,3.40898182 L11.6494545,3.09261818 C12.5938182,2.13443636 15.0461818,1.8508 16.404,1.76752727 L13.7367273,4.84789091 C13.4985455,5.12316364 13.5101818,5.5388 13.7643636,5.79952727 L17.9807273,10.1249818 C18.2367273,10.3878909 18.6501818,10.4035273 18.9254545,10.1595273 L21.8938182,7.48643636 C21.8054545,8.92607273 21.5258182,11.0173455 20.6225455,11.9333455 M22.9112727,5.27298182 C22.6665455,5.15989091 22.3756364,5.20243636 22.1712727,5.3828 L18.5050909,8.67589091 L15.1956364,5.28025455 L18.4723636,1.49552727 C18.6509091,1.28934545 18.6938182,1.00607273 18.5829091,0.756618182 C18.4716364,0.5068 18.2272727,0.354072727 17.9574545,0.354072727 L17.76,0.354072727 C15.7345455,0.354072727 12.2381818,0.528254545 10.6767273,2.11189091 L10.3618182,2.42498182 C8.69672727,4.12389091 8.40072727,6.91043636 9.27818182,9.02898182 L0.885454545,17.5948 C-0.246181818,18.7424364 -0.246181818,20.6020727 0.885454545,21.7497091 L1.91018182,22.7886182 C2.47563636,23.3620727 3.21745455,23.6489818 3.95927273,23.6489818 C4.70072727,23.6489818 5.44218182,23.3620727 6.008,22.7886182 L14.5243636,14.2035273 C15.3298182,14.6388 16.4334545,14.9231636 17.3603636,14.9231636 C18.8461818,14.9231636 20.2545455,14.3235273 21.3272727,13.2355273 L21.6370909,12.9209818 C23.3330909,11.2017091 23.3065455,7.52789091 23.3145455,5.91116364 C23.3152727,5.63698182 23.1574545,5.3868 22.9112727,5.27298182" id="path-1"></path>
    </defs>
    <g id="Page-1" stroke="none" stroke-width="1" fill="none" fill-rule="evenodd">
        <g id="C3p-icon-pack" transform="translate(-453.000000, -471.000000)">
            <g id="Group" transform="translate(63.000000, 86.000000)">
                <g id="c3p-wrench" transform="translate(390.000000, 385.000000)">
                    <mask id="mask-2" fill="white">
                        <use xlink:href="#path-1"></use>
                    </mask>
                    <use id="Mask" fill="#000000" xlink:href="#path-1"></use>
                </g>
            </g>
        </g>
    </g>
</svg>