<?xml version="1.0" encoding="UTF-8"?>
<svg width="24px" height="24px" viewBox="0 0 24 24" version="1.1" xmlns="http://www.w3.org/2000/svg" xmlns:xlink="http://www.w3.org/1999/xlink">
    <!-- Generator: Sketch 52.4 (67378) - http://www.bohemiancoding.com/sketch -->
    <title>c3p-grid</title>
    <desc>Created with Sketch.</desc>
    <g id="Page-1" stroke="none" stroke-width="1" fill="none" fill-rule="evenodd">
        <g id="C3p-icon-pack" transform="translate(-507.000000, -255.000000)" fill="#000000">
            <g id="Group" transform="translate(63.000000, 86.000000)">
                <g id="c3p-grid" transform="translate(444.000000, 169.000000)">
                    <path d="M14.8068923,8.86301538 L22.1915077,8.86301538 L22.1915077,1.4784 L14.8068923,1.4784 L14.8068923,8.86301538 Z M22.1915077,0.00147692308 C23.0071385,0.00147692308 23.6684308,0.662769231 23.6684308,1.4784 L23.6684308,8.86301538 C23.6684308,9.67864615 23.0071385,10.3399385 22.1915077,10.3399385 L14.8068923,10.3399385 C13.9912615,10.3399385 13.3299692,9.67864615 13.3299692,8.86301538 L13.3299692,1.4784 C13.3299692,0.662769231 13.9912615,0.00147692308 14.8068923,0.00147692308 L22.1915077,0.00147692308 Z M14.8068923,22.1553231 L22.1915077,22.1553231 L22.1915077,14.7707077 L14.8068923,14.7707077 L14.8068923,22.1553231 Z M22.1915077,13.2937846 C23.0071385,13.2937846 23.6684308,13.9550769 23.6684308,14.7707077 L23.6684308,22.1553231 C23.6684308,22.9709538 23.0071385,23.6322462 22.1915077,23.6322462 L14.8068923,23.6322462 C13.9912615,23.6322462 13.3299692,22.9709538 13.3299692,22.1553231 L13.3299692,14.7707077 C13.3299692,13.9550769 13.9912615,13.2937846 14.8068923,13.2937846 L22.1915077,13.2937846 Z M1.51458462,8.86301538 L8.8992,8.86301538 L8.8992,1.4784 L1.51458462,1.4784 L1.51458462,8.86301538 Z M1.51458462,10.3399385 C0.698953846,10.3399385 0.0376615385,9.67864615 0.0376615385,8.86301538 L0.0376615385,1.4784 C0.0376615385,0.662769231 0.698953846,0.00147692308 1.51458462,0.00147692308 L8.8992,0.00147692308 C9.71483077,0.00147692308 10.3761231,0.662769231 10.3761231,1.4784 L10.3761231,8.86301538 C10.3761231,9.67864615 9.71483077,10.3399385 8.8992,10.3399385 L1.51458462,10.3399385 Z M1.51458462,22.1553231 L8.8992,22.1553231 L8.8992,14.7707077 L1.51458462,14.7707077 L1.51458462,22.1553231 Z M0.0376615385,22.1553231 L0.0376615385,14.7707077 C0.0376615385,13.9550769 0.698953846,13.2937846 1.51458462,13.2937846 L8.8992,13.2937846 C9.71483077,13.2937846 10.3761231,13.9550769 10.3761231,14.7707077 L10.3761231,22.1553231 C10.3761231,22.9709538 9.71483077,23.6322462 8.8992,23.6322462 L1.51458462,23.6322462 C0.698953846,23.6322462 0.0376615385,22.9709538 0.0376615385,22.1553231 Z" id="Shape"></path>
                </g>
            </g>
        </g>
    </g>
</svg>