<?xml version="1.0" encoding="UTF-8"?>
<svg width="24px" height="24px" viewBox="0 0 24 24" version="1.1" xmlns="http://www.w3.org/2000/svg" xmlns:xlink="http://www.w3.org/1999/xlink">
    <!-- Generator: Sketch 52.4 (67378) - http://www.bohemiancoding.com/sketch -->
    <title>c3p-fullscreen</title>
    <desc>Created with Sketch.</desc>
    <g id="Page-1" stroke="none" stroke-width="1" fill="none" fill-rule="evenodd">
        <g id="C3p-icon-pack" transform="translate(-615.000000, -255.000000)" fill="#000000">
            <g id="Group" transform="translate(63.000000, 86.000000)">
                <g id="c3p-fullscreen" transform="translate(552.000000, 169.000000)">
                    <path d="M23.5534523,0.169587692 C23.6501908,0.265587692 23.6848985,0.399249231 23.6823138,0.548787692 L23.6531446,0.819433846 C23.6531446,0.824233846 23.6730831,0.828295385 23.6730831,0.833464615 L23.6575754,6.16441846 C23.6512985,6.46275692 23.4042831,6.64035692 23.1055754,6.64737231 L22.7267446,6.64774154 C22.4280369,6.65438769 22.1917292,6.39481846 22.1980062,6.09648 L22.2186831,2.51789538 L15.8664369,8.83100308 C15.5776985,9.11937231 15.1106215,9.11937231 14.8222523,8.83100308 C14.5335138,8.54263385 14.5335138,8.07481846 14.8222523,7.78644923 L21.1519754,1.49586462 L17.6612677,1.48626462 C17.3629292,1.49291077 17.0863754,1.28724923 17.04096,0.935372308 L17.0416985,0.556541538 C17.0487138,0.257833846 17.2957292,0.0108184615 17.5936985,0.00417230769 L22.8899446,0.0274338462 C22.8954831,0.0266953846 22.8995446,0.0248492308 22.9047138,0.0248492308 L23.1749908,0.0185723077 C23.3237908,0.0145107692 23.4578215,0.0732184615 23.5534523,0.169587692 Z M23.6529969,22.7882215 L23.6821662,23.0584985 C23.68512,23.2084062 23.6500431,23.3420677 23.5533046,23.4376985 C23.4580431,23.5344369 23.3236431,23.5927754 23.1748431,23.5887138 L22.9049354,23.5824369 C22.8997662,23.5824369 22.8953354,23.5805908 22.8901662,23.5802215 L17.59392,23.6031138 C17.2955815,23.5964677 17.0485662,23.3498215 17.04192,23.0507446 L17.0411815,22.6719138 C17.0865969,22.3200369 17.3631508,22.1143754 17.66112,22.1210215 L21.1521969,22.1114215 L14.8221046,15.8208369 C14.5337354,15.5324677 14.5337354,15.0650215 14.8221046,14.7766523 C15.1104738,14.4882831 15.57792,14.4882831 15.8662892,14.7766523 L22.2185354,21.0893908 L22.1982277,17.5108062 C22.1915815,17.2124677 22.4282585,16.9528985 22.7265969,16.9595446 L23.1057969,16.9599138 C23.4041354,16.9669292 23.6511508,17.1448985 23.6577969,17.4428677 L23.6733046,22.7738215 C23.6733046,22.7789908 23.6529969,22.7830523 23.6529969,22.7882215 Z M0.0330461538,0.833575385 C0.0330461538,0.828406154 0.0533538462,0.824344615 0.0533538462,0.819175385 L0.0241846154,0.548898462 C0.0208615385,0.398990769 0.0559384615,0.265329231 0.152676923,0.169698462 C0.247938462,0.0733292308 0.382338462,0.0146215385 0.531138462,0.0186830769 L0.801415385,0.02496 C0.806584615,0.02496 0.810276923,0.0268061538 0.816184615,0.0271753846 L6.13532308,0.00428307692 C6.43366154,0.0109292308 6.68030769,0.257575385 6.68732308,0.556652308 L6.68806154,0.935483077 C6.64264615,1.28736 6.36609231,1.49302154 6.06812308,1.48637538 L2.57741538,1.49560615 L8.90713846,7.78656 C9.19550769,8.07492923 9.19550769,8.54237538 8.90713846,8.83074462 C8.61876923,9.11911385 8.15095385,9.11911385 7.86295385,8.83074462 L1.51070769,2.53757538 L1.53101538,6.09659077 C1.53766154,6.39492923 1.30098462,6.65449846 1.00264615,6.64785231 L0.600553846,6.64748308 C0.301846154,6.64046769 0.0552,6.46286769 0.0485538462,6.16452923 L0.0330461538,0.833575385 Z M0.530990769,23.5887138 C0.38256,23.5927754 0.247790769,23.5344369 0.152898462,23.4376985 C0.0557907692,23.3420677 0.0207138462,23.2084062 0.0240369231,23.0584985 L0.0532061538,22.7882215 C0.0532061538,22.7830523 0.0328984615,22.7789908 0.0328984615,22.7738215 L0.0484061538,17.4428677 C0.0550523077,17.1448985 0.301698462,16.9669292 0.600406154,16.9599138 L1.00249846,16.9595446 C1.30083692,16.9528985 1.53788308,17.2124677 1.53086769,17.5108062 L1.51056,21.0698215 L7.86280615,14.7766523 C8.15117538,14.4882831 8.61862154,14.4882831 8.90736,14.7766523 C9.19572923,15.0650215 9.19572923,15.5324677 8.90736,15.8208369 L2.57726769,22.1117908 L6.06797538,22.1210215 C6.36631385,22.1143754 6.64286769,22.3200369 6.68828308,22.6719138 L6.68754462,23.0507446 C6.68016,23.3498215 6.43351385,23.5964677 6.13554462,23.6031138 L0.816036923,23.5802215 C0.810498462,23.5805908 0.806436923,23.5824369 0.801267692,23.5824369 L0.530990769,23.5887138 Z" id="Shape"></path>
                </g>
            </g>
        </g>
    </g>
</svg>