<?xml version="1.0" encoding="UTF-8"?>
<svg width="24px" height="24px" viewBox="0 0 24 24" version="1.1" xmlns="http://www.w3.org/2000/svg" xmlns:xlink="http://www.w3.org/1999/xlink">
    <!-- Generator: Sketch 52.4 (67378) - http://www.bohemiancoding.com/sketch -->
    <title>c3p-gamepad</title>
    <desc>Created with Sketch.</desc>
    <g id="Page-1" stroke="none" stroke-width="1" fill="none" fill-rule="evenodd">
        <g id="C3p-icon-pack" transform="translate(-1287.000000, -248.000000)" fill="#000000">
            <g id="Group" transform="translate(63.000000, 86.000000)">
                <g id="c3p-gamepad" transform="translate(1224.000000, 162.000000)">
                    <path d="M11.0832,8.13009231 L11.0832,6.65316923 L12.5601231,6.65316923 L12.5601231,8.13009231 L11.0832,8.13009231 Z M7.64669538,12.56448 L8.22491077,13.1426954 C8.50183385,13.4196185 8.50183385,13.8686031 8.22491077,14.1455262 C7.94798769,14.4224492 7.49937231,14.4224492 7.22244923,14.1455262 L6.64423385,13.5673108 L6.08226462,14.12928 C5.80534154,14.4062031 5.35635692,14.4062031 5.07943385,14.12928 C4.80288,13.8523569 4.80288,13.4033723 5.07943385,13.1264492 L5.64177231,12.56448 L5.07943385,12.0025108 C4.80288,11.7255877 4.80288,11.2762338 5.07943385,10.99968 C5.35635692,10.7227569 5.80534154,10.7227569 6.08226462,10.99968 L6.64423385,11.5616492 L7.20620308,10.99968 C7.48312615,10.7227569 7.93174154,10.7227569 8.20866462,10.99968 C8.48558769,11.2762338 8.48558769,11.7255877 8.20866462,12.0025108 L7.64669538,12.56448 Z M13.2985846,8.13009231 L13.2985846,6.65316923 L14.7755077,6.65316923 L14.7755077,8.13009231 L13.2985846,8.13009231 Z M11.0832,5.91470769 L11.0832,4.43778462 L12.5601231,4.43778462 L12.5601231,5.91470769 L11.0832,5.91470769 Z M13.2985846,5.91470769 L13.2985846,4.43778462 L14.7755077,4.43778462 L14.7755077,5.91470769 L13.2985846,5.91470769 Z M22.1530708,7.416 C22.3077785,5.41993846 17.7747323,3.74510769 14.8330708,2.27003077 C13.7202092,1.71212308 12.7546708,1.45661538 11.8821785,1.45661538 C10.4517785,1.45661538 9.27171692,2.14412308 8.09940923,3.31753846 C7.73682462,3.68123077 7.28673231,4.13132308 6.73510154,4.68369231 C5.94051692,5.47864615 5.26999385,6.14990769 4.70617846,6.71446154 C4.15417846,7.26683077 3.70408615,7.71729231 3.34150154,8.08024615 C1.45399385,9.9696 0.823716923,11.8785231 2.29510154,14.8209231 C3.74359385,17.7153231 5.38519385,22.1516308 7.33620923,22.1516308 C7.36944,22.1516308 7.40267077,22.1508923 7.43590154,22.1483077 C9.27467077,22.0039385 9.81707077,17.8781538 10.4325785,15.4231385 C10.70544,14.3372308 11.2784862,13.6774154 12.27504,12.6797538 C12.3448246,12.6103385 12.41424,12.5398154 12.4840246,12.4700308 C12.5545477,12.3991385 12.6247015,12.3297231 12.6937477,12.2603077 C13.6903015,11.2637538 14.3504862,10.6896 15.4349169,10.4156308 C17.8877169,9.80049231 22.00944,9.25698462 22.1530708,7.416 Z M17.18544,1.76676923 C20.4745477,3.30683077 23.8751631,4.89969231 23.6698708,7.54855385 C23.4667938,10.1597538 20.1123323,10.9000615 17.1529477,11.5528615 C16.6847631,11.6555077 16.2368862,11.7544615 15.8370092,11.8548923 C15.1391631,12.0313846 14.7060554,12.3762462 13.75824,13.3240615 L13.6511631,13.4307692 L13.5474092,13.5341538 L13.4676554,13.6146462 L13.3376862,13.7449846 C12.3913477,14.6931692 12.0457477,15.1262769 11.8707323,15.8230154 C11.7699323,16.2262154 11.6717169,16.6763077 11.5679631,17.1452308 C10.9151631,20.1060923 10.1755938,23.4620308 7.56845538,23.6665846 C7.49682462,23.6721231 7.42667077,23.6743385 7.35577846,23.6743385 C4.82950154,23.6743385 3.28611692,20.3723077 1.79294769,17.1784615 C1.51565538,16.5851077 1.25387077,16.0260923 0.999470769,15.5161846 C-0.641021538,12.2348308 -0.233390769,9.63138462 2.32131692,7.07483077 L3.69042462,5.70424615 L4.93030154,4.46289231 L5.72562462,3.66683077 L6.27393231,3.11815385 L7.09473231,2.29624615 C8.07910154,1.31187692 9.64870154,0.00332307692 11.9168862,0.00332307692 C13.0434092,0.00332307692 14.2245785,0.320492308 15.5279631,0.973292308 C16.0363938,1.22843077 16.59504,1.48947692 17.18544,1.76676923 Z" id="Shape"></path>
                </g>
            </g>
        </g>
    </g>
</svg>