<?xml version="1.0" encoding="UTF-8"?>
<svg width="24px" height="24px" viewBox="0 0 24 24" version="1.1" xmlns="http://www.w3.org/2000/svg" xmlns:xlink="http://www.w3.org/1999/xlink">
    <!-- Generator: Sketch 52.4 (67378) - http://www.bohemiancoding.com/sketch -->
    <title>c3p-vector</title>
    <desc>Created with Sketch.</desc>
    <defs>
        <path d="M11.0868923,7.27913846 L12.5638154,7.27913846 L12.5638154,5.80221538 L11.0868923,5.80221538 L11.0868923,7.27913846 Z M20.6868923,19.0945231 L22.1638154,19.0945231 L22.1638154,17.6176 L20.6868923,17.6176 L20.6868923,19.0945231 Z M1.48689231,19.0945231 L2.96381538,19.0945231 L2.96381538,17.6176 L1.48689231,17.6176 L1.48689231,19.0945231 Z M1.49316923,16.1037538 L1.49316923,16.1406769 L0.748430769,16.1406769 C0.3408,16.1406769 0.00996923077,16.4715077 0.00996923077,16.8791385 L0.00996923077,19.8329846 C0.00996923077,20.2409846 0.3408,20.5714462 0.748430769,20.5714462 L3.70227692,20.5714462 C4.11027692,20.5714462 4.44073846,20.2409846 4.44073846,19.8329846 L4.44073846,16.8791385 C4.44073846,16.4715077 4.11027692,16.1406769 3.70227692,16.1406769 L2.97009231,16.1406769 L2.97009231,16.1037538 C2.97009231,11.9857231 5.79618462,8.51901538 9.60996923,7.53316923 L9.60996923,8.0176 C9.60996923,8.4256 9.9408,8.75606154 10.3484308,8.75606154 L13.3022769,8.75606154 C13.7102769,8.75606154 14.0407385,8.4256 14.0407385,8.0176 L14.0407385,7.53316923 C17.8545231,8.51938462 20.6809846,11.9857231 20.6809846,16.1037538 L20.6809846,16.1406769 L19.9484308,16.1406769 C19.5408,16.1406769 19.2099692,16.4715077 19.2099692,16.8791385 L19.2099692,19.8329846 C19.2099692,20.2409846 19.5408,20.5714462 19.9484308,20.5714462 L22.9022769,20.5714462 C23.3102769,20.5714462 23.6407385,20.2409846 23.6407385,19.8329846 L23.6407385,16.8791385 C23.6407385,16.4715077 23.3102769,16.1406769 22.9022769,16.1406769 L22.1579077,16.1406769 L22.1579077,16.1037538 C22.1579077,12.3671385 20.1607385,9.09243077 17.1803077,7.27913846 L20.8918154,7.27913846 C21.1476923,7.71889231 21.6188308,8.0176 22.1638154,8.0176 C22.9794462,8.0176 23.6407385,7.35630769 23.6407385,6.54067692 C23.6407385,5.72504615 22.9794462,5.06375385 22.1638154,5.06375385 C21.6188308,5.06375385 21.1476923,5.36283077 20.8918154,5.80221538 L14.0407385,5.80221538 L14.0407385,5.06375385 C14.0407385,4.65612308 13.7102769,4.32529231 13.3022769,4.32529231 L10.3484308,4.32529231 C9.9408,4.32529231 9.60996923,4.65612308 9.60996923,5.06375385 L9.60996923,5.80221538 L2.75926154,5.80221538 C2.50301538,5.36283077 2.03224615,5.06375385 1.48689231,5.06375385 C0.671261538,5.06375385 0.00996923077,5.72504615 0.00996923077,6.54067692 C0.00996923077,7.35630769 0.671261538,8.0176 1.48689231,8.0176 C2.03224615,8.0176 2.50301538,7.71889231 2.75926154,7.27913846 L6.46966154,7.27913846 C3.4896,9.09243077 1.49316923,12.3671385 1.49316923,16.1037538 Z" id="path-1"></path>
    </defs>
    <g id="Page-1" stroke="none" stroke-width="1" fill="none" fill-rule="evenodd">
        <g id="C3p-icon-pack" transform="translate(-1059.000000, -309.000000)">
            <g id="Group" transform="translate(63.000000, 86.000000)">
                <g id="c3p-vector" transform="translate(996.000000, 223.000000)">
                    <mask id="mask-2" fill="white">
                        <use xlink:href="#path-1"></use>
                    </mask>
                    <use id="Mask" fill="#000000" xlink:href="#path-1"></use>
                </g>
            </g>
        </g>
    </g>
</svg>