<?xml version="1.0" encoding="UTF-8"?>
<svg width="24px" height="24px" viewBox="0 0 24 24" version="1.1" xmlns="http://www.w3.org/2000/svg" xmlns:xlink="http://www.w3.org/1999/xlink">
    <!-- Generator: Sketch 52.4 (67378) - http://www.bohemiancoding.com/sketch -->
    <title>c3p-hourglass</title>
    <desc>Created with Sketch.</desc>
    <defs>
        <path d="M11.6181375,11.4931875 C7.6138875,9.8488125 7.1357625,7.9940625 7.1357625,6.5540625 L7.1357625,1.5031875 L16.1241375,1.5031875 L16.1241375,6.5540625 C16.1241375,7.9940625 15.6231375,9.8488125 11.6181375,11.4931875 M16.1473875,18.3766875 C16.1473875,20.1654375 16.1391375,21.6646875 16.1335125,22.4829375 L7.1260125,22.4829375 C7.1203875,21.6646875 7.1121375,20.1654375 7.1121375,18.3766875 C7.1121375,16.2905625 7.8666375,14.6720625 11.6181375,13.1154375 C15.3711375,14.6720625 16.1473875,16.2905625 16.1473875,18.3766875 M17.6241375,6.5540625 L17.6241375,1.5031875 L19.1357625,1.5031875 C19.5501375,1.5031875 19.8857625,1.1679375 19.8857625,0.7531875 C19.8857625,0.3388125 19.5501375,0.0031875 19.1357625,0.0031875 L4.0798875,0.0031875 C3.6655125,0.0031875 3.3298875,0.3388125 3.3298875,0.7531875 C3.3298875,1.1679375 3.6655125,1.5031875 4.0798875,1.5031875 L5.6357625,1.5031875 L5.6357625,6.5540625 C5.6357625,9.0013125 6.9463875,10.8534375 9.7892625,12.3031875 C6.8383875,13.7986875 5.6121375,15.6358125 5.6121375,18.3766875 C5.6121375,20.1620625 5.6203875,21.6598125 5.6260125,22.4829375 L4.0798875,22.4829375 C3.6655125,22.4829375 3.3298875,22.8181875 3.3298875,23.2329375 C3.3298875,23.6473125 3.6655125,23.9829375 4.0798875,23.9829375 L19.1357625,23.9829375 C19.5501375,23.9829375 19.8857625,23.6473125 19.8857625,23.2329375 C19.8857625,22.8181875 19.5501375,22.4829375 19.1357625,22.4829375 L17.6335125,22.4829375 C17.6391375,21.6598125 17.6473875,20.1620625 17.6473875,18.3766875 C17.6473875,15.6358125 16.4042625,13.7986875 13.4485125,12.3031875 C16.2958875,10.8534375 17.6241375,9.0013125 17.6241375,6.5540625" id="path-1"></path>
    </defs>
    <g id="Page-1" stroke="none" stroke-width="1" fill="none" fill-rule="evenodd">
        <g id="C3p-icon-pack" transform="translate(-1287.000000, -356.000000)">
            <g id="Group" transform="translate(63.000000, 86.000000)">
                <g id="c3p-hourglass" transform="translate(1224.000000, 270.000000)">
                    <mask id="mask-2" fill="white">
                        <use xlink:href="#path-1"></use>
                    </mask>
                    <use id="Mask" fill="#000000" xlink:href="#path-1"></use>
                </g>
            </g>
        </g>
    </g>
</svg>